<?xml version="1.0" encoding="utf-8"?>
<!-- Generator: Adobe Illustrator 27.0.1, SVG Export Plug-In . SVG Version: 6.00 Build 0)  -->
<svg version="1.1" id="Capa_1" xmlns="http://www.w3.org/2000/svg" xmlns:xlink="http://www.w3.org/1999/xlink" x="0px" y="0px"
	 viewBox="0 0 500 500" style="enable-background:new 0 0 500 500;" xml:space="preserve">
<style type="text/css">
	.st0{fill:#0F1F2F;}
</style>
<g>
	<path class="st0" d="M107.9,328.28c3.86,0,7.73,3.09,7.73,7.73c0,3.87-3.09,7.74-7.73,7.74c-3.87,0-7.74-3.1-7.74-7.74
		C100.16,331.37,103.25,328.28,107.9,328.28z"/>
	<path class="st0" d="M387.04,328.28c3.86,0,7.73,3.09,7.73,7.73c0,3.87-3.09,7.74-7.73,7.74c-3.87,0-7.74-3.1-7.74-7.74
		C379.3,331.37,382.4,328.28,387.04,328.28z"/>
	<path class="st0" d="M356.88,410.24v0.78c-0.78,5.41-4.64,9.28-10.05,9.28h-0.77c-5.42-0.77-10.05-5.41-9.28-11.6l0,0
		c0.78-5.42,5.42-10.05,11.6-9.29C352.24,400.97,356.88,404.83,356.88,410.24z"/>
	<path class="st0" d="M250.17,373.13v0.78c-0.77,5.41-4.64,9.28-10.05,9.28h-0.77c-5.41-0.77-9.28-4.64-9.28-10.05v-0.77
		c0.77-5.42,5.41-10.05,11.6-9.28C246.3,363.08,250.17,367.72,250.17,373.13z"/>
	<path class="st0" d="M423.38,227.76c-3.86,0-6.96-2.32-8.5-5.41l-40.98-92.79c0-0.78,0-0.78-0.78-1.55
		c-2.32-8.51-10.83-14.69-20.1-14.69h-62.63c-11.6,0-20.88,9.29-20.88,20.88v83.51c0,5.41-4.64,10.05-10.05,10.05
		c-5.41,0-10.05-4.64-10.05-10.05v-83.51c0-22.42,17.78-40.21,40.21-40.21h62.63c17.78,0,33.25,11.6,38.66,28.62l40.21,91.24
		c2.32,4.64,0,10.83-4.64,12.37C426.47,226.99,424.93,227.76,423.38,227.76z"/>
	<path class="st0" d="M349.92,342.97H144.24c-5.41,0-10.05-4.64-10.05-10.05c0-5.42,4.64-10.05,9.28-10.05h206.46
		c5.41,0,10.05,4.64,10.05,10.05C359.97,339.11,355.33,342.97,349.92,342.97z"/>
	<path class="st0" d="M472.87,342.97h-48.71c-5.42,0-10.05-4.64-10.05-10.05c0-5.42,4.64-10.05,9.28-10.05h39.44v-61.86
		c0-19.33-15.47-34.8-34.8-34.8H211.51c-5.41,0-10.05-4.64-10.05-10.05c0-5.42,4.64-10.05,10.05-10.05h216.51
		c30.16,0,54.13,24.75,54.13,54.13v71.14C482.15,339.11,477.5,342.97,472.87,342.97z"/>
	<path class="st0" d="M70.78,342.97H46.04c-15.47,0-27.84-12.37-27.84-27.84v-97.42c0-5.42,4.64-10.05,10.05-10.05h28.61
		c5.41,0,10.05,4.64,10.05,10.05c0,5.41-4.64,10.05-10.05,10.05H37.53v88.15c0,4.64,3.86,8.51,8.51,8.51h24.74
		c5.41,0,10.05,4.64,10.05,10.05C80.06,339.11,76.19,342.97,70.78,342.97z"/>
	<path class="st0" d="M260.22,341.43c-5.41,0-10.05-4.65-10.05-10.05V217.71c0-5.42,4.64-10.05,10.05-10.05
		c5.42,0,10.05,4.64,10.05,10.05v113.66C270.28,336.78,265.64,341.43,260.22,341.43z"/>
	<path class="st0" d="M320.54,266.42h-19.33c-5.42,0-10.05-4.64-10.05-10.05c0-5.41,4.64-10.05,10.05-10.05h19.33
		c5.41,0,10.05,4.64,10.05,10.05C329.81,261.78,325.18,266.42,320.54,266.42z"/>
	<path class="st0" d="M221.56,266.42H28.25c-5.41,0-10.05-4.64-10.05-10.05c0-5.41,4.64-10.05,10.05-10.05h193.31
		c5.42,0,10.05,4.64,10.05,10.05C230.84,261.78,226.2,266.42,221.56,266.42z"/>
	<path class="st0" d="M211.51,382.41H37.53c-5.41,0-10.05-4.65-10.05-10.05c0-5.42,4.64-10.05,10.05-10.05h173.98
		c5.41,0,10.05,4.64,10.05,10.05C221.56,377.77,216.92,382.41,211.51,382.41z"/>
	<path class="st0" d="M472.87,382.41H269.5c-5.41,0-10.05-4.65-10.05-10.05c0-5.42,4.64-10.05,10.05-10.05h203.37
		c5.42,0,10.05,4.64,10.05,10.05C482.15,377.77,477.5,382.41,472.87,382.41z"/>
	<path class="st0" d="M318.22,421.07H37.53c-5.41,0-10.05-4.64-10.05-10.05c0-5.42,4.64-10.05,10.05-10.05h280.69
		c5.41,0,10.05,4.64,10.05,10.05C327.5,416.43,322.86,421.07,318.22,421.07z"/>
	<path class="st0" d="M472.87,421.07h-96.65c-5.42,0-10.05-4.64-10.05-10.05c0-5.42,4.64-10.05,10.05-10.05h96.65
		c5.42,0,10.05,4.64,10.05,10.05C482.15,416.43,477.5,421.07,472.87,421.07z"/>
	<path class="st0" d="M134.19,227.76H56.86c-5.41,0-10.05-4.64-10.05-10.05v-77.33c0-5.42,4.64-10.05,10.05-10.05h38.66
		c5.41,0,10.05,4.64,10.05,10.05c0,5.41-4.64,10.05-10.05,10.05H66.14v58h68.05c5.41,0,10.05,4.64,10.05,10.05
		C144.24,223.12,139.6,227.76,134.19,227.76z"/>
	<path class="st0" d="M56.86,227.76c-2.32,0-4.64-0.77-6.96-3.09c-3.86-3.87-3.86-10.05,0-13.92l77.32-77.32
		c3.87-3.87,10.05-3.87,13.92,0c3.87,3.86,3.87,10.05,0,13.92l-77.32,77.33C61.5,226.21,59.18,227.76,56.86,227.76z"/>
	<path class="st0" d="M134.19,227.76c-2.32,0-4.64-0.77-6.96-3.09L49.9,147.34c-3.86-3.87-3.86-10.05,0-13.92
		c3.87-3.87,10.05-3.87,13.92,0l77.32,77.32c3.87,3.87,3.87,10.05,0,13.92C138.82,226.21,136.5,227.76,134.19,227.76z"/>
	<path class="st0" d="M211.51,227.76h-77.32c-5.41,0-10.05-4.64-10.05-10.05v-77.33c0-5.42,4.64-10.05,10.05-10.05
		c5.41,0,10.05,4.64,10.05,10.05v68.04h58v-58h-29.38c-5.41,0-10.05-4.64-10.05-10.05c0-5.42,4.64-10.05,10.05-10.05h38.66
		c5.41,0,10.05,4.64,10.05,10.05v77.33C221.56,223.12,216.92,227.76,211.51,227.76z"/>
	<path class="st0" d="M134.19,227.76c-2.32,0-4.64-0.77-6.96-3.09c-3.86-3.87-3.86-10.05,0-13.92l77.33-77.32
		c3.86-3.87,10.05-3.87,13.92,0c3.86,3.86,3.86,10.05,0,13.92l-77.33,77.33C138.82,226.21,136.5,227.76,134.19,227.76z"/>
	<path class="st0" d="M211.51,227.76c-2.32,0-4.64-0.77-6.96-3.09l-77.33-77.33c-3.86-3.87-3.86-10.05,0-13.92
		c3.87-3.87,10.05-3.87,13.92,0l77.33,77.32c3.86,3.87,3.86,10.05,0,13.92C216.15,226.21,213.83,227.76,211.51,227.76z"/>
	<path class="st0" d="M172.85,150.43H95.52c-5.41,0-10.05-4.64-10.05-10.05V63.05c0-5.41,4.64-10.05,10.05-10.05h77.33
		c5.41,0,10.05,4.65,10.05,10.05v77.33C182.9,145.79,178.26,150.43,172.85,150.43z M105.57,131.11h58v-58h-58V131.11z"/>
	<path class="st0" d="M95.52,150.43c-2.32,0-4.64-0.77-6.96-3.09c-3.87-3.87-3.87-10.05,0-13.92l77.32-77.33
		c3.87-3.87,10.05-3.87,13.92,0c3.87,3.87,3.87,10.05,0,13.92l-77.32,77.33C100.16,148.89,97.84,150.43,95.52,150.43z"/>
	<path class="st0" d="M172.85,150.43c-2.32,0-4.64-0.77-6.96-3.09L88.56,70.01c-3.87-3.86-3.87-10.05,0-13.92
		c3.86-3.87,10.05-3.87,13.92,0l77.32,77.33c3.87,3.86,3.87,10.05,0,13.92C177.49,148.89,175.17,150.43,172.85,150.43z"/>
	<path class="st0" d="M387.04,382.41c-25.52,0-46.4-20.88-46.4-46.4c0-0.77,0-1.55,0-2.32c1.55-24.74,21.65-44.07,46.4-44.07
		c24.74,0,44.84,19.33,46.39,44.07c0,0.77,0,1.55,0,2.32C433.43,361.53,412.56,382.41,387.04,382.41z M387.04,308.95
		c-14.69,0-26.3,10.83-27.07,25.51c0,0.78,0,0.78,0,1.55c0,14.69,12.37,27.07,27.07,27.07c14.69,0,27.06-12.37,27.06-27.07
		c0-0.77,0-0.77,0-1.55C413.33,319.78,400.95,308.95,387.04,308.95z"/>
	<path class="st0" d="M107.12,382.41c-25.52,0-46.4-20.88-46.4-46.4c0-0.77,0-1.55,0-2.32c1.55-24.74,21.65-44.07,46.4-44.07
		c24.74,0,44.85,19.33,46.4,44.07c0,0.77,0,1.55,0,2.32C153.52,361.53,132.64,382.41,107.12,382.41z M107.12,308.95
		c-14.69,0-26.29,10.83-27.06,25.51c0,0.78,0,0.78,0,1.55c0,14.69,12.37,27.07,27.06,27.07c14.69,0,27.06-12.37,27.06-27.07
		c0-0.77,0-0.77,0-1.55C133.41,319.78,121.81,308.95,107.12,308.95z"/>
</g>
</svg>
