<?xml version="1.0" encoding="utf-8"?>
<!-- Generator: Adobe Illustrator 27.0.1, SVG Export Plug-In . SVG Version: 6.00 Build 0)  -->
<svg version="1.1" id="Capa_1" xmlns="http://www.w3.org/2000/svg" xmlns:xlink="http://www.w3.org/1999/xlink" x="0px" y="0px"
	 viewBox="0 0 500 500" style="enable-background:new 0 0 500 500;" xml:space="preserve">
<style type="text/css">
	.st0{fill:#77800D;}
	.st1{fill-rule:evenodd;clip-rule:evenodd;fill:#D9D6A8;}
	.st2{fill:#D9D6A8;}
</style>
<g>
	<circle class="st0" cx="250" cy="250" r="201.75"/>
	<g>
		<path class="st1" d="M346.7,246.57l-0.39-11h1.27c0.74,3.08,1.91,5.46,3.52,7.14c1.6,1.68,3.49,2.52,5.65,2.52
			c1.75,0,3.13-0.47,4.17-1.41c1.04-0.94,1.57-2.18,1.57-3.7c0-1.12-0.34-2.12-1.02-2.99c-0.69-0.88-1.9-1.81-3.63-2.83l-5.92-3.39
			c-2-1.16-3.46-2.4-4.37-3.74c-0.91-1.34-1.37-2.92-1.37-4.72c0-2.51,0.88-4.58,2.62-6.18c1.74-1.61,3.98-2.41,6.69-2.41
			c1.3,0,2.68,0.2,4.12,0.6c1.44,0.4,2.24,0.6,2.42,0.6c0.3,0,0.56-0.09,0.8-0.29c0.22-0.2,0.4-0.48,0.53-0.84h1.08l0.45,9.53h-1.26
			c-0.45-2.48-1.36-4.39-2.71-5.75c-1.34-1.37-2.99-2.06-4.94-2.06c-1.52,0-2.75,0.41-3.71,1.22c-0.95,0.81-1.43,1.84-1.43,3.11
			c0,1.12,0.36,2.13,1.08,3.03c0.71,0.91,1.89,1.8,3.51,2.69l5.83,3.15c2.01,1.09,3.51,2.35,4.47,3.76
			c0.97,1.42,1.44,3.07,1.44,4.95c0,2.71-0.91,4.95-2.72,6.71c-1.81,1.75-4.12,2.63-6.94,2.63c-1.35,0-2.92-0.23-4.73-0.7
			c-1.82-0.47-2.95-0.7-3.41-0.7c-0.48,0-0.83,0.09-1.09,0.24c-0.24,0.17-0.41,0.43-0.5,0.8H346.7L346.7,246.57z M287.45,246.18
			v-1.23c1.93-0.09,3.21-0.44,3.84-1.05c0.63-0.62,0.94-2.01,0.94-4.19v-32.89c0-2-0.22-3.22-0.66-3.67
			c-0.43-0.45-1.34-0.67-2.73-0.67h-1.08v-1.27c1.18-0.18,2.62-0.52,4.34-1.04c1.73-0.52,3.73-1.22,6.01-2.11V240
			c0,1.92,0.31,3.22,0.92,3.86c0.62,0.66,1.84,1.01,3.66,1.08v1.23H287.45L287.45,246.18z M266,246.18v-1.23
			c1.93-0.09,3.21-0.44,3.84-1.05c0.63-0.62,0.94-2.01,0.94-4.19v-32.89c0-2-0.22-3.22-0.66-3.67c-0.43-0.45-1.34-0.67-2.73-0.67
			h-1.08v-1.27c1.18-0.18,2.62-0.52,4.34-1.04c1.73-0.52,3.73-1.22,6.01-2.11V240c0,1.92,0.31,3.22,0.92,3.86
			c0.62,0.66,1.84,1.01,3.67,1.08v1.23H266L266,246.18z M249.16,202.05c0-1.04,0.36-1.92,1.07-2.63c0.71-0.72,1.6-1.08,2.67-1.08
			c1.03,0,1.91,0.37,2.63,1.09c0.72,0.73,1.09,1.6,1.09,2.62c0,1.04-0.37,1.92-1.09,2.66c-0.72,0.72-1.6,1.09-2.63,1.09
			c-1.05,0-1.92-0.36-2.64-1.09C249.53,203.98,249.16,203.1,249.16,202.05L249.16,202.05z M244.73,246.18l0.03-1.26
			c1.93-0.07,3.21-0.41,3.84-1.02c0.63-0.62,0.94-2.02,0.94-4.19v-17.18c0-2.04-0.21-3.27-0.65-3.7c-0.43-0.42-1.33-0.63-2.7-0.63
			h-1.09v-1.26c1.22-0.18,2.7-0.52,4.44-1.04c1.75-0.51,3.72-1.19,5.91-2.01v26.12c0,2,0.31,3.31,0.92,3.94
			c0.62,0.63,1.82,0.95,3.6,0.98v1.26H244.73L244.73,246.18z M186.38,246.18v-1.23c1.87-0.09,3.11-0.43,3.72-1.02
			c0.62-0.6,0.93-1.71,0.93-3.34v-16.99c0-2.23-0.25-3.64-0.78-4.21c-0.52-0.58-1.6-0.87-3.22-0.87h-0.66v-1.26
			c1.93-0.32,3.79-0.78,5.57-1.35c1.79-0.57,3.44-1.24,4.97-2.03v5.53c1.92-1.82,3.73-3.17,5.42-4.03c1.69-0.87,3.32-1.3,4.88-1.3
			c1.84,0,3.42,0.48,4.74,1.43c1.32,0.95,2.27,2.3,2.82,4.03c2.57-2.05,4.65-3.46,6.29-4.27c1.62-0.8,3.13-1.2,4.52-1.2
			c2.93,0,5.03,0.83,6.33,2.51c1.29,1.67,1.93,4.48,1.93,8.42v14.72c0,2.41,0.27,3.86,0.81,4.38c0.54,0.51,1.78,0.79,3.71,0.83v1.26
			h-15.38l0.03-1.26c2.1-0.07,3.46-0.32,4.07-0.78c0.61-0.45,0.91-1.58,0.91-3.35v-16.99c0-1.75-0.5-3.12-1.5-4.09
			c-1-0.97-2.38-1.44-4.16-1.44c-1.13,0-2.24,0.25-3.33,0.78c-1.1,0.52-2.32,1.39-3.67,2.6v18.76c0,1.93,0.3,3.17,0.9,3.71
			c0.59,0.54,1.87,0.81,3.82,0.81v1.26h-15.51l0.03-1.26c2.03-0.11,3.38-0.4,4.02-0.87c0.63-0.47,0.95-1.38,0.95-2.74v-17.32
			c0-1.82-0.47-3.22-1.4-4.22c-0.92-1-2.23-1.5-3.92-1.5c-1.16,0-2.32,0.28-3.51,0.84c-1.19,0.56-2.45,1.46-3.8,2.66v19.08
			c0,1.62,0.3,2.7,0.9,3.22c0.59,0.52,1.87,0.81,3.82,0.88v1.23H186.38L186.38,246.18z M111.95,247.12l-2.54-14.87h1.4
			c1.61,3.97,3.63,7.06,6.09,9.27c2.45,2.21,5.06,3.32,7.84,3.32c2.45,0,4.5-0.78,6.16-2.34c1.66-1.57,2.49-3.51,2.49-5.85
			c0-1.72-0.55-3.32-1.66-4.81c-1.11-1.48-2.82-2.9-5.14-4.24l-7.2-4.35c-3.1-1.82-5.33-3.7-6.68-5.62
			c-1.36-1.92-2.03-4.12-2.03-6.62c0-3.51,1.24-6.38,3.74-8.61c2.49-2.22,5.74-3.33,9.76-3.33c1.87,0,3.84,0.35,5.93,1.05
			c2.1,0.69,3.34,1.04,3.73,1.04c0.5,0,0.89-0.18,1.19-0.52c0.29-0.35,0.48-0.87,0.57-1.57h1.2l1.53,13.93h-1.4
			c-1.32-3.78-3.03-6.65-5.14-8.62c-2.1-1.98-4.5-2.97-7.19-2.97c-2.27,0-4.13,0.64-5.57,1.93c-1.44,1.3-2.16,2.95-2.16,5
			c0,1.59,0.5,3.02,1.5,4.33c1,1.3,2.7,2.67,5.11,4.13l8,4.71c3.28,1.98,5.57,3.92,6.88,5.83c1.31,1.91,1.97,4.19,1.97,6.83
			c0,3.98-1.34,7.14-4.02,9.52c-2.68,2.38-6.27,3.57-10.78,3.57c-2.1,0-4.27-0.3-6.51-0.91c-2.24-0.61-3.46-0.91-3.68-0.91
			c-0.62,0-1.12,0.13-1.5,0.42c-0.36,0.28-0.6,0.7-0.71,1.26H111.95L111.95,247.12z M328.56,242.5c-1.86,1.45-3.64,2.53-5.34,3.22
			c-1.69,0.7-3.32,1.04-4.91,1.04c-2.36,0-4.24-0.67-5.64-2c-1.4-1.33-2.1-3.13-2.1-5.38c0-2.82,1.26-5.2,3.75-7.14
			c2.51-1.95,7.19-4,14.04-6.17v-3.62c0-2.51-0.41-4.27-1.22-5.25c-0.81-0.99-2.22-1.48-4.24-1.48c-1.47,0-2.71,0.36-3.73,1.09
			c-1.02,0.73-1.53,1.59-1.53,2.59c0,0.09,0.04,0.38,0.14,0.88c0.09,0.5,0.13,0.93,0.13,1.3c0,0.82-0.29,1.51-0.87,2.05
			c-0.56,0.54-1.3,0.81-2.2,0.81c-0.93,0-1.69-0.29-2.26-0.88c-0.57-0.59-0.86-1.38-0.86-2.38c0-1.89,1.11-3.54,3.33-4.95
			c2.22-1.41,4.93-2.11,8.12-2.11c3.75,0,6.51,0.82,8.27,2.48c1.77,1.65,2.66,4.22,2.66,7.71v15.46c0,1.16,0.15,1.98,0.45,2.48
			c0.3,0.5,0.79,0.74,1.46,0.74c0.52,0,0.98-0.09,1.37-0.28c0.39-0.18,0.85-0.51,1.37-0.99l0.81,0.91
			c-0.96,1.32-2.03,2.34-3.22,3.05c-1.2,0.72-2.39,1.08-3.58,1.08c-1.09,0-1.97-0.33-2.64-1.01
			C329.45,245.09,328.93,244,328.56,242.5L328.56,242.5z M328.37,239.84v-11.97c-4.23,1.43-7.29,2.92-9.17,4.45
			c-1.89,1.54-2.83,3.32-2.83,5.34c0,1.66,0.52,3.06,1.57,4.17c1.03,1.12,2.34,1.68,3.9,1.68c1.28,0,2.52-0.33,3.73-1.01
			C326.76,241.83,327.69,240.95,328.37,239.84L328.37,239.84z M158.85,246.99c5.8,0.18,10.27-1.48,13.35-4.58
			c2.52-2.53,4.45-5.46,6.03-8.64c3.95-7.95,5.66-16.96,8.77-25.28c1.31-3.5,2.83-7.12,4.53-10.53c2.55-5.09,5.9-10.94,10.81-14.12
			c1.41-0.92,5.89,3.12,8.88,4.08c2.89,0.93,6.63-3.21,10.15-2.91c3.2,0.27,6.12,5.06,9.86,4.37c3.35-0.62,6.92-6.67,10.72-8.4
			c2.84-1.29,7.45-0.27,10.55-2.33c4.41-4.06,2.78-8.21,5.41-12.37c2.05-3.24,7.01-4.21,8.43-7.44c1.26-2.88-4.12-9.49-3.08-12.32
			c1.04-2.83,8.52-1.88,9.62-4.62c0.98-2.45-1.82-7.21-0.58-9.55c1.24-2.35,6.52-2.28,8.2-4.48c1.71-2.24,1.47-6.59,3.84-8.65
			c2.33-2.03,7.26-1.79,10.41-3.62c4.06-2.36,8.88-4.54,14.68-6.51c-3.73-0.86-9.12,0.14-12.99-0.49c-3.01-0.49-4.48-2.66-7.54-3
			c-2.72-0.31-5.28,2.77-8.02,2.59c-2.74-0.19-5.67-3.63-8.41-3.69c-2.45-0.05-3.94,3.63-6.38,3.68c-2.44,0.05-5.84-3.53-8.25-3.37
			c-2.29,0.15-2.83,4.4-5.09,4.65c-2.91,0.32-7.54-3.32-10.37-2.83c-2.74,0.48-2.83,4.9-5.47,5.54c-2.64,0.64-7.82-2.5-10.34-1.69
			c-3.22,1.04-2.89,5.9-5.87,7.22c-2.32,1.03-8-1.54-10.16-0.33c-1.75,0.98-4.35,7.7-5.97,8.81c-4,2.72-6.57,0.4-9.45,4.17
			c-1.26,1.65,2.43,4.47,1.4,6.27c-1.32,2.3-7.27,3.62-8.19,6.1c-1.08,2.92,3.39,5.71,2.91,8.74c-0.37,2.38-5.81,5.02-5.78,7.4
			c0.02,2.38,0.25,4.74,0.68,7.06c1.2,6.45,3.77,11.93,10.51,7.42c0.51-0.34,0.97-1.06,1.4-1.93c2.49-4.93,6.12-8.49,9.61-12.65
			c0.48-10.05,2.66-17.06-1.71-26.39c7.35,10.03,9.26,9.98,5.08,22.39c3.3-3.73,6.67-6.72,10.21-9.47
			c2.32-7.31,4.98-12.53,3.34-20.54c3.71,8.9,5.38,10.02,1.22,17.19c5.06-3.58,10.17-7.54,15.64-10.5
			c2.25-4.83,3.82-7.37,3.57-13.84c1.76,7.4,3.93,7.49,0.52,11.8c7.55-3.54,16.84-6.82,20.88-8.45
			c-5.73,4.45-10.88,8.07-15.61,11.24c4.5-0.36,3.86,1.61,8.96,6.66c-5.14-3.4-8.09-3.55-12.91-4.05
			c-4.94,3.23-9.43,6.04-13.69,8.93c7.24-2.14,8.16-0.23,15.78,5.18c-7.65-3.44-13.43-1.83-21.37-1.2
			c-3.64,2.73-7.17,5.71-10.74,9.27c12.09-0.94,12.45,1.52,20.37,10.62c-7.34-5.69-14.51-6.19-23.25-7.62
			c-4.56,4.94-9.91,10.24-14.07,16.11c-1.52,2.15-3.08,4.33-4.6,6.54c-4.81,6.99-8.79,14.09-11.77,22.04
			c-2.26,6.06-4.3,12.23-6.29,18.39c-0.92,2.86-1.78,5.52-2.71,7.89c-1.93,4.88-4.22,8.52-8.19,10.03c-1.31,0.49-2.8,0.76-4.52,0.76
			c-3.43,0-6.18-1.32-8.25-3.96c-2.07-2.64-3.11-6.19-3.11-10.64v-0.72h21.61c-0.23-3.86-1.43-6.89-3.58-9.1
			c-2.15-2.2-4.99-3.3-8.49-3.3c-4.34,0-7.85,1.59-10.55,4.75c-2.69,3.16-4.03,7.33-4.03,12.48c0,4.69,1.24,8.49,3.74,11.39
			C151.65,245.54,154.89,246.87,158.85,246.99L158.85,246.99z M150.69,224.44c0.28-2.64,1.13-4.7,2.52-6.15
			c1.4-1.45,3.21-2.18,5.44-2.18c1.95,0,3.57,0.68,4.84,2.03c1.27,1.35,1.9,3.05,1.9,5.1c0,0.5-0.09,0.82-0.25,0.96
			c-0.18,0.16-0.69,0.24-1.53,0.24L150.69,224.44z"/>
		<path class="st1" d="M112.2,262.2c6.46,0,13.66-0.19,21.59-0.58c7.94-0.36,12.69-0.55,14.23-0.55c8.32,0,14.61,1.79,18.93,5.36
			c4.29,3.57,6.42,8.82,6.42,15.71c0,6.78-2.11,12.8-6.34,18.08c-4.26,5.27-10.47,9.64-18.68,13.08l23.57,32.85
			c3.93,5.41,7.53,9.94,10.82,13.57c3.3,3.6,6.26,6.35,8.9,8.16h-15.6c-2.09,0-3.71-0.27-4.81-0.85c-1.1-0.55-2.25-1.7-3.49-3.4
			L139.59,324c-2.06-2.91-3.95-4.81-5.71-5.71c-1.78-0.91-4.07-1.38-6.84-1.38h-1.29v10.06c0,16.15,0.3,26.59,0.94,31.29
			c0.61,4.7,1.65,7.89,3.16,9.61h-22.36c1.51-1.62,2.56-5.3,3.16-11.1c0.63-5.8,0.93-18.21,0.93-37.19v-6.76
			c0-20.71-0.3-33.93-0.93-39.64c-0.6-5.71-1.65-9.37-3.16-10.99H112.2L112.2,262.2z M125.74,310.49c0.97,0.19,2.01,0.36,3.13,0.46
			c1.12,0.11,2.39,0.17,3.79,0.17c7.99,0,14.12-2.09,18.43-6.29c4.28-4.18,6.43-10.17,6.43-17.94c0-6.49-1.65-11.32-4.92-14.48
			c-3.27-3.16-8.24-4.75-14.97-4.75c-2.61,0-4.67,0.03-6.15,0.11c-1.46,0.08-2.88,0.22-4.2,0.38c-0.55,2.36-0.93,6.1-1.18,11.21
			c-0.25,5.14-0.36,12.39-0.36,21.79v1.76V310.49L125.74,310.49z M212.74,302.91v3.95h4.42c9.89,0,17.44-1.92,22.66-5.8
			c5.25-3.87,7.86-9.39,7.86-16.57c0-5.49-2.01-9.62-5.99-12.36c-4.01-2.77-9.97-4.15-17.91-4.15c-1.45,0-2.97,0.03-4.56,0.11
			c-1.6,0.08-3.24,0.22-4.95,0.38c-0.55,2.31-0.93,6.01-1.18,11.1c-0.25,5.11-0.36,12.39-0.36,21.89V302.91L212.74,302.91z
			 M212.74,312.99v20.27c0,6.02,0.14,11.4,0.41,16.12c0.25,4.75,0.58,7.8,0.96,9.15c0.36,1.35,1.7,2.39,4.01,3.13
			c2.31,0.74,5.36,1.12,9.09,1.12c7.8,0,13.82-2.2,18.13-6.59c4.29-4.39,6.43-10.58,6.43-18.52c0-7.83-2.47-13.9-7.45-18.21
			c-4.97-4.31-12.03-6.48-21.21-6.48H212.74L212.74,312.99z M205.65,367.87h-11.18c1.51-1.62,2.55-5.3,3.16-11.1
			c0.63-5.8,0.93-18.19,0.93-37.19v-6.76c0-20.71-0.3-33.93-0.93-39.64c-0.61-5.71-1.65-9.37-3.16-10.99h13.84
			c3.6,0,8.71-0.19,15.33-0.58c6.62-0.36,11.48-0.55,14.53-0.55c8.05,0,14.28,1.73,18.71,5.22c4.43,3.49,6.65,8.41,6.65,14.75
			c0,5.93-2.17,11.18-6.48,15.71c-4.31,4.53-10.69,8.27-19.12,11.15c9.84,1.12,17.42,4.17,22.77,9.15
			c5.36,4.95,8.05,11.4,8.05,19.34c0,9.67-3.62,17.5-10.91,23.46c-7.28,5.99-16.98,8.98-29.09,8.98c-2.97,0-7.01-0.17-12.11-0.49
			C211.5,368.04,207.85,367.87,205.65,367.87L205.65,367.87z M363.14,262.2l-0.96,22.64c-2.36-5.74-5.66-10.05-9.89-12.97
			c-4.26-2.89-9.39-4.34-15.46-4.34c-11.79,0-21.04,3.9-27.77,11.67c-6.73,7.78-10.11,18.52-10.11,32.2
			c0,14.09,3.68,25.33,11.07,33.71c7.36,8.38,17.23,12.55,29.56,12.55c5.85,0,11.32-1.13,16.37-3.38c5.08-2.25,9.45-5.49,13.16-9.67
			c-1.92,7.66-6.26,13.79-12.99,18.38c-6.73,4.59-14.83,6.89-24.26,6.89c-14.4,0-26.18-5.03-35.41-15.05
			c-9.23-10.03-13.84-22.94-13.84-38.71c0-17.44,4.97-31.1,14.89-41.01c9.92-9.89,23.62-14.84,41.12-14.84
			c2.72,0,6.81,0.33,12.25,0.96C356.33,261.9,360.39,262.2,363.14,262.2z"/>
		<g>
			<path class="st1" d="M383.53,261.06L383.53,261.06L383.53,261.06c3.67,0.01,7,1.5,9.41,3.9c2.4,2.4,3.89,5.72,3.89,9.39h0v0.01
				v0.01h0c0,3.67-1.49,6.99-3.9,9.4c-2.4,2.4-5.72,3.89-9.39,3.89v0.01h-0.01h0v-0.01c-3.67,0-6.99-1.49-9.4-3.9
				c-2.4-2.4-3.89-5.72-3.89-9.39h0v-0.01v0h0c0-3.67,1.49-6.99,3.89-9.4h0C376.53,262.56,379.85,261.07,383.53,261.06
				L383.53,261.06L383.53,261.06L383.53,261.06z M383.54,263.46L383.54,263.46L383.54,263.46L383.54,263.46L383.54,263.46
				c-3.01,0-5.74,1.22-7.71,3.2h0c-1.97,1.97-3.2,4.7-3.2,7.7h0v0v0.01h0c0,3.01,1.22,5.73,3.2,7.71c1.97,1.97,4.7,3.19,7.71,3.19v0
				h0h0.01v0c3.01,0,5.73-1.22,7.71-3.2c1.97-1.97,3.19-4.7,3.19-7.7h0v-0.01v-0.01h0c0-3.01-1.22-5.73-3.2-7.71
				C389.27,264.68,386.54,263.46,383.54,263.46z"/>
			<path class="st1" d="M378.42,280.86v-12.98h5.52c1.39,0,2.39,0.12,3.02,0.35c0.63,0.23,1.13,0.65,1.51,1.24
				c0.38,0.6,0.56,1.28,0.56,2.04c0,0.97-0.29,1.78-0.86,2.41c-0.57,0.63-1.43,1.03-2.57,1.2c0.57,0.33,1.04,0.7,1.4,1.09
				c0.37,0.4,0.86,1.1,1.49,2.11l1.59,2.53h-3.13l-1.89-2.82c-0.67-1.01-1.13-1.64-1.38-1.91c-0.25-0.26-0.51-0.44-0.79-0.54
				c-0.28-0.1-0.72-0.15-1.32-0.15h-0.53v5.42H378.42L378.42,280.86z M381.04,273.37h1.94c1.26,0,2.04-0.05,2.36-0.16
				c0.31-0.11,0.56-0.29,0.74-0.55c0.17-0.26,0.27-0.58,0.27-0.97c0-0.44-0.12-0.79-0.35-1.06c-0.23-0.27-0.56-0.44-0.99-0.51
				c-0.21-0.03-0.85-0.04-1.91-0.04h-2.04V273.37z"/>
		</g>
		<g>
			<path class="st2" d="M298.69,389l2.41-0.21c0.11,0.97,0.38,1.76,0.8,2.37c0.42,0.62,1.06,1.12,1.94,1.5
				c0.88,0.38,1.87,0.57,2.96,0.57c0.97,0,1.83-0.14,2.58-0.43c0.75-0.29,1.3-0.69,1.66-1.19c0.36-0.5,0.55-1.06,0.55-1.65
				c0-0.61-0.18-1.13-0.53-1.58c-0.35-0.45-0.93-0.83-1.74-1.14c-0.52-0.2-1.66-0.52-3.43-0.94c-1.77-0.43-3.01-0.83-3.72-1.2
				c-0.92-0.48-1.61-1.08-2.06-1.8c-0.45-0.71-0.68-1.51-0.68-2.4c0-0.97,0.28-1.88,0.83-2.73c0.55-0.85,1.36-1.49,2.42-1.93
				c1.06-0.44,2.24-0.66,3.54-0.66c1.43,0,2.69,0.23,3.78,0.69c1.09,0.46,1.93,1.14,2.52,2.03c0.59,0.89,0.9,1.91,0.95,3.04
				l-2.45,0.18c-0.13-1.22-0.58-2.14-1.33-2.76c-0.76-0.62-1.88-0.93-3.36-0.93c-1.54,0-2.67,0.28-3.37,0.85
				c-0.71,0.57-1.06,1.25-1.06,2.05c0,0.69,0.25,1.26,0.75,1.71c0.49,0.45,1.77,0.91,3.85,1.37c2.07,0.47,3.5,0.88,4.27,1.23
				c1.12,0.52,1.95,1.17,2.49,1.97c0.53,0.79,0.8,1.71,0.8,2.74c0,1.03-0.29,1.99-0.88,2.9c-0.59,0.91-1.43,1.61-2.53,2.12
				c-1.1,0.5-2.34,0.76-3.72,0.76c-1.75,0-3.21-0.25-4.39-0.76c-1.18-0.51-2.11-1.27-2.78-2.3
				C299.08,391.44,298.72,390.29,298.69,389z"/>
			<path class="st2" d="M317.9,395.19v-2.7h2.7v2.7H317.9z"/>
			<path class="st2" d="M322.89,395.19l7.41-19.29h2.75l7.89,19.29h-2.91l-2.25-5.84h-8.06l-2.12,5.84H322.89z M328.46,387.27H335
				l-2.01-5.34c-0.61-1.62-1.07-2.96-1.37-4c-0.25,1.24-0.59,2.46-1.04,3.68L328.46,387.27z"/>
			<path class="st2" d="M343.35,395.19v-2.7h2.7v2.7H343.35z"/>
			<path class="st2" d="M349.6,389l2.41-0.21c0.11,0.97,0.38,1.76,0.8,2.37c0.42,0.62,1.06,1.12,1.94,1.5
				c0.88,0.38,1.87,0.57,2.96,0.57c0.97,0,1.83-0.14,2.58-0.43c0.75-0.29,1.3-0.69,1.66-1.19c0.36-0.5,0.55-1.06,0.55-1.65
				c0-0.61-0.18-1.13-0.53-1.58c-0.35-0.45-0.93-0.83-1.74-1.14c-0.52-0.2-1.66-0.52-3.43-0.94c-1.77-0.43-3.01-0.83-3.72-1.2
				c-0.92-0.48-1.61-1.08-2.06-1.8c-0.45-0.71-0.68-1.51-0.68-2.4c0-0.97,0.28-1.88,0.83-2.73c0.55-0.85,1.36-1.49,2.42-1.93
				c1.06-0.44,2.24-0.66,3.54-0.66c1.43,0,2.69,0.23,3.78,0.69c1.09,0.46,1.93,1.14,2.52,2.03c0.59,0.89,0.9,1.91,0.95,3.04
				l-2.45,0.18c-0.13-1.22-0.58-2.14-1.33-2.76c-0.76-0.62-1.88-0.93-3.36-0.93c-1.54,0-2.67,0.28-3.37,0.85
				c-0.71,0.57-1.06,1.25-1.06,2.05c0,0.69,0.25,1.26,0.75,1.71c0.49,0.45,1.77,0.91,3.85,1.37c2.07,0.47,3.5,0.88,4.27,1.23
				c1.12,0.52,1.95,1.17,2.49,1.97c0.53,0.79,0.8,1.71,0.8,2.74c0,1.03-0.29,1.99-0.88,2.9c-0.59,0.91-1.43,1.61-2.53,2.12
				c-1.1,0.5-2.34,0.76-3.72,0.76c-1.75,0-3.21-0.25-4.39-0.76c-1.18-0.51-2.11-1.27-2.78-2.3
				C349.99,391.44,349.64,390.29,349.6,389z"/>
		</g>
	</g>
</g>
</svg>
