<?xml version="1.0" encoding="utf-8"?>
<!-- Generator: Adobe Illustrator 27.0.1, SVG Export Plug-In . SVG Version: 6.00 Build 0)  -->
<svg version="1.1" id="Capa_1" xmlns="http://www.w3.org/2000/svg" xmlns:xlink="http://www.w3.org/1999/xlink" x="0px" y="0px"
	 viewBox="0 0 500 500" style="enable-background:new 0 0 500 500;" xml:space="preserve">
<style type="text/css">
	.st0{fill-rule:evenodd;clip-rule:evenodd;fill:#77800D;}
	.st1{fill-rule:evenodd;clip-rule:evenodd;fill:#90B547;}
	.st2{fill-rule:evenodd;clip-rule:evenodd;fill:#E6E1B8;}
	.st3{fill-rule:evenodd;clip-rule:evenodd;fill:#E2CF01;}
	.st4{fill:#02160F;}
	.st5{font-family:'FrutigerLTStd-Bold';}
	.st6{font-size:70.0441px;}
	.st7{fill:#012319;}
	.st8{font-size:61.3965px;}
	.st9{fill-rule:evenodd;clip-rule:evenodd;fill:#808B2D;}
	.st10{fill-rule:evenodd;clip-rule:evenodd;fill:#02160F;}
</style>
<g>
	<g>
		<path class="st0" d="M377.01,109.58c3.81-0.07,6.86,1.15,9.55,3.84c2.69,2.7,3.92,5.74,3.84,9.56l-0.01,0.39
			c-0.3,14.91,9.14,27.91,23.42,32.22l0.37,0.11c3.64,1.1,6.16,3.21,7.89,6.61c1.73,3.4,1.95,6.67,0.7,10.28l-0.13,0.36
			c-4.87,14.07,0.09,29.38,12.32,37.88l0.32,0.22c3.12,2.16,4.86,4.97,5.46,8.72c0.59,3.76-0.2,6.95-2.5,9.99l-0.24,0.31
			c-9.03,11.89-9.03,27.95,0,39.84l0.24,0.31c2.3,3.03,3.09,6.22,2.5,9.98c-0.6,3.75-2.34,6.55-5.46,8.72l-0.32,0.22
			c-12.24,8.5-17.21,23.82-12.31,37.89l0.13,0.37c1.25,3.6,1.02,6.88-0.71,10.27c-1.73,3.4-4.26,5.5-7.91,6.61l-0.37,0.12
			c-14.26,4.34-23.7,17.31-23.4,32.22l0.01,0.39c0.08,3.81-1.15,6.86-3.84,9.55c-2.7,2.7-5.74,3.92-9.55,3.84l-0.39-0.01
			c-14.91-0.3-27.91,9.14-32.22,23.42l-0.11,0.37c-1.1,3.64-3.22,6.16-6.61,7.89c-3.4,1.73-6.68,1.95-10.28,0.71l-0.37-0.13
			c-14.07-4.87-29.38,0.08-37.88,12.32l-0.22,0.32c-2.17,3.12-4.97,4.86-8.72,5.46c-3.76,0.59-6.95-0.2-9.98-2.5l-0.31-0.23
			c-11.89-9.03-27.95-9.03-39.84,0l-0.31,0.23c-3.03,2.3-6.22,3.09-9.98,2.5c-3.75-0.6-6.55-2.34-8.72-5.46l-0.22-0.32
			c-8.5-12.23-23.82-17.21-37.89-12.31l-0.37,0.13c-3.6,1.25-6.88,1.02-10.27-0.71c-3.4-1.73-5.5-4.26-6.61-7.91l-0.11-0.37
			c-4.34-14.26-17.31-23.7-32.22-23.4l-0.39,0.01c-3.81,0.07-6.86-1.15-9.55-3.85c-2.69-2.7-3.92-5.74-3.84-9.55l0.01-0.39
			c0.3-14.91-9.14-27.91-23.42-32.23l-0.37-0.11c-3.64-1.1-6.16-3.21-7.89-6.61c-1.73-3.4-1.95-6.67-0.7-10.27l0.13-0.37
			c4.88-14.07-0.08-29.38-12.32-37.88l-0.32-0.22c-3.12-2.16-4.87-4.97-5.46-8.72c-0.59-3.76,0.2-6.95,2.5-9.98l0.24-0.31
			c9.03-11.89,9.03-27.95,0-39.84l-0.24-0.31c-2.3-3.03-3.09-6.22-2.5-9.99c0.59-3.75,2.34-6.55,5.46-8.72l0.32-0.22
			c12.23-8.5,17.2-23.82,12.31-37.89l-0.13-0.37c-1.25-3.6-1.02-6.88,0.71-10.27c1.73-3.4,4.26-5.5,7.91-6.61l0.37-0.11
			c14.26-4.34,23.7-17.31,23.4-32.22l-0.01-0.39c-0.07-3.81,1.15-6.86,3.84-9.55c2.7-2.69,5.74-3.92,9.55-3.84l0.39,0.01
			c14.91,0.3,27.91-9.14,32.23-23.42l0.11-0.37c1.1-3.64,3.21-6.17,6.6-7.89c3.4-1.73,6.68-1.95,10.28-0.71l0.37,0.13
			c14.07,4.87,29.38-0.08,37.88-12.32l0.22-0.32c2.17-3.12,4.97-4.87,8.72-5.46c3.76-0.6,6.95,0.2,9.98,2.5l0.31,0.24
			c11.89,9.03,27.95,9.03,39.84,0l0.31-0.24c3.04-2.3,6.22-3.09,9.98-2.5c3.75,0.59,6.55,2.34,8.72,5.46l0.22,0.32
			c8.5,12.23,23.82,17.21,37.89,12.32l0.37-0.13c3.6-1.25,6.88-1.02,10.27,0.71c3.4,1.73,5.5,4.26,6.61,7.91l0.11,0.37
			c4.34,14.26,17.31,23.7,32.22,23.4L377.01,109.58z"/>
	</g>
	<g>
		<polygon class="st1" points="7.65,299.97 35.69,386.94 464.31,386.94 492.35,299.97 		"/>
	</g>
	<g>
		<path class="st2" d="M362.18,137.81c-61.96-61.96-162.42-61.96-224.38,0c-61.96,61.96-61.96,162.42,0,224.38
			c61.96,61.96,162.42,61.96,224.38,0C424.14,300.23,424.14,199.77,362.18,137.81z"/>
	</g>
	<g>
		<polygon class="st3" points="42.24,284.2 70.28,371.18 429.71,371.18 457.75,284.2 		"/>
	</g>
	<text transform="matrix(1 0 0 1 103.3393 349.881)" class="st4 st5 st6">CALIDAD</text>
	<g>
		<text transform="matrix(1 0 0 1 168.8915 175.694)" class="st7 st5 st8">100%</text>
	</g>
	<g>
		<g>
			<path class="st9" d="M249,290.56c1.65-17.9,0.35-41.76-23.11-58.96c-17.17-12.58-30.32-10.84-51.93-8.4
				c-0.82,10.86-0.49,36.47,16.41,54.03c12.97,13.47,38.93,19.86,56.94,14.76l1.51-0.3L249,290.56z"/>
		</g>
		<g>
			<path class="st10" d="M248.77,291.29c-1.21-8.88-4.63-21.07-18.7-32.12c-10.3-8.08-16.88-8.52-27.74-9.45
				c0.83,5.41,3.95,18.39,14.68,28.95c8.24,8.11,22.36,13.94,31.06,13.17l0.74,0L248.77,291.29z"/>
		</g>
		<g>
			<path class="st9" d="M241.95,291.33c-5.69-22.4-8.85-52.98,17.49-79.55c19.27-19.43,36.34-19.87,64.27-21.12
				c3.22,13.63,7.96,46.23-9.97,71.93c-13.77,19.72-45.45,33.06-69.36,30.21l-1.97-0.09L241.95,291.33z"/>
		</g>
		<g>
			<path class="st10" d="M242.39,292.19c-0.25-11.53,1.64-27.7,17.3-44.56c11.46-12.34,19.73-14.22,33.34-17.58
				c0.03,7.04-1.32,24.15-12.83,39.73c-8.84,11.96-25.6,22.2-36.8,22.97l-0.94,0.15L242.39,292.19z"/>
		</g>
	</g>
</g>
</svg>
