<?xml version="1.0" encoding="utf-8"?>
<!-- Generator: Adobe Illustrator 27.0.1, SVG Export Plug-In . SVG Version: 6.00 Build 0)  -->
<svg version="1.1" id="Capa_1" xmlns="http://www.w3.org/2000/svg" xmlns:xlink="http://www.w3.org/1999/xlink" x="0px" y="0px"
	 viewBox="0 0 500 500" style="enable-background:new 0 0 500 500;" xml:space="preserve">
<style type="text/css">
	.st0{fill:#012319;}
</style>
<g>
	<g>
		<path class="st0" d="M347.92,294.23l-28.83-8.04c-7.79-2.17-16.14,0.02-21.85,5.74l-2.86,2.86c-7.22,7.22-18.36,8.64-27.18,3.49
			c-8.85-5.17-20.51-13.31-32.71-25.51c-12.2-12.2-20.34-23.86-25.51-32.71c-5.15-8.81-3.73-19.96,3.49-27.18l2.86-2.86
			c5.72-5.72,7.91-14.07,5.74-21.85l-8.04-28.83c-2.64-9.48-11.16-16.12-20.99-16.38l0,0c-6.14-0.16-12.08,2.21-16.42,6.55
			l-13.64,13.64c-3.73,3.73-6.01,8.62-6.48,13.87c-1.72,19.07,0.64,66.94,54.22,120.52s101.46,55.93,120.52,54.22
			c5.26-0.47,10.14-2.75,13.87-6.48l13.64-13.64c4.34-4.34,6.71-10.28,6.55-16.42l0,0C364.04,305.39,357.4,296.88,347.92,294.23z"/>
	</g>
	<g>
		<path class="st0" d="M252,462.97c-38.96,0-76.85-10.68-109.96-30.95l-76.38,19.1c-4.43,1.1-9.11-0.2-12.32-3.45
			c-3.21-3.24-4.48-7.94-3.33-12.35l19.95-76.67c-18.96-32.31-28.96-69.07-28.96-106.69c0-116.35,94.66-211.01,211.01-211.01
			s211,94.66,211,211.01C463,368.31,368.35,462.97,252,462.97z M144.26,405.21c2.48,0,4.93,0.71,7.05,2.09
			c30.02,19.51,64.84,29.82,100.69,29.82c102.09,0,185.14-83.06,185.14-185.15c0-102.09-83.06-185.15-185.14-185.15
			c-102.09,0-185.15,83.06-185.15,185.15c0,34.66,9.67,68.49,27.97,97.82c1.88,3.01,2.44,6.66,1.54,10.1l-15.84,60.87l60.6-15.15
			C142.16,405.33,143.21,405.21,144.26,405.21z"/>
	</g>
</g>
</svg>
