<?xml version="1.0" encoding="utf-8"?>
<!-- Generator: Adobe Illustrator 27.0.1, SVG Export Plug-In . SVG Version: 6.00 Build 0)  -->
<svg version="1.1" id="Capa_1" xmlns="http://www.w3.org/2000/svg" xmlns:xlink="http://www.w3.org/1999/xlink" x="0px" y="0px"
	 viewBox="0 0 500 500" style="enable-background:new 0 0 500 500;" xml:space="preserve">
<style type="text/css">
	.st0{fill:#77800D;}
	.st1{fill:#FFFFFF;}
</style>
<g>
	<path class="st0" d="M477.97,251.98c0-127.03-102.97-230-230-230s-230,102.97-230,230c0,114.8,84.11,209.95,194.06,227.2V318.47
		h-58.4v-66.48h58.4v-50.67c0-57.64,34.34-89.48,86.87-89.48c25.16,0,51.49,4.49,51.49,4.49v56.6h-29
		c-28.57,0-37.48,17.73-37.48,35.92v43.14h63.79l-10.2,66.48h-53.59v160.72C393.87,461.93,477.97,366.78,477.97,251.98z"/>
	<path class="st1" d="M337.5,318.47l10.2-66.48h-63.79v-43.14c0-18.19,8.91-35.92,37.48-35.92h29v-56.6c0,0-26.32-4.49-51.49-4.49
		c-52.54,0-86.87,31.84-86.87,89.48v50.67h-58.4v66.48h58.4v160.72c11.71,1.84,23.71,2.8,35.94,2.8s24.23-0.96,35.94-2.8V318.47
		H337.5z"/>
</g>
</svg>
