<?xml version="1.0" encoding="utf-8"?>
<!-- Generator: Adobe Illustrator 27.9.4, SVG Export Plug-In . SVG Version: 9.03 Build 54784)  -->
<svg version="1.1" id="Capa_1" xmlns="http://www.w3.org/2000/svg" xmlns:xlink="http://www.w3.org/1999/xlink" x="0px" y="0px"
	 viewBox="0 0 350 350" style="enable-background:new 0 0 350 350;" xml:space="preserve">
<style type="text/css">
	.st0{fill-rule:evenodd;clip-rule:evenodd;fill:#E47C2C;}
	.st1{fill:#E47C2C;}
</style>
<g>
	<g>
		<g>
			<path class="st0" d="M157.6,175.5v73.4c0,1.1,0.9,1.9,1.9,1.9h27.3c1.1,0,1.9-0.9,1.9-1.9v-74.6h19.8c1,0,1.8-0.8,1.9-1.8
				l1.9-22.5c0.1-1.1-0.8-2.1-1.9-2.1h-21.7V132c0-3.7,3-6.8,6.8-6.8h15.2c1.1,0,1.9-0.9,1.9-1.9v-22.5c0-1.1-0.9-1.9-1.9-1.9h-25.7
				c-15.1,0-27.3,12.2-27.3,27.3V148h-13.6c-1.1,0-1.9,0.9-1.9,1.9v22.5c0,1.1,0.9,1.9,1.9,1.9h13.6V175.5z"/>
		</g>
		<path class="st1" d="M177.3,24.9c-82.7,0-150,67.3-150,150c0,82.7,67.3,150,150,150c82.7,0,150-67.3,150-150
			C327.3,92.2,260,24.9,177.3,24.9z M308,174.9c0,72.1-58.7,130.8-130.8,130.8c-72.1,0-130.8-58.7-130.8-130.8
			c0-72.1,58.7-130.8,130.8-130.8C249.4,44.1,308,102.8,308,174.9z"/>
	</g>
</g>
</svg>
