<?xml version="1.0" encoding="utf-8"?>
<!-- Generator: Adobe Illustrator 27.0.1, SVG Export Plug-In . SVG Version: 6.00 Build 0)  -->
<svg version="1.1" id="Capa_1" xmlns="http://www.w3.org/2000/svg" xmlns:xlink="http://www.w3.org/1999/xlink" x="0px" y="0px"
	 viewBox="0 0 500 500" style="enable-background:new 0 0 500 500;" xml:space="preserve">
<style type="text/css">
	.st0{fill:#77800D;}
	.st1{fill:#FFFFFF;}
</style>
<g>
	<circle class="st0" cx="250" cy="250" r="230"/>
	<g>
		<g>
			<path class="st1" d="M250,131.28c38.67,0,43.25,0.15,58.52,0.84c14.12,0.64,21.79,3,26.89,4.99c6.76,2.63,11.58,5.77,16.65,10.83
				c5.07,5.07,8.21,9.89,10.83,16.65c1.98,5.1,4.34,12.77,4.99,26.89c0.7,15.27,0.84,19.85,0.84,58.52s-0.15,43.25-0.84,58.52
				c-0.64,14.12-3,21.79-4.99,26.89c-2.63,6.76-5.77,11.58-10.83,16.65c-5.07,5.07-9.89,8.21-16.65,10.83
				c-5.1,1.98-12.77,4.34-26.89,4.99c-15.27,0.7-19.85,0.84-58.52,0.84c-38.67,0-43.25-0.15-58.52-0.84
				c-14.12-0.64-21.79-3-26.89-4.99c-6.76-2.63-11.58-5.77-16.65-10.83c-5.07-5.07-8.21-9.89-10.83-16.65
				c-1.98-5.1-4.34-12.77-4.99-26.89c-0.7-15.27-0.84-19.85-0.84-58.52s0.15-43.25,0.84-58.52c0.64-14.12,3-21.79,4.99-26.89
				c2.63-6.76,5.77-11.58,10.83-16.65c5.07-5.07,9.89-8.21,16.65-10.83c5.1-1.98,12.77-4.34,26.89-4.99
				C206.75,131.43,211.33,131.28,250,131.28 M250,105.19c-39.33,0-44.26,0.17-59.71,0.87c-15.41,0.7-25.94,3.15-35.15,6.73
				c-9.52,3.7-17.6,8.65-25.65,16.7c-8.05,8.05-13,16.13-16.7,25.65c-3.58,9.21-6.03,19.74-6.73,35.15
				c-0.7,15.45-0.87,20.38-0.87,59.71c0,39.33,0.17,44.26,0.87,59.71c0.7,15.41,3.15,25.94,6.73,35.15
				c3.7,9.52,8.65,17.6,16.7,25.65c8.05,8.05,16.13,13,25.65,16.7c9.21,3.58,19.74,6.03,35.15,6.73c15.45,0.7,20.38,0.87,59.71,0.87
				c39.33,0,44.26-0.17,59.71-0.87c15.41-0.7,25.94-3.15,35.15-6.73c9.52-3.7,17.6-8.65,25.65-16.7c8.05-8.05,13-16.13,16.7-25.65
				c3.58-9.21,6.03-19.74,6.73-35.15c0.7-15.45,0.87-20.38,0.87-59.71s-0.17-44.26-0.87-59.71c-0.7-15.41-3.15-25.94-6.73-35.15
				c-3.7-9.52-8.65-17.6-16.7-25.65c-8.05-8.05-16.13-13-25.65-16.7c-9.21-3.58-19.74-6.03-35.15-6.73
				C294.26,105.35,289.33,105.19,250,105.19L250,105.19z"/>
			<path class="st1" d="M250,175.64c-41.07,0-74.36,33.29-74.36,74.36s33.29,74.36,74.36,74.36c41.07,0,74.36-33.29,74.36-74.36
				S291.07,175.64,250,175.64z M250,298.27c-26.66,0-48.27-21.61-48.27-48.27s21.61-48.27,48.27-48.27s48.27,21.61,48.27,48.27
				S276.66,298.27,250,298.27z"/>
			<circle class="st1" cx="327.3" cy="172.7" r="17.38"/>
		</g>
	</g>
</g>
</svg>
