<?xml version="1.0" encoding="utf-8"?>
<!-- Generator: Adobe Illustrator 27.9.4, SVG Export Plug-In . SVG Version: 9.03 Build 54784)  -->
<svg version="1.1" id="Capa_1" xmlns="http://www.w3.org/2000/svg" xmlns:xlink="http://www.w3.org/1999/xlink" x="0px" y="0px"
	 viewBox="0 0 350 350" style="enable-background:new 0 0 350 350;" xml:space="preserve">
<style type="text/css">
	.st0{fill:#E47C2C;}
</style>
<g>
	<g>
		<g>
			<path class="st0" d="M228.3,132.5c0,5-4,9-9,9c-5,0-9-4-9-9c0-5,4-9,9-9C224.2,123.5,228.3,127.5,228.3,132.5z M217.1,172.8
				c0,20.8-16.9,37.7-37.7,37.7c-20.8,0-37.7-16.9-37.7-37.7c0-20.8,16.9-37.7,37.7-37.7C200.1,135,217.1,152,217.1,172.8z
				 M203.5,172.8c0-13.3-10.8-24.2-24.2-24.2c-13.3,0-24.2,10.8-24.2,24.2c0,13.3,10.8,24.2,24.2,24.2
				C192.7,197,203.5,186.1,203.5,172.8z M255.7,142.5c0-25.4-20.6-46-46-46h-62.8c-25.4,0-46,20.6-46,46v62.8c0,25.4,20.6,46,46,46
				h62.8c25.4,0,46-20.6,46-46V142.5z M240.6,204.6c0,17.5-14.2,31.6-31.6,31.6h-61.4c-17.5,0-31.6-14.2-31.6-31.6v-61.4
				c0-17.5,14.2-31.6,31.6-31.6H209c17.5,0,31.6,14.2,31.6,31.6V204.6z"/>
		</g>
		<path class="st0" d="M178.3,23.9c-82.7,0-150,67.3-150,150c0,82.7,67.3,150,150,150s150-67.3,150-150
			C328.3,91.2,261,23.9,178.3,23.9z M178.3,304.6c-72.1,0-130.8-58.7-130.8-130.8c0-72.1,58.7-130.8,130.8-130.8
			c72.1,0,130.8,58.7,130.8,130.8C309,246,250.4,304.6,178.3,304.6z"/>
	</g>
</g>
</svg>
