<?xml version="1.0" encoding="utf-8"?>
<!-- Generator: Adobe Illustrator 27.0.1, SVG Export Plug-In . SVG Version: 6.00 Build 0)  -->
<svg version="1.1" id="Capa_1" xmlns="http://www.w3.org/2000/svg" xmlns:xlink="http://www.w3.org/1999/xlink" x="0px" y="0px"
	 viewBox="0 0 500 500" style="enable-background:new 0 0 500 500;" xml:space="preserve">
<style type="text/css">
	.st0{fill:#90B547;stroke:#012319;stroke-width:7;stroke-miterlimit:10;}
	.st1{fill-rule:evenodd;clip-rule:evenodd;fill:#FFFFFF;}
</style>
<g>
	<circle class="st0" cx="250" cy="250" r="229.4"/>
	<g>
		<g id="WA_Logo_10_">
			<g>
				<path class="st1" d="M360.35,142.47c-27.48-27.5-64.01-42.65-102.94-42.66c-80.21,0-145.49,65.26-145.53,145.47
					c-0.01,25.64,6.69,50.67,19.43,72.73l-20.65,75.39l77.15-20.23c21.26,11.59,45.19,17.7,69.54,17.71h0.06c0,0,0,0,0,0
					c80.2,0,145.49-65.27,145.52-145.48C402.95,206.52,387.83,169.97,360.35,142.47z M257.41,366.3h-0.05
					c-21.7-0.01-42.99-5.84-61.56-16.85l-4.42-2.62l-45.78,12.01l12.22-44.62l-2.88-4.57c-12.11-19.25-18.5-41.5-18.49-64.35
					c0.03-66.67,54.29-120.91,121.01-120.91c32.31,0.01,62.68,12.61,85.51,35.46c22.84,22.86,35.41,53.24,35.39,85.54
					C378.34,312.06,324.08,366.3,257.41,366.3z M323.75,275.74c-3.64-1.82-21.51-10.61-24.85-11.83c-3.33-1.21-5.76-1.82-8.18,1.82
					c-2.42,3.64-9.39,11.83-11.51,14.25c-2.12,2.43-4.24,2.73-7.88,0.91c-3.64-1.82-15.35-5.66-29.24-18.04
					c-10.81-9.64-18.11-21.54-20.23-25.18s-0.23-5.61,1.59-7.42c1.64-1.63,3.64-4.25,5.45-6.37c1.82-2.12,2.42-3.64,3.64-6.07
					c1.21-2.43,0.61-4.55-0.3-6.37c-0.91-1.82-8.18-19.71-11.21-26.99c-2.95-7.09-5.95-6.13-8.18-6.24
					c-2.12-0.11-4.55-0.13-6.97-0.13c-2.42,0-6.36,0.91-9.7,4.55c-3.33,3.64-12.73,12.43-12.73,30.33
					c0,17.89,13.03,35.18,14.85,37.6s25.64,39.14,62.12,54.89c8.68,3.75,15.45,5.98,20.73,7.66c8.71,2.77,16.64,2.38,22.9,1.44
					c6.99-1.04,21.51-8.79,24.54-17.28c3.03-8.49,3.03-15.77,2.12-17.29C329.82,278.47,327.39,277.56,323.75,275.74z"/>
			</g>
		</g>
	</g>
</g>
</svg>
