<?xml version="1.0" encoding="utf-8"?>
<!-- Generator: Adobe Illustrator 27.9.4, SVG Export Plug-In . SVG Version: 9.03 Build 54784)  -->
<svg version="1.1" id="Capa_1" xmlns="http://www.w3.org/2000/svg" xmlns:xlink="http://www.w3.org/1999/xlink" x="0px" y="0px"
	 viewBox="0 0 1080 518" style="enable-background:new 0 0 1080 518;" xml:space="preserve">
<style type="text/css">
	.st0{fill:#61A831;}
	.st1{fill:#FCFCFC;}
	.st2{fill:#62A030;}
	.st3{fill:#E47C2C;}
	.st4{fill:#1A5934;}
	.st5{fill:#F6F3D7;}
	.st6{fill:#FFFFFF;}
	.st7{fill:#003934;}
	.st8{fill:#E5B049;}
	.st9{fill:#ECC24F;}
	.st10{fill:#DDD2B8;}
	.st11{fill:#04231B;}
	.st12{fill:#041511;}
	.st13{fill:#A6C83B;}
</style>
<polygon class="st0" points="383.6,165.7 384.5,166.5 383.6,165.7 "/>
<path class="st1" d="M252.9,327l-0.4-0.3C252.9,326.4,252.9,326.7,252.9,327L252.9,327z"/>
<g>
	<path class="st2" d="M383.6,165.7c-8.8-8.2-18.4-15.2-29-21.1c-10.5-5.8-21.6-10.3-33.2-13.4c-33.8-9.1-66.6-5.5-98.5,8.5
		c-20.1,8.8-37.5,21.3-52,37.7c-17,19.1-28.4,41.2-33.2,66.6c-6.4,33.9-1.2,65.9,15.4,96.2c5.1,9.2,11.1,17.7,18.1,25.5
		c6.9,7.9,14.6,14.9,23.1,21.1c8.4,6.2,17.5,11.4,27,15.7c9.6,4.3,19.5,7.4,29.8,9.6c14,2.8,28.2,3.6,42.5,2.5
		c2.4-0.2,3.3-1.7,4.2-3.2c10.1-17.5,14.4-36.3,10.9-56.3c-1.4-8.3-4.1-16.2-8.1-23.6c-4-7.4-9.2-14-15.4-19.7
		c-5-4.7-11.3-8.2-16.5-12.8c-19.5-17.1-29-38.6-29.3-64.5c-0.2-18.9,5.3-35.7,15.5-51.3c0.9-1.3,1.1-3.9,2.9-3.6
		c1.5,0.2,1.6,2.7,2.2,4.2c4.6,11,12.4,19.8,20,28.6c8.7,10,18.5,19,26.2,29.8c12.1,16.8,18.5,35.5,17.4,56.4
		c-0.4,7.6-2.1,14.9-5.2,21.9c-1.7-2.7-2-5.6-2.8-8.3c-5.5-18.8-12.3-37-24.1-52.8c-5-6.6-10.3-12.9-16-19c-1.4-1.5-2.8-2-4.7-0.8
		c0.8,1.8,2.3,2.8,3.6,4c10.1,9.6,16.1,21.9,22.2,34.1c5,10.1,7,21.2,10.2,31.9c3.7,12.6,8.4,25,10.5,38.1c2.6,16,2.4,31.8-4.3,47.1
		c-2.7,5.7-6,11.1-9.9,16c-0.6,0.8-1.9,1.4-1.4,2.4c0.6,1.2,2,0.6,3,0.4c7.9-1.2,15.8-2.4,23.5-4.4c0.8-0.3,1.5-0.3,2.2,0.2
		c-2.6,2.3-5.9,3-8.9,4c-18.5,5.8-37.4,9.7-57,9.1c-18.1-0.7-35.4-4.5-52-11.6c-31.6-13.2-56.3-34.6-73.6-64.1
		c-20.4-35-26.1-72.6-17-112c9.4-40.5,32.1-72,66.9-94.6c16.3-10.6,34-17.6,53.2-21.2c19.1-3.7,38-3.1,57.2,0
		c29.4,4.8,54.1,18.2,76,37.8C378.3,159.3,381.7,161.8,383.6,165.7L383.6,165.7z"/>
	<path class="st2" d="M455.4,355.2c4.6-7.6,10.1-13.5,13.9-20.7c1-1.9,2.8-3.6,4.3-5.4c1.8-2.1,1.8-3.8,0.2-6.1
		c-4.8-6.6-9.5-13.4-14.2-20.1c-0.9-1.3-2.7-3-2.2-4.2c0.7-1.5,3-0.6,4.6-0.6c3.4-0.1,6.9,0.1,10.3-0.1c1-0.1,2,0.1,2.9,0.5
		c0.9,0.5,1.6,1.1,2.1,2c2,3.2,4.2,6.2,6.3,9.4c2.2,3.3,2.5,3.3,4.9,0c2.4-3.3,4.9-6.8,7.1-10.4c0.6-1.1,1.5-1.6,2.7-1.5
		c4.8,0,9.6,0.1,14.3,0c2.6,0,2.5,1,1.2,2.7c-5.3,7.5-10.4,15.1-15.8,22.6c-1.5,2-1.5,3.5,0,5.6c6.1,8.4,12.1,17,18,25.5
		c0.7,0.9,2,1.9,1.4,3c-0.5,1-2,0.5-3.1,0.5c-4.3,0-8.7-0.2-13-0.1c-1.5,0.1-2.6-0.5-3.3-1.8c-3.5-5.1-7.2-10.1-10.6-15.3
		c-1.3-2-1.9-2.2-3.3,0c-3.3,5.1-6.9,10-10.3,15c-0.4,0.7-1,1.2-1.7,1.6c-0.7,0.4-1.4,0.5-2.2,0.5c-21.6-0.1-43.2-0.1-64.7,0
		c-2.1,0-2.6-0.8-2.6-2.7c0-28.2,0-56.4,0-84.6c0-1.7,0.6-2.4,2.3-2.4c15.8,0,31.6,0,47.4,0c2,0,2.4,0.9,2.3,2.7
		c-0.1,3.4-0.1,6.9,0,10.3c0.1,2.4-1,3-3.2,2.9c-9.1-0.1-18.2,0-27.4-0.1c-2.6,0-3.5,0.7-3.3,3.4c0.2,3.6,0.2,7.1,0,10.7
		c-0.2,2.8,0.9,3.3,3.4,3.3c9.1-0.1,18.2,0.1,27.4-0.1c2.5,0,3.4,0.7,3.2,3.2c-0.2,3.3-0.2,6.7,0,10c0.2,2.6-0.7,3.5-3.3,3.4
		c-9.1-0.2-18.2,0-27.4-0.1c-2.6,0-3.5,0.7-3.4,3.3c0.2,5.9,0.1,11.8,0,17.7c0,2,0.6,2.6,2.7,2.6c9.2-0.1,18.5,0.1,27.7-0.1
		c2.9,0,3.9,0.9,3.7,3.8C454.5,348.5,454.7,351.9,455.4,355.2z"/>
	<path class="st2" d="M536.6,328.2c-0.1,3,0.4,6,1.7,8.8c2.2,4.7,5.7,7.6,11.1,7.7c5.1,0.2,9.6-1.4,11.7-6.4
		c3-7.1,3.2-14.3-0.8-21.1c-4.3-7.2-16.4-7.2-21-0.2C537,320.4,536.6,324.2,536.6,328.2z M537,354.8c0,8.9-0.1,17.3,0.1,25.6
		c0.1,3-0.7,4.2-3.9,3.9c-3.6-0.2-7.1-0.2-10.7,0c-2,0.1-2.8-0.6-2.8-2.6c0.1-27,0.1-53.9,0-80.9c0-2.1,0.8-2.7,2.8-2.6
		c3.8,0.1,7.6,0,11.3,0c1,0,2.6-0.3,2.8,1.1c0.4,3,2,1.7,3.1,0.9c3.9-2.7,8.3-3.6,12.9-3.7c11.6-0.3,20,5.1,24.5,15.4
		c1.3,2.8,2.2,5.6,2.8,8.6c0.6,3,0.9,6,0.8,9c-0.1,3-0.5,6-1.3,9c-0.8,2.9-1.9,5.8-3.3,8.5c-6.8,13.4-24.1,17.6-36.9,9.5
		C539,355.9,538.3,355.6,537,354.8z"/>
	<path class="st2" d="M603.6,328.2c0,9.4,6.4,16.4,15,16.4c8.4-0.1,14.8-7,14.9-16.2c0.1-9.3-6.6-16.5-15.1-16.4
		C610.8,311.9,603.1,319,603.6,328.2z M618.4,296.3c18.3,0,32.8,14,32.8,31.7c0,17.7-14.5,32.2-32.7,32.2c-2.1,0-4.2-0.1-6.3-0.5
		c-2.1-0.4-4.1-1-6.1-1.8c-2-0.8-3.9-1.8-5.7-2.9c-1.8-1.2-3.4-2.5-5-4c-1.5-1.5-2.9-3.1-4.1-4.9s-2.2-3.6-3-5.6
		c-0.8-2-1.5-4-1.9-6.1c-0.4-2.1-0.6-4.2-0.7-6.3C585.8,310.3,600.1,296.3,618.4,296.3z"/>
</g>
<g>
	<path class="st3" d="M252.9,327c0.7,2.4,2.2,4,4.1,5.6c6.1,5.2,11.2,11.2,15.4,18c7.8,12.3,13.9,25.4,18.3,39.2
		c2.2,6.9,2.1,7.3-5,6.3c-11.4-1.5-21.2-7.1-30.1-13.8c-7.8-6-14.4-13-19.9-21.1c-5.6-8-9.3-16.7-11.1-26.3
		c-1.3-7.2-2.7-14.4-2.3-21.7c0.7-14.1,4.9-27.2,12.4-39.2c0.8,0.1,1.4,0.5,1.6,1.3c4.6,10.1,12,17.8,20,25.2
		c9.8,9.1,20,17.7,28.8,27.9c16,18.4,21.5,39.7,17.4,63.6c-0.3,1.5,0,3.1-1.3,4.9c-2-3.3-2.8-6.8-4.2-10
		c-6.5-16.1-14-31.5-25.9-44.3c-4.8-5.1-8.9-11-15.3-14.6C254.8,327.5,254,326.6,252.9,327c0-0.3,0-0.5-0.5-0.3L252.9,327z"/>
	<path class="st3" d="M59.2,277.5c0.5-2.2-1.1-5,0.9-6c1.7-0.8,3.8,1.3,5.5,2.5c8.7,6.2,14.1,14.8,17.8,24.6
		c2.4,6.3,3.5,12.9,5,19.5c0.5,2.2-0.6,2.6-2.4,2.3c-4.7-0.9-8.8-3-12-6.6C64,303.7,60.1,291.1,59.2,277.5z"/>
	<path class="st3" d="M85.1,274.4c0,1.6,0.1,3.1,0,4.7c-0.1,1.3,0.7,3.1-0.7,3.6c-1.7,0.6-3.5-0.1-5.1-1.3
		c-14-10.3-17-24.9-16.3-41.1c0.1-1.3,0.2-2.7,0.4-4c0.2-0.9-0.3-2.2,0.9-2.6c1.1-0.4,1.9,0.3,2.7,0.9c6.3,4.7,10.6,10.9,13.5,18
		C83.5,259.7,85,266.9,85.1,274.4z"/>
	<path class="st3" d="M88.7,308.4c0-8.5,2.4-16.7,9.3-23.2c3.4-3.3,7.5-5,12.2-5.3c1.8-0.1,2.6,0.3,2.6,2.3
		c0.2,10-2.3,19.3-7.4,27.9c-2.8,4.6-6.7,7.9-11.8,9.7c-2.4,0.9-3.9,0.6-4.3-2.5C89,314.4,88.8,311.4,88.7,308.4z"/>
	<path class="st3" d="M89,238.6c-0.2,1.6-0.5,4.5-0.8,7.3c-0.2,2.4-1.2,2.7-3.3,1.5c-7.7-4.4-11.4-11.5-13.4-19.7
		c-2.2-8.9-1.4-17.6,1.2-26.2c0.8-2.7,1.8-2.5,3.5-0.9c5.8,5.2,9,11.9,11.1,19.3C88.9,225.5,89.1,231.4,89,238.6z"/>
	<path class="st3" d="M86.9,280.4c-0.5-9.3,1.9-17.6,8.4-24.3c2.2-2.4,4.8-4.2,7.8-5.4c3-1.2,6.2-1.6,9.4-1.3
		c1.3,0.1,2.9,0.1,2.4,2.2c-2.1,10.1-5.5,19.6-13.5,26.7c-3.3,3-7.2,5-11.9,5C87.1,283.3,86.7,282.8,86.9,280.4z"/>
	<path class="st3" d="M82,191.1c-0.4-7.1,1-13.8,4.2-20.1c1.5-3.1,1.9-3.1,4.2-0.3c6.9,8.2,8.6,17.9,8.2,28.2
		c-0.2,5.4-1.2,10.6-3,15.6c-0.6,1.6-1.1,1.9-2.6,1c-3.7-2.4-6.4-5.6-8.1-9.7C82.7,200.9,81.3,195.8,82,191.1z"/>
	<path class="st3" d="M93.1,249.4c-3.8,0-4-0.3-3.4-4.1c1.6-10.2,6.2-18.3,15.9-22.9c4.4-2.3,9.1-2.7,13.8-1.3
		c1.2,0.4,1.8,0.8,1.7,2.3c-1.3,11.3-15.1,25-26.3,26C94.2,249.4,93.7,249.4,93.1,249.4z"/>
	<path class="st3" d="M96.7,165.6c0.1-8.7,2.6-16.5,7.6-23.6c1.2-1.8,1.9-1.7,3,0c5.8,8.6,6.8,18,5.2,28c-0.8,4.9-2.8,9.3-4.7,13.8
		c-1,2.3-1.9,2.7-3.7,0.9C98.6,179.4,96.7,172.9,96.7,165.6z"/>
	<path class="st3" d="M104.3,218.2c-8.2,0.1-8.6-0.4-6-7.3c4.2-11.1,14.6-18,25.9-17.1l0.7,0.1c6.4,0.7,7.3,2.2,4,7.5
		c-5.2,8.3-11.7,14.9-21.9,16.6C106,218.1,105.1,218.2,104.3,218.2z"/>
	<path class="st3" d="M131.4,132.2c0,4.8-0.7,9.5-2.2,14.1c-1.5,4.6-3.6,8.8-6.5,12.7c-1.5,2.1-2.4,1.2-3.5-0.2
		c-2-2.5-3.4-5.2-4.2-8.2c-0.9-3-1.1-6.1-0.7-9.2c0.8-8.2,3.9-15.4,9.3-21.5c2.4-2.8,3.4-2.6,4.8,0.7
		C130.3,124.7,131.7,129.1,131.4,132.2z"/>
	<path class="st3" d="M134,124.1c0.3-10.7,5.7-18.7,13.6-25.4c1.5-1.3,1.8-0.6,2.5,0.8c3.1,6.8,2.8,13.6,0.8,20.5
		c-1.9,6.2-5.5,11.5-9.8,16.3c-1.5,1.6-2.5,1.7-3.8-0.2C135,132.5,133.9,128.5,134,124.1z"/>
	<path class="st3" d="M117.9,189.8c-2.7,0.2-5.3-0.7-7.8-1.5c-1.4-0.4-2-1.2-1.3-2.8c4.9-11.2,18.1-19.8,29.5-15.8
		c8.2,2.9,7.5,2.6,2.5,8.4C134.8,185.1,127.3,189.2,117.9,189.8z"/>
	<path class="st3" d="M135.4,165.6c-3.8,0.2-7.3-0.7-10.5-2.6c-1.3-0.7-1.9-1.5-0.9-3.2c5.3-8.5,13.1-12.5,22.9-12.5
		c4.2,0,8,1.6,11.5,3.8c1.8,1.1,1.8,2.4,0.4,3.8C152.2,161.1,144.8,165.4,135.4,165.6z"/>
	<path class="st3" d="M175.5,92.9c-0.6,10.3-6.2,18.8-14.9,25.5c-1.5,1.2-2,0.3-2.7-0.9c-3.1-5.6-2.7-11.3-0.6-17.1
		c2.5-7,7.3-12.2,13.4-16.3c2.3-1.6,3.5-1,4.2,1.6C175.4,87.6,175.4,89.8,175.5,92.9z"/>
	<path class="st3" d="M156.2,144.8c-4.9-0.1-9.7-0.7-13.9-3.7c-1.1-0.8-2.1-1.4-0.7-3.1c8.8-10.3,23.8-13,34.7-4.2
		c2,1.6,2.1,2.5-0.3,4C168.5,142.6,162.7,144.8,156.2,144.8z"/>
	<path class="st3" d="M179,95.3c0.1-8.3,4.5-14.1,10.5-18.8c2.2-1.8,4.7-3.3,7.3-4.4c2-0.9,2.8-0.8,3.3,1.6
		c1.2,5.5-0.4,10.4-2.7,15.1c-3.1,6.3-8.4,10.6-14.4,14.1c-1.3,0.8-2.1,0.5-2.8-1C179.2,99.7,179.2,97.4,179,95.3z"/>
	<path class="st3" d="M179.9,128.1c-6.9,0.1-12-1.5-16.6-4.7c-2.9-2-2.9-2.7-0.3-4.8c1.1-0.9,2.4-1.7,3.6-2.4c1.3-0.7,2.6-1.3,4-1.8
		c1.4-0.5,2.8-0.8,4.3-1.1c1.4-0.2,2.9-0.3,4.4-0.3c1.5,0,2.9,0.2,4.4,0.5c1.4,0.3,2.8,0.7,4.2,1.2c1.4,0.5,2.7,1.2,3.9,1.9
		c1.3,0.8,2.4,1.6,3.5,2.6c2.4,2.1,2.3,3.2-0.6,4.5C189.7,126.2,184.4,128,179.9,128.1z"/>
	<path class="st3" d="M208.9,91c-0.2-0.1-0.4-0.2-0.6-0.2c-4.8,0.4-4.8,0.4-4.9-4.8c-0.2-8.1,4.6-13.2,10.5-17.6
		c3-2.1,6.3-3.5,9.9-4.4c2-0.6,2.7,0.2,2.6,2.1c-0.1,9.5-4.8,16.2-12.5,21.2C212.2,88.4,210.1,89.1,208.9,91L208.9,91z"/>
	<path class="st3" d="M202.7,114.4c-7.1,0.1-13.4-1.6-18.4-6.8c-1.6-1.7-1.4-2.6,0.5-3.8c9.7-6.5,25.2-3.8,31.7,4.4
		c2.2,2.8,2.1,3.2-1.3,4.3C211,113.7,206.9,114.4,202.7,114.4z"/>
	<path class="st3" d="M228.3,78.2c0.2-4.7,2.9-9.1,6.9-12.3c4.5-3.4,9.5-5.5,15.1-6.3c2.6-0.4,3.2,0.4,3,2.8
		c-0.6,6.4-4.4,11.1-9.1,14.8c-3.1,2.5-7,4.1-10.8,5.5C229.7,84.1,228.2,83.2,228.3,78.2z"/>
	<path class="st3" d="M208.8,91c4,0.6,8-1.2,12.1-0.6c7.3,1,13.2,3.9,17.7,9.8c1.4,1.8,1.6,3.3-1,3.8c-9.4,1.6-18.5,1.4-26.7-4.3
		c-1-0.7-2-1.4-2.8-2.3c-2.8-2.9-2.8-3.4,0.6-5.5C208.9,91.8,208.8,91.3,208.8,91L208.8,91z"/>
	<path class="st3" d="M255.9,98.8c-8.6-0.1-16.4-2.2-22.8-8.3c-0.2-0.2-0.5-0.5-0.7-0.7c-3.5-4-3.3-4.9,1.8-5.8
		c10.8-1.9,19.6,1.4,26.3,10.1c0.9,1.1,2.1,2.5,1.6,3.8c-0.7,1.6-2.6,0.7-3.9,0.9C257.4,98.9,256.7,98.9,255.9,98.8z"/>
	<path class="st3" d="M255.6,79c-1.9-1.1-2.3-2.5-1.9-4.7c1.7-7.6,7.1-11.4,13.8-13.8c3.4-1.2,6.9-1.7,10.4-1.7c2.6,0,3,0.8,2.4,3.2
		c-2.6,9.9-15.3,16.1-23,16C256.5,78,255.1,77.1,255.6,79L255.6,79z"/>
	<path class="st3" d="M255.5,79c3.4,0.8,6.8,0.1,10.2,0.8c7.9,1.7,14.5,5.3,18.5,12.6c1.9,3.5,1.5,4.1-2.7,3.8
		c-9.7-0.8-18.5-3.4-24.7-11.5C255.5,83,254.4,81.3,255.5,79L255.5,79z"/>
	<path class="st3" d="M283.6,76.8c-4.3,0-5.3-1.7-3.4-5.6c2.6-5.3,7.3-7.8,12.7-9.2c3.9-0.9,7.9-1.2,11.9-0.8c2.4,0.2,3.1,1,2.1,3.4
		c-2.2,5.4-6.6,8.1-11.6,10.2C291.5,76.4,287.4,76.6,283.6,76.8z"/>
	<path class="st3" d="M365.9,97.5c-7.8,0.5-15.1-1.3-22.2-4.3c-4.2-1.8-8-4.2-11.5-7.2c-0.9-0.8-2.4-1.4-1.8-2.8
		c0.5-1.4,2-1.1,3.2-1.2c7.2-0.3,13.9,1.2,20.2,4.6c3.9,1.9,7.3,4.5,10.3,7.6C364.9,95.1,366,95.8,365.9,97.5z"/>
	<path class="st3" d="M284.2,78.2c9.7,1.3,19.1,4.8,23.8,15.7c0.4,0.9,1.2,1.9,0.6,2.8c-0.7,1.2-1.8,0.1-2.7,0
		c-7.4-0.8-14.1-3.6-19.9-8.3c-2.3-1.8-4-4.1-5.2-6.7C279.3,78.6,279.6,78,284.2,78.2z"/>
	<path class="st3" d="M313.8,78.9c-1.4,0-2.9,0.1-4.3,0c-3.5-0.2-4.2-1.5-2.6-4.7c3-5.9,8.7-7.4,14.6-8.2c3.9-0.4,7.7-0.1,11.5,0.9
		c3,0.7,2.7,2,1.4,3.8c-3.8,5.4-9.4,7.4-15.6,8.2C317.1,79,315.5,79,313.8,78.9z"/>
	<path class="st3" d="M307.8,79.9c10.8,1.3,21.5,7.7,24.5,17.6c0.5,1.7,0.7,3.5-1.8,2.8c-9.8-2.7-18.8-6.8-23.5-16.6
		C306.4,82.4,304.9,80.3,307.8,79.9z"/>
	<path class="st3" d="M753.4,329.1c-0.1,2.5,0.3,4.8,1.2,7.1c1.4,4.2,4,7.3,8.4,8.1c4.7,0.8,9.3,0.6,12.7-3.7
		c4.6-5.9,4.9-12.3,3.3-19.4c-2.4-10.5-15.1-11.4-20.6-6.4C754.5,318.5,753.4,323.2,753.4,329.1z M796.6,330.9
		c-0.3,8.9,0.5,19.5-0.6,30.2c-1.2,11.5-7,20-20.2,22.2c-9.6,1.6-18.8,1.6-27.5-3c-6.1-3.3-9.8-8.4-9.9-15.7c0-2,0.6-2.7,2.7-2.6
		c4.1,0.2,8.2,0,12.3,0c1.3,0,3-0.1,3,1.8c0.2,4.2,3.4,4.6,6.4,5.5c3.9,1.1,11.7-0.1,14.3-3.9c1.9-2.7,1.8-5.7,1.9-8.6
		c0.1-2-1.5-0.7-2.1-0.3c-5.2,3.5-11.1,4.4-17.1,3.8c-10.9-1-19.5-8.3-22.6-19.9c-2.4-9.3-2.3-18.7,1.3-27.8
		c3.5-8.8,11.9-16,22.2-16.3c5.6-0.1,11.1,0.3,15.9,3.7c0.8,0.6,2.4,1.8,2.9-0.7c0.3-1.4,1.6-1.3,2.7-1.3c3.8,0,7.6,0.1,11.3-0.1
		c2.4-0.1,3,1,3,3.2C796.6,310.4,796.6,319.8,796.6,330.9z"/>
	<path class="st3" d="M693.8,300.6c-2.6,5.8-5,11.4-7.7,16.9c-0.9,2-0.6,2.6,1.6,2.5c4.1-0.1,8.2-0.1,12.3,0
		c2.1,0.1,2.2-0.7,1.5-2.3C698.9,312.2,696.4,306.5,693.8,300.6z M693.8,261.7c7.2,15.6,14.1,30.6,21.1,45.6
		c7.3,15.7,14.7,31.3,22.2,46.9c1.7,3.5,1.6,3.7-2.5,3.6c-4.2,0-8.5-0.1-12.7,0.1c-1,0.1-1.8-0.1-2.7-0.6c-0.8-0.5-1.4-1.3-1.6-2.2
		c-2.3-5.4-4.7-10.7-7-16.1c-0.9-2.1-2-3-4.5-3c-8.4,0.2-16.9,0.1-25.4,0c-1.9,0-3,0.3-3.9,2.5c-2.3,6-5.2,11.7-7.8,17.6
		c-0.2,0.6-0.6,1-1.1,1.4c-0.5,0.3-1.1,0.5-1.7,0.4c-4.8-0.1-9.6-0.1-14.3,0c-2.3,0-3-0.5-1.9-2.9c4.9-10.3,9.7-20.8,14.5-31.2
		c8.8-18.9,17.6-37.8,26.3-56.7C691.6,265.5,692.6,263.9,693.8,261.7z"/>
	<path class="st3" d="M897.6,328.3c0.1-12.3-11-19.8-21.6-14.7c-6.6,3.2-10.2,13.5-7.2,20.7c2.4,5.6,6.2,9.7,12.7,10.1
		C890.9,344.9,897.5,338.3,897.6,328.3L897.6,328.3z M881.8,360.3c-16.4,0-32.2-14.3-31.8-33c0.3-16.6,15.1-32,34.4-31.2
		c17.3,0.8,31.4,15.1,31.2,32.6C915.3,346.7,900.4,360.6,881.8,360.3z"/>
	<path class="st3" d="M826.8,340.9c0,4.8-0.1,9.5,0,14.3c0.1,2-0.5,2.8-2.6,2.7c-3.9-0.2-7.8-0.2-11.7-0.1c-1.8,0-2.7-0.5-2.7-2.4
		c0-1.3-0.2-2.7-0.2-4c0-16.3,0-32.6,0-48.9c0-4.7,0-4.7,4.8-4.7c3,0,6,0,9,0.1c1.3,0,2.8-0.6,3.5,1.5c0.5,1.4,1.5,0.1,2-0.3
		c6.8-4.7,13.6-3.4,20.5-0.4c1.7,0.7,2.1,1.7,1.4,3.3c-1.6,3.6-3,7.3-4.5,11c-0.5,1.2-1.4,1.6-2.6,0.7c-1-0.7-2.1-1.3-3.3-1.6
		c-7.1-1.7-10.7,0.5-12.5,7.5c-1.6,6.2-1,12.6-1.2,18.9C826.8,339.4,826.8,340.2,826.8,340.9z"/>
	<path class="st3" d="M976,339.1c0.9-0.7,2.7,1,3.1-1.2c0.2-1.2-2.6-6-3-5.7c-1.7,1.5-2.6,3.4-2.8,5.6
		C973.1,339.9,975.1,338.5,976,339.1L976,339.1z M976.9,346.1c-0.6,0-1.2,0-1.8,0c-4.4-0.8-6.7,1.2-8.2,5.2c-1.8,5-3.4,5.6-8.5,4.5
		c-1.5-0.3-2-0.6-1.1-2.4c6-12.8,11.9-25.6,17.8-38.4c0.2-0.5,0.3-1.1,1.1-1c0.8,0.1,0.9,0.8,1.2,1.4c5.3,11.6,10.7,23.2,16,34.8
		c0.7,1.6,2.9,3.3,1.5,5c-1.3,1.5-3.8,0.6-5.7,0.7c-0.6,0.1-1.2-0.1-1.8-0.4c-0.5-0.4-0.9-0.8-1.1-1.4c-0.2-0.6-0.7-1.2-0.9-1.8
		C984.2,347.4,981.5,344.7,976.9,346.1z"/>
	<path class="st3" d="M944.6,315.2c2.2-0.2,4.3,0.2,6.3,1.2c2,1,3.6,2.4,4.7,4.3c0.9,1.4,0.8,2.4-0.7,3.3c-2.5,1.4-4.8,3.2-7.4-0.2
		c-1.3-1.8-5.1-1.1-6.2,0.6c-1.6,2.4,0,3.9,1.7,5.4c2.4,2.1,5.7,2.8,8.4,4.5c5.3,3.4,7.3,7.6,5.9,13.2c-0.3,1.3-0.8,2.5-1.5,3.7
		c-0.7,1.1-1.6,2.1-2.6,3c-1,0.8-2.2,1.5-3.4,1.9c-1.3,0.5-2.5,0.7-3.9,0.7c-6,0.3-11.3-0.7-14.1-6.8c-0.9-2-1-3.2,1.4-4.4
		c2.8-1.4,4.7-2.4,6,1.5c0.4,1.1,2,1.5,3.4,1.8c2.7,0.5,5,0.2,6-2.6c1-2.8-0.9-4.4-3-5.6c-2.4-1.4-4.9-2.5-7.3-3.9
		c-5.8-3.6-7.6-8.1-5.8-14C933.8,318.1,938.7,315.2,944.6,315.2z"/>
	<path class="st3" d="M1007.7,356.7c-5.6,0.3-10-1.7-12.4-7c-0.5-1.2-1.8-3.2,0.7-3.8c1.9-0.4,3.9-4.2,6,0c1.4,2.7,5.4,3.7,8.2,2.6
		c0.6-0.3,1-0.6,1.4-1.1c0.4-0.5,0.6-1,0.7-1.6c0.1-0.6,0.1-1.2-0.1-1.8c-0.2-0.6-0.4-1.1-0.8-1.6c-1.5-1.5-3.3-2.6-5.2-3.4
		c-3.9-1.9-8.2-3.7-9.8-8.3c-1.5-4.2-1.1-8.4,2.1-11.8c3.9-4,8.8-4.3,13.8-3.1c1.5,0.4,2.9,1,4.2,2c1.6,1.2,3.5,3,3.2,4.7
		c-0.3,2.1-3.2,2.4-5,3.4c-1.1,0.6-1.9-0.2-2.5-1c-1-1.4-2.3-2.1-4-2c-0.8-0.1-1.5,0.1-2.2,0.5c-0.7,0.4-1.2,1-1.6,1.7
		c-0.3,0.8-0.4,1.5-0.1,2.3c0.3,0.8,0.7,1.4,1.4,1.8c1.7,1.2,3.5,2.3,5.4,3.2c1.3,0.7,2.6,1.2,3.8,2c5.2,3,6.8,7.2,5.7,13.2
		c-0.9,4.7-5.7,9.2-10.7,9.1C1009.2,356.6,1008.4,356.6,1007.7,356.7z"/>
</g>
<g>
	<path class="st4" d="M418,375.8c-6.9,11.3-15.2,21.5-24.8,30.6c-9.7,9.4-20.3,17.7-31.8,24.9c-11.5,7.1-23.6,13-36.4,17.4
		c-15,5.3-30.5,7.9-46.2,9.4c-16.2,1.7-32.4,1.1-48.5-1.7s-31.4-7.9-46.1-15.1c-40.5-19.7-69.6-50.7-88.8-91.2
		c-2-4.2-3.5-8.6-5.5-12.8c-2.1-4.5-0.6-8.3,2-11.8c4.9-6.5,17.4-9.5,24.9-6.2c1.7,0.7,2.9,1.9,3.5,3.7c15.6,41.6,42.9,73.1,82,94.2
		c20.9,11.4,43.3,17.8,67.1,19.1c40.9,2.2,79.3-6,113.6-29.4c12-8.2,22.8-17.6,32.5-28.4C416.3,377.6,417.2,376.7,418,375.8z"/>
	<path class="st4" d="M353.6,308c-14.7,11.7-21.3,28.5-27.7,45.4c-3.3-12.8-3.1-25.3,2.9-37.3c5.2-10.5,13.4-18.4,21.8-26.1
		c7.3-6.8,14.8-13.4,19.4-22.5c1.2-2.3,1.8-1,2.7,0.2c10.1,14.1,12,29.4,6.1,45.5c-7.5,20.6-22.9,32.9-43.2,39.7
		c-2.7,0.9-3.3,0-2.9-2.6c0.5-2.8,1.3-5.6,2.3-8.3c4-11.4,10.2-21.6,17.6-31.1c0.6-0.8,1.1-1.6,1.7-2.4L353.6,308z"/>
	<path class="st4" d="M501.1,209.8c12.9-11.3,23.7-11.1,32.3,0.7c2.7-2.1,4.9-4.9,8.1-6.5c4.3-2.2,8.9-2.8,13.6-2
		c7.8,1.3,12.1,6,12.3,14.2c0.3,11.4,0.1,22.9,0.2,34.3c0,1.7-0.6,2.5-2.3,2.4H565c-9.1,0.5-9.1,0.5-9.1-8.6c0-7.4,0-14.9-0.2-22.3
		c-0.1-3.1-0.4-6.3-3-8.5c-4.4-3.8-13.3-1.8-15.9,3.5c-1.8,3.6-2.1,7.5-2.1,11.4c-0.1,7.1-0.2,14.2,0,21.3c0,2.4-0.5,3.3-3.1,3.3
		c-8.6,0.1-8.5,0.2-8.6-8.4c-0.1-7.5,0.4-15.1-0.3-22.6c-0.7-7.3-3.3-10.2-9.3-10.2c-6.3,0-10.9,4.1-11.6,10.5c-1,9-0.5,18-0.4,27
		c0,3.2-1,3.8-3.9,3.8c-7.6-0.2-7.6,0-7.6-7.8c0-12.8,0.1-25.5-0.1-38.3c0-2.4,0.5-3.6,3.1-3.2c0.3,0,0.7,0,1,0
		C500.3,203.5,500.3,203.5,501.1,209.8z"/>
	<path class="st4" d="M394.7,254.6c-10.9-0.1-19.1-3.2-23.6-12.8c-1.8-4-1.7-4.3,2.1-6.2c0.2-0.1,0.4-0.2,0.6-0.3
		c1.7-0.8,3.4-2.2,5.1-2.2c2.3-0.1,2,2.8,3,4.2c3.9,5.3,13.2,7.4,18.9,4c0.7-0.4,1.3-0.9,1.9-1.4c0.6-0.5,1.1-1.1,1.5-1.8
		c0.4-0.7,0.8-1.4,1-2.1c0.3-0.7,0.4-1.5,0.5-2.3s0.1-1.6,0-2.4c-0.1-0.8-0.3-1.5-0.6-2.3c-0.3-0.7-0.7-1.4-1.1-2.1
		c-0.5-0.6-1-1.2-1.6-1.8c-3.1-3-7.1-4.6-10.8-6.5c-4.1-2-8-4.3-11.7-6.9c-0.7-0.5-1.3-1-1.9-1.6c-0.6-0.6-1.2-1.2-1.7-1.8
		s-1-1.3-1.5-2c-0.5-0.7-0.9-1.4-1.2-2.1c-0.4-0.7-0.7-1.5-0.9-2.3c-0.3-0.8-0.5-1.6-0.7-2.4c-0.2-0.8-0.3-1.6-0.4-2.4
		c-0.1-0.8-0.1-1.6-0.1-2.5c0-0.8,0.1-1.6,0.3-2.5c0.1-0.8,0.3-1.6,0.6-2.4c0.2-0.8,0.5-1.6,0.8-2.3c0.3-0.8,0.7-1.5,1.1-2.2
		c0.4-0.7,0.9-1.4,1.4-2c0.5-0.7,1.1-1.3,1.6-1.9c0.6-0.6,1.2-1.1,1.9-1.6c0.7-0.5,1.3-1,2-1.4c9.2-5.7,24.6-4.1,31.7,3.2
		c0.2,0.2,0.5,0.5,0.7,0.7c3.6,4.2,3.5,5.3-1.3,7.7c-0.5,0.2-1,0.5-1.5,0.8c-2.6,1.8-4.3,2.1-6.6-1c-3.1-4.2-9.9-4.9-14.6-2.4
		c-0.5,0.3-1.1,0.7-1.5,1.1c-0.5,0.4-0.9,0.9-1.3,1.4c-0.4,0.5-0.7,1-0.9,1.6c-0.3,0.6-0.4,1.2-0.6,1.8c-0.1,0.6-0.2,1.2-0.2,1.9
		c0,0.6,0.1,1.2,0.2,1.9c0.1,0.6,0.4,1.2,0.6,1.8s0.6,1.1,1,1.6c3.1,3.9,7.5,5.9,11.7,7.9c4,1.8,7.7,3.8,11.3,6.3
		c1.2,0.9,2.3,1.9,3.3,3s1.9,2.3,2.6,3.6c0.7,1.3,1.4,2.6,1.8,4c0.5,1.4,0.8,2.8,1,4.3c0.2,1.5,0.2,2.9,0.1,4.4
		c-0.1,1.5-0.4,2.9-0.7,4.4c-0.4,1.4-0.9,2.8-1.6,4.1c-0.7,1.3-1.5,2.6-2.4,3.7C409,253,401.7,254.4,394.7,254.6z"/>
	<path class="st4" d="M700.2,227.3c-0.2-1.5-0.3-3.2-0.6-4.8c-1.3-6.3-5.9-10.2-12-10.3c-6.5-0.2-11.3,3.3-13.1,9.6
		c-1.2,4.4-1.2,8.7-0.1,13.1c1.3,4.9,4.3,8.3,9.4,9.2c5.3,1,9.8-0.4,13.1-5C699.6,235.5,700.2,231.6,700.2,227.3L700.2,227.3z
		 M699.5,209.2c0.9-5.6,0.9-5.7,7.1-5.6c5.2,0,4.7-0.9,4.8,4.8c0,13.8-0.1,27.5,0.1,41.3c0,2.6-0.9,3.4-3.2,3.2
		c-1.2-0.1-2.4,0-3.7,0c-4.6,0-4.6,0-4.8-4.7c-0.3,0-0.7,0-0.9,0.1c-6.3,7-14.3,7.8-22.6,5.3c-8.6-2.6-12.7-9.5-14.1-17.8
		c-1.4-8.3-1.1-16.8,3.8-24.4c0.9-1.4,1.9-2.6,3-3.7c1.2-1.1,2.4-2.1,3.8-2.9c1.4-0.8,2.8-1.5,4.4-1.9c1.5-0.5,3.1-0.8,4.7-0.9
		c1.6-0.1,3.2,0,4.8,0.2c1.6,0.3,3.1,0.7,4.6,1.3c1.5,0.6,2.9,1.4,4.2,2.4c1.3,1,2.5,2,3.5,3.3C699.1,209.1,699.4,209.1,699.5,209.2
		z"/>
	<path class="st4" d="M453.1,222.1c3.6,0,7.1-0.1,10.7,0c2.5,0.1,2.9-0.8,2.1-2.9c-1.8-5.1-6.3-7.7-13.1-7.5
		c-5.9,0.2-10.5,3.6-11.9,8.5c-0.5,1.7,0.2,1.9,1.6,1.9C446,222,449.6,222.1,453.1,222.1L453.1,222.1z M459,229.9
		c-5.6,0-11.1,0.1-16.7,0c-2.4-0.1-2.9,0.9-2.4,3c1.3,5.1,3.8,9.4,9.3,10.7c6,1.4,11.7,0.4,16.1-4.7c3.6-4.2,3.6-4.3,8.5-1.5
		c0.5,0.4,1.1,0.7,1.7,1c2.4,0.9,2.4,2.2,1.1,4.3c-8.2,12.6-23.1,14.4-34.2,10.1c-11.5-4.4-17.1-16.9-14.1-31
		c2.1-9.9,8.1-16.5,17.9-18.9c9.9-2.4,19.1-1.2,26.4,6.6c4.8,5.2,6,11.7,6,18.5c0,2-1.2,2-2.6,2C470.3,229.9,464.6,229.9,459,229.9
		L459,229.9z"/>
	<path class="st4" d="M741.4,254.6c-8.2,0.2-14.6-1.8-19-8.3c-1.4-2-1.4-3.3,1.1-4.3c0.7-0.3,1.4-0.7,2-1.1c2.7-1.7,4.8-3.1,7.2,1.1
		c2.2,3.9,9.3,4.9,13.3,2.8c3.8-2,4.3-6.2,1-9c-1.9-1.4-3.9-2.5-6.2-3.2c-3.9-1.3-7.6-3.1-11.1-5.3c-8.2-5.6-8.4-16.3-0.4-22.2
		c6.8-5,19.4-4.9,25.7,0.3c3.8,3.1,3.7,4.1-0.2,6.8c-0.8,0.5-1.5,1-2.2,1.6c-1.5,1.4-2.5,1.4-4-0.4c-0.6-0.8-1.4-1.4-2.3-1.9
		c-0.9-0.5-1.8-0.8-2.8-1c-1-0.2-2-0.2-2.9,0c-1,0.2-1.9,0.5-2.8,1c-3,1.8-3.4,5-0.8,7.4c2.1,2,4.8,2.8,7.3,3.8
		c3.1,1.1,6.1,2.5,9.1,4c5.5,3.2,7.8,8,7.1,14.2c-0.7,6-4.3,9.8-9.8,12C747.7,254.2,744.6,254.7,741.4,254.6z"/>
	<path class="st4" d="M649.7,212.8c0,12.2-0.1,24.4,0.1,36.6c0,2.6-0.7,3.4-3.4,3.4c-8.4-0.1-8.4,0-8.4-8.3
		c0-22.9,0.1-45.7-0.1-68.5c0-2.9,0.6-3.8,3.7-3.7c8.2,0.2,8.1,0.1,8.1,8.2C649.7,191.3,649.7,202.1,649.7,212.8L649.7,212.8z"/>
	<path class="st4" d="M621.9,212.7c0,12.2-0.1,24.4,0,36.6c0,2.5-0.5,3.5-3.2,3.5c-8.3,0-8.3,0.1-8.3-8.4c0-22.8,0.1-45.5,0-68.2
		c0-2.9,0.5-4,3.7-3.9c7.8,0.3,7.8,0.1,7.8,8.1C621.9,191.2,621.9,201.9,621.9,212.7L621.9,212.7z"/>
	<path class="st4" d="M582.6,228c0-7.1,0.1-14.2,0-21.3c0-2.4,0.5-3.3,3.1-3.2c8.6,0.1,8.6,0,8.6,8.6c0,12.5-0.1,25.1,0,37.6
		c0,2.5-0.8,3.2-3.2,3.2c-8.5,0.1-8.5,0.1-8.5-8.2L582.6,228z"/>
	<path class="st4" d="M588.5,175.4c1,0,1.9,0.1,2.8,0.5c0.9,0.4,1.7,0.9,2.3,1.6c0.7,0.7,1.2,1.5,1.5,2.4c0.3,0.9,0.5,1.8,0.4,2.8
		c0,1-0.1,1.9-0.5,2.8c-0.3,0.9-0.9,1.7-1.5,2.3c-0.7,0.7-1.4,1.2-2.3,1.6c-0.9,0.4-1.8,0.6-2.7,0.6c-1,0-1.9-0.1-2.8-0.5
		c-0.9-0.4-1.7-0.9-2.4-1.6c-0.7-0.7-1.2-1.5-1.6-2.4c-0.4-0.9-0.5-1.9-0.5-2.8c0-0.9,0.2-1.9,0.6-2.7c0.4-0.9,0.9-1.6,1.6-2.3
		c0.7-0.7,1.5-1.2,2.3-1.5C586.7,175.6,587.6,175.4,588.5,175.4z"/>
</g>
</svg>
