<?xml version="1.0" encoding="utf-8"?>
<!-- Generator: Adobe Illustrator 27.9.4, SVG Export Plug-In . SVG Version: 9.03 Build 54784)  -->
<svg version="1.1" id="Capa_1" xmlns="http://www.w3.org/2000/svg" xmlns:xlink="http://www.w3.org/1999/xlink" x="0px" y="0px"
	 viewBox="0 0 350 350" style="enable-background:new 0 0 350 350;" xml:space="preserve">
<style type="text/css">
	.st0{fill:#F6F3D7;}
</style>
<g>
	<g id="_x37_25_x2C__Agriculture_x2C__apples_x2C__farm_x2C__farming">
		<g>
			<path class="st0" d="M25.6,326.8H325v-55.7H25.6V326.8z M289.9,288.4c5.6,0,10.6,4.4,10.6,10.6c0,6.1-4.5,10.6-10.6,10.6
				c-6.1,0-10.6-4.5-10.6-10.6C279.4,292.8,284.4,288.4,289.9,288.4z M60.6,288.4c5.6,0,10.6,4.4,10.6,10.6
				c0,6.1-4.5,10.6-10.6,10.6c-6.1,0-10.6-5-10.6-10.6C50.1,293.4,54.5,288.4,60.6,288.4z"/>
			<path class="st0" d="M53.4,134.2c2.2,2.2,4.5,3.3,7.2,4.5h56.8c7.8-6.1,12.2-12.2,12.8-18.4c0.6-4.5-1.7-9.5-6.1-13.4
				c-3.3-3.3-8.3-5.6-13.4-5.6c-1.1,0-2.2,0-3.3,0.6c-0.6,0-1.1,0.6-1.1,0.6h-0.6l0,0c8.9-12.2,16.1-11.1,16.1-11.1l0,0l1.7-6.7
				c-1.1,0-10.6-1.7-21.2,11.1c1.1-6.1-1.1-12.2-5.6-16.7c-3.9-3.9-8.3-6.1-12.2-6.1c-11.7,0-22.8,14.5-28.4,28.4
				C48.9,115.3,48.4,129.2,53.4,134.2z"/>
			<path class="st0" d="M147.5,138.7h56.8c7.8-6.1,12.2-12.2,12.8-18.4c0.6-4.5-1.7-9.5-6.1-13.4c-3.3-3.3-8.3-5.6-13.4-5.6
				c-1.1,0-2.2,0-3.3,0.6c-0.6,0-1.1,0.6-1.1,0.6h-0.6l0,0c8.9-12.2,16.1-11.1,16.1-11.1l0,0l1.7-6.7c-1.1,0-10.6-1.7-21.1,11.1
				c1.1-6.1-1.1-12.2-5.6-16.7c-3.9-3.9-8.3-6.1-12.2-6.1c-11.7,0-22.8,14.5-28.4,28.4c-6.1,14.5-6.7,27.8-1.7,32.8
				C142.5,136.4,144.7,137.6,147.5,138.7z"/>
			<path class="st0" d="M217,48.5c5.6,0,10.6-4.5,10.6-10.6c0-6.1-5-10.6-10.6-10.6s-10.6,4.5-10.6,10.6
				C206.5,44.1,211.5,48.5,217,48.5z"/>
			<path class="st0" d="M227.1,134.2c2.2,2.2,4.5,3.3,7.2,4.5h56.8c7.8-6.1,12.2-12.2,12.8-18.4c0.6-4.5-1.7-9.5-6.1-13.4
				c-3.3-3.3-8.3-5.6-13.4-5.6c-1.1,0-2.2,0-3.3,0.6c-0.6,0-1.1,0.6-1.1,0.6h-0.6l0,0c8.9-12.2,16.1-11.1,16.1-11.1l0,0l1.7-6.7
				c-1.1,0-10.6-1.7-21.2,11.1c1.1-6.1-1.1-12.2-5.6-16.7c-3.9-3.9-8.3-6.1-12.2-6.1c-11.7,0-22.8,14.5-28.4,28.4
				C223.2,115.3,222.6,129.2,227.1,134.2z"/>
			<path class="st0" d="M53.4,48.5c3.9,0,7.2-3.3,7.2-7.2c0-3.9-3.3-7.2-7.2-7.2c-3.9,0-7.2,3.3-7.2,7.2
				C46.7,45.2,49.5,48.5,53.4,48.5z"/>
			<path class="st0" d="M292.2,145.9h-58.4h-28.4h-58.4h-28.4H60.1h-34v55.7h299.4v-55.7H292.2z M60.6,184.3
				c-5.6,0-10.6-4.5-10.6-10.6c0-6.1,4.5-10.6,10.6-10.6c6.1,0,10.6,4.5,10.6,10.6C71.2,179.9,66.2,184.3,60.6,184.3z M289.9,184.3
				c-5.6,0-10.6-4.5-10.6-10.6c0-6.1,4.5-10.6,10.6-10.6c6.1,0,10.6,4.5,10.6,10.6C300.5,179.9,296.1,184.3,289.9,184.3z"/>
			<path class="st0" d="M25.6,263.9H325v-55.7H25.6V263.9z M289.9,226.1c5.6,0,10.6,4.4,10.6,10.6c0,6.1-4.5,10-10.6,10
				c-6.1,0-10.6-4.5-10.6-10.6C279.4,229.9,284.4,226.1,289.9,226.1z M60.6,226.1c5.6,0,10.6,4.4,10.6,10.6c0,6.1-5,10-10.6,10
				c-5.6,0-10.6-4.5-10.6-10.6C50.1,229.9,54.5,226.1,60.6,226.1z"/>
			<path class="st0" d="M123,51.8c5.6,0,10.6-4.5,10.6-10.6c0-6.1-4.5-10.6-10.6-10.6c-6.1,0-10.6,4.5-10.6,10.6
				C112.4,47.4,117.4,51.8,123,51.8z"/>
			<path class="st0" d="M291.1,64.6c5.6,0,10.6-4.5,10.6-10.6c0-6.1-4.5-10.6-10.6-10.6c-6.1,0-10.6,4.4-10.6,10.6
				C280.5,60.2,284.9,64.6,291.1,64.6z"/>
		</g>
	</g>
</g>
</svg>
