<?xml version="1.0" encoding="utf-8"?>
<!-- Generator: Adobe Illustrator 27.9.4, SVG Export Plug-In . SVG Version: 9.03 Build 54784)  -->
<svg version="1.1" id="Capa_1" xmlns="http://www.w3.org/2000/svg" xmlns:xlink="http://www.w3.org/1999/xlink" x="0px" y="0px"
	 viewBox="0 0 350 350" style="enable-background:new 0 0 350 350;" xml:space="preserve">
<style type="text/css">
	.st0{fill:#F6F3D7;}
</style>
<g>
	<g id="_x37_15_x2C__Agriculture_x2C__farm_x2C__farming_x2C__truck">
		<g>
			<path class="st0" d="M113.3,29.4h40.8v34.2h-40.8V29.4z M130.2,50.1h7.1c1.6,0,3.3-1.6,3.3-3.3c0-1.6-1.6-3.3-3.3-3.3h-7.1
				c-1.6,0-3.3,1.6-3.3,3.3C126.9,48.4,128.5,50.1,130.2,50.1z"/>
			<path class="st0" d="M113.3,110.9h40.8v34.2h-40.8V110.9z M130.2,131.6h7.1c1.6,0,3.3-1.6,3.3-3.3c0-1.6-1.6-3.3-3.3-3.3h-7.1
				c-1.6,0-3.3,1.6-3.3,3.3C126.9,130,128.5,131.6,130.2,131.6z"/>
			<path class="st0" d="M113.3,70.2h40.8v34.2h-40.8V70.2z M130.2,90.8h7.1c1.6,0,3.3-1.6,3.3-3.3c0-1.6-1.6-3.3-3.3-3.3h-7.1
				c-1.6,0-3.3,1.6-3.3,3.3C126.9,89.2,128.5,90.8,130.2,90.8z"/>
			<path class="st0" d="M113.3,151.7h40.8v34.2h-40.8V151.7z M130.2,172.3h7.1c1.6,0,3.3-1.6,3.3-3.3c0-1.6-1.6-3.3-3.3-3.3h-7.1
				c-1.6,0-3.3,1.6-3.3,3.3C126.9,170.7,128.5,172.3,130.2,172.3z"/>
			<path class="st0" d="M161.1,29.4h40.8v34.2h-40.8V29.4z M178,50.1h7.1c1.6,0,3.3-1.6,3.3-3.3c0-1.6-1.6-3.3-3.3-3.3H178
				c-1.6,0-3.3,1.6-3.3,3.3C174.7,48.4,176.4,50.1,178,50.1z"/>
			<path class="st0" d="M161.1,70.2h40.8v34.2h-40.8V70.2z M178,90.8h7.1c1.6,0,3.3-1.6,3.3-3.3c0-1.6-1.6-3.3-3.3-3.3H178
				c-1.6,0-3.3,1.6-3.3,3.3C174.7,89.2,176.4,90.8,178,90.8z"/>
			<path class="st0" d="M66,151.7h40.8v34.2H66V151.7z M82.9,172.3h7.1c1.6,0,3.3-1.6,3.3-3.3c0-1.6-1.6-3.3-3.3-3.3h-7.1
				c-1.6,0-3.3,1.6-3.3,3.3C79.6,170.7,81.3,172.3,82.9,172.3z"/>
			<path class="st0" d="M256.3,50.1c-7.6,0-13.6-6-13.6-13.6s6-13.6,13.6-13.6c7.6,0,13.6,6,13.6,13.6S263.9,50.1,256.3,50.1z"/>
			<path class="st0" d="M306.8,104.4c-5.4,0-10.3-4.3-10.3-10.3c0-6,4.3-10.3,10.3-10.3c6,0,10.3,4.3,10.3,10.3
				C317.1,100.1,312.8,104.4,306.8,104.4z"/>
			<path class="st0" d="M66,29.4h40.8v34.2H66V29.4z M82.9,50.1h7.1c1.6,0,3.3-1.6,3.3-3.3c0-1.6-1.6-3.3-3.3-3.3h-7.1
				c-1.6,0-3.3,1.6-3.3,3.3C79.6,48.4,81.3,50.1,82.9,50.1z"/>
			<path class="st0" d="M66,70.2h40.8v34.2H66V70.2z M82.9,90.8h7.1c1.6,0,3.3-1.6,3.3-3.3c0-1.6-1.6-3.3-3.3-3.3h-7.1
				c-1.6,0-3.3,1.6-3.3,3.3C79.6,89.2,81.3,90.8,82.9,90.8z"/>
			<path class="st0" d="M161.1,110.9h40.8v34.2h-40.8V110.9z M178,131.6h7.1c1.6,0,3.3-1.6,3.3-3.3c0-1.6-1.6-3.3-3.3-3.3H178
				c-1.6,0-3.3,1.6-3.3,3.3C174.7,130,176.4,131.6,178,131.6z"/>
			<path class="st0" d="M66,110.9h40.8v34.2H66V110.9z M82.9,131.6h7.1c1.6,0,3.3-1.6,3.3-3.3c0-1.6-1.6-3.3-3.3-3.3h-7.1
				c-1.6,0-3.3,1.6-3.3,3.3C79.6,130,81.3,131.6,82.9,131.6z"/>
			<path class="st0" d="M72.6,264.2c0-4.3,1.1-8.1,3.3-12c4.3-7.1,12-12,20.7-12c8.7,0,16.3,4.3,20.7,12c2.2,3.8,3.3,7.6,3.3,12
				c0,13-10.9,23.9-23.9,23.9C83.4,288.1,72.6,277.2,72.6,264.2z M96.5,270.7c3.8,0,7.1-3.3,7.1-7.1c0-3.8-3.3-7.1-6.5-7.1l0,0
				c-3.8,0-7.1,3.3-7.1,7.1C89.4,267.5,92.7,270.7,96.5,270.7z"/>
			<path class="st0" d="M298.6,246.8C298.6,246.8,298.1,246.8,298.6,246.8c-0.5-0.5-1.1-1.1-1.1-1.6l-0.5-0.5c0-0.5-0.5-0.5-0.5-1.1
				l-0.5-0.5c0-0.5-0.5-0.5-0.5-1.1l-0.5-0.5l-0.5-0.5l-0.5-0.5c-0.5,0-0.5-0.5-1.1-0.5l-0.5-0.5c-0.5,0-0.5-0.5-1.1-0.5l-0.5-0.5
				c-0.5,0-0.5-0.5-1.1-0.5l-0.5-0.5c-0.5,0-0.5-0.5-1.1-0.5c0,0-0.5,0-0.5-0.5c-0.5,0-0.5-0.5-1.1-0.5c0,0-0.5,0-0.5-0.5
				c-0.5,0-0.5,0-1.1-0.5c0,0-0.5,0-0.5-0.5c-0.5,0-0.5,0-1.1-0.5h-0.5c-0.5,0-0.5,0-1.1,0h-0.5c-0.5,0-0.5,0-1.1,0h-0.5
				c-0.5,0-1.1,0-1.1,0h-0.5c-0.5,0-1.1,0-2.2,0c-1.1,0-1.1,0-2.2,0h-0.5c-0.5,0-1.1,0-1.1,0h-0.5c-0.5,0-0.5,0-1.1,0h-0.5
				c-0.5,0-0.5,0-1.1,0c-0.5,0-0.5,0-0.5,0c-0.5,0-0.5,0-1.1,0.5c0,0-0.5,0-0.5,0.5c-0.5,0-0.5,0-1.1,0.5c0,0-0.5,0-0.5,0.5
				c-0.5,0-0.5,0.5-1.1,0.5c0,0-0.5,0-0.5,0.5c-0.5,0-0.5,0.5-1.1,0.5l-0.5,0.5c-3.8,0.5-4.3,0.5-4.3,0.5l-0.5,0.5
				c-0.5,0-0.5,0.5-1.1,0.5l-0.5,0.5c-0.5,0-0.5,0.5-1.1,0.5l-0.5,0.5c-0.5,0-0.5,0.5-0.5,0.5l-0.5,0.5c0,0-0.5,0.5-0.5,1.1
				l-0.5,0.5c-0.5,0.5-0.5,0.5-0.5,1.1l-0.5,0.5c-0.5,0.5-0.5,1.1-1.1,1.1c0,0,0,0,0,0.5l0,0h-12V136.5h42.4l26.6,42.4h-41.8V162
				c0-1.6-1.6-3.3-3.3-3.3c-1.6,0-3.3,1.6-3.3,3.3v20.7c0,1.6,1.6,3.3,3.3,3.3h47.8c0.5,0,1.1,0,1.6-0.5l15.2,23.9v37.5H298.6
				L298.6,246.8z M273.1,206H266c-1.6,0-3.3,1.6-3.3,3.3c0,1.6,1.6,3.3,3.3,3.3h7.1c1.6,0,3.3-1.6,3.3-3.3
				C276.4,207.7,274.7,206,273.1,206z"/>
			<path class="st0" d="M122,246.8C122,246.8,121.5,246.8,122,246.8c-0.5-0.5-1.1-1.1-1.1-1.6l-0.5-0.5c0-0.5-0.5-0.5-0.5-1.1
				l-0.5-0.5c0-0.5-0.5-0.5-0.5-1.1l-0.5-0.5l-0.5-0.5l-0.5-0.5c-0.5,0-0.5-0.5-1.1-0.5l-0.5-0.5c-0.5,0-0.5-0.5-1.1-0.5l-0.5-0.5
				c-0.5,0-0.5-0.5-1.1-0.5l-0.5-0.5c-0.5,0-0.5-0.5-1.1-0.5c0,0-0.5,0-0.5-0.5c-0.5,0-0.5-0.5-1.1-0.5c0,0-0.5,0-0.5-0.5
				c-0.5,0-0.5,0-1.1-0.5c0,0-0.5,0-0.5-0.5c-0.5,0-0.5,0-1.1-0.5c0,0-0.5,0-1.1,0c-0.5,0-0.5,0-1.1,0h-0.5c-0.5,0-0.5,0-1.1,0h-0.5
				c-0.5,0-1.1,0-1.1,0h-0.5c-0.5,0-1.1,0-2.2,0c-1.1,0-1.1,0-2.2,0h-0.5c-0.5,0-1.1,0-1.1,0h-0.5c-0.5,0-0.5,0-1.1,0h-0.5
				c-0.5,0-0.5,0-1.1,0c-0.5,0-0.5,0-1.1,0c-0.5,0-0.5,0-1.1,0.5c-0.5,0-0.5,0-0.5,0.5c-0.5,0-0.5,0-1.1,0.5c0,0-0.5,0-0.5,0.5
				c-0.5,0-0.5,0.5-1.1,0.5c0,0-0.5,0-0.5,0.5c-0.5,0-0.5,0.5-1.1,0.5l-0.5,0.5c-0.5,0-0.5,0.5-1.1,0.5l-0.5,0.5
				c-0.5,0-0.5,0.5-1.1,0.5l-0.5,0.5c-0.5,0-0.5,0.5-1.1,0.5l-0.5,0.5c-0.5,0-0.5,0.5-0.5,0.5l-0.5,0.5c0,0-0.5,0.5-0.5,1.1
				l-0.5,0.5c-0.5,0.5-0.5,0.5-0.5,1.1l-0.5,0.5c-0.5,0.5-0.5,1.1-1.1,1.1c0,0,0,0,0,0.5l0,0H35.1v-27.2h194v27.2H122L122,246.8z"/>
			<path class="st0" d="M31.8,196.8v-4.3v-90.8c0-1.6,1.6-3.3,3.3-3.3c1.6,0,3.3,1.6,3.3,3.3V118H59v30.4v37.5H38.3v7.1h23.9h47.8
				h47.8h47.8h23.9v20.6H32.3v-16.8H31.8z"/>
			<path class="st0" d="M161.1,151.7h40.8v34.2h-40.8V151.7z M178,172.3h7.1c1.6,0,3.3-1.6,3.3-3.3c0-1.6-1.6-3.3-3.3-3.3H178
				c-1.6,0-3.3,1.6-3.3,3.3C174.7,170.7,176.4,172.3,178,172.3z"/>
			<path class="st0" d="M249.2,264.2c0-4.3,1.1-8.1,3.3-12l0,0c3.3-5.4,8.2-9.2,14.7-10.9c2.2-0.5,3.8-1.1,6-1.1
				c7.6,0,14.1,3.3,19,9.2c0.5,1.1,1.1,1.6,1.6,2.7c2.2,3.8,3.3,7.6,3.3,12c0,13-10.9,23.9-23.9,23.9
				C260.1,288.1,249.2,277.2,249.2,264.2z M273.1,270.7c3.8,0,7.1-3.3,7.1-7.1c0-3.8-3.3-7.1-6.5-7.1l0,0c-3.8,0-7.1,3.3-7.1,7.1
				C266,267.5,269.3,270.7,273.1,270.7z"/>
			<polygon class="st0" points="208.4,148.4 208.4,118 229.1,118 229.1,133.2 229.1,134.8 229.1,185.9 208.4,185.9 			"/>
			<path class="st0" d="M273.1,287.6h40.8c1.6,0,3.3,1.6,3.3,3.3c0,1.6-1.6,3.3-3.3,3.3H28.5c-1.6,0-3.3-1.6-3.3-3.3
				c0-1.6,1.6-3.3,3.3-3.3h67.9H273.1z"/>
			<path class="st0" d="M279.6,308.2c1.6,0,3.3,1.6,3.3,3.3c0,1.6-1.6,3.3-3.3,3.3H110.1c-1.6,0-3.3-1.6-3.3-3.3
				c0-1.6,1.6-3.3,3.3-3.3H279.6z"/>
			<path class="st0" d="M28.5,328.3h285.3c1.6,0,3.3,1.6,3.3,3.3c0,1.6-1.6,3.3-3.3,3.3H28.5c-1.6,0-3.3-1.6-3.3-3.3
				C25.3,330,26.9,328.3,28.5,328.3z"/>
		</g>
	</g>
</g>
</svg>
