<?xml version="1.0" encoding="utf-8"?>
<!-- Generator: Adobe Illustrator 27.9.4, SVG Export Plug-In . SVG Version: 9.03 Build 54784)  -->
<svg version="1.1" id="Capa_1" xmlns="http://www.w3.org/2000/svg" xmlns:xlink="http://www.w3.org/1999/xlink" x="0px" y="0px"
	 viewBox="0 0 350 350" style="enable-background:new 0 0 350 350;" xml:space="preserve">
<style type="text/css">
	.st0{fill:#F6F3D7;}
</style>
<g>
	<g id="_x37_01_x2C__Agriculture_x2C__crops_x2C__farm_x2C__farming_x2C__garden">
		<g>
			<path class="st0" d="M323.7,189.6c-17.4-2.8-34.2-2.8-49.8,0c-0.6,0-0.6,0-1.1,0c-1.1,0-1.7,0.6-2.8,0.6
				c-22.4,4.5-41.4,14.6-57.1,29.7c-15.7,15.7-25.8,35.3-30.2,58.2c0,0.6,0,1.1-0.6,1.7l0,0l0,0c-2.8,14.6-2.8,29.7-0.6,45.9
				l35.8-35.8c9-18.5,0-28.6,0-28.6c-1.1-1.7-1.1-3.9,0-5c1.7-1.1,3.9-1.1,5,0c0.6,0.6,7.3,8.4,5.6,22.4l23-23c9-18.5,0-28.6,0-28.6
				c-1.1-1.7-1.1-3.9,0-5c1.7-1.1,3.9-1.1,5,0c0.6,0.6,7.3,8.4,5.6,22.4l11.8-11.8c1.1-1.1,3.4-1.1,5,0c1.1,1.1,1.1,3.4,0,5
				l-21.3,23l0,0c-0.6,0.6-1.1,1.1-1.7,1.7l0,0c14.6-2.2,23,5,23.5,5c1.7,1.1,1.7,3.4,0,5c-1.1,1.7-3.4,1.7-5,0
				c-0.6-0.6-10.6-9-29.7,0.6l0,0l-20.7,21.3l0,0c-0.6,0.6-1.1,1.1-1.7,1.7l0,0c14.6-2.2,23,5,23.5,5c1.7,1.1,1.7,3.4,0,5
				c-1.1,1.7-3.4,1.7-5,0c-0.6-0.6-10.6-9-29.7,0.6l0,0l-24.1,24.1c7.3,1.1,14,1.7,21.3,1.7l0,0c9,0,17.9-0.6,25.8-2.2
				c23.5-4.5,43.7-14.6,59.4-30.2c15.1-15.7,25.8-34.7,30.2-57.7C326,225.4,326.5,208.1,323.7,189.6z"/>
			<path class="st0" d="M169.7,280.9L169.7,280.9c0-1.1,0-1.7-0.6-2.2c-4.5-23-14.6-43.1-30.2-58.2c-15.1-15.1-34.2-25.2-57.1-29.7
				c-0.6,0-1.7-0.6-2.2-0.6c-0.6,0-1.1,0-1.7-0.6c-15.7-2.8-32.5-2.8-49.3,0c-2.8,18.5-2.8,36.4,0.6,53.2
				c4.5,23,14.6,42.6,30.2,57.7c15.7,15.7,35.8,25.8,59.4,30.2c14.6,2.8,30.8,2.8,47,1.1l-24.1-24.1l0,0
				c-19.6-10.1-30.2-1.1-30.2-1.1c-1.7,1.1-3.9,1.1-5,0c-1.1-1.7-1.1-3.9,0-5c0.6-0.6,9-7.8,23.5-5l0,0c-0.6-0.6-1.1-1.1-1.7-1.7
				l0,0l-20.7-20.7l0,0c-19-10.1-29.7-1.1-29.7-1.1c-1.7,1.1-3.9,1.1-5,0c-1.1-1.7-1.1-3.9,0-5c0.6-0.6,9-7.8,23.5-5l0,0
				c-0.6-0.6-1.1-1.1-1.7-1.7l0,0l-21.3-21.8c-1.1-1.1-1.1-3.4,0-5c1.1-1.1,3.4-1.1,5,0l11.8,11.8c-2.2-14,5-22.4,5.6-22.4
				c1.1-1.7,3.4-1.7,5,0c1.7,1.1,1.7,3.4,0,5c-0.6,0.6-9,10.6,0,28.6l23,23c-2.2-14,5-22.4,5.6-22.4c1.1-1.7,3.4-1.7,5,0
				c1.7,1.1,1.7,3.4,0,5c-0.6,0.6-9,10.6,0,28.6l35.8,35.8C172,310.6,172,295.4,169.7,280.9L169.7,280.9z"/>
			<path class="st0" d="M181.5,257.4c0-0.6,0.6-1.7,0.6-2.2c0-0.6,0.6-1.1,0.6-1.7c0.6-0.6,0.6-1.7,1.1-2.2c0-0.6,0.6-1.1,1.1-1.7
				c0.6-0.6,0.6-1.7,1.1-2.2c0.6-0.6,0.6-1.1,1.1-1.7c0.6-0.6,0.6-1.1,1.1-2.2c0.6-0.6,0.6-1.1,1.1-1.7c0.6-0.6,0.6-1.1,1.1-2.2
				c0.6-0.6,0.6-1.1,1.1-1.7c0.6-0.6,0.6-1.1,1.1-1.7c0.6-0.6,0.6-1.1,1.1-1.7c0.6-0.6,0.6-1.1,1.1-1.7c0.6-0.6,1.1-1.1,1.1-1.7
				c0.6-0.6,0.6-1.1,1.1-1.7c0.6-0.6,1.1-1.1,1.7-1.7c0.6-0.6,0.6-1.1,1.1-1.7c0.6-0.6,1.1-1.1,1.7-2.2c0.6-0.6,0.6-1.1,1.1-1.1
				c0.6-0.6,1.1-1.7,2.2-2.2c0.6-0.6,0.6-0.6,1.1-1.1c1.1-1.1,2.2-2.2,2.8-3.4c16.2-16.2,36.4-26.9,60.5-31.9c0.6,0,0.6,0,1.1,0
				c0,0,0,0,0-0.6c0-52.1-42-94.1-94.1-94.1c-52.1,0-94.1,42-94.1,94.1l0,0c0.6,0,1.1,0,1.7,0.6c24.1,5,44.2,15.7,60.5,31.9
				c1.1,1.1,2.2,2.2,2.8,3.4c0.6,0.6,0.6,0.6,1.1,1.1c0.6,0.6,1.1,1.7,2.2,2.2c-0.6-0.6,0,0,0,0c0.6,0.6,1.1,1.1,1.7,2.2
				c0.6,0.6,0.6,1.1,1.1,1.1c0.6,0.6,1.1,1.1,1.7,2.2c0.6,0.6,0.6,1.1,1.1,1.7c0.6,0.6,1.1,1.1,1.7,2.2c0.6,0.6,0.6,1.1,1.1,1.7
				c0.6,0.6,1.1,1.1,1.1,2.2c0.6,0.6,0.6,1.1,1.1,1.7c0.6,0.6,1.1,1.1,1.1,2.2c0.6,0.6,0.6,1.1,1.1,1.7c0.6,0.6,0.6,1.7,1.1,2.2
				c0.6,0.6,0.6,1.1,1.1,1.7c0.6,0.6,0.6,1.7,1.1,2.2c0,0.6,0.6,1.1,0.6,1.7c0.6,0.6,0.6,1.7,1.1,2.2c0,0.6,0.6,1.1,0.6,1.7
				c0.6,0.6,0.6,1.7,1.1,2.2c0,0.6,0.6,1.1,0.6,1.7c0,0.6,0.6,1.7,0.6,2.2c0,0.6,0.6,1.1,0.6,2.2c0,0.6,0.6,1.7,0.6,2.2
				c0,0.6,0.6,1.1,0.6,2.2c0,0.6,0.6,1.7,0.6,2.2s0.6,1.1,0.6,2.2c0,0.6,0.6,1.7,0.6,2.2c0,0.6,0.6,1.7,0.6,2.2
				c0,0.6,0.6,1.7,0.6,2.2l0,0c0-0.6,0.6-1.1,0.6-2.2c0-0.6,0.6-1.7,0.6-2.2c0-0.6,0.6-1.7,0.6-2.2c0-0.6,0.6-1.7,0.6-2.2
				s0.6-1.7,0.6-2.2c0-0.6,0.6-1.7,0.6-2.2c0-0.6,0.6-1.1,0.6-2.2c0-0.6,0.6-1.7,0.6-2.2C180.9,258.5,180.9,257.9,181.5,257.4z
				 M189.3,116.2c25.8,0,47,21.3,47,47c0,1.7-1.7,3.4-3.4,3.4c-1.7,0-3.9-1.7-3.9-3.9c0-21.8-17.9-39.8-39.8-39.8
				c-1.7,0-3.4-1.7-3.4-3.4C186,117.4,187.6,116.2,189.3,116.2z"/>
			<path class="st0" d="M175.3,60.8c1.7,0,3.4-1.7,3.4-3.4V14.3c0-1.7-1.7-3.4-3.4-3.4c-1.7,0-3.4,1.7-3.4,3.4v43.1
				C172,59.1,173.6,60.8,175.3,60.8z"/>
			<path class="st0" d="M236.9,77c0.6,0.6,1.1,0.6,1.7,0.6c1.1,0,2.2-0.6,2.8-1.7l21.8-37.5c1.1-1.7,0.6-3.9-1.1-5
				c-1.7-1.1-3.9-0.6-5,1.1L235.3,72C234.7,73.7,235.3,75.9,236.9,77z"/>
			<path class="st0" d="M284.5,123.5c0.6,0,1.1,0,1.7-0.6l37.5-21.8c1.7-1.1,2.2-3.4,1.1-5c-1.1-1.7-3.4-2.2-5-1.1l-37.5,21.8
				c-1.7,1.1-2.2,3.4-1.1,5C282.3,123,283.4,123.5,284.5,123.5z"/>
			<path class="st0" d="M27.5,101.1L65,123c0.6,0.6,1.1,0.6,1.7,0.6c1.1,0,2.2-0.6,2.8-1.7c1.1-1.7,0.6-3.9-1.1-5L30.8,95
				c-1.7-1.1-3.9-0.6-5,1.1C25.2,98.3,25.8,100.6,27.5,101.1z"/>
			<path class="st0" d="M109.8,75.3c0.6,1.1,1.7,1.7,2.8,1.7c0.6,0,1.1,0,1.7-0.6c1.7-1.1,2.2-3.4,1.1-5L93.6,33.9
				c-1.1-1.7-3.4-2.2-5-1.1c-1.7,1.1-2.2,3.4-1.1,5L109.8,75.3z"/>
		</g>
	</g>
</g>
</svg>
