<?xml version="1.0" encoding="utf-8"?>
<!-- Generator: Adobe Illustrator 27.9.4, SVG Export Plug-In . SVG Version: 9.03 Build 54784)  -->
<svg version="1.1" id="Capa_1" xmlns="http://www.w3.org/2000/svg" xmlns:xlink="http://www.w3.org/1999/xlink" x="0px" y="0px"
	 viewBox="0 0 350 350" style="enable-background:new 0 0 350 350;" xml:space="preserve">
<style type="text/css">
	.st0{fill:#F6F3D7;}
</style>
<g>
	<g>
		<g id="_x37_11_x2C__farming_x2C__food_x2C__apple">
			<g>
				<path class="st0" d="M164.9,54.4c2.3,1.7,4.7,2.9,7,4.1l0,0c4.1,1.7,8.1,2.3,12.8,2.9c4.7,0,9.9-0.6,14.5-1.7
					c0-5.2-1.2-10.5-2.9-15.1c-2.3-7-7-12.8-12.2-16.9c-5.2-4.1-12.2-6.4-19.2-6.4c-5.2,0-10.5,0.6-15.7,1.7
					c0,5.2,1.2,10.5,2.9,15.1C155,45.1,159.1,50.3,164.9,54.4z"/>
				<path class="st0" d="M49.2,188.1c5.8,0,11-4.7,11-11c0-6.4-4.7-11-11-11c-6.4,0-11,4.7-11,11C38.7,182.8,43.4,188.1,49.2,188.1z
					"/>
				<path class="st0" d="M194.5,199.1c37.8,0,69.2-30.8,69.2-69.2c0-26.7-15.7-51.2-40.1-62.8c-2.3,0.6-4.7,0.6-7,1.2
					c-0.6,0-0.6,0-1.2,0c-4.1,0-8.7-0.6-13.4-2.3h-0.6c-5.2,1.7-11,2.3-16.3,2.3c-0.6,0-1.2,0-1.2,0c-5.2,0-9.9-1.2-14.5-2.9
					c-26.7,9.9-44.8,36-44.8,64.5C125.9,168.3,156.7,199.1,194.5,199.1z M152.1,127.6c1.7,0,3.5,1.7,3.5,3.5c0,21.5,17.4,39,39,39
					c1.7,0,3.5,1.7,3.5,3.5c0,1.7-1.7,3.5-3.5,3.5c-25.6,0-46.5-20.9-46.5-46.5C148.6,128.8,150.3,127.6,152.1,127.6z"/>
				<path class="st0" d="M216.6,61.3c5.2,0,9.3-1.7,13.4-4.7c3.5-2.9,6.4-6.4,8.1-11c1.2-2.9,1.7-5.8,1.7-9.3
					c-3.5-0.6-6.4-1.2-9.3-1.2c-4.7,0-9.3,1.7-12.8,4.1c-3.5,2.9-6.4,6.4-8.1,11c-1.2,2.9-1.7,5.8-1.7,9.3
					C210.8,60.8,213.7,61.3,216.6,61.3z"/>
				<path class="st0" d="M89.3,49.7c4.1,0,7.6-3.5,7.6-7.6c0-4.1-3.5-7.6-7.6-7.6c-4.1,0-7.6,3.5-7.6,7.6
					C82.3,46.8,85.2,49.7,89.3,49.7z"/>
				<path class="st0" d="M318.4,107.8c5.8,0,11-4.7,11-11c0-6.4-4.7-11-11-11c-6.4,0-11,4.7-11,11
					C307.3,103.2,312.6,107.8,318.4,107.8z"/>
				<path class="st0" d="M312,192.7c-4.7,0-8.7,1.7-12.2,5.2l-66.3,65.7c-1.2,2.3-2.3,4.7-4.1,6.4c-4.7,4.7-11,7.6-17.4,7l-74.4-3.5
					c-1.7,0-3.5-1.7-3.5-4.1c0-1.7,1.7-3.5,4.1-3.5l74.4,3.5c4.7,0,8.7-1.7,12.2-4.7c1.2-1.2,1.7-2.3,2.3-3.5c0-1.2,0.6-1.7,1.2-2.3
					c0.6-2.3,1.2-4.7,0.6-6.4c-0.6-7.6-7-13.4-14-14l0,0L81.2,224.1l-51.7,51.7l52.9,52.9l13.4-13.4l-30.8-29.1
					c-1.2-1.2-1.2-3.5,0-5.2c1.2-1.2,3.5-1.2,5.2,0l31.4,31.4l126.7,4.7l95.3-95.4c7-7,7-17.4,0-24.4
					C320.7,194.5,316.6,192.7,312,192.7z"/>
			</g>
		</g>
	</g>
</g>
</svg>
