<?xml version="1.0" encoding="utf-8"?>
<!-- Generator: Adobe Illustrator 27.0.1, SVG Export Plug-In . SVG Version: 6.00 Build 0)  -->
<svg version="1.1" id="Capa_1" xmlns="http://www.w3.org/2000/svg" xmlns:xlink="http://www.w3.org/1999/xlink" x="0px" y="0px"
	 viewBox="0 0 300 300" style="enable-background:new 0 0 300 300;" xml:space="preserve">
<style type="text/css">
	.st0{clip-path:url(#SVGID_00000086677312285054110650000003227513688712066189_);}
	.st1{fill:#422918;}
	.st2{fill:#EFAA80;}
	.st3{fill:#F8BA8C;}
	.st4{fill:#8CB147;}
	.st5{fill:#515127;}
	.st6{fill:#E2DDB4;}
</style>
<g>
	<g>
		<defs>
			<path id="SVGID_1_" d="M23.23,150C23.23,79.99,79.99,23.23,150,23.23c70.01,0,126.77,56.76,126.77,126.77
				c0,70.01-56.76,126.77-126.77,126.77C79.99,276.77,23.23,220.01,23.23,150z"/>
		</defs>
		<use xlink:href="#SVGID_1_"  style="overflow:visible;fill:#77800D;"/>
		<clipPath id="SVGID_00000143607889508384261920000000581982445951757211_">
			<use xlink:href="#SVGID_1_"  style="overflow:visible;"/>
		</clipPath>
		<g style="clip-path:url(#SVGID_00000143607889508384261920000000581982445951757211_);">
			<path class="st1" d="M188.68,260.22c15.8-49,19.18-114.61,19.18-133.56c0-31.37-26.88-56.8-60.03-56.8
				c-33.15,0-58.8,1.73-58.8,33.1c0,18.95,2.54,108.26,18.66,157.27H188.68z"/>
			<path class="st2" d="M206.76,206.61l-58.06,57.75l-55.15-57.75c0,0,28.39-11.38,29.82-15.34c2.85-7.96,6.47-21.01,2.43-27.62
				c-6.04-9.9,51.6-17.29,47.68-1.45c-2.5,10.13,1.48,21.34,4.66,28.09C179.94,194.08,206.76,206.61,206.76,206.61z"/>
			<path class="st3" d="M222.7,214.22c-10.61-5.12-38.49-18.32-38.49-18.32l-35.47,66.2l-35.42-63.24c0,0-25.41,10.24-36.01,15.36
				c-10.61,5.12-15.75,13.93-13.18,31.46c3.05,20.81,15.8,95.33,15.8,95.33h69.91h0.3h69.91c0,0,12.76-74.52,15.8-95.33
				C238.44,228.15,233.31,219.33,222.7,214.22z"/>
			<path class="st4" d="M199.11,248.35c3.62-22.75,14.8-38.27,13.4-39.01c-10.31-5.43-27.55-13.87-27.55-13.87l-36.26,64.75
				l-36.26-64.75c0,0-14.77,9.74-26.67,14.9c-1.44,0.63,8.91,15.23,12.53,37.98c1.78,11.18-5.9,22.32-4.74,34.17
				c0.7,7.11,6.71,21.2,7.74,27.62c3.3,20.7-1.59,30.86-1.59,30.86h47.54h1.45l0,0h1.46h47.53c0,0-4.89-10.16-1.59-30.86
				c1.03-6.42,7.04-20.51,7.74-27.62C205.01,270.67,197.33,259.53,199.11,248.35z"/>
			<path class="st3" d="M208.12,113.15c-4.82-1.44-8.12,2.03-10.04,5.19c0.39-9.11,0.52-16.92,0.39-18.42
				c-3.35-37.72-24.41-45.93-50.08-46.15c-25.67,0.23-46.73,8.43-50.08,46.15c-0.13,1.5,1.79,48.06,2.65,46.89
				c0.18,1.1,0.37,2.06,0.57,2.81c6.12,22.91,27.14,41.37,35.14,46.15c3.62,2.16,7.62,3.48,11.73,3.78
				c4.11-0.3,8.12-1.62,11.73-3.78c7.99-4.78,29.01-23.24,35.14-46.15c0.2-0.75,0.39-1.71,0.58-2.81c0.95,1.29,2.67,2.17,5.63-0.01
				C207.03,142.69,216.4,115.63,208.12,113.15z"/>
			<path class="st1" d="M98.7,118.34c-0.96,7.07,2.6,64.94,2.6,64.94s-1.82-16.79,14.9-46.53c16.78-29.83,47.98-55.25,47.98-55.25
				s22.51,2.08,22.17,21.44c-0.36,20.72,8.57,37.47,8.57,37.47s1.11-18.24,3.16-22.08c3.72-6.96,10.04-5.19,10.04-5.19
				s0.57-3.97-1.97-16.56c-5.14-25.52-26.06-66.68-60.26-54.83c-24.38-7.01-53.81,18.92-56.39,50.23
				c-1.04,12.61-0.03,20.97-0.03,20.97S94.3,111.46,98.7,118.34z"/>
			<path class="st5" d="M110.14,227.85c9.81,14.03,38.56,32.38,38.56,32.38l-36.26-64.75l-12.73,5.22
				C99.71,200.69,100.33,213.82,110.14,227.85z"/>
			<path class="st5" d="M187.27,227.85c-9.82,14.03-38.57,32.38-38.57,32.38l36.26-64.75l12.73,5.22
				C197.69,200.69,197.08,213.82,187.27,227.85z"/>
		</g>
	</g>
</g>
<g>
	<circle class="st5" cx="71.06" cy="235" r="47.83"/>
	<path class="st6" d="M86.5,251.65c-2.35-5.83-5.4-12.49-11.23-10.14c-1.75,0.71-3.23,1.8-4.38,3.14
		c-3.18-4.36-5.28-9.28-6.26-14.71c-0.06-0.35-0.12-0.7-0.17-1.04c1.79,0.19,3.64-0.05,5.43-0.76c5.83-2.35,5.07-5.14,2.72-10.97
		c-2.35-5.83-5.4-12.49-11.23-10.14c-4.3,1.73-6.96,5.8-7.12,10.15c-0.4,3.04-0.72,8.11,0.29,14.06c0.95,5.59,2.87,10.87,5.7,15.67
		c2.65,4.5,6.11,8.58,10.31,12.17c3.04,3.89,8.4,5.48,13.21,3.54C89.6,260.28,88.85,257.48,86.5,251.65z"/>
</g>
</svg>
