<?xml version="1.0" encoding="utf-8"?>
<!-- Generator: Adobe Illustrator 27.0.1, SVG Export Plug-In . SVG Version: 6.00 Build 0)  -->
<svg version="1.1" id="Capa_1" xmlns="http://www.w3.org/2000/svg" xmlns:xlink="http://www.w3.org/1999/xlink" x="0px" y="0px"
	 viewBox="0 0 300 300" style="enable-background:new 0 0 300 300;" xml:space="preserve">
<style type="text/css">
	.st0{clip-path:url(#SVGID_00000030489154000849050790000007490744449589922985_);}
	.st1{fill:#8CB147;}
	.st2{fill:#231D22;}
	.st3{fill:#E4A57D;}
	.st4{fill:#F8BA8C;}
	.st5{fill:#352E35;}
	.st6{fill:#515127;}
	.st7{fill:#E2DDB4;}
</style>
<g>
	<g>
		<defs>
			<path id="SVGID_1_" d="M23.23,150C23.23,79.99,79.99,23.23,150,23.23c70.01,0,126.77,56.76,126.77,126.77
				S220.01,276.77,150,276.77C79.99,276.77,23.23,220.01,23.23,150z"/>
		</defs>
		<use xlink:href="#SVGID_1_"  style="overflow:visible;fill:#77800D;"/>
		<clipPath id="SVGID_00000063618846643472446520000004046555921734107057_">
			<use xlink:href="#SVGID_1_"  style="overflow:visible;"/>
		</clipPath>
		<g style="clip-path:url(#SVGID_00000063618846643472446520000004046555921734107057_);">
			<path class="st1" d="M224.43,212.49c-10.87-5.24-40.45-14.93-40.45-14.93l-33.82-1.12v-0.01l-0.16,0.01l-0.16-0.01v0.01
				l-33.82,1.12c0,0-29.6,9.69-40.45,14.93c-10.86,5.24-16.11,14.26-13.49,32.21c3.13,21.31,16.18,97.6,16.18,97.6h71.58h0.31h71.58
				c0,0,13.06-76.29,16.19-97.6C240.55,226.75,235.29,217.73,224.43,212.49z"/>
			<path class="st2" d="M207.86,127.95c0,31.37-39.34,68.53-59.48,68.53S87.8,159.33,87.8,127.95c0-31.37,26.88-56.8,60.03-56.8
				C180.98,71.15,207.86,96.59,207.86,127.95z"/>
			<path class="st3" d="M183.98,197.56c-6.67,6.2-33.98,29.61-33.98,29.61s-30.46-26-34.29-29.61c11.43-2.16,11.12-24.38,5.07-34.28
				c-6.04-9.9,59.1-15.84,55.19,0C172.07,179.12,171.13,196.49,183.98,197.56z"/>
			<path class="st4" d="M211.33,114.45c-5.08-1.44-8.56,2.03-10.58,5.19c0.41-9.11,0.55-16.93,0.41-18.42
				c-3.53-37.72-25.72-45.93-52.77-46.15c-27.05,0.22-49.24,8.43-52.78,46.15c-0.14,1.5,0.01,9.31,0.41,18.42
				c-2.03-3.16-5.5-6.63-10.57-5.19c-8.73,2.48,1.15,29.54,7.02,33.65c3.13,2.19,4.92,1.31,5.93,0.02c0.19,1.1,0.39,2.06,0.61,2.81
				c6.45,22.92,28.6,41.38,37.02,46.15c3.82,2.16,8.03,3.48,12.36,3.78c4.32-0.3,8.54-1.61,12.35-3.78
				c8.42-4.78,30.57-23.24,37.02-46.15c0.21-0.74,0.41-1.7,0.6-2.81c1.01,1.29,2.81,2.17,5.93-0.02
				C210.18,143.98,220.05,116.92,211.33,114.45z"/>
			<path class="st5" d="M201.45,68.54c-4.8-15.51-34.02-30.89-54.3-30.89c-20.29,0-50.55,17.72-54.91,30.5
				c-4.69,13.74-5.92,46.09-5.92,46.09s5.09-1.5,9.72,5.39c-0.32,2.28-0.12,5.19,0.28,8.1h4.52c2.19-9.31,14.79-9.64,17.46-26.81
				c23.29,12.28,35.91,13.96,75.59,26.81h4.94c0.51-3.54,1.15-6.73,1.92-8.1c3.93-6.97,10.58-5.19,10.58-5.19
				S207.19,87.12,201.45,68.54z"/>
			<polygon class="st6" points="150,227.17 183.98,197.56 180.84,215.53 			"/>
			<polygon class="st6" points="150,227.17 116.03,197.56 120.05,214.99 			"/>
		</g>
	</g>
</g>
<g>
	<circle class="st6" cx="71.06" cy="235" r="47.83"/>
	<path class="st7" d="M86.5,251.65c-2.35-5.83-5.4-12.49-11.23-10.14c-1.75,0.71-3.23,1.8-4.38,3.14
		c-3.18-4.36-5.28-9.28-6.26-14.71c-0.06-0.35-0.12-0.7-0.17-1.04c1.79,0.19,3.64-0.05,5.43-0.76c5.83-2.35,5.07-5.14,2.72-10.97
		c-2.35-5.83-5.4-12.49-11.23-10.14c-4.3,1.73-6.96,5.8-7.12,10.15c-0.4,3.04-0.72,8.11,0.29,14.06c0.95,5.59,2.87,10.87,5.7,15.67
		c2.65,4.5,6.11,8.58,10.31,12.17c3.04,3.89,8.4,5.48,13.21,3.54C89.6,260.28,88.85,257.48,86.5,251.65z"/>
</g>
</svg>
