<?xml version="1.0" encoding="utf-8"?>
<!-- Generator: Adobe Illustrator 27.0.1, SVG Export Plug-In . SVG Version: 6.00 Build 0)  -->
<svg version="1.1" id="Capa_1" xmlns="http://www.w3.org/2000/svg" xmlns:xlink="http://www.w3.org/1999/xlink" x="0px" y="0px"
	 viewBox="0 0 500 500" style="enable-background:new 0 0 500 500;" xml:space="preserve">
<style type="text/css">
	.st0{fill:#E6E1B8;}
</style>
<g>
	<g>
		<path class="st0" d="M283.53,275.52c-0.67,2.03-1.21,4.05-1.63,6.08c-0.42,2-0.64,3.88-0.64,5.56c0,1.68,0.4,3.07,1.14,4.18
			c0.77,1.09,1.98,1.63,3.68,1.63c3.88,0,7.79-1.38,11.77-4.18c3.96-2.77,7.51-6.6,10.63-11.52c3.11-4.87,5.66-10.65,7.59-17.33
			c1.95-6.67,2.92-13.87,2.92-21.63c0-9.47-1.78-17.95-5.31-25.46c-3.53-7.49-8.4-13.87-14.56-19.11
			c-6.16-5.22-13.32-9.22-21.51-12.01c-8.21-2.79-16.93-4.18-26.2-4.18c-10.8,0-20.64,1.98-29.49,5.96
			c-8.87,3.96-16.49,9.34-22.91,16.19c-6.4,6.82-11.4,14.86-14.93,24.05c-3.53,9.2-5.31,19.11-5.31,29.74
			c0,12.31,1.9,23.46,5.69,33.42c3.81,9.94,9.02,18.39,15.7,25.31c6.67,6.92,14.61,12.26,23.8,16.07c9.2,3.78,19.11,5.69,29.74,5.69
			c11.15,0,21.68-2.18,31.64-6.58c9.96-4.38,18.39-10.56,25.31-18.49h17.72c-8.11,13.18-18.81,23.38-32.16,30.65
			c-13.32,7.24-27.83,10.88-43.53,10.88c-13,0-25.24-2.4-36.71-7.22c-11.47-4.82-21.48-11.52-29.98-20.12
			c-8.53-8.6-15.23-18.91-20.12-30.87c-4.89-11.99-7.34-25.24-7.34-39.75c0-12.83,2.47-24.77,7.47-35.82
			c4.97-11.05,11.67-20.71,20.12-28.97c8.43-8.28,18.27-14.78,29.49-19.5s23.16-7.09,35.82-7.09c11.3,0,22.05,1.83,32.26,5.44
			c10.21,3.63,19.21,8.75,26.97,15.33c7.76,6.58,13.97,14.44,18.61,23.53c4.62,9.12,6.95,19.08,6.95,29.89
			c0,12.66-2.15,23.71-6.45,33.15c-4.3,9.44-9.54,17.3-15.7,23.53c-6.16,6.25-12.71,10.93-19.6,14.07
			c-6.92,3.11-12.93,4.67-17.97,4.67c-3.91,0-7.27-1.21-10.13-3.66c-2.87-2.45-4.47-6.13-4.82-11.02h-0.49
			c-3.39,3.88-7.59,7.27-12.66,10.13c-5.07,2.87-10.31,4.3-15.7,4.3c-5.24,0-10.13-1.06-14.68-3.16c-4.55-2.1-8.48-4.97-11.77-8.6
			c-3.29-3.63-5.86-7.86-7.71-12.66c-1.88-4.82-2.79-9.91-2.79-15.33c0-8.08,1.36-16.02,4.05-23.78
			c2.69-7.76,6.45-14.78,11.27-21.01c4.8-6.25,10.63-11.27,17.45-15.08c6.85-3.78,14.39-5.69,22.67-5.69c5.88,0,11.3,1.43,16.19,4.3
			c4.89,2.87,8.95,7.51,12.14,13.92l4.57-14.41h17.72L283.53,275.52z M237.48,291.46c5.04,0,9.69-1.48,13.92-4.42
			c4.2-2.97,7.84-6.67,10.88-11.15s5.44-9.37,7.22-14.68c1.78-5.31,2.67-10.23,2.67-14.81c0-3.04-0.57-5.91-1.66-8.6
			c-1.11-2.69-2.52-5.07-4.3-7.09c-1.78-2.03-3.88-3.61-6.33-4.8c-2.45-1.19-5.02-1.78-7.71-1.78c-5.24,0-10.01,1.43-14.31,4.3
			s-7.98,6.45-11,10.75c-3.04,4.3-5.41,9.07-7.09,14.31c-1.68,5.24-2.55,10.21-2.55,14.93c0,6.75,1.83,12.29,5.46,16.59
			C226.28,289.31,231.23,291.46,237.48,291.46z"/>
	</g>
	<path class="st0" d="M83.41,131.25l11.02,10.15c2.07-0.57,4.09-1.28,6.34-1.28h298.45c2.25,0,4.27,0.71,6.34,1.28l11.02-10.15
		c3.65-3.37,8.77-3.04,12.75-0.43c-8.06-7.22-18.45-11.94-30.11-11.94H100.77c-11.65,0-22.04,4.72-30.1,11.94
		C74.64,128.21,79.76,127.88,83.41,131.25z"/>
	<path class="st0" d="M70.61,353.36l8.79-6.81c-1.73-3.34-2.95-6.97-2.95-10.99V164.44c0-3.2,0.7-6.23,1.82-9.03l-9.27-8.54
		c-3.94-3.63-4.06-9.38-1.11-13.66c-7.76,8.18-12.7,19.09-12.7,31.23v171.12c0,12.58,5.12,23.97,13.39,32.23
		C65.37,363.17,66.12,356.84,70.61,353.36z"/>
	<path class="st0" d="M432.1,133.21c2.95,4.28,2.83,10.04-1.11,13.66l-9.27,8.54c1.13,2.8,1.82,5.83,1.82,9.03v171.12
		c0,4.02-1.22,7.65-2.95,10.99l8.79,6.81c4.5,3.48,5.25,9.81,2.03,14.43c8.26-8.25,13.39-19.65,13.39-32.23V164.44
		C444.8,152.3,439.86,141.39,432.1,133.21z"/>
	<path class="st0" d="M416.37,370.16l-14.07-10.9c-1.05,0.14-1.98,0.62-3.07,0.62H100.77c-1.09,0-2.02-0.48-3.07-0.62l-14.07,10.9
		c-1.94,1.5-4.23,2.22-6.5,2.22c-2.37,0-4.37-1.55-6.28-3.08c8.05,7.14,18.35,11.82,29.92,11.82h298.45
		c11.58,0,21.88-4.69,29.93-11.82c-1.91,1.53-3.91,3.08-6.28,3.08C420.6,372.38,418.31,371.66,416.37,370.16z"/>
	<path class="st0" d="M405.56,141.4l-80.06,73.77c3.29,7.12,5.46,14.76,6.63,22.79l89.59-82.54
		C418.91,148.44,412.89,143.43,405.56,141.4z"/>
	<path class="st0" d="M174.5,215.17L94.43,141.4c-7.33,2.03-13.35,7.04-16.15,14.01l89.59,82.54
		C169.04,229.93,171.21,222.29,174.5,215.17z"/>
	<path class="st0" d="M70.67,130.82c-0.72,0.47-1.66,0.39-2.27,1.05c-0.35,0.38-0.21,0.93-0.5,1.35
		C68.76,132.31,69.74,131.64,70.67,130.82z"/>
	<path class="st0" d="M432.1,133.21c-0.28-0.41-0.15-0.97-0.5-1.35c-0.61-0.66-1.55-0.58-2.27-1.05
		C430.26,131.65,431.24,132.31,432.1,133.21z"/>
	<path class="st0" d="M416.58,131.25l-11.02,10.15c7.33,2.03,13.35,7.04,16.16,14.01l9.27-8.54c3.94-3.63,4.06-9.38,1.11-13.66
		c-0.85-0.9-1.84-1.57-2.76-2.4C425.35,128.21,420.24,127.88,416.58,131.25z"/>
	<path class="st0" d="M69.01,146.88l9.27,8.54c2.81-6.97,8.83-11.98,16.15-14.01l-11.02-10.15c-3.65-3.37-8.77-3.04-12.74-0.43
		c-0.93,0.83-1.91,1.5-2.76,2.4C64.96,137.5,65.08,143.25,69.01,146.88z"/>
	<path class="st0" d="M431.28,368.27c0.11-0.14,0.03-0.34,0.13-0.48c-0.64,0.64-1.58,0.92-2.26,1.52
		C429.8,368.79,430.75,368.95,431.28,368.27z"/>
	<path class="st0" d="M310.97,286.54l91.32,72.72c8.02-1.06,14.72-5.8,18.3-12.71l-100.48-79.81
		C317.84,273.76,314.92,280.47,310.97,286.54z"/>
	<path class="st0" d="M429.38,353.36l-8.79-6.81c-3.58,6.91-10.28,11.65-18.3,12.71l14.07,10.9c1.94,1.5,4.23,2.22,6.5,2.22
		c2.37,0,4.37-1.55,6.28-3.08c0.68-0.6,1.61-0.88,2.26-1.52C434.63,363.17,433.88,356.84,429.38,353.36z"/>
	<path class="st0" d="M171.06,275.56L79.4,346.55c3.58,6.9,10.28,11.65,18.3,12.71l82.51-63.9
		C176.26,289.29,173.34,282.58,171.06,275.56z"/>
	<path class="st0" d="M68.72,368.27c0.53,0.68,1.48,0.53,2.13,1.04c-0.68-0.6-1.62-0.88-2.26-1.52
		C68.69,367.93,68.61,368.12,68.72,368.27z"/>
	<path class="st0" d="M83.63,370.16l14.07-10.9c-8.01-1.06-14.72-5.8-18.3-12.71l-8.79,6.81c-4.5,3.48-5.24,9.81-2.02,14.43
		c0.64,0.64,1.58,0.92,2.26,1.52c1.91,1.53,3.91,3.08,6.28,3.08C79.4,372.38,81.69,371.66,83.63,370.16z"/>
</g>
</svg>
