<?xml version="1.0" encoding="utf-8"?>
<!-- Generator: Adobe Illustrator 27.0.1, SVG Export Plug-In . SVG Version: 6.00 Build 0)  -->
<svg version="1.1" id="Capa_1" xmlns="http://www.w3.org/2000/svg" xmlns:xlink="http://www.w3.org/1999/xlink" x="0px" y="0px"
	 viewBox="0 0 500 500" style="enable-background:new 0 0 500 500;" xml:space="preserve">
<style type="text/css">
	.st0{fill:#E6E1B8;}
</style>
<g>
	<path class="st0" d="M393.52,305.3l-45.73-12.75c-12.35-3.44-25.59,0.04-34.66,9.1l-4.53,4.53c-11.45,11.45-29.12,13.71-43.1,5.54
		c-14.03-8.2-32.53-21.11-51.88-40.46s-32.26-37.85-40.46-51.88c-8.17-13.98-5.91-31.65,5.54-43.1l4.53-4.53
		c9.07-9.06,12.54-22.31,9.1-34.66l-12.75-45.73c-4.19-15.03-17.7-25.57-33.3-25.98l0,0c-9.74-0.25-19.16,3.5-26.05,10.39
		L98.59,97.41c-5.92,5.92-9.53,13.67-10.28,22c-2.72,30.24,1.01,106.18,85.99,191.16s160.92,88.72,191.16,85.99
		c8.34-0.75,16.09-4.37,22-10.28l21.64-21.64c6.89-6.89,10.65-16.31,10.39-26.05l0,0C419.09,322.99,408.56,309.49,393.52,305.3z"/>
</g>
</svg>
