<?xml version="1.0" encoding="utf-8"?>
<!-- Generator: Adobe Illustrator 27.0.1, SVG Export Plug-In . SVG Version: 6.00 Build 0)  -->
<svg version="1.1" id="Capa_1" xmlns="http://www.w3.org/2000/svg" xmlns:xlink="http://www.w3.org/1999/xlink" x="0px" y="0px"
	 viewBox="0 0 500 500" style="enable-background:new 0 0 500 500;" xml:space="preserve">
<style type="text/css">
	.st0{fill:#E6E1B8;}
</style>
<g>
	<g>
		<path class="st0" d="M343.8,291.34l-28.19-7.86c-7.61-2.12-15.78,0.02-21.37,5.61l-2.79,2.79c-7.06,7.06-17.96,8.45-26.57,3.41
			c-8.65-5.06-20.06-13.02-31.99-24.94c-11.93-11.93-19.89-23.33-24.94-31.99c-5.04-8.62-3.64-19.52,3.41-26.57l2.79-2.79
			c5.59-5.59,7.73-13.75,5.61-21.37l-7.86-28.19c-2.58-9.27-10.91-15.76-20.53-16.02l0,0c-6.01-0.16-11.81,2.16-16.06,6.41
			l-13.34,13.34c-3.65,3.65-5.88,8.43-6.34,13.57c-1.68,18.65,0.62,65.46,53.02,117.85s99.21,54.7,117.85,53.02
			c5.14-0.46,9.92-2.69,13.57-6.34l13.34-13.34c4.25-4.25,6.56-10.05,6.41-16.06l0,0C359.56,302.25,353.07,293.92,343.8,291.34z"/>
	</g>
	<g>
		<path class="st0" d="M250,456.33c-38.1,0-75.15-10.45-107.52-30.26l-74.69,18.68c-4.33,1.07-8.91-0.2-12.05-3.37
			c-3.14-3.17-4.38-7.76-3.25-12.08l19.51-74.97C53.45,322.73,43.67,286.78,43.67,250c0-113.77,92.56-206.33,206.33-206.33
			S456.33,136.23,456.33,250C456.33,363.77,363.77,456.33,250,456.33z M144.65,399.85c2.42,0,4.82,0.7,6.89,2.04
			c29.36,19.07,63.4,29.16,98.46,29.16c99.83,0,181.04-81.22,181.04-181.05c0-99.83-81.22-181.05-181.04-181.05
			c-99.83,0-181.05,81.22-181.05,181.05c0,33.89,9.46,66.97,27.35,95.65c1.84,2.94,2.38,6.52,1.51,9.88l-15.49,59.52l59.26-14.82
			C142.6,399.97,143.63,399.85,144.65,399.85z"/>
	</g>
</g>
</svg>
