<?xml version="1.0" encoding="utf-8"?>
<!-- Generator: Adobe Illustrator 27.0.1, SVG Export Plug-In . SVG Version: 6.00 Build 0)  -->
<svg version="1.1" id="Capa_1" xmlns="http://www.w3.org/2000/svg" xmlns:xlink="http://www.w3.org/1999/xlink" x="0px" y="0px"
	 viewBox="0 0 500 500" style="enable-background:new 0 0 500 500;" xml:space="preserve">
<style type="text/css">
	.st0{fill-rule:evenodd;clip-rule:evenodd;fill:#D9D6A8;}
	.st1{fill:#D9D6A8;}
</style>
<g>
	<path class="st0" d="M400.46,247.27l-0.57-16.13h1.86c1.09,4.51,2.8,8.02,5.16,10.48c2.35,2.46,5.12,3.7,8.29,3.7
		c2.56,0,4.6-0.69,6.11-2.07c1.53-1.38,2.3-3.19,2.3-5.42c0-1.65-0.51-3.11-1.5-4.39c-1.01-1.29-2.79-2.65-5.33-4.15l-8.68-4.97
		c-2.93-1.69-5.07-3.52-6.41-5.49c-1.34-1.97-2-4.29-2-6.92c0-3.69,1.29-6.72,3.85-9.06c2.56-2.36,5.83-3.53,9.81-3.53
		c1.91,0,3.93,0.29,6.04,0.88c2.12,0.58,3.29,0.88,3.55,0.88c0.44,0,0.83-0.13,1.17-0.42c0.33-0.3,0.59-0.7,0.78-1.24h1.58
		l0.67,13.98h-1.85c-0.67-3.63-1.99-6.43-3.97-8.44c-1.97-2-4.38-3.02-7.25-3.02c-2.23,0-4.04,0.6-5.44,1.8
		c-1.4,1.18-2.1,2.7-2.1,4.56c0,1.64,0.52,3.13,1.58,4.45c1.04,1.34,2.77,2.64,5.14,3.94l8.56,4.63c2.95,1.6,5.15,3.44,6.56,5.52
		c1.42,2.09,2.12,4.5,2.12,7.27c0,3.98-1.33,7.27-3.99,9.84c-2.65,2.57-6.04,3.86-10.18,3.86c-1.97,0-4.29-0.34-6.94-1.03
		c-2.67-0.69-4.33-1.03-5-1.03c-0.7,0-1.22,0.13-1.6,0.36c-0.35,0.24-0.6,0.64-0.73,1.18H400.46L400.46,247.27z M313.53,246.7v-1.81
		c2.84-0.13,4.71-0.65,5.64-1.55c0.93-0.91,1.39-2.95,1.39-6.14v-48.26c0-2.94-0.33-4.72-0.96-5.38c-0.63-0.65-1.97-0.98-4.01-0.98
		H314v-1.86c1.73-0.26,3.85-0.77,6.37-1.53c2.54-0.77,5.48-1.8,8.82-3.09v61.54c0,2.81,0.46,4.72,1.35,5.67
		c0.91,0.96,2.7,1.49,5.37,1.58v1.81H313.53L313.53,246.7z M282.05,246.7v-1.81c2.83-0.13,4.71-0.65,5.64-1.55
		c0.93-0.91,1.39-2.95,1.39-6.14v-48.26c0-2.94-0.32-4.72-0.96-5.38c-0.63-0.65-1.97-0.98-4.01-0.98h-1.58v-1.86
		c1.73-0.26,3.84-0.77,6.37-1.53c2.54-0.77,5.48-1.8,8.82-3.09v61.54c0,2.81,0.45,4.72,1.35,5.67c0.91,0.96,2.7,1.49,5.38,1.58v1.81
		H282.05L282.05,246.7z M257.35,181.96c0-1.53,0.52-2.82,1.56-3.86c1.04-1.06,2.35-1.58,3.91-1.58c1.51,0,2.8,0.54,3.85,1.59
		c1.06,1.08,1.6,2.35,1.6,3.85c0,1.53-0.54,2.82-1.6,3.9c-1.06,1.06-2.34,1.59-3.85,1.59c-1.53,0-2.82-0.53-3.88-1.59
		C257.89,184.78,257.35,183.5,257.35,181.96L257.35,181.96z M250.85,246.7l0.05-1.85c2.83-0.1,4.71-0.6,5.64-1.5
		c0.93-0.91,1.39-2.97,1.39-6.14v-25.21c0-2.99-0.31-4.8-0.95-5.42c-0.64-0.62-1.95-0.93-3.96-0.93h-1.6v-1.85
		c1.79-0.26,3.96-0.77,6.52-1.53c2.57-0.75,5.46-1.74,8.67-2.95v38.32c0,2.93,0.46,4.86,1.35,5.78c0.91,0.93,2.67,1.4,5.28,1.44
		v1.85H250.85L250.85,246.7z M165.25,246.7v-1.81c2.74-0.13,4.56-0.64,5.46-1.5c0.91-0.88,1.36-2.51,1.36-4.9v-24.93
		c0-3.27-0.37-5.34-1.14-6.18c-0.76-0.85-2.34-1.27-4.72-1.27h-0.96v-1.86c2.84-0.47,5.56-1.14,8.18-1.99
		c2.62-0.83,5.05-1.83,7.28-2.98v8.11c2.82-2.68,5.47-4.64,7.95-5.91c2.48-1.27,4.87-1.91,7.15-1.91c2.71,0,5.02,0.7,6.96,2.1
		c1.94,1.4,3.32,3.37,4.14,5.92c3.77-3,6.83-5.07,9.23-6.26c2.38-1.17,4.59-1.76,6.63-1.76c4.3,0,7.38,1.22,9.29,3.68
		c1.89,2.45,2.83,6.57,2.83,12.35v21.59c0,3.54,0.4,5.67,1.19,6.42c0.8,0.75,2.61,1.16,5.44,1.22v1.85h-22.57l0.05-1.85
		c3.08-0.1,5.07-0.47,5.96-1.14c0.89-0.67,1.33-2.31,1.33-4.92v-24.93c0-2.57-0.73-4.58-2.2-6c-1.46-1.42-3.5-2.12-6.11-2.12
		c-1.66,0-3.29,0.37-4.88,1.14c-1.62,0.76-3.41,2.04-5.38,3.81v27.52c0,2.84,0.44,4.65,1.32,5.44c0.86,0.8,2.74,1.19,5.6,1.19v1.85
		h-22.76l0.05-1.85c2.98-0.16,4.95-0.59,5.9-1.27c0.93-0.68,1.4-2.02,1.4-4.03v-25.42c0-2.67-0.69-4.72-2.05-6.19
		c-1.35-1.47-3.27-2.2-5.75-2.2c-1.7,0-3.41,0.41-5.15,1.24c-1.75,0.83-3.6,2.14-5.57,3.91v27.99c0,2.38,0.44,3.96,1.32,4.72
		c0.86,0.77,2.74,1.19,5.6,1.29v1.81H165.25L165.25,246.7z M56.04,248.08l-3.73-21.82h2.05c2.36,5.82,5.33,10.36,8.93,13.6
		c3.59,3.24,7.43,4.87,11.5,4.87c3.59,0,6.6-1.14,9.04-3.44c2.43-2.3,3.65-5.15,3.65-8.59c0-2.52-0.81-4.87-2.43-7.05
		c-1.63-2.17-4.14-4.25-7.54-6.23l-10.56-6.38c-4.55-2.67-7.82-5.43-9.81-8.24c-1.99-2.82-2.98-6.05-2.98-9.71
		c0-5.15,1.82-9.37,5.49-12.63c3.65-3.26,8.42-4.89,14.32-4.89c2.74,0,5.64,0.51,8.7,1.53c3.08,1.01,4.9,1.53,5.47,1.53
		c0.73,0,1.3-0.26,1.74-0.77c0.43-0.52,0.7-1.27,0.83-2.3h1.76l2.25,20.43h-2.05c-1.94-5.54-4.45-9.76-7.55-12.64
		c-3.08-2.9-6.6-4.35-10.54-4.35c-3.34,0-6.06,0.94-8.18,2.84c-2.12,1.9-3.17,4.33-3.17,7.33c0,2.33,0.73,4.43,2.19,6.35
		c1.47,1.9,3.96,3.92,7.5,6.06l11.73,6.91c4.81,2.9,8.18,5.75,10.1,8.55c1.92,2.8,2.88,6.14,2.88,10.02c0,5.84-1.97,10.48-5.9,13.96
		c-3.92,3.49-9.21,5.23-15.82,5.23c-3.08,0-6.27-0.44-9.55-1.34c-3.28-0.9-5.07-1.34-5.4-1.34c-0.91,0-1.64,0.2-2.2,0.62
		c-0.53,0.41-0.88,1.03-1.04,1.85H56.04L56.04,248.08z M373.85,241.31c-2.74,2.13-5.34,3.71-7.84,4.72
		c-2.48,1.03-4.87,1.53-7.2,1.53c-3.47,0-6.22-0.98-8.27-2.93c-2.05-1.95-3.08-4.6-3.08-7.9c0-4.14,1.84-7.63,5.51-10.48
		c3.68-2.85,10.54-5.87,20.6-9.04v-5.31c0-3.69-0.6-6.26-1.79-7.71c-1.19-1.45-3.26-2.17-6.22-2.17c-2.16,0-3.98,0.53-5.48,1.59
		c-1.5,1.08-2.25,2.33-2.25,3.8c0,0.13,0.06,0.55,0.2,1.29c0.13,0.73,0.19,1.37,0.19,1.91c0,1.21-0.43,2.21-1.27,3.01
		c-0.83,0.8-1.9,1.19-3.22,1.19c-1.37,0-2.48-0.42-3.31-1.29c-0.84-0.87-1.26-2.02-1.26-3.49c0-2.77,1.62-5.2,4.88-7.27
		c3.26-2.07,7.23-3.09,11.91-3.09c5.51,0,9.55,1.21,12.14,3.63c2.59,2.41,3.9,6.19,3.9,11.31v22.68c0,1.69,0.22,2.9,0.67,3.63
		c0.44,0.73,1.16,1.09,2.15,1.09c0.77,0,1.44-0.13,2-0.41c0.57-0.26,1.24-0.75,2-1.45l1.19,1.34c-1.4,1.94-2.98,3.44-4.72,4.48
		c-1.76,1.06-3.51,1.58-5.25,1.58c-1.6,0-2.88-0.49-3.88-1.48C375.16,245.1,374.39,243.5,373.85,241.31L373.85,241.31z
		 M373.56,237.4v-17.56c-6.21,2.1-10.69,4.28-13.46,6.53c-2.77,2.27-4.16,4.87-4.16,7.84c0,2.44,0.77,4.49,2.3,6.12
		c1.51,1.65,3.44,2.46,5.72,2.46c1.87,0,3.7-0.49,5.48-1.48C371.19,240.33,372.56,239.03,373.56,237.4L373.56,237.4z M124.86,247.89
		c8.51,0.26,15.06-2.17,19.59-6.72c3.69-3.71,6.54-8.01,8.85-12.68c5.8-11.67,8.3-24.89,12.87-37.08
		c1.92-5.13,4.15-10.45,6.65-15.44c3.74-7.47,8.66-16.05,15.86-20.71c2.08-1.34,8.64,4.57,13.03,5.98
		c4.23,1.36,9.73-4.71,14.89-4.27c4.69,0.4,8.98,7.42,14.47,6.4c4.91-0.91,10.16-9.79,15.73-12.32c4.17-1.89,10.93-0.39,15.48-3.41
		c6.47-5.95,4.08-12.04,7.94-18.15c3.01-4.75,10.28-6.17,12.36-10.92c1.84-4.22-6.05-13.93-4.52-18.08
		c1.53-4.15,12.49-2.76,14.11-6.78c1.44-3.59-2.66-10.59-0.85-14.02c1.82-3.45,9.57-3.34,12.04-6.58c2.51-3.29,2.16-9.66,5.64-12.7
		c3.42-2.97,10.65-2.63,15.28-5.31c5.96-3.46,13.03-6.66,21.53-9.55c-5.48-1.27-13.38,0.2-19.05-0.72c-4.42-0.72-6.58-3.9-11.07-4.4
		c-3.99-0.45-7.74,4.06-11.76,3.8c-4.02-0.28-8.32-5.33-12.34-5.41c-3.6-0.08-5.78,5.33-9.36,5.4c-3.57,0.07-8.56-5.18-12.1-4.94
		c-3.37,0.22-4.16,6.45-7.47,6.82c-4.27,0.47-11.06-4.87-15.21-4.15c-4.01,0.7-4.16,7.19-8.03,8.13
		c-3.87,0.94-11.47-3.67-15.16-2.48c-4.72,1.52-4.24,8.65-8.61,10.59c-3.41,1.51-11.74-2.26-14.9-0.48
		c-2.56,1.44-6.38,11.3-8.75,12.92c-5.86,3.99-9.64,0.58-13.86,6.12c-1.85,2.42,3.56,6.56,2.06,9.2
		c-1.94,3.38-10.67,5.32-12.01,8.94c-1.58,4.29,4.97,8.37,4.27,12.83c-0.54,3.49-8.52,7.37-8.49,10.85c0.03,3.49,0.36,6.96,1,10.35
		c1.76,9.47,5.54,17.51,15.42,10.89c0.75-0.5,1.42-1.55,2.06-2.83c3.66-7.23,8.98-12.46,14.1-18.55c0.7-14.74,3.91-25.02-2.51-38.72
		c10.79,14.72,13.58,14.65,7.45,32.85c4.85-5.48,9.78-9.85,14.97-13.89c3.4-10.72,7.3-18.39,4.9-30.14
		c5.45,13.05,7.89,14.7,1.79,25.21c7.43-5.26,14.92-11.07,22.94-15.41c3.3-7.08,5.61-10.81,5.24-20.31
		c2.58,10.85,5.76,10.99,0.77,17.31c11.08-5.19,24.7-10,30.63-12.4c-8.41,6.53-15.96,11.84-22.91,16.49
		c6.6-0.53,5.66,2.37,13.15,9.77c-7.54-4.99-11.87-5.21-18.94-5.94c-7.25,4.74-13.84,8.86-20.09,13.11
		c10.62-3.14,11.97-0.33,23.15,7.6c-11.23-5.05-19.7-2.69-31.36-1.76c-5.34,4.01-10.52,8.37-15.76,13.59
		c17.74-1.39,18.26,2.23,29.89,15.58c-10.77-8.35-21.29-9.09-34.11-11.18c-6.7,7.25-14.54,15.02-20.64,23.64
		c-2.23,3.15-4.52,6.36-6.75,9.6c-7.06,10.26-12.9,20.67-17.27,32.33c-3.32,8.89-6.31,17.95-9.23,26.98
		c-1.35,4.19-2.61,8.1-3.98,11.58c-2.83,7.16-6.18,12.51-12.01,14.71c-1.92,0.72-4.11,1.11-6.63,1.11c-5.03,0-9.07-1.94-12.11-5.82
		c-3.04-3.88-4.56-9.08-4.56-15.6v-1.05h31.7c-0.34-5.67-2.1-10.11-5.25-13.34c-3.15-3.23-7.31-4.84-12.46-4.84
		c-6.37,0-11.52,2.33-15.48,6.97c-3.95,4.64-5.91,10.75-5.91,18.31c0,6.87,1.83,12.45,5.49,16.72
		C114.3,245.75,119.04,247.71,124.86,247.89L124.86,247.89z M112.88,214.81c0.41-3.87,1.65-6.89,3.7-9.02
		c2.05-2.13,4.71-3.2,7.98-3.2c2.87,0,5.23,0.99,7.11,2.98c1.86,1.98,2.79,4.48,2.79,7.48c0,0.73-0.13,1.21-0.37,1.41
		c-0.26,0.23-1.01,0.35-2.25,0.35L112.88,214.81z"/>
	<path class="st0" d="M56.41,270.2c9.48,0,20.03-0.28,31.68-0.85c11.65-0.52,18.62-0.8,20.88-0.8c12.21,0,21.44,2.62,27.77,7.86
		c6.29,5.24,9.43,12.94,9.43,23.05c0,9.95-3.1,18.78-9.3,26.52c-6.25,7.74-15.36,14.15-27.4,19.18l34.58,48.2
		c5.76,7.94,11.04,14.59,15.88,19.91c4.84,5.28,9.19,9.31,13.06,11.97h-22.89c-3.07,0-5.44-0.4-7.05-1.25
		c-1.61-0.81-3.31-2.5-5.12-5L96.6,360.88c-3.02-4.27-5.8-7.05-8.38-8.38c-2.62-1.33-5.96-2.02-10.03-2.02h-1.9v14.75
		c0,23.7,0.45,39.01,1.37,45.9c0.89,6.89,2.42,11.57,4.63,14.1h-32.8c2.22-2.38,3.75-7.78,4.63-16.28
		c0.93-8.5,1.37-26.72,1.37-54.57v-9.92c0-30.39-0.44-49.77-1.37-58.16c-0.88-8.38-2.42-13.74-4.63-16.12H56.41L56.41,270.2z
		 M76.28,341.05c1.42,0.28,2.94,0.52,4.6,0.68c1.65,0.16,3.51,0.24,5.56,0.24c11.73,0,20.71-3.06,27.04-9.23
		c6.28-6.13,9.43-14.92,9.43-26.32c0-9.52-2.42-16.61-7.22-21.24c-4.79-4.63-12.08-6.97-21.96-6.97c-3.83,0-6.85,0.04-9.03,0.16
		c-2.14,0.12-4.23,0.32-6.17,0.56c-0.81,3.47-1.37,8.95-1.74,16.44c-0.36,7.54-0.52,18.17-0.52,31.96v2.58V341.05L76.28,341.05z
		 M203.92,329.93v5.8h6.49c14.51,0,25.59-2.82,33.25-8.5c7.7-5.68,11.53-13.78,11.53-24.3c0-8.06-2.94-14.11-8.79-18.14
		c-5.88-4.07-14.63-6.09-26.28-6.09c-2.13,0-4.35,0.04-6.69,0.16c-2.34,0.12-4.76,0.32-7.26,0.56c-0.81,3.38-1.37,8.82-1.73,16.28
		c-0.36,7.5-0.52,18.17-0.52,32.12V329.93L203.92,329.93z M203.92,344.72v29.74c0,8.83,0.2,16.72,0.6,23.65
		c0.37,6.97,0.84,11.45,1.41,13.42c0.52,1.97,2.5,3.51,5.88,4.6c3.39,1.09,7.86,1.65,13.34,1.65c11.45,0,20.27-3.22,26.6-9.67
		c6.29-6.45,9.43-15.52,9.43-27.17c0-11.48-3.63-20.39-10.92-26.72c-7.29-6.33-17.65-9.51-31.11-9.51H203.92L203.92,344.72z
		 M193.52,425.24h-16.4c2.21-2.38,3.74-7.78,4.63-16.28c0.93-8.5,1.37-26.68,1.37-54.57v-9.92c0-30.39-0.44-49.77-1.37-58.16
		c-0.89-8.38-2.42-13.74-4.63-16.12h20.3c5.28,0,12.78-0.28,22.49-0.85c9.72-0.52,16.85-0.8,21.32-0.8
		c11.81,0,20.96,2.54,27.44,7.66c6.49,5.12,9.75,12.33,9.75,21.64c0,8.71-3.18,16.4-9.51,23.05c-6.33,6.65-15.68,12.13-28.05,16.36
		c14.43,1.65,25.55,6.12,33.41,13.42c7.86,7.26,11.81,16.73,11.81,28.37c0,14.19-5.32,25.67-16,34.42
		c-10.68,8.79-24.91,13.18-42.68,13.18c-4.35,0-10.28-0.24-17.77-0.72C202.11,425.48,196.75,425.24,193.52,425.24L193.52,425.24z
		 M424.57,270.2l-1.41,33.21c-3.47-8.42-8.3-14.75-14.51-19.02c-6.24-4.23-13.78-6.37-22.69-6.37c-17.29,0-30.87,5.72-40.74,17.12
		c-9.88,11.41-14.83,27.17-14.83,47.24c0,20.67,5.4,37.16,16.24,49.45c10.8,12.29,25.27,18.42,43.37,18.42
		c8.58,0,16.61-1.65,24.02-4.96c7.46-3.3,13.86-8.06,19.3-14.19c-2.82,11.24-9.19,20.23-19.06,26.96
		c-9.87,6.73-21.76,10.11-35.59,10.11c-21.12,0-38.41-7.38-51.95-22.08c-13.54-14.71-20.31-33.65-20.31-56.79
		c0-25.59,7.3-45.62,21.85-60.17c14.55-14.51,34.66-21.77,60.33-21.77c3.99,0,10,0.49,17.98,1.41
		C414.58,269.76,420.54,270.2,424.57,270.2z"/>
	<g>
		<path class="st0" d="M454.49,268.54L454.49,268.54L454.49,268.54c5.39,0.01,10.27,2.2,13.8,5.72c3.52,3.53,5.7,8.39,5.7,13.78H474
			v0.01v0.01h-0.01c0,5.38-2.19,10.26-5.72,13.79c-3.52,3.52-8.39,5.7-13.78,5.71v0.01h-0.01h0v-0.01c-5.39,0-10.26-2.19-13.79-5.71
			c-3.52-3.53-5.7-8.39-5.71-13.78h-0.01v-0.01v-0.01h0.01c0-5.38,2.19-10.25,5.71-13.79h0
			C444.22,270.73,449.1,268.55,454.49,268.54L454.49,268.54L454.49,268.54L454.49,268.54z M454.5,272.05L454.5,272.05L454.5,272.05
			l-0.01,0.01v-0.01c-4.41,0-8.41,1.8-11.3,4.69h-0.01c-2.89,2.89-4.69,6.89-4.69,11.3h0.01v0.01v0.01h-0.01
			c0,4.41,1.8,8.41,4.69,11.31c2.89,2.89,6.89,4.69,11.3,4.69v0h0h0.01v0c4.41,0,8.41-1.8,11.31-4.69c2.89-2.89,4.69-6.89,4.69-11.3
			h-0.01v-0.01v-0.01h0.01c0-4.41-1.8-8.4-4.69-11.31C462.91,273.84,458.91,272.05,454.5,272.05z"/>
		<path class="st0" d="M447,297.58v-19.04h8.09c2.04,0,3.51,0.17,4.43,0.51c0.92,0.34,1.66,0.95,2.22,1.83
			c0.55,0.87,0.83,1.87,0.83,3c0,1.43-0.42,2.61-1.26,3.54c-0.84,0.93-2.1,1.51-3.77,1.75c0.83,0.49,1.52,1.02,2.06,1.6
			c0.54,0.58,1.27,1.61,2.19,3.09l2.33,3.71h-4.6l-2.78-4.14c-0.99-1.48-1.66-2.41-2.03-2.8c-0.36-0.38-0.75-0.65-1.16-0.79
			c-0.41-0.14-1.05-0.21-1.94-0.21h-0.78v7.95H447L447,297.58z M450.84,286.59h2.85c1.84,0,2.99-0.08,3.46-0.23
			c0.46-0.16,0.82-0.43,1.08-0.81c0.25-0.38,0.39-0.85,0.39-1.43c0-0.64-0.18-1.16-0.52-1.55c-0.34-0.39-0.82-0.64-1.45-0.75
			c-0.31-0.04-1.24-0.06-2.81-0.06h-3V286.59z"/>
	</g>
	<g>
		<path class="st1" d="M330.02,456.23l3.53-0.31c0.17,1.42,0.56,2.58,1.17,3.48c0.61,0.91,1.56,1.64,2.85,2.2
			c1.29,0.56,2.74,0.84,4.34,0.84c1.43,0,2.69-0.21,3.78-0.64c1.1-0.42,1.91-1.01,2.44-1.75c0.53-0.74,0.8-1.55,0.8-2.42
			c0-0.89-0.26-1.66-0.77-2.33c-0.51-0.66-1.36-1.22-2.55-1.67c-0.76-0.3-2.44-0.76-5.04-1.38c-2.6-0.62-4.42-1.21-5.46-1.77
			c-1.35-0.71-2.36-1.59-3.02-2.64c-0.66-1.05-1-2.22-1-3.52c0-1.43,0.41-2.76,1.22-4.01c0.81-1.24,1.99-2.18,3.55-2.83
			c1.56-0.64,3.29-0.97,5.19-0.97c2.1,0,3.95,0.34,5.55,1.01c1.6,0.67,2.83,1.67,3.7,2.98c0.86,1.31,1.33,2.8,1.39,4.46l-3.59,0.27
			c-0.19-1.79-0.84-3.14-1.96-4.05c-1.11-0.91-2.76-1.37-4.93-1.37c-2.26,0-3.91,0.41-4.95,1.24c-1.04,0.83-1.55,1.83-1.55,3
			c0,1.02,0.37,1.85,1.1,2.51c0.72,0.66,2.6,1.33,5.65,2.02c3.04,0.69,5.13,1.29,6.26,1.81c1.65,0.76,2.87,1.72,3.65,2.88
			c0.78,1.17,1.17,2.51,1.17,4.02c0,1.51-0.43,2.92-1.29,4.26c-0.86,1.33-2.1,2.37-3.72,3.11c-1.61,0.74-3.43,1.11-5.45,1.11
			c-2.56,0-4.71-0.37-6.44-1.12c-1.73-0.75-3.09-1.87-4.07-3.37C330.59,459.82,330.07,458.12,330.02,456.23z"/>
		<path class="st1" d="M358.2,465.32v-3.96h3.95v3.96H358.2z"/>
		<path class="st1" d="M365.53,465.32l10.87-28.3h4.03l11.58,28.3h-4.27l-3.3-8.57h-11.83l-3.11,8.57H365.53z M373.69,453.7h9.59
			l-2.95-7.84c-0.9-2.38-1.57-4.34-2.01-5.87c-0.36,1.82-0.87,3.62-1.52,5.4L373.69,453.7z"/>
		<path class="st1" d="M395.55,465.32v-3.96h3.95v3.96H395.55z"/>
		<path class="st1" d="M404.71,456.23l3.53-0.31c0.17,1.42,0.56,2.58,1.17,3.48c0.61,0.91,1.56,1.64,2.85,2.2
			c1.29,0.56,2.74,0.84,4.34,0.84c1.43,0,2.69-0.21,3.78-0.64c1.1-0.42,1.91-1.01,2.44-1.75c0.53-0.74,0.8-1.55,0.8-2.42
			c0-0.89-0.26-1.66-0.77-2.33c-0.51-0.66-1.36-1.22-2.55-1.67c-0.76-0.3-2.44-0.76-5.04-1.38c-2.6-0.62-4.42-1.21-5.46-1.77
			c-1.35-0.71-2.36-1.59-3.02-2.64c-0.66-1.05-1-2.22-1-3.52c0-1.43,0.41-2.76,1.22-4.01c0.81-1.24,1.99-2.18,3.55-2.83
			c1.56-0.64,3.29-0.97,5.19-0.97c2.1,0,3.95,0.34,5.55,1.01c1.6,0.67,2.83,1.67,3.7,2.98c0.86,1.31,1.33,2.8,1.39,4.46l-3.59,0.27
			c-0.19-1.79-0.84-3.14-1.96-4.05c-1.11-0.91-2.76-1.37-4.93-1.37c-2.26,0-3.91,0.41-4.95,1.24c-1.04,0.83-1.55,1.83-1.55,3
			c0,1.02,0.37,1.85,1.1,2.51c0.72,0.66,2.6,1.33,5.65,2.02c3.04,0.69,5.13,1.29,6.26,1.81c1.65,0.76,2.86,1.72,3.65,2.88
			c0.78,1.17,1.17,2.51,1.17,4.02c0,1.51-0.43,2.92-1.29,4.26c-0.86,1.33-2.1,2.37-3.72,3.11c-1.61,0.74-3.43,1.11-5.45,1.11
			c-2.56,0-4.71-0.37-6.44-1.12c-1.73-0.75-3.09-1.87-4.07-3.37C405.28,459.82,404.76,458.12,404.71,456.23z"/>
	</g>
</g>
</svg>
