<?xml version="1.0" encoding="utf-8"?>
<!-- Generator: Adobe Illustrator 27.0.1, SVG Export Plug-In . SVG Version: 6.00 Build 0)  -->
<svg version="1.1" id="Capa_1" xmlns="http://www.w3.org/2000/svg" xmlns:xlink="http://www.w3.org/1999/xlink" x="0px" y="0px"
	 viewBox="0 0 1920 900" style="enable-background:new 0 0 1920 900;" xml:space="preserve">
<style type="text/css">
	.st0{clip-path:url(#SVGID_00000095317004770944378800000017480350667437629341_);}
	.st1{fill:url(#SVGID_00000145746414197153279340000015060727901293477291_);}
	.st2{fill:url(#SVGID_00000103944414126249266200000007658259976511793802_);}
	.st3{fill:url(#SVGID_00000181809609871695465830000001612661434889319048_);}
	
		.st4{clip-path:url(#SVGID_00000095317004770944378800000017480350667437629341_);fill:url(#SVGID_00000021112678260141048490000008084166678230587564_);}
	
		.st5{clip-path:url(#SVGID_00000095317004770944378800000017480350667437629341_);fill:url(#SVGID_00000161598763190375998990000002931816934366514608_);}
	
		.st6{clip-path:url(#SVGID_00000095317004770944378800000017480350667437629341_);fill:url(#SVGID_00000066480237910099290510000006789415482789416890_);}
	.st7{clip-path:url(#SVGID_00000095317004770944378800000017480350667437629341_);fill:none;}
</style>
<g>
	<defs>
		<path id="SVGID_1_" d="M0,0v542.51c0,0,156.21,104.15,589.53,88.9c165.83-0.95,713.68-6.2,885.16,53.35
			C1608.4,723.83,1823,798.45,1919.62,900c-0.24-178,0.38-550.27,0.38-550.27s-288.58,181.21-541.78,216.92
			c-96.78,11.39-361.24,51.06-583.6,9.09C661.81,538.46,165.33,416.82,0,0z"/>
	</defs>
	<clipPath id="SVGID_00000008862285016652130160000010541322471074566550_">
		<use xlink:href="#SVGID_1_"  style="overflow:visible;"/>
	</clipPath>
	<g style="clip-path:url(#SVGID_00000008862285016652130160000010541322471074566550_);">
		
			<linearGradient id="SVGID_00000152975303108316130560000001425959995307628980_" gradientUnits="userSpaceOnUse" x1="-6800.0464" y1="908.2283" x2="-6237.9077" y2="908.2283" gradientTransform="matrix(-1 0 0 1 -4896.6338 0)">
			<stop  offset="0" style="stop-color:#101F2D"/>
			<stop  offset="1" style="stop-color:#29384D"/>
		</linearGradient>
		<path style="fill:url(#SVGID_00000152975303108316130560000001425959995307628980_);" d="M1928.98,349.73
			C1230.76,799.7,170.76,599.07-25.25,20.64v1775.18h1954.23V349.73z"/>
		
			<linearGradient id="SVGID_00000114067359839722719780000002915904356898770109_" gradientUnits="userSpaceOnUse" x1="-6686.3882" y1="908.2283" x2="-6124.2495" y2="908.2283" gradientTransform="matrix(-1 0 0 1 -4896.6338 0)">
			<stop  offset="0" style="stop-color:#29384D"/>
			<stop  offset="1" style="stop-color:#101F2D"/>
		</linearGradient>
		<path style="fill:url(#SVGID_00000114067359839722719780000002915904356898770109_);" d="M1928.98,465.69
			C1124.63,808.06,183.2,615.42-25.25,20.64v1775.18h1954.23V465.69z"/>
		
			<linearGradient id="SVGID_00000027566316276735011590000008523118037603114134_" gradientUnits="userSpaceOnUse" x1="-6825.6138" y1="908.2283" x2="-4871.3813" y2="908.2283" gradientTransform="matrix(-1 0 0 1 -4896.6338 0)">
			<stop  offset="0" style="stop-color:#29384D"/>
			<stop  offset="1" style="stop-color:#101F2D"/>
		</linearGradient>
		<path style="fill:url(#SVGID_00000027566316276735011590000008523118037603114134_);" d="M1928.98,569.67
			C1128.78,877.64,192.65,629.57-25.25,20.64v1775.18h1954.23V569.67z"/>
	</g>
	
		<linearGradient id="SVGID_00000176019188894510146470000001930583786652732829_" gradientUnits="userSpaceOnUse" x1="-5903.5615" y1="851.4212" x2="-4874.1411" y2="851.4212" gradientTransform="matrix(-1 0 0 1 -4896.6338 0)">
		<stop  offset="0" style="stop-color:#BDBC80"/>
		<stop  offset="1" style="stop-color:#FFE0C3"/>
	</linearGradient>
	
		<path style="clip-path:url(#SVGID_00000008862285016652130160000010541322471074566550_);fill:url(#SVGID_00000176019188894510146470000001930583786652732829_);" d="
		M1006.93,615.2C508.58,559.11,77.66,259.09-22.49-36.17v1775.18h1029.42V615.2z"/>
	
		<linearGradient id="SVGID_00000127006343395070457900000002641531350163021187_" gradientUnits="userSpaceOnUse" x1="-6833.8936" y1="1030.9819" x2="-4879.6611" y2="1030.9819" gradientTransform="matrix(-1 0 0 1 -4896.6338 0)">
		<stop  offset="0" style="stop-color:#808033"/>
		<stop  offset="1" style="stop-color:#BDBC80"/>
	</linearGradient>
	
		<path style="clip-path:url(#SVGID_00000008862285016652130160000010541322471074566550_);fill:url(#SVGID_00000127006343395070457900000002641531350163021187_);" d="
		M1937.26,943.39C1341.57,419.99,300.31,708.75-16.97,336.8v1388.36h1954.23V943.39z"/>
	
		<linearGradient id="SVGID_00000129183761932319494080000004777708334473228703_" gradientUnits="userSpaceOnUse" x1="-6835.8057" y1="1051.8152" x2="-4881.5732" y2="1051.8152" gradientTransform="matrix(-1 0 0 1 -4896.6338 0)">
		<stop  offset="0" style="stop-color:#535327"/>
		<stop  offset="1" style="stop-color:#808033"/>
	</linearGradient>
	
		<path style="clip-path:url(#SVGID_00000008862285016652130160000010541322471074566550_);fill:url(#SVGID_00000129183761932319494080000004777708334473228703_);" d="
		M1939.17,912.23c-595.69-523.4-1530.4-152.27-1954.23-502.6V1694h1954.23V912.23z"/>
	
		<rect x="56.46" y="-501.96" transform="matrix(-1 -1.224647e-16 1.224647e-16 -1 1971.9091 1194.5035)" style="clip-path:url(#SVGID_00000008862285016652130160000010541322471074566550_);fill:none;" width="1858.99" height="2198.42"/>
</g>
</svg>
