<?xml version="1.0" encoding="utf-8"?>
<!-- Generator: Adobe Illustrator 27.9.4, SVG Export Plug-In . SVG Version: 9.03 Build 54784)  -->
<svg version="1.1" id="Capa_1" xmlns="http://www.w3.org/2000/svg" xmlns:xlink="http://www.w3.org/1999/xlink" x="0px" y="0px"
	 viewBox="0 0 500 137" style="enable-background:new 0 0 500 137;" xml:space="preserve">
<style type="text/css">
	.st0{fill:#043A35;}
	.st1{fill:#F6F4D8;}
	.st2{fill:#E47C2C;}
</style>
<g>
	<path class="st0" d="M476.4,41.8H34.6c-3.5,0-6.3,2.8-6.3,6.3v77.7c0,3.5,2.8,6.3,6.3,6.3h441.8c3.5,0,6.3-2.8,6.3-6.3V48
		C482.6,44.6,479.8,41.8,476.4,41.8z"/>
	<g>
		<g>
			<g>
				<path class="st1" d="M152,72.2c0.7,0,1.2,0.2,1.7,0.7c0.5,0.4,0.7,1,0.7,1.7c0,0.3-0.1,0.7-0.2,1l-12,28.3
					c-0.3,0.5-0.6,0.9-1,1.2c-0.4,0.3-0.9,0.4-1.3,0.4c-0.4,0-0.9-0.2-1.3-0.4c-0.4-0.3-0.7-0.6-0.9-1.1l-12-28.4
					c-0.1-0.2-0.2-0.3-0.2-0.5c0-0.2,0-0.3,0-0.5c0-0.8,0.3-1.3,0.8-1.8c0.6-0.4,1.1-0.6,1.6-0.6c1,0,1.8,0.5,2.2,1.6L141,99.5h-1.4
					l10.2-25.8C150.3,72.7,151,72.2,152,72.2z"/>
				<path class="st1" d="M170.8,105.9c-2.6,0-4.9-0.5-6.8-1.6s-3.4-2.6-4.5-4.5c-1.1-1.9-1.6-4.1-1.6-6.6c0-2.8,0.6-5.2,1.7-7.1
					c1.1-2,2.6-3.5,4.4-4.5c1.8-1.1,3.7-1.6,5.7-1.6c1.5,0,3,0.3,4.4,0.9c1.4,0.6,2.6,1.5,3.7,2.6c1.1,1.1,1.9,2.4,2.6,3.8
					c0.6,1.5,1,3.1,1,4.8c0,0.6-0.3,1.2-0.8,1.6c-0.5,0.4-1,0.6-1.7,0.6h-18.4l-1.1-4h17.8l-0.9,0.9v-1.2c-0.1-1.1-0.5-2.1-1.1-2.9
					c-0.7-0.8-1.5-1.5-2.4-1.9c-1-0.5-2-0.7-3.1-0.7c-0.9,0-1.9,0.2-2.7,0.4c-0.9,0.3-1.6,0.8-2.3,1.4c-0.7,0.7-1.2,1.5-1.6,2.6
					s-0.6,2.4-0.6,4c0,1.7,0.4,3.3,1.1,4.5c0.7,1.3,1.7,2.3,2.9,3s2.6,1.1,4.1,1.1c1.2,0,2.1-0.1,2.9-0.4c0.7-0.2,1.4-0.5,1.9-0.9
					c0.5-0.3,1-0.7,1.3-1c0.5-0.3,0.9-0.4,1.4-0.4c0.6,0,1.1,0.2,1.5,0.6c0.4,0.4,0.6,0.9,0.6,1.4c0,0.7-0.3,1.3-1,1.9
					c-0.9,0.8-2,1.5-3.5,2.2C174.1,105.6,172.5,105.9,170.8,105.9z"/>
				<path class="st1" d="M189.2,105.5c-0.7,0-1.3-0.2-1.7-0.7c-0.5-0.5-0.7-1-0.7-1.7V83c0-0.7,0.2-1.3,0.7-1.7
					c0.5-0.5,1-0.7,1.7-0.7c0.7,0,1.2,0.2,1.7,0.7c0.5,0.5,0.7,1,0.7,1.7v5.3l-0.5-2c0.3-0.9,0.6-1.7,1.2-2.5c0.5-0.8,1.1-1.4,1.9-2
					s1.5-1,2.4-1.3c0.9-0.3,1.8-0.5,2.8-0.5c0.8,0,1.5,0.2,2.1,0.7c0.6,0.4,0.9,1,0.9,1.7c0,0.9-0.2,1.5-0.7,1.9
					c-0.4,0.4-0.9,0.6-1.5,0.6c-0.5,0-0.9-0.1-1.4-0.3c-0.4-0.2-1-0.3-1.6-0.3c-0.7,0-1.3,0.2-2,0.5c-0.7,0.3-1.3,0.9-1.9,1.5
					c-0.6,0.7-1,1.5-1.3,2.4c-0.3,0.9-0.5,1.9-0.5,3.1v11.4c0,0.7-0.2,1.3-0.7,1.7C190.4,105.2,189.8,105.5,189.2,105.5z"/>
				<path class="st1" d="M243.8,74.2c0.7,0.3,1.1,0.9,1.2,1.6c0.1,0.7-0.1,1.4-0.6,2c-0.3,0.5-0.8,0.8-1.3,0.8
					c-0.5,0-1.1-0.1-1.7-0.4c-0.9-0.5-1.8-0.9-2.9-1.1c-1-0.3-2.1-0.4-3.2-0.4c-1.8,0-3.4,0.3-4.9,0.9c-1.4,0.6-2.7,1.4-3.7,2.5
					c-1,1.1-1.8,2.4-2.4,3.8c-0.6,1.5-0.8,3.1-0.8,4.9c0,2,0.3,3.7,0.9,5.3c0.6,1.5,1.4,2.8,2.5,3.9c1.1,1.1,2.3,1.8,3.7,2.4
					s3,0.8,4.7,0.8c1.1,0,2.1-0.1,3.1-0.4c1-0.3,2-0.6,2.9-1.1c0.6-0.3,1.1-0.4,1.7-0.3c0.5,0.1,1,0.4,1.4,0.8
					c0.5,0.7,0.7,1.3,0.6,2c-0.1,0.7-0.5,1.2-1.2,1.5c-0.8,0.4-1.7,0.8-2.6,1.2s-1.9,0.6-2.9,0.8c-1,0.2-2,0.3-3,0.3
					c-2.3,0-4.4-0.4-6.5-1.1s-3.8-1.9-5.4-3.3c-1.6-1.5-2.8-3.2-3.7-5.4c-0.9-2.1-1.4-4.5-1.4-7.2c0-2.4,0.4-4.7,1.3-6.7
					s2-3.8,3.6-5.4c1.5-1.5,3.3-2.7,5.4-3.5c2.1-0.8,4.3-1.3,6.7-1.3c1.5,0,3,0.2,4.4,0.6C241.3,73,242.6,73.5,243.8,74.2z"/>
				<path class="st1" d="M270.3,80.2c0.7,0,1.3,0.2,1.7,0.7c0.4,0.5,0.7,1,0.7,1.7v20.5c0,0.7-0.2,1.3-0.7,1.7
					c-0.4,0.5-1,0.7-1.7,0.7s-1.3-0.2-1.7-0.7c-0.4-0.5-0.7-1-0.7-1.7v-3.4l1,0.2c0,0.5-0.2,1.2-0.7,1.9c-0.5,0.7-1.1,1.4-1.9,2
					c-0.8,0.6-1.7,1.2-2.8,1.6c-1.1,0.4-2.2,0.6-3.5,0.6c-2.2,0-4.1-0.6-5.9-1.7c-1.7-1.1-3.1-2.7-4.1-4.6s-1.5-4.2-1.5-6.7
					c0-2.6,0.5-4.8,1.5-6.7c1-1.9,2.4-3.5,4.1-4.6c1.7-1.1,3.6-1.7,5.7-1.7c1.4,0,2.6,0.2,3.8,0.7c1.2,0.4,2.2,1,3,1.7
					s1.5,1.4,2,2.2c0.5,0.8,0.7,1.5,0.7,2.2l-1.5,0.1v-4.3c0-0.7,0.2-1.2,0.7-1.7S269.6,80.2,270.3,80.2z M260.6,101.6
					c1.5,0,2.8-0.4,3.9-1.1c1.1-0.8,2-1.8,2.7-3.1c0.6-1.3,0.9-2.8,0.9-4.4c0-1.6-0.3-3.1-0.9-4.4c-0.6-1.3-1.5-2.3-2.7-3.1
					c-1.1-0.7-2.4-1.1-3.9-1.1c-1.5,0-2.7,0.4-3.9,1.1c-1.1,0.7-2,1.8-2.7,3.1c-0.6,1.3-1,2.8-1,4.4c0,1.6,0.3,3.1,1,4.4
					c0.6,1.3,1.5,2.3,2.7,3.1C257.9,101.2,259.2,101.6,260.6,101.6z"/>
				<path class="st1" d="M279,80.8h11.1c0.6,0,1.2,0.2,1.6,0.6c0.4,0.4,0.6,1,0.6,1.6c0,0.6-0.2,1.2-0.6,1.6c-0.4,0.4-1,0.6-1.6,0.6
					H279c-0.6,0-1.2-0.2-1.6-0.6c-0.4-0.4-0.6-1-0.6-1.6c0-0.6,0.2-1.2,0.6-1.6C277.8,81,278.3,80.8,279,80.8z M283.9,74.7
					c0.7,0,1.3,0.2,1.7,0.7c0.4,0.5,0.7,1,0.7,1.7v22c0,0.6,0.1,1,0.3,1.4c0.2,0.3,0.4,0.6,0.8,0.7c0.3,0.1,0.7,0.2,1,0.2
					s0.7-0.1,0.9-0.2c0.3-0.1,0.6-0.2,1-0.2s0.7,0.2,1,0.5c0.3,0.3,0.5,0.8,0.5,1.4c0,0.8-0.4,1.4-1.2,1.8c-0.8,0.5-1.7,0.7-2.7,0.7
					c-0.5,0-1.2,0-1.9-0.1c-0.7-0.1-1.4-0.3-2.1-0.7c-0.7-0.4-1.2-1-1.7-1.8c-0.5-0.8-0.7-2-0.7-3.5V77.1c0-0.7,0.2-1.3,0.7-1.7
					C282.7,74.9,283.3,74.7,283.9,74.7z"/>
				<path class="st1" d="M318,80.2c0.7,0,1.3,0.2,1.7,0.7c0.4,0.5,0.7,1,0.7,1.7v20.5c0,0.7-0.2,1.3-0.7,1.7c-0.4,0.5-1,0.7-1.7,0.7
					s-1.3-0.2-1.7-0.7c-0.4-0.5-0.7-1-0.7-1.7v-3.4l1,0.2c0,0.5-0.2,1.2-0.7,1.9c-0.5,0.7-1.1,1.4-1.9,2c-0.8,0.6-1.7,1.2-2.8,1.6
					c-1.1,0.4-2.2,0.6-3.5,0.6c-2.2,0-4.1-0.6-5.9-1.7c-1.7-1.1-3.1-2.7-4.1-4.6c-1-2-1.5-4.2-1.5-6.7c0-2.6,0.5-4.8,1.5-6.7
					c1-1.9,2.4-3.5,4.1-4.6c1.7-1.1,3.6-1.7,5.7-1.7c1.4,0,2.6,0.2,3.8,0.7c1.2,0.4,2.2,1,3,1.7s1.5,1.4,2,2.2
					c0.5,0.8,0.7,1.5,0.7,2.2l-1.5,0.1v-4.3c0-0.7,0.2-1.2,0.7-1.7S317.3,80.2,318,80.2z M308.3,101.6c1.5,0,2.8-0.4,3.9-1.1
					c1.1-0.8,2-1.8,2.7-3.1c0.6-1.3,0.9-2.8,0.9-4.4c0-1.6-0.3-3.1-0.9-4.4c-0.6-1.3-1.5-2.3-2.7-3.1c-1.1-0.7-2.4-1.1-3.9-1.1
					c-1.5,0-2.7,0.4-3.9,1.1c-1.1,0.7-2,1.8-2.7,3.1c-0.6,1.3-1,2.8-1,4.4c0,1.6,0.3,3.1,1,4.4c0.6,1.3,1.5,2.3,2.7,3.1
					C305.6,101.2,306.9,101.6,308.3,101.6z M308.6,78.8c-0.3,0-0.5-0.1-0.9-0.4c-0.3-0.2-0.5-0.6-0.4-1c0-0.3,0.1-0.5,0.3-0.8
					l2.8-4.7c0.2-0.4,0.5-0.8,0.9-1.1s0.8-0.5,1.3-0.5c0.8,0,1.3,0.2,1.7,0.6c0.4,0.4,0.6,0.9,0.5,1.5c0,0.3-0.1,0.6-0.2,0.9
					s-0.3,0.6-0.5,0.9l-3.6,3.9c-0.3,0.3-0.6,0.5-0.9,0.6C309.2,78.8,308.9,78.8,308.6,78.8z"/>
				<path class="st1" d="M332.1,103.1c0,0.7-0.2,1.3-0.7,1.7c-0.5,0.5-1,0.7-1.7,0.7s-1.2-0.2-1.7-0.7c-0.5-0.5-0.7-1-0.7-1.7V72.8
					c0-0.7,0.2-1.3,0.7-1.7c0.5-0.5,1-0.7,1.7-0.7c0.7,0,1.3,0.2,1.7,0.7c0.4,0.5,0.6,1,0.6,1.7V103.1z"/>
				<path class="st1" d="M363,93c0,2.5-0.6,4.8-1.7,6.7c-1.1,1.9-2.6,3.5-4.5,4.6c-1.9,1.1-4,1.7-6.4,1.7c-2.4,0-4.5-0.6-6.4-1.7
					c-1.9-1.1-3.4-2.6-4.5-4.6c-1.1-1.9-1.7-4.2-1.7-6.7c0-2.6,0.6-4.8,1.7-6.7c1.1-1.9,2.6-3.5,4.5-4.6c1.9-1.1,4-1.7,6.4-1.7
					c2.4,0,4.5,0.6,6.4,1.7c1.9,1.1,3.4,2.7,4.5,4.6C362.5,88.2,363,90.5,363,93z M358.3,93c0-1.7-0.3-3.2-1-4.5
					c-0.7-1.3-1.6-2.3-2.8-3c-1.2-0.7-2.5-1.1-4-1.1s-2.8,0.4-4,1.1c-1.2,0.7-2.1,1.7-2.8,3c-0.7,1.3-1,2.8-1,4.5
					c0,1.7,0.3,3.2,1,4.5c0.7,1.3,1.6,2.3,2.8,3c1.2,0.7,2.5,1.1,4,1.1s2.8-0.4,4-1.1c1.2-0.7,2.1-1.7,2.8-3
					C357.9,96.2,358.3,94.7,358.3,93z"/>
				<path class="st1" d="M378.7,80c1.3,0,2.6,0.2,3.7,0.7c1.1,0.4,2.1,1,3,1.7c0.8,0.7,1.5,1.4,2,2.1c0.5,0.7,0.7,1.4,0.7,1.9l-1,0
					v-3.8c0-0.7,0.2-1.2,0.7-1.7c0.4-0.5,1-0.7,1.7-0.7c0.7,0,1.3,0.2,1.7,0.7c0.4,0.5,0.7,1,0.7,1.7v20.9c0,2.7-0.6,4.8-1.7,6.5
					c-1.1,1.7-2.6,2.9-4.5,3.7c-1.9,0.8-3.9,1.2-6.2,1.2c-0.8,0-1.7-0.1-2.8-0.3c-1.1-0.2-2.1-0.4-3-0.7s-1.5-0.6-1.9-0.9
					c-0.7-0.4-1.2-0.8-1.4-1.3c-0.2-0.5-0.2-1,0-1.5c0.3-0.7,0.7-1.1,1.3-1.3c0.6-0.2,1.2-0.1,1.9,0.1c0.3,0.1,0.8,0.3,1.4,0.5
					c0.7,0.3,1.4,0.5,2.2,0.7c0.8,0.2,1.6,0.3,2.3,0.3c2.5,0,4.4-0.6,5.7-1.8c1.3-1.2,1.9-2.7,1.9-4.7v-4.3l0.5,0.3
					c-0.1,0.6-0.4,1.3-0.9,2c-0.5,0.7-1.1,1.3-1.9,1.9c-0.8,0.6-1.7,1-2.7,1.4c-1,0.4-2.1,0.5-3.1,0.5c-2.2,0-4.3-0.6-6-1.7
					c-1.8-1.1-3.2-2.7-4.2-4.6c-1-1.9-1.5-4.2-1.5-6.7s0.5-4.8,1.5-6.7c1-1.9,2.4-3.5,4.2-4.6C374.6,80.6,376.6,80,378.7,80z
					 M379.4,84.4c-1.5,0-2.9,0.4-4.1,1.1c-1.2,0.7-2.1,1.8-2.7,3.1c-0.7,1.3-1,2.8-1,4.4s0.3,3.1,1,4.4c0.7,1.3,1.6,2.3,2.7,3.1
					c1.2,0.8,2.5,1.1,4.1,1.1c1.5,0,2.9-0.4,4-1.1c1.2-0.7,2.1-1.8,2.7-3.1c0.7-1.3,1-2.8,1-4.4s-0.3-3.1-1-4.4
					c-0.7-1.3-1.6-2.3-2.7-3.1C382.3,84.8,381,84.4,379.4,84.4z"/>
				<path class="st1" d="M422.2,93c0,2.5-0.6,4.8-1.7,6.7c-1.1,1.9-2.6,3.5-4.5,4.6c-1.9,1.1-4,1.7-6.4,1.7c-2.4,0-4.5-0.6-6.4-1.7
					c-1.9-1.1-3.4-2.6-4.5-4.6c-1.1-1.9-1.7-4.2-1.7-6.7c0-2.6,0.6-4.8,1.7-6.7c1.1-1.9,2.6-3.5,4.5-4.6c1.9-1.1,4-1.7,6.4-1.7
					c2.4,0,4.5,0.6,6.4,1.7c1.9,1.1,3.4,2.7,4.5,4.6C421.7,88.2,422.2,90.5,422.2,93z M417.5,93c0-1.7-0.3-3.2-1-4.5
					c-0.7-1.3-1.6-2.3-2.8-3c-1.2-0.7-2.5-1.1-4-1.1s-2.8,0.4-4,1.1c-1.2,0.7-2.1,1.7-2.8,3c-0.7,1.3-1,2.8-1,4.5
					c0,1.7,0.3,3.2,1,4.5c0.7,1.3,1.6,2.3,2.8,3c1.2,0.7,2.5,1.1,4,1.1s2.8-0.4,4-1.1c1.2-0.7,2.1-1.7,2.8-3
					C417.1,96.2,417.5,94.7,417.5,93z"/>
			</g>
		</g>
	</g>
	<g>
		<path class="st1" d="M33.2,88.4c0.3,1.2,1.2,2.1,2.1,2.9c3.2,2.7,5.8,5.8,8,9.3c4,6.3,7.2,13.1,9.5,20.3c1.1,3.6,1.1,3.8-2.6,3.3
			c-5.9-0.8-10.9-3.6-15.6-7.1c-4-3.1-7.4-6.7-10.3-10.9c-2.9-4.1-4.8-8.6-5.7-13.6c-0.7-3.7-1.4-7.4-1.2-11.2
			c0.4-7.3,2.5-14,6.4-20.2c0.4,0,0.7,0.3,0.8,0.7c2.4,5.2,6.2,9.2,10.3,13c5.1,4.7,10.3,9.2,14.9,14.4c8.3,9.5,11.1,20.5,9,32.8
			c-0.1,0.8,0,1.6-0.7,2.6c-1-1.7-1.5-3.5-2.1-5.2c-3.3-8.3-7.2-16.3-13.4-22.9c-2.5-2.7-4.6-5.7-7.9-7.5
			C34.2,88.7,33.8,88.2,33.2,88.4c0-0.1,0-0.3-0.2-0.1L33.2,88.4z"/>
		<path class="st1" d="M85.2,78.6c-7.6,6.1-11,14.7-14.3,23.5c-1.7-6.6-1.6-13.1,1.5-19.3c2.7-5.4,6.9-9.5,11.3-13.5
			c3.8-3.5,7.7-6.9,10-11.6c0.6-1.2,1-0.5,1.4,0.1c5.2,7.3,6.2,15.2,3.2,23.5c-3.9,10.6-11.8,17-22.3,20.5c-1.4,0.5-1.7,0-1.5-1.3
			c0.3-1.5,0.6-2.9,1.2-4.3c2.1-5.9,5.3-11.2,9.1-16.1c0.3-0.4,0.6-0.8,0.9-1.2L85.2,78.6z"/>
		<path class="st1" d="M59.1,131.6c2-2.6,3.7-5.3,5.1-8.3c3.5-7.9,3.6-16,2.2-24.3c-1.1-6.8-3.5-13.1-5.4-19.7
			c-1.6-5.5-2.7-11.3-5.2-16.5c-3.1-6.3-6.2-12.6-11.5-17.6c-0.6-0.6-1.4-1.1-1.8-2.1c1-0.6,1.7-0.4,2.4,0.4
			c2.9,3.1,5.7,6.4,8.2,9.8c6.1,8.2,9.6,17.6,12.5,27.3c0.4,1.4,0.6,2.9,1.4,4.3c1.6-3.6,2.5-7.4,2.7-11.3c0.6-10.8-2.7-20.4-9-29.2
			c-4-5.6-9.1-10.2-13.5-15.4c-4-4.6-8-9.1-10.4-14.8c-0.3-0.8-0.3-2.1-1.1-2.2c-0.9-0.1-1,1.2-1.5,1.9c-5.3,8-8.1,16.8-8,26.5
			c0.2,13.4,5.1,24.5,15.1,33.3c2.7,2.4,5.9,4.2,8.5,6.6c3.2,2.9,5.9,6.3,7.9,10.2c2.1,3.8,3.5,7.9,4.2,12.2c1.8,10.3-0.4,20-5.6,29
			C57.3,131.8,58.2,131.7,59.1,131.6C59.1,131.6,59.1,131.6,59.1,131.6z"/>
		<path class="st1" d="M100.7,5.1C100.7,5.1,100.7,5.1,100.7,5.1C100.7,5.1,100.7,5.1,100.7,5.1L100.7,5.1z"/>
	</g>
</g>
</svg>
