<?xml version="1.0" encoding="utf-8"?>
<!-- Generator: Adobe Illustrator 27.9.4, SVG Export Plug-In . SVG Version: 9.03 Build 54784)  -->
<svg version="1.1" id="Capa_1" xmlns="http://www.w3.org/2000/svg" xmlns:xlink="http://www.w3.org/1999/xlink" x="0px" y="0px"
	 viewBox="0 0 1920 393" style="enable-background:new 0 0 1920 393;" xml:space="preserve">
<style type="text/css">
	.st0{fill:#DE5C1D;}
	.st1{fill:#F6F4D8;}
	.st2{fill:#1B5A35;}
	.st3{fill:#043A35;}
</style>
<g>
	<path class="st0" d="M1940.6,199.3c0-0.2,0-0.4,0-0.7c-323.9,157-647.8,71.5-971.7-16.2c164.7,55.7,329.3,110.9,494,133.9
		C1622.1,316.9,1781.3,287.4,1940.6,199.3z"/>
	<path class="st1" d="M1462.8,316.3C968.4,247,473.9-112-20.6,94c0,29.3,0,58.7,0,88c483.4-229.2,966.7,81.5,1450,133.8
		C1440.6,316.1,1451.7,316.3,1462.8,316.3z"/>
	<path class="st2" d="M1940.6,276.9c0-9.7,0-19.5,0-29.2C1286.9,543,633.1-149.4-20.6,145.9c0,43.7,0,87.4,0,131
		C633.1-52.3,1286.9,606.2,1940.6,276.9z"/>
	<path class="st3" d="M1940.6,276.9c0-25.9,0-51.8,0-77.8C1421.5,486.5,902.3,151,383.2,181.9
		C902.3,176.9,1421.5,538.4,1940.6,276.9z"/>
</g>
</svg>
