<?xml version="1.0" encoding="utf-8"?>
<!-- Generator: Adobe Illustrator 27.9.4, SVG Export Plug-In . SVG Version: 9.03 Build 54784)  -->
<svg version="1.1" id="Capa_1" xmlns="http://www.w3.org/2000/svg" xmlns:xlink="http://www.w3.org/1999/xlink" x="0px" y="0px"
	 viewBox="0 0 350 350" style="enable-background:new 0 0 350 350;" xml:space="preserve">
<style type="text/css">
	.st0{fill:#043A35;}
	.st1{fill:#F6F4D8;}
	.st2{opacity:0.57;}
	.st3{fill:#194534;}
</style>
<g>
	<g>
		<g>
			<circle class="st0" cx="175.3" cy="175.1" r="159.2"/>
			<path class="st1" d="M175.3,345.1c-93.7,0-170-76.3-170-170c0-93.7,76.3-170,170-170s170,76.3,170,170
				C345.3,268.9,269.1,345.1,175.3,345.1z M175.3,26.7c-81.9,0-148.5,66.6-148.5,148.5s66.6,148.5,148.5,148.5
				c81.9,0,148.5-66.6,148.5-148.5S257.2,26.7,175.3,26.7z"/>
		</g>
		<g class="st2">
			<g>
				<path class="st3" d="M282.8,75.9c-8.3-7.8-17.4-14.4-27.4-19.9c-9.9-5.5-20.4-9.7-31.4-12.7c-32-8.6-62.9-5.2-93.1,8.1
					c-19,8.3-35.4,20.2-49.2,35.7c-16.1,18.1-26.8,39-31.4,62.9c-6.1,32.1-1.1,62.3,14.6,90.9c4.8,8.7,10.5,16.7,17.1,24.1
					c6.6,7.4,13.8,14.1,21.8,19.9c8,5.9,16.5,10.8,25.6,14.8c9.1,4,18.4,7,28.1,9c13.3,2.7,26.6,3.4,40.1,2.3c2.2-0.2,3.1-1.6,4-3.1
					c9.5-16.6,13.6-34.3,10.3-53.2c-1.3-7.9-3.9-15.3-7.7-22.3c-3.8-7-8.7-13.2-14.5-18.6c-4.8-4.4-10.6-7.8-15.6-12.1
					c-18.4-16.2-27.4-36.4-27.7-61c-0.2-17.8,5-33.8,14.7-48.5c0.8-1.3,1-3.7,2.7-3.4c1.5,0.2,1.5,2.6,2.1,4
					c4.4,10.4,11.7,18.7,18.9,27.1c8.2,9.5,17.5,17.9,24.8,28.1c11.4,15.9,17.5,33.5,16.4,53.3c-0.3,7.2-2,14.1-4.9,20.7
					c-1.6-2.6-1.9-5.3-2.6-7.8c-5.2-17.8-11.7-34.9-22.8-49.9c-4.7-6.2-9.8-12.2-15.1-17.9c-1.3-1.4-2.7-1.9-4.4-0.7
					c0.7,1.7,2.2,2.7,3.4,3.8c9.5,9.1,15.2,20.7,21,32.2c4.7,9.5,6.6,20,9.6,30.1c3.5,11.9,8,23.6,10,36c2.4,15.1,2.3,30.1-4.1,44.5
					c-2.5,5.4-5.6,10.5-9.4,15.2c-0.5,0.7-1.8,1.3-1.3,2.3c0.6,1.1,1.9,0.5,2.9,0.4c7.4-1.2,14.9-2.2,22.3-4.1
					c0.7-0.3,1.4-0.3,2,0.2c-2.5,2.2-5.6,2.9-8.4,3.7c-17.5,5.5-35.4,9.2-53.8,8.6c-17.1-0.6-33.5-4.3-49.2-11
					c-29.9-12.5-53.2-32.7-69.5-60.6c-19.3-33.1-24.7-68.6-16-105.9c8.8-38.3,30.3-68,63.2-89.5c15.4-10,32.2-16.7,50.3-20
					c18.1-3.5,36-2.9,54.1,0c27.7,4.5,51.2,17.2,71.8,35.7C277.8,69.8,281,72.2,282.8,75.9L282.8,75.9z"/>
			</g>
			<g>
				<path class="st3" d="M159.2,228.4c0.6,2.3,2.1,3.8,3.9,5.3c5.8,4.9,10.6,10.6,14.6,17c7.4,11.6,13.2,24,17.3,37.1
					c2,6.5,2,6.9-4.8,6c-10.8-1.4-20-6.7-28.5-13.1c-7.4-5.6-13.6-12.3-18.8-20c-5.3-7.5-8.8-15.8-10.5-24.9
					c-1.2-6.8-2.5-13.6-2.2-20.5c0.7-13.4,4.6-25.7,11.7-37c0.8,0.1,1.3,0.5,1.5,1.2c4.3,9.5,11.3,16.8,18.9,23.8
					c9.2,8.6,18.9,16.8,27.2,26.3c15.1,17.4,20.3,37.5,16.4,60.1c-0.2,1.4,0,3-1.3,4.7c-1.9-3.1-2.7-6.4-3.9-9.4
					c-6.1-15.2-13.2-29.8-24.5-41.9c-4.5-4.9-8.4-10.4-14.4-13.8C161,228.8,160.3,228,159.2,228.4c0-0.3,0-0.5-0.4-0.3L159.2,228.4z
					"/>
			</g>
			<g>
				<path class="st3" d="M254.5,210.4c-13.9,11.1-20.1,27-26.2,42.9c-3.1-12.1-2.9-23.9,2.7-35.2c4.9-9.9,12.7-17.4,20.6-24.7
					c6.9-6.4,14-12.6,18.4-21.3c1.1-2.2,1.7-1,2.5,0.2c9.5,13.3,11.3,27.8,5.8,43c-7.1,19.4-21.6,31.1-40.9,37.5
					c-2.6,0.9-3.1,0-2.7-2.4c0.5-2.7,1.2-5.3,2.1-7.9c3.8-10.8,9.6-20.4,16.7-29.4c0.6-0.7,1.1-1.5,1.6-2.3L254.5,210.4z"/>
			</g>
		</g>
	</g>
	<g>
		<g>
			<path class="st1" d="M122,258.7c4.2-4.3,12.2-11.7,27-25.1c15.5-14,31.2-27.9,31.4-28c0.9-0.8,2.2-0.7,3,0.1l55,55V83.3H122
				V258.7z"/>
		</g>
		<g>
			<path class="st0" d="M167.1,160l-15.7-15.7c-7.2,6.3-14.6,13.1-16.5,15.4l33.4,33.4l57.1-57.1v-30.6L170.7,160
				C169.7,161,168.1,161,167.1,160z"/>
		</g>
	</g>
</g>
</svg>
