<?xml version="1.0" encoding="utf-8"?>
<!-- Generator: Adobe Illustrator 27.9.4, SVG Export Plug-In . SVG Version: 9.03 Build 54784)  -->
<svg version="1.1" id="Capa_1" xmlns="http://www.w3.org/2000/svg" xmlns:xlink="http://www.w3.org/1999/xlink" x="0px" y="0px"
	 viewBox="0 0 350 350" style="enable-background:new 0 0 350 350;" xml:space="preserve">
<style type="text/css">
	.st0{fill:#043A35;}
	.st1{fill:#F6F4D8;}
	.st2{opacity:0.57;}
	.st3{fill:#194534;}
	.st4{fill:#0A3A2D;}
</style>
<g>
	<g>
		<circle class="st0" cx="175.3" cy="175.1" r="159.2"/>
		<path class="st1" d="M175.3,345.1c-93.7,0-170-76.3-170-170c0-93.7,76.3-170,170-170s170,76.3,170,170
			C345.3,268.9,269.1,345.1,175.3,345.1z M175.3,26.7c-81.9,0-148.5,66.6-148.5,148.5s66.6,148.5,148.5,148.5
			c81.9,0,148.5-66.6,148.5-148.5S257.2,26.7,175.3,26.7z"/>
	</g>
	<g class="st2">
		<g>
			<path class="st3" d="M282.8,75.9c-8.3-7.8-17.4-14.4-27.4-19.9c-9.9-5.5-20.4-9.7-31.4-12.7c-32-8.6-62.9-5.2-93.1,8.1
				c-19,8.3-35.4,20.2-49.2,35.7c-16.1,18.1-26.8,39-31.4,62.9c-6.1,32.1-1.1,62.3,14.6,90.9c4.8,8.7,10.5,16.7,17.1,24.1
				c6.6,7.4,13.8,14.1,21.8,19.9c8,5.9,16.5,10.8,25.6,14.8c9.1,4,18.4,7,28.1,9c13.3,2.7,26.6,3.4,40.1,2.3c2.2-0.2,3.1-1.6,4-3.1
				c9.5-16.6,13.6-34.3,10.3-53.2c-1.3-7.9-3.9-15.3-7.7-22.3c-3.8-7-8.7-13.2-14.5-18.6c-4.8-4.4-10.6-7.8-15.6-12.1
				c-18.4-16.2-27.4-36.4-27.7-61c-0.2-17.8,5-33.8,14.7-48.5c0.8-1.3,1-3.7,2.7-3.4c1.5,0.2,1.5,2.6,2.1,4
				c4.4,10.4,11.7,18.7,18.9,27.1c8.2,9.5,17.5,17.9,24.8,28.1c11.4,15.9,17.5,33.5,16.4,53.3c-0.3,7.2-2,14.1-4.9,20.7
				c-1.6-2.6-1.9-5.3-2.6-7.8c-5.2-17.8-11.7-34.9-22.8-49.9c-4.7-6.2-9.8-12.2-15.1-17.9c-1.3-1.4-2.7-1.9-4.4-0.7
				c0.7,1.7,2.2,2.7,3.4,3.8c9.5,9.1,15.2,20.7,21,32.2c4.7,9.5,6.6,20,9.6,30.1c3.5,11.9,8,23.6,10,36c2.4,15.1,2.3,30.1-4.1,44.5
				c-2.5,5.4-5.6,10.5-9.4,15.2c-0.5,0.7-1.8,1.3-1.3,2.3c0.6,1.1,1.9,0.5,2.9,0.4c7.4-1.2,14.9-2.2,22.3-4.1c0.7-0.3,1.4-0.3,2,0.2
				c-2.5,2.2-5.6,2.9-8.4,3.7c-17.5,5.5-35.4,9.2-53.8,8.6c-17.1-0.6-33.5-4.3-49.2-11c-29.9-12.5-53.2-32.7-69.5-60.6
				c-19.3-33.1-24.7-68.6-16-105.9c8.8-38.3,30.3-68,63.2-89.5c15.4-10,32.2-16.7,50.3-20c18.1-3.5,36-2.9,54.1,0
				c27.7,4.5,51.2,17.2,71.8,35.7C277.8,69.8,281,72.2,282.8,75.9L282.8,75.9z"/>
		</g>
		<g>
			<path class="st3" d="M159.2,228.4c0.6,2.3,2.1,3.8,3.9,5.3c5.8,4.9,10.6,10.6,14.6,17c7.4,11.6,13.2,24,17.3,37.1
				c2,6.5,2,6.9-4.8,6c-10.8-1.4-20-6.7-28.5-13.1c-7.4-5.6-13.6-12.3-18.8-20c-5.3-7.5-8.8-15.8-10.5-24.9
				c-1.2-6.8-2.5-13.6-2.2-20.5c0.7-13.4,4.6-25.7,11.7-37c0.8,0.1,1.3,0.5,1.5,1.2c4.3,9.5,11.3,16.8,18.9,23.8
				c9.2,8.6,18.9,16.8,27.2,26.3c15.1,17.4,20.3,37.5,16.4,60.1c-0.2,1.4,0,3-1.3,4.7c-1.9-3.1-2.7-6.4-3.9-9.4
				c-6.1-15.2-13.2-29.8-24.5-41.9c-4.5-4.9-8.4-10.4-14.4-13.8C161,228.8,160.3,228,159.2,228.4c0-0.3,0-0.5-0.4-0.3L159.2,228.4z"
				/>
		</g>
		<g>
			<path class="st3" d="M254.5,210.4c-13.9,11.1-20.1,27-26.2,42.9c-3.1-12.1-2.9-23.9,2.7-35.2c4.9-9.9,12.7-17.4,20.6-24.7
				c6.9-6.4,14-12.6,18.4-21.3c1.1-2.2,1.7-1,2.5,0.2c9.5,13.3,11.3,27.8,5.8,43c-7.1,19.4-21.6,31.1-40.9,37.5
				c-2.6,0.9-3.1,0-2.7-2.4c0.5-2.7,1.2-5.3,2.1-7.9c3.8-10.8,9.6-20.4,16.7-29.4c0.6-0.7,1.1-1.5,1.6-2.3L254.5,210.4z"/>
		</g>
	</g>
	<g>
		<g>
			<path class="st1" d="M190.2,73.3c0.1,0,0.4,0,1-0.1c0.6-0.1,0.8-0.1,0.8-0.1l5.3-6.9c0,0,3.1-0.4,3.9-0.5c0.8-0.1,3.5-1.3,4-1.6
				c0.5-0.3,0.9-0.7,1.2-0.6c0.3,0,0.6,0.3,0.8,0.1c0.2-0.2,0.6-0.2,0.9-0.4c0.3-0.2,0.7-0.4,0.7-0.4s0.3-0.3,0.4-0.4
				c0.1-0.1,0.4-0.2,0.4-0.5c0-0.3-0.1-1.5-0.2-1.6c-0.1-0.1-0.5-0.9-0.7-1.2c-0.2-0.4,0.1-0.4-0.4-0.7c-0.5-0.3-0.4-0.3-0.7-0.5
				c-0.3-0.2-0.4-0.4-0.7-0.4c-0.3,0-0.5,0-0.7-0.1c-0.3-0.1-1.1-0.4-1.2-0.4c-0.1,0-0.4-0.3-0.5-0.4c-0.1,0-0.8,0.1-1.1-0.3
				c-0.3-0.3-0.6-0.3-0.8-0.3c-0.2,0-0.8-0.4-0.9-0.3c-0.1,0.1-0.5,0.3-0.5,0.4c0,0.1,0.1,0.2,0.4,0.1c0.3-0.1,1,0.2,1,0.3
				c0,0.2,0.4,0.6,0,0.6c-0.4,0-0.4,0-0.7-0.1c-0.2-0.1-0.7-0.3-0.9-0.2c-0.3,0.1-0.2,0.2-0.2,0.4c0,0.3-0.1,0.6-0.4,0.7
				c-0.2,0.1-0.6,0.4-0.6,0s0-0.7,0.1-0.8c0-0.1,0-0.3-0.2-0.1c-0.3,0.2-1.8,1.2-1.5,1.3c0.3,0.1,0.9,0.5,0.8,0.8
				c-0.1,0.3-0.4,0.3-0.6,0.4c-0.2,0.1-0.4,0.6-0.7,0.5c-0.3-0.1-0.2-0.7-0.1-0.9c0.1-0.2,0.1-0.6-0.1-0.6c-0.2,0,0.1,0.3-0.7,0.2
				c-0.7-0.1-1.4-0.2-1.8-0.1c-0.5,0-1,0.2-0.9,0.4c0.1,0.2,0.5,0,0.6,0.3c0.1,0.3-0.1,0.9-0.1,1.2c-0.1,0.3-0.1,0.5-0.3,0.8
				c-0.3,0.3-0.8,0.7-1,1c-0.2,0.3-0.5,1-0.7,1.1c-0.3,0.1-1.2,0.6-1.3,0.8c-0.2,0.1-0.8,0.3-1,0.3c-0.2,0.1-0.8,0.3-0.8,0.4
				c0,0.1-1.9,0.4-2.4,0.4c-0.5,0-2.3,0.7-2.7,1c-0.3,0.3-0.9,0.8-1.2,1c-0.3,0.3-0.9,0.5-1.3,0.7c-0.3,0.2-1.2,0.7-1.3,0.8
				c-0.1,0.1-0.3,0.3-0.3,0.4c0,0.2,0.1,0.8-0.1,0.8c-0.2,0-0.1-0.4-0.4-0.5c-0.3,0-0.4,0.7-0.5,0.9c-0.2,0.2-0.5,0-0.5-0.2
				c0-0.2-0.9,0.4-1.1,0.6c-0.2,0.2-0.3,0.4-0.4,0.7c-0.2,0.3-0.3,0.3-0.7,0.5c-0.4,0.2-0.7,0.2-1.1,0.1c-0.4-0.1-0.8,0.1-1.1,0.1
				c-0.2,0-0.5-0.1-0.9-0.1c-0.3,0-0.7-0.3-0.9-0.3c-0.2,0-0.6,0.2-0.9,0.2c-0.2,0-1.4-0.3-2.3-0.5c-0.8-0.1-1.1,0-1.4-0.3
				c-0.3-0.3-1.3-1.2-1.4-1.2c-0.1,0-0.2,0.3-0.3,0.4c-0.1,0.1-0.2-0.4-0.3-0.4s-0.1,0.6-0.4,0.6c-0.2,0-0.1-0.4-0.3-0.4
				s-0.2,0.2-0.3,0.2c-0.2,0-0.2-0.3-0.3-0.3c-0.1,0,0,0.6-0.1,0.7c-0.1,0-0.4-0.1-0.4-0.1s-0.1,0.1-0.3,0.1c-0.2,0-0.3-0.3-0.4-0.1
				c-0.1,0.2,0.1,0.2,0.1,0.5c0,0.3-0.4,0.6-0.5,1c-0.1,0.4,0,1.3-0.2,1.8c-0.2,0.4-0.6,1.4-0.7,1.7c-0.1,0.3-0.3,0.5-0.3,0.6
				c0,0.1-0.2,0.1,0,0.4c0.1,0.2,0,0.6-0.3,0.6c-0.2,0-0.4,0.4-0.4,0.5c0,0.1,0.2,0.2-0.3,0.4c-0.5,0.1-0.4,0.3-0.8,0.1
				c-0.3-0.2-0.5-0.3-0.6-0.8c-0.2-0.4-0.3-0.5-0.4-0.8c-0.1-0.3-0.2-0.4-0.2-0.6c0-0.2,0.2-0.2-0.3-0.5c-0.4-0.3-0.8-0.5-1.1-0.7
				s-0.6-0.4-0.8-0.5c-0.2-0.1-0.6-0.4-0.4-0.2c0.2,0.2,0.2,0.2,0.3,0.5c0.1,0.3,0.4,0.7,0.1,0.5c-0.2-0.2-0.2-0.2-0.4-0.4
				c-0.2-0.2-0.2-0.3-0.6-0.6c-0.4-0.3-0.6-0.5-0.8-0.5c-0.2,0-0.5-0.1-0.7-0.1c-0.2,0-0.5,0-0.8,0.2c-0.4,0.1-0.7,0.5-0.8,0.8
				c-0.1,0.2-0.1,0.4-0.3,0.5c-0.2,0.1-0.4,0.1-0.5,0.3c-0.1,0.2,0.1,0.4-0.2,0.4c-0.4,0.1-0.7,0.1-0.8,0.3s-0.1,0.6-0.3,0.6
				c-0.3,0-0.6-0.2-0.7-0.1c-0.2,0.2-0.1,0.3-0.8,0.6c-0.6,0.3-1,0.4-1.1,0.5c-0.1,0.1-0.1,0.3-0.4,0.3c-0.2,0-0.3-0.3-0.4,0
				c0,0.3-0.1,0.5-0.1,0.8c0,0.2,0.1,0.4-0.2,0.4c-0.3,0-0.3,0.2-0.7,0.3s-0.9,0.2-1,0.4c0,0.2-0.2,0.2-0.2,0.4s-0.2,0.6-0.5,0.6
				c-0.3,0-0.5-0.5-0.5-0.1c-0.1,0.4,0,0.9,0,1.1s0.1,0.4,0.3,0.4c0.2,0,0.4,0.5,0.3,0.6c-0.1,0.1-0.3,0.2-0.2,0.3
				c0.1,0.2,0.4,0.2,0.2,0.3s-0.4,0.2-0.5,0.4c0,0.2,0,0.5-0.1,0.6c0,0.2-0.1,0.3-0.4,0.4c-0.3,0.1-0.4,0.1-0.6,0.2
				c-0.1,0.1,0,0.2-0.3,0.2c-0.3,0-0.5-0.3-0.6-0.1c-0.1,0.2,0,0.5-0.1,0.7c-0.1,0.3-0.2,0.4-0.4,0.6c-0.2,0.2-0.8,0.4-0.9,0.6
				c-0.1,0.2,0,0.3,0.2,0.3c0.2,0,0.5-0.2,0.8-0.5c0.3-0.3,0.3-0.4,0.7-0.7c0.4-0.2,0.8-0.4,0.9-0.5c0.1,0,0.2-0.1,0.1,0.2
				c-0.1,0.3,0,0.4-0.2,0.6c-0.2,0.2-0.3,0.3-0.5,0.4c-0.2,0.1-0.2,0.1-0.3,0.3c0,0.2,0,0.2,0,0.4c-0.1,0.2-0.2,0-0.1,0.2
				c0.2,0.2,0.3-0.2,0.4,0.1c0.1,0.2-0.3,0.3-0.4,0.4c0,0.1,0.5,0,0.4,0.2c0,0.2-0.3,0.2-0.5,0.4c-0.2,0.2-0.4,1-0.4,1.2
				c0,0.2-0.3,0.2-0.2,0.4c0.1,0.2,0.1,0.4,0,0.5c-0.1,0.2-0.2,0.3-0.2,0.5c-0.1,0.2-0.2,0.4-0.2,0.5c0,0.1-0.3,0-0.4,0.1
				c-0.1,0.1-0.3,0.2-0.3,0.4c0,0.2-0.1,0.4-0.1,0.5c0,0.1,0.1,0.2,0.1,0c0.1-0.2,0-0.3,0.2-0.4c0.2-0.1,0-0.1,0.2-0.1
				c0.3,0,0,0.1,0.4,0.2s0.6,0,0.6,0.2c0,0.2,0,0.3,0,0.6c0,0.3,0.2,0.4,0.2,0.6c0.1,0.2,0.3,0.9-0.1,1.4c-0.4,0.5-0.7,0.8-0.9,1
				c-0.2,0.2-0.5,0.4-0.9,0.5c-0.3,0.1-0.6,0-0.9,0.1s-0.5,0.4-0.7,0.1c-0.2-0.2-0.4-0.4-0.3-0.4c0.1,0,0.3-0.2,0-0.2
				c-0.2,0-0.5-0.3-0.9,0c-0.3,0.2-0.8,0.3-1.2,0.6c-0.4,0.3-0.4,0.5-0.7,0.4c-0.3,0-0.6-0.1-0.8,0c-0.2,0.1-0.5,0.3-0.5,0.4
				c-0.1,0.1,0.1,0.2-0.1,0.7c-0.2,0.5-0.2,1-0.7,0.9c-0.4-0.1-0.5-0.8-0.6-0.3s-0.1,1.1-0.2,1.6c-0.1,0.4-0.5,0.7-0.6,0.8
				c-0.2,0.1-0.6,0.2-0.6,0.6c-0.1,0.4-0.1,0.7-0.3,0.8c-0.2,0.1-0.4,0.1-0.5,0.3c-0.1,0.2-0.1,0.4-0.3,0.4
				c-0.2,0.1-0.3,0.1-0.6,0.3c-0.3,0.2-0.5,0.3-0.5,0.3s-0.3-0.1-0.3,0c0,0.1-0.1,0.5-0.3,0.6c-0.1,0.1-0.8,1.2-1.2,1.1
				c-0.4-0.1-0.5,0-0.7,0.2c-0.3,0.2-0.8,0.1-0.9,0.4c-0.1,0.3-0.1,0.5-0.4,0.6c-0.2,0.1-0.5,0.3-0.8,0.4c-0.3,0.2-0.4,0.3-0.8,0.3
				c-0.4,0.1-0.7,0.2-1,0.2c-0.3,0-0.5-0.3-0.6-0.1c-0.2,0.2-0.2,0.6-0.3,0.7c-0.1,0.1-0.5,0.4-0.5,0.6c0,0.2,0.9,0.1,1.2,0.3
				c0.3,0.2,0.7,0.4,0.9,0.8c0.2,0.5,0.4,0.5,0.5,0.9c0.2,0.4,0,0.1,0.1,0.2c0.1,0.1,0,0.9-0.1,1.3c-0.1,0.4-0.1,0.5,0.1,0.9
				c0.2,0.4,0.3,0.7,0.2,1.1c-0.1,0.3-0.4,0.5-0.4,0.7c0,0.2,0.2,0.5,0.2,0.7c0.1,0.2,0.1,0.7,0,0.9c-0.1,0.2-0.1,0.6-0.5,0.6
				c-0.4,0-0.9,0.1-1.4,0c-0.4-0.1-0.6-0.3-0.6-0.7c0-0.3-0.1-0.7,0.1-0.7s0.3,0.2,0.5,0.2c0.3,0.1,0.5,0.1,0.4-0.2
				s-0.3-0.3-0.2-0.4c0.2-0.1,0.4-0.3,0.4-0.6c0-0.3-0.2-0.7-0.5-0.8c-0.3,0-0.1,0.5-0.5,0.2c-0.4-0.2,0-0.4-0.2-0.7
				c-0.2-0.3-0.3,0-0.3-0.3c0-0.3-0.1-0.9-0.1-0.9s-0.4,0.2-0.7,0.1c-0.2,0-0.3,0.2-0.5-0.1c-0.2-0.3-0.2,0-0.3-0.5
				c-0.1-0.4-0.6-0.8-0.7-1c-0.1-0.2-0.4-0.5-0.6-0.6c-0.1-0.1-0.5-0.3-0.6-0.3c-0.1,0-1.1-0.6-1.1-0.8c-0.1-0.1-0.4-0.7-0.5-0.9
				c-0.1-0.2,0.1-0.3-0.2-0.5c-0.3-0.1-0.4-0.2-0.6-0.3c-0.1,0-0.5-0.4-0.5-0.4s-0.2-0.2-0.2,0.1c0,0.3-0.4,0.5-0.1,0.9
				c0.2,0.4,0.6,1,0.7,1.2c0.2,0.2,0.4,0.5,0.5,0.9c0.1,0.4-0.3,0.2,0,0.6c0.3,0.4,0.1,0.1,0.5,0.5s0.7,0.8,0.8,1.2
				c0.2,0.4,0.3,0.7,0.2,1.2c0,0.5-0.3,0.6,0,1.2c0.3,0.6,0.5,1,0.5,1.1c0,0.1,0.3,0.4-0.1,0.7c-0.3,0.2-1.1,0-1.4,0.2
				c-0.2,0.2-1.1,0.6-1.2,0.8c-0.1,0.2,0,0.6,0.1,0.8c0.1,0.2-0.2,0.5-0.2,0.7c0,0.2,0,0.3-0.1,0.5c-0.1,0.2-0.2,0.4-0.2,0.6
				c-0.1,0.3-0.7,0.2-0.8,0.2c-0.1,0.1-0.3,0.1-0.5,0.5c-0.2,0.4-0.2,0.1-0.6,0.3c-0.4,0.3-0.9,0.5-1,0.6c-0.2,0.2-0.4,0.5-0.7,0.5
				c-0.3,0-0.4,0.1-0.7-0.3s-0.8-0.4-1.1-0.9c-0.3-0.5-0.6-1.2-0.5-0.9c0.1,0.4,0.4,1,0.3,1.3c-0.1,0.3,0,0.8-0.4,0.9
				s-0.6,0.2-0.8,0.5c-0.2,0.4-0.3,0.6-0.4,0.8c-0.1,0.2-0.3,0.4-0.4,0.5c-0.1,0.1-0.2,0.1-0.2,0.4c0,0.3-0.4,0.9-0.4,1
				c0,0.1,0,0.5-0.1,0.6c-0.1,0.1,0.2,0.5,0.2,0.9c0,0.3,0.1,0.6,0.4,0.7c0.3,0.1,0.3-0.4,0.6,0.1c0.3,0.4,0.5,0.6,0.6,0.7
				c0.1,0.1,0.7,0.7,0.7,0.8c0,0.1,0.2,0.6,0.1,0.9c-0.1,0.3-0.1,0.4-0.3,0.6c-0.2,0.2-0.6,0.8-0.6,1c0,0.2,0.1,0.6,0.3,0.6
				c0.2,0,0.5-0.2,0.4-0.3c0-0.1,0-0.5,0.2-0.4c0.2,0.2,0.3,0.4,0.4,0.4c0.1,0,0.5,0.2,0.5,0.2s0.2,0.1,0.3,0.3
				c0.1,0.2,0.3,0.1,0.3,0.4c0,0.3-0.1,0.3,0,0.5c0.1,0.2,0.1,0.3,0.2,0.5c0,0.2,0.1,0.2,0.1,0.4s0.1,0.3,0.4,0.3
				c0.3,0,0.4-0.1,0.4-0.3c0-0.2,0-0.3,0.2-0.4c0.2-0.1,0-0.3,0.4-0.2c0.4,0.1,0.4,0.1,0.4,0.1l0.3,0.3c0,0,0.3,0,0.3,0.1
				c0,0.1-0.3,0.1-0.2,0.4c0.1,0.3,0.2,0.4,0.3,0.6s0.3,0.5,0.5,0.7c0.2,0.2,0.5,0.6,0.3,0.8c-0.2,0.2-0.4,0.4-0.4,0.6
				c0,0.1-0.3,0.4-0.3,0.5c0,0.2,0.1,0.4-0.1,0.5c-0.1,0-0.3,0-0.2,0.2c0.1,0.2,0.8,0.7,0.3,0.6c-0.5-0.1-0.9-0.3-1-0.1
				s0.3,0.5,0.4,0.6c0.1,0,0.3,0.2,0.3,0.3c-0.1,0.1-0.2,0.1-0.2,0.2c0.1,0.2,0.2,0.4,0.1,0.5c-0.1,0.1-0.4,0.3-0.3,0.5
				c0,0.2,0.1,0.5-0.1,0.4c-0.2-0.1-0.4-0.5-0.6-0.8c-0.3-0.3-0.1-0.6-0.3-0.3c-0.2,0.3-0.3,1.1-0.2,1.5c0.1,0.4,0.1,1,0.3,1.2
				c0.2,0.2,0.7,0.7,0.7,0.8c0.1,0.1,0.2,0.3,0.1,0.5c0,0.2,0.3,0.8,0.3,0.7c0-0.1-0.1-0.5,0-0.6s0.6,0,0.5,0.2c0,0.2,0,0.9,0.1,1.1
				c0,0.2,0.1,0.5,0.2,0.7c0.1,0.2,0.2,0.4,0.2,0.4s0.2,0.1,0.1,0.3c0,0.2,0,0.6,0.1,0.6c0.1,0,0.3-0.1,0.3,0c0,0.1,0.3,0.4,0,0.6
				c-0.3,0.2-0.7,0.8-0.8,0.9c-0.1,0-0.3,0.1-0.4,0.4c-0.1,0.2-0.1,0.3-0.4,0.4c-0.3,0.1-0.6-0.2-0.8-0.3c-0.2-0.1-0.5,0-0.7,0.2
				c-0.2,0.1-0.7-0.1-0.8-0.1c-0.1,0-0.2,0.2-0.2,0.6c0,0.3,0,0.6-0.2,0.8c-0.2,0.3-0.3,0.4-0.3,0.4c0,0.1,0.3,0,0.6,0.1
				c0.3,0,0.4,0.1,0.5,0.1c0.2,0,0.3,0.1,0.5,0.3c0.2,0.2,0.4,0.2,0.5,0.3c0.1,0.1,0.1,0.3,0,0.5c-0.1,0.1,0-0.1-0.1,0.4
				c0,0.5-0.1,0.7,0,0.7c0.1,0,0.3,0.1,0.4,0.1c0.2-0.1,0.2-0.1,0.2-0.1s0,0.6,0,0.9c0,0.3-0.2,0.2-0.3,0.1c0-0.1-0.1-0.1-0.2,0
				c-0.1,0.1,0,0.6,0,0.7c0,0.2,0.1,0.5,0.2,0.5s0.2-0.3,0.3-0.2c0.2,0,0.1,0.4,0,0.5c0,0.2,0,0.4,0,0.5c0.1,0.2,0.1,0.5,0.1,0.6
				c0,0.1-0.2,0.3-0.2,0.4c0,0.1-0.2,0.3-0.3,0.3c-0.1,0-0.2-0.1-0.3,0.1c0,0.2,0.2,0.6,0.2,0.7c0,0.1,0,0.3,0.1,0.4
				c0.1,0,0.3,0,0.4,0.1c0.1,0.1,0,0.4-0.2,0.4c-0.2,0-0.5,0.1-0.4,0.2c0.1,0.1,0.2,0.2,0.3,0.3c0.1,0.1,0,0.3,0.1,0.4
				c0,0.1,0.2,0.2,0.2,0.3c0,0.1-0.2,0-0.4,0c-0.1,0,0-0.2-0.2-0.2c-0.1,0-0.3,0.1-0.1,0.3c0.1,0.2,0.2,0.5,0.3,0.5
				c0.1,0.1,0.4,0.1,0.4,0.1l0.2,0.1c0,0,0.2,0.3,0.3,0.3c0.2,0,0.3,0.2,0.3,0.3c0,0.1-0.1,0.3-0.2,0.2c-0.1-0.1-0.3-0.2-0.5-0.2
				c-0.2,0-0.4,0.1-0.3,0.2s0.4,0.2,0.4,0.2c0,0.1-0.1,0.1-0.2,0.2s-0.2,0.1-0.1,0.5c0.1,0.4,0.3,0.7,0.4,0.8c0,0.1,0,0,0.1,0.3
				c0.1,0.3,0.1,0.6,0.1,0.7c-0.1,0.1-0.2,0.1-0.2,0.3c0,0.2,0.2,0.4,0.1,0.5c-0.1,0.1-0.1,0.5-0.1,0.5c0,0.1,0,0.2-0.2,0.3
				s-0.5,0.1-0.5,0.1s-0.1,0.1-0.3,0.3c-0.2,0.2-0.3,0.2-0.4,0.3c-0.1,0.1-0.2,0.2-0.1,0.3s0.6,0.4,0.6,0.4s0.3,0.6,0.5,0.7
				c0.2,0.1,0.6,0,0.8,0.1c0.2,0.1,0.5,0.1,0.4,0.4c-0.1,0.2-0.3,0.5-0.5,0.6c-0.2,0.1-0.4,0.1-0.5,0.1c-0.1,0-0.2,0-0.4,0
				c-0.1,0-0.3,0-0.5,0.2c-0.2,0.2-0.5,0.2-0.6,0.3c-0.1,0-0.2,0.1-0.2,0.4s0,0.6-0.1,0.8c-0.1,0.2-0.2,0.2-0.3,0.4
				c0,0.2-0.4,0.2-0.2,0.5c0.2,0.2,0.5,0.2,0.6,0.3c0.1,0.1,0,0.5,0.2,0.6c0.2,0.1,0.2,0.3,0.5,0.1s0.4-0.4,0.5-0.6
				c0.1-0.2,0-0.4,0.2-0.6c0.2-0.2,0.3-0.4,0.4-0.4c0.2,0,0.1-0.1,0.3-0.2c0.2-0.2,0.4-0.4,0.6-0.3c0.2,0.2,0.4,0.2,0.6,0.2
				c0.3,0.1,0.4,0.3,0.1,0.6c-0.3,0.3-0.6,0.1-0.6,0.1c-0.1,0.1-0.2,0.2-0.2,0.4s0.3,0.2,0.3,0.4c-0.1,0.2-0.3,0.2-0.4,0.2
				s-0.1,0.1-0.2,0c-0.1-0.1-0.1-0.3-0.3-0.1c-0.2,0.2-0.2,0.4-0.4,0.4c-0.2,0-0.5,0-0.5,0.2c0,0.2,0.1,0.5,0.4,0.5
				c0.2,0,0.6-0.3,0.4,0.1c-0.2,0.3-0.3,0.6,0,0.7c0.4,0.1,0.3-0.1,0.7,0c0.4,0,0.3,0.2,0.7,0.1s0.5-0.2,0.7-0.2
				c0.3-0.1,0.6-0.3,0.7-0.4c0-0.1,0.1-0.2-0.1-0.3c-0.2-0.1-0.4,0.5-0.4,0.1c0-0.4,0.4-0.6,0.6-0.6c0.2,0,0.5,0.1,0.6,0.2
				c0.1,0.1-0.2-0.1,0.1,0.1c0.3,0.2,0.5,0.3,0.3,0.5c-0.2,0.2-0.4,0.3-0.6,0.3c-0.2,0.1-0.4,0.1-0.4,0.3c0,0.2,0.1,0.2,0.1,0.5
				c0,0.3,0.4,0.5,0.1,0.6c-0.3,0.1-0.3-0.3-0.5-0.4c-0.1,0-0.3,0.1-0.3,0.3c0,0.2-0.2,0.1-0.3,0.2c-0.2,0.1-0.4,0-0.6,0.2
				c-0.1,0.2-0.5,0.2-0.3,0.4c0.2,0.2,0.5,0.1,0.5,0.2c0.1,0.1,0.1,0.2,0.3,0.3c0.2,0,0.4,0.1,0.2,0.3c-0.3,0.1-0.8-0.1-0.8,0.1
				c-0.1,0.2,0.1,0.3,0.1,0.5c0,0.2-0.2,0.1-0.3,0.3c-0.1,0.2,0.1,0.5,0,0.6c-0.1,0-0.3,0.2-0.4-0.1c-0.1-0.2-0.3-0.4-0.4-0.2
				c-0.1,0.2-0.7,0.5-0.7,0.5s0.1,0.1,0.3,0.2c0.1,0.1,0.4,0.1,0.3,0.2c0,0.2-0.2,0.3-0.1,0.4c0.1,0.1,0.6,0.2,0.4,0.3
				c-0.3,0.1-0.5-0.2-0.6,0.2c0,0.3,0.1,0.8-0.1,0.8c-0.2,0.1-0.4-0.1-0.4-0.2c-0.1-0.1-0.1-0.4-0.2-0.2c-0.2,0.2-0.4,0.1-0.6,0.3
				c-0.2,0.1-0.4,0.3-0.3,0.5c0.1,0.2,0.4,0.4,0.2,0.5c-0.2,0.1-0.4,0.1-0.4-0.1c0-0.1,0-0.3-0.2-0.2c-0.2,0.1-0.2,0.3-0.2,0.3
				s-0.1-0.1-0.3,0c-0.1,0.1-0.4,0.1-0.4,0.2c0,0.2,0.1,0.3,0,0.4c-0.1,0.1-0.7,0.6-0.8,0.7c-0.1,0.1-0.1,0.5,0,0.5
				c0.1,0,0.3-0.2,0.5-0.1c0.1,0.1,0,0.4,0.2,0.4c0.2,0,0.3,0.1,0.3,0.2c0,0.2-0.4,0.2-0.3,0s-0.1-0.3-0.2-0.1
				c-0.1,0.1-0.1,0.3-0.3,0.2c-0.2-0.1-0.3-0.4-0.5-0.2c-0.2,0.2-0.2,0.5-0.5,0.7c-0.2,0.2-0.2,0.4-0.5,0.6
				c-0.3,0.2-0.4,0.2-0.4,0.3c0,0.1,0.4,0.4,0.4,0.6c0,0.2-0.2,0.3-0.5,0.2c-0.3-0.1-0.2-0.4-0.5-0.3c-0.3,0.1-0.3,0.2-0.5,0.6
				c-0.2,0.4-0.6,0.6-0.5,0.7c0.1,0.1,2.1-0.5,2.1-0.2c0.1,0.3-0.3,0.4-0.5,0.4c-0.2,0.1-0.5,0-0.5,0.2c0,0.2,0.2,0.5,0.2,0.6
				c0.1,0.1,0.2,0.4-0.1,0.3c-0.3-0.1-0.2-0.3-0.4-0.4c-0.2-0.1-0.3-0.1-0.3,0.2c0,0.3,0.2,0.5,0.3,0.5s0.4,0.1,0.4,0.1
				s0.4,0.1,0.1,0.2c-0.3,0.1-0.7,0.1-0.8,0.1c-0.1,0-0.6-0.2-0.6-0.1c0,0.2,0.8,0.4,0.5,0.5c-0.2,0.1-0.6-0.2-0.8-0.1
				c-0.2,0.1-0.5,0.2-0.4,0.3c0.2,0.1,0.6,0,0.7,0.1c0.1,0.1,0.3,0.1,0.2,0.3c-0.1,0.2-0.3,0.1-0.5,0.2c-0.2,0.1-0.3,0.2-0.3,0.2
				c-0.1,0-0.1-0.4-0.3-0.4c-0.2,0-0.3,0.3-0.3,0.4s0,0.5-0.1,0.7c-0.1,0.2-0.1,0.4-0.3,0.3c-0.2-0.1-0.3-0.4-0.5-0.5
				c-0.2,0-0.5-0.2-0.6,0c-0.1,0.2-0.1,0.8-0.1,1c0,0.3,0,0.4-0.2,0.4c-0.2-0.1-0.2,0-0.4-0.3c-0.2-0.3-0.2-0.6-0.5-0.7
				c-0.2-0.1-0.5,0-0.4,0.2c0.1,0.2,0.1,0.4,0.1,0.8s-0.1,0.6-0.3,0.8c-0.2,0.2-0.3,0.4-0.5,0.5c-0.2,0.1-0.3,0-0.6,0.1
				c-0.2,0-0.2-0.1-0.3,0.1c0,0.3-0.1,0.4-0.2,0.3c-0.1-0.1-0.1-0.3-0.4-0.4c-0.4,0-0.6,0-0.6-0.2c-0.1-0.2,0-0.6-0.3-0.5
				c-0.3,0-0.5,0.1-0.7,0.3c-0.2,0.2-0.3,0.5-0.5,0.4c-0.2-0.2-0.1-0.3-0.3-0.3c-0.2,0-0.4,0-0.3,0.3c0.1,0.3,0.2,0.9-0.1,0.9
				c-0.2,0-0.6,0-0.5-0.3c0.1-0.3,0.3-0.5,0.2-0.7c-0.1-0.2-0.2-0.2-0.4-0.2c-0.2,0-0.3-0.3-0.3-0.4c0-0.1-0.2,0.1-0.4,0.2
				c-0.1,0.1-0.1,0.1-0.3,0.3c-0.2,0.2-0.4,0.2-0.5,0.4c-0.1,0.2-0.3,0.3-0.4,0.4c-0.2,0.1-0.3,0.1-0.4,0.2c-0.1,0-0.2-0.1-0.2,0.1
				c0,0.2-0.1,0.5-0.2,0.5c-0.1-0.1-0.2-0.1-0.2-0.2c0-0.1-0.1-0.2-0.2,0c-0.1,0.2,0,0.4,0.1,0.6c0.1,0.2,0.2,0,0.2,0.3
				c0,0.3,0,0.5-0.2,0.4c-0.2-0.1-0.3-0.2-0.5-0.1c-0.2,0.2-0.3,0.4-0.3,0.6c0,0.2,0.4,0.3,0.3,0.5c-0.1,0.2-0.2,0.5-0.4,0.7
				c-0.2,0.2-0.5,0.5-0.3,0.6c0.2,0.1,0.3,0.3,0.3,0.3l-0.2,0.3l0.3,0.4c0,0-0.1,0.3,0,0.5c0.1,0.2,0.2,0.2,0.3,0.2
				c0.1-0.1,0.6-0.1,0.3,0.1c-0.3,0.2-0.2-0.2-0.3,0.2c-0.1,0.4-0.1,0.5,0.1,0.5c0.2,0,0.6-0.3,0.7-0.1c0.1,0.2,0.1,0.6,0.1,0.9
				c0,0.2,0.4,0.2,0.5,0.3c0,0.1,0.2,0.4,0.1,0.5c-0.1,0.1-0.3,0.1-0.2,0.3c0.1,0.2,0.3,0.2,0.4,0.4c0.1,0.2-0.1,0.4-0.3,0.3
				c-0.2,0-0.3,0-0.3,0.2c-0.1,0.1,0,0.3-0.4,0.5c-0.3,0.2-0.5,0.2-0.4-0.2c0.1-0.3,0.3-0.5,0-0.4c-0.3,0.1-0.3,0.1-0.7,0.2
				c-0.3,0.2-0.3,0.2-0.4,0.1c-0.1-0.1,0-0.4-0.4-0.2c-0.3,0.2-0.3,0.2-0.5,0.2c-0.1,0-0.1,0-0.4-0.1c-0.3,0-0.4,0.1-0.5-0.1
				c-0.1-0.1-0.2-0.4-0.3-0.4c-0.1,0-0.2-0.1-0.3-0.1c-0.1,0-0.3,0.2-0.8,0.6c-0.4,0.4-0.6,0.8-0.8,1.1c-0.2,0.2-0.3,0.3-0.5,0.6
				s-0.3,0.3-0.4,0.4c-0.1,0.2,0,0.3,0,0.4c0,0.1,0.1,0.3,0.1,0.4c0,0.1-0.2,0.1-0.3,0.2c-0.1,0.1-0.3,0.2,0,0.4
				c0.3,0.1,0.5-0.1,0.7,0.1c0.2,0.2,0.1,0.4,0.4,0.4c0.3,0,0.8-0.5,0.8-0.3c0.1,0.1,0.1,0.4-0.1,0.5c-0.2,0.1-0.2,0.3-0.1,0.4
				c0.1,0.1,0.5-0.2,0.6,0c0.1,0.1-0.2,0.4-0.1,0.5s0.3,0.2,0.5,0.4c0.2,0.1,0.2,0.4,0.5,0.6c0.3,0.2,0.9,0.5,1.1,1
				c0.2,0.4,0.3,0.6,0.6,0.9c0.3,0.3,0.3,0.3,0.7,0.4s0.5,0,0.9,0.2c0.4,0.2,0.3,0.2,0.8,0.4c0.5,0.2,0.6,0.1,0.9,0.4
				c0.3,0.3,0.5,0.5,0.8,0.7s0.7,0.5,1.1,0.7c0.4,0.2,0.6,0.2,0.9,0.4s0.2,0.4,0.4,0.5c0.2,0.1,0.9,0.2,1,0.5
				c0.1,0.3,0.2,0.6,0.6,0.6c0.4,0,0.5-0.2,1,0.1c0.5,0.3,1,0.8,1.7,0.9c0.7,0,1.1,0.1,1.4,0c0.3-0.1,0.5-0.1,0.7-0.1
				c0.3,0,0.4-0.2,0.8-0.3c0.4-0.1,0.8-0.2,1.1,0.1c0.3,0.2,0.1,0.2,0,0.7c-0.1,0.5,0.4,1.5,0.8,1.7c0.4,0.2,0.8,0.4,1.1,0.5
				s0.6,0.1,0.6,0.6c0,0.5,0,1.2,0,1.7c0.1,0.6-0.3,0.9,0.5,1.1s1.3,0.1,1.7,0.2c0.4,0.1,0.2,0.3,0.7,0.4c0.5,0.2,0.8,0.3,1.2,0.2
				c0.4-0.2,0.5-0.4,1.1-0.1c0.6,0.3,0.6,0.8,1,0.9s0.7-0.1,1.1,0.3c0.4,0.4,1,0.5,1.2,0.4c0.2-0.1,0.1-0.3,0.7,0
				c0.6,0.3,0.7,0.4,0.9,0.1c0.2-0.3,0.1-0.5,0.4-0.5c0.3,0,0.4,0.2,1,0.3c0.6,0.1,1,0.6,1.5,0.6c0.4,0,0.5-0.5,0.8-0.5
				c0.3,0,0.2,0,0.7,0s0.6-0.1,0.7-0.4c0.1-0.3,0.1-1.3,0.5-1.3c0.4-0.1,0.6-0.1,0.9-0.4c0.3-0.3,0.3-0.6,0.6-0.6
				c0.3,0.1,0.7,0.4,0.9,0.4c0.2,0,0.3-0.2,0.7,0s0.7,0.3,0.9,0.3c0.2,0,0.1,0.1,0.3,0.4c0.2,0.3,0.4,0.2,0.6,0.2
				c0.2,0,0.3,0.1,0.3,0.3c0,0.2,0.7,0.4,0.8,0.6c0.1,0.2,0.5,0.4,0.6,0.5c0,0-0.1,0.2,0.3,0.6c0.4,0.4,1.4,1.3,1.5,1.4
				c0.1,0.1,0.1,0.1,0.6,0.3c0.5,0.2,0.8,0.3,1.1,0.2c0.3-0.1,0.6-0.4,0.8-0.2c0.2,0.2,0.4,0.3,0.5,0.4c0.2,0,0.2-0.3,0.4,0.1
				c0.2,0.4,0.1,0.5,0.6,0.8c0.5,0.2,1.2,0.5,1.5,0.5c0.3,0.1,0.1,0.1,0.4,0.2c0.3,0.1,0.3,0.1,0.6,0.1c0.4,0,0.2,0.2,0.7,0.3
				c0.5,0.1,0.6,0.1,0.9-0.1c0.3-0.2,0.4-0.3,0.7-0.5c0.3-0.1,0.2-0.2,0.6-0.1c0.4,0.1,0.4,0.2,0.6,0.3c0.1,0.1,0.5,0.3,0.8,0.3
				c0.3,0,0.1,0.2,0.4,0.3c0.3,0.1,0.6,0.1,0.7,0.4c0.1,0.3,0.5,0.4,0.6,0.5c0.1,0.1-0.1,0.1,0.2,0.3c0.3,0.2,0.7,0.1,1.1,0.3
				c0.4,0.1,0.4,0.3,0.6,0.1s0.1-0.5,0.4-0.5c0.3,0,0.6,0.3,0.6,0.3c0,0,0.3,0.4,0.3,0.5c0,0.2,0.1,0.1,0.2,0.3
				c0,0.2,0.3,0.5,0.1,0.5c-0.2,0-0.6,0-0.5,0.2c0.1,0.2,0.1,0.5,0.5,0.3c0.4-0.2,0.6-0.5,0.7-0.2c0.1,0.3,0.1,0.5,0.4,0.4
				c0.2-0.1,0.5-0.6,0.5-0.2c0.1,0.4,0.4,0.6,0.6,0.7c0.2,0,0.1,0,0.3,0.3c0.2,0.3,0.6,0.3,0.7,0.5c0,0.2-0.1,0.2,0.1,0.3
				c0.3,0.1,0.8,0.2,0.9,0.3c0,0.1,0.4,0.1,0.4,0.2c0,0.1-0.2,0.2-0.2,0.4c0,0.2,0.2,0.2,0.3,0.4s0.3,0.5,0.4,0.8
				c0.1,0.3,0.4,0.4,0.3,0.5c-0.1,0.1-0.1,0.3,0,0.4c0.2,0.2,0.4,0.2,0.5,0.3c0,0.2-0.2,0.3-0.3,0.4c-0.1,0.2,0.2,0.3,0.3,0.5
				c0,0.2,0.2,0,0.4,0.4c0.2,0.4,0.4,0.6,0.2,0.7c-0.2,0.1-0.3,0-0.5,0.2c-0.2,0.2,0,0.4,0.1,0.6c0.1,0.3,0.2,0.3,0.2,0.5
				c0,0.2-0.1,0.6,0,0.7c0.1,0.1,0-0.1,0.7,0.3c0.6,0.4,0.6,0.4,0.8,0.4s0.4-0.1,0.5,0.1c0.1,0.2,0.3,0.2,0.4,0.2
				c0.1,0,0.1-0.1,0.3-0.1c0.2,0,0.2,0.1,0.3-0.1s0.6-0.9,0.6-0.5c0.1,0.4,0.1,1.3,0.4,1.3c0.2,0,0.7-0.7,0.8-0.3
				c0,0.4,0,0.6,0.3,0.6c0.2,0,0.8-0.5,0.7,0c-0.1,0.5-0.3,0.6-0.1,0.9c0.2,0.3,0.5,0.6,0.8,0.7c0.3,0.1,0.7,0.1,0.8,0.2
				c0,0.1,0.1,0.2,0.3,0.2s0.1-0.2,0.3-0.5s0.2-0.1,0.3,0.2c0.1,0.2,0.1,0.3,0.5,0.2c0.4-0.1,0.4-0.3,0.5-0.1
				c0.1,0.2,0.4,0.1,0.5,0.2c0,0.1,0,0.3,0,0.5c0,0.2,0,0.3,0.2,0.5c0.1,0.2,0.1,0.4,0.1,0.4s0.3,0,0.3,0.2c0,0.2-0.1,0.2,0,0.4
				c0.1,0.1,0.1,0.2,0.2,0.4c0,0.2,0,0.3,0.3,0.4c0.2,0,0.5,0.3,0.6,0.4c0.1,0.1,0.2,0.1,0.3,0.3s0.4,0.2,0.4,0.3
				c0,0.1-0.1,0.2,0,0.4c0.1,0.2,0.2,0.4,0.2,0.5c-0.1,0.1,0,0.2-0.2,0.4c-0.1,0.1-0.4,0.5-0.5,0.7c-0.1,0.2-0.4,0.3-0.2,0.7
				c0.2,0.4,0.1,0.4,0.4,0.6c0.4,0.2,0.4,0.1,0.6,0.3c0.2,0.2,0.2,0.2,0.4,0.3c0.3,0.1,0.2,0,0.4,0.2c0.2,0.2,0.3,0.3,0.5,0.3
				c0.2,0.1,0.3,0.2,0.5,0.1c0.2-0.1,0-0.4,0.3-0.3c0.3,0,0.2,0.1,0.5,0c0.3-0.1,0.6,0,0.6,0c0,0.1,0.4,0.3,0.4,0.4
				c0.1,0.2,0.1,0.4,0,0.6c0,0.2,0.5,0.5,0.5,0.7c0.1,0.1,0,0.1,0,0.5c0,0.4,0.2,0.4,0,0.7c-0.2,0.3,0,0.7,0,0.8
				c0,0.1,0.2,0,0.2,0.3c0,0.3-0.1,0.4-0.3,0.5c-0.2,0.2-0.3,0.4-0.5,0.6c-0.2,0.2-0.3-0.1-0.3,0.5c0,0.6,0,0.8,0.1,1
				c0.1,0.2,0.2,0.3,0.5,0.7c0.3,0.4,0.3,0.3,0.5,0.4c0.2,0.2,0.3,0.4,0.5,0.2c0.2-0.2,0.4-0.7,0.5-0.5c0.1,0.2,0.1,0.4,0.3,0.4
				c0.2,0.1,0.2-0.5,0.5,0.1c0.3,0.6,0.1,0.5,0.4,0.7c0.3,0.2,0.4,0.3,0.6,0.2c0.2-0.1,0.4-0.4,0.6-0.3c0.2,0,0.2,0.1,0.4,0
				c0.2-0.1,0.4-0.3,0.5-0.2c0.1,0,0,0.1,0.3,0.2c0.3,0.1,0.4,0,0.6-0.1c0.3-0.1,0.3-0.5,0.4-0.1c0.1,0.4,0.1,0.5,0.4,0.4
				c0.3,0,0.5,0,0.7-0.3c0.2-0.3,0.2-0.6,0.3-0.6c0.2,0,0.4-0.1,0.6,0.1c0.2,0.1,0.5,0.5,0.8,0.5c0.3,0.1,1.1,0.2,1.2,0.3
				c0.1,0.1,0.3-0.2,0.5-0.1c0.1,0.1,0,0.3,0.3,0.6c0.3,0.3,0.2,0.6,0.7,0.6c0.5,0,0.5-0.2,0.7-0.2c0.2,0,0.4-0.1,0.6-0.1
				c0.1,0.1,0-0.1,0.2-0.3c0.2-0.2,0.3-0.4,0.5-0.3c0.2,0.1,0.4,0,0.5,0c0.1,0,0,0.2,0.2,0.2c0.2,0,0.1,0.2,0.4-0.3
				c0.3-0.5,0.8-1.2,1.1-1.3c0.3-0.2,0.3-0.4,0.7-0.1c0.5,0.3,0.6,0.6,0.9,0.4c0.3-0.2,0.4-0.4,0.6-0.6c0.2-0.1,0.4,0,0.5-0.3
				c0.2-0.2,0.2-0.5,0.4-0.7c0.2-0.1,0.3-0.2,0.6-0.5c0.2-0.3,0.3-0.4,0.4-0.4c0.2,0,0.1-0.4,0.4-0.2c0.3,0.2,0,0.4,0.3,0.7
				c0.3,0.2,0.4,0.2,0.6,0c0.2-0.1,0.2-0.4,0.4-0.2c0.2,0.2,0.6,0.2,0.9,0.4c0.3,0.1,0.8,0.3,0.8,0.3c0.1,0,0.4,0.1,0.3,0.4
				c-0.1,0.3,0,0.6,0.2,0.6s0.5-0.4,0.6-0.5c0.1-0.1,0.4-0.1,0.5,0.3c0.1,0.4,0.3,0.5,0.3,0.8c-0.1,0.3-0.4,0.5-0.1,0.7
				s0.8,0,1.1-0.2c0.4-0.1,0.2-0.2,0.4-0.3c0.2-0.1,0.4-0.1,0.3,0c0,0.2-0.1,0.6,0.2,0.3c0.4-0.3,0.4-0.6,0.5-0.4
				c0.2,0.2,0.4,0.3,0.8,0.3c0.4,0,0.4-0.2,0.6-0.3c0.2-0.1,0.3-0.4,0.5-0.4c0.1,0,0.2,0.1,0.2-0.1c0-0.3-0.1-0.6,0.2-0.6
				c0.4,0,0.1-0.2,0.7,0c0.5,0.2,0.8,0.6,0.8,0.2s-0.4-0.9-0.2-1.1c0.2-0.1,0.6-0.3,0.9-0.2c0.3,0.1,0.4,0.1,0.7,0
				c0.3-0.1,0.4-0.2,0.5,0c0.1,0.2,0,0.3,0.4,0.4s0.5,0,0.7,0.2s0.2,0.3,0.5,0.4c0.3,0.2,0.3,0.1,0.6,0.3c0.3,0.2,0.6,0.1,0.6,0.3
				s-0.1,0.1-0.1,0.4c0,0.2,0.1,0.4,0.2,0.5c0.1,0.1,0.2,0.6,0.2,0.6s-0.2,0.8,0.2,0.8c0.4,0,0.8-0.6,1-0.7c0.2-0.2,0.3-0.1,0.6,0.2
				c0.3,0.2,0.8,0.2,1,0.4c0.1,0.2,0.1,0.2,0.2,0.4c0,0.2,0.2,0.3,0.5,0.2c0.3-0.1,0.3-0.3,0.6-0.2c0.3,0.1,0.8,0.1,0.8,0.3
				c0,0.2-0.3,0.2-0.5,0.4c-0.2,0.2-0.8,0.4-0.2,0.5c0.6,0,1.3-0.3,1.5,0c0.1,0.3-0.1,1.3,0.4,1.4c0.4,0.1,0.5-0.8,0.8-0.5
				c0.3,0.3,0,1,0.3,1s0.6-0.9,0.8-0.8c0.2,0.2-0.1,1,0.4,1.3c0,0,0.4,0.2,0.4,0.3c0,0.1-10.1,15.8-10.1,15.8s-0.2,0.5,0,0.5
				c0.2,0,0.8-0.3,1.1-0.2c0.3,0.1,0.4,0.2,0.6,0.2c0.2,0,0.8-0.1,1.1-0.1c0.3,0,0.6-0.2,1.1-0.3s1.8-0.7,2.1-0.1
				c0.4,0.6,0.9,1,1.1,1.4c0.2,0.4,0.1,0.6,0.4,1.3c0.4,0.7,0.2,1,0.7,1.2c0.5,0.2,1,0.5,1.5,0.9c0.5,0.4,0.6,0.7,0.9,0.8
				c0.2,0.1,0.3,0.7,0.4,0.1c0.1-0.6,8.6-39.3,8.6-39.3s0.4-0.7,0.5-1c0.1-0.3,0.2-0.4,0.2-0.9c0-0.5-0.2-0.6-0.1-1.1
				c0.1-0.5,0.2-0.8,0.1-1c0-0.2-0.1-0.3-0.3-0.8s-0.4-0.7-0.4-1c0-0.3,0.1-0.6,0.1-0.9c0-0.2-0.2-0.3-0.4-0.6
				c-0.2-0.3-0.2-0.6-0.3-0.7c0-0.1-0.1-0.3-0.5-0.5c-0.3-0.2-0.7-0.5-0.7-0.7c0-0.2,0.2-0.3-0.2-0.5c-0.5-0.3-0.4-0.9-0.4-1
				c0-0.1-0.3,0-0.2-0.3c0.1-0.4,0.2-1,0.3-1.3c0.1-0.3,0.2-0.3,0.1-0.7c-0.1-0.4-0.2-0.3-0.2-0.6c0-0.3,0.2-0.5,0-0.7
				c-0.3-0.2-0.6-0.4-0.9-0.6c-0.3-0.2-0.8-0.3-1.1-0.6c-0.3-0.2-0.3-0.4-0.5-0.5c-0.2-0.1-0.4-0.2-0.6-0.3
				c-0.2-0.2-0.2-0.3-0.6-0.5c-0.5-0.2-0.5-0.1-0.7-0.6c-0.2-0.4-1.7-2.1-1.7-2.1s0.4-10,0.5-10.1c0,0,0.4-0.4,0.7-0.2
				c0.3,0.2,0.3,0,0.7,0c0.3,0,0.4,0,0.7,0c0.4-0.1,0.3-0.1,0.6-0.1c0.3,0,0.4-0.3,0.7-0.2s0.5,0.1,0.7,0.1c0.2,0,0.2-0.3,0.5-0.3
				s0.4-0.2,0.6-0.3c0.1-0.1,0.7-0.7,1-0.4s0.1,0.6,0.6,0.5c0.4-0.1,0.1-0.4,0.7-0.7c0.5-0.3,0.9-0.9,1.4-0.7c0.4,0.2,0.8,0.3,1,0.8
				c0.2,0.5,0.5,0.8,0.8,0.9c0.2,0.1,0.4-0.1,0.6,0c0.2,0.1,0,0.4,0.4,0.4c0.5,0,0.7,0,0.9-0.2c0.2-0.2,0.3-0.8,0.6-0.8
				c0.3,0,0.9,0.1,0.8-0.2c-0.1-0.3-0.7-0.3-0.7-0.6c0-0.3,0.6-0.4,0.4-0.9c-0.2-0.5-0.6-0.5-0.2-0.7c0.3-0.3,0.9-0.1,0.4-0.5
				c-0.5-0.4-0.9-0.5-0.8-0.8c0.1-0.4-0.2-0.3-0.3-0.7c-0.1-0.3,0.2-0.4,0-0.7c-0.2-0.3-0.6-0.6-1-0.6c-0.4-0.1-0.9-0.3-1.1-0.3
				c-0.2,0-0.2,0.4-0.5,0.2c-0.2-0.2-0.3-0.4-0.5-0.4c-0.2,0-0.1,0.4-0.4,0.3c-0.3-0.2-0.3-0.4-0.5-0.4c-0.2,0.1,0,0.3-0.5,0.2
				c-0.4-0.1-1.1-0.2-1.2-0.1c-0.2,0.1-0.1-0.2-0.5-0.1c-0.4,0.1-0.3,0.2-0.5,0.2c-0.3-0.1-0.4-0.5-0.6-0.5c-0.3,0-0.9,0.2-1.1,0.2
				c-0.2,0-0.4-0.3-0.4-0.4c0-0.1,0.2-8.1,0.3-8.2c0-0.1,0.4-0.3,0.7-0.2c0.3,0.1,0.8-0.4,1.1-0.2c0.3,0.2,0.5,0.3,0.6,0.3
				c0.1,0,0.2-0.4,0.5-0.2c0.3,0.2,0.5,0.2,0.7,0c0.2-0.2,0.6-0.6,1.2-0.5c0.6,0.2,1.3,0.2,1.5,0.3c0.3,0.1,0.4,0.1,0.6,0.3
				c0.2,0.2,0.1,0.3,0.7,0.3c0.6,0,17.6,0.5,17.6,0.5s-0.2-0.6-0.5-0.8c-0.3-0.2-0.6-0.4-0.7-0.7c-0.1-0.4-0.5-0.7-0.2-1.1
				s1.2-1.1,1.4-1.1c0.3,0,0.8,0.1,0.9,0.5c0.1,0.4,0.1,0.7,0.3,1.2c0.2,0.5,1,1.3,1.8,1.2c0.8,0,1.1,0,1.4-0.3s2.1-2.5,2.8-3
				c0.6-0.5,1.4-1.3,1.9-1.5c0.6-0.2,1.5-0.7,1.9-0.5c0.4,0.2,0.6,0.1,0.8,0.8c0.2,0.7,3,5.3,3.2,6.3c0.2,1.1,0.2,2.2,0.3,2.9
				c0,0.7,0,1.7-0.1,2.5c-0.1,0.7-0.7,1.2-0.2,1.4c0.6,0.2,1.7,0,2.1-0.1c0.3-0.1,0.8-0.1,0.9-0.5c0.1-0.5,0.3-0.6,0.1-1.1
				c-0.2-0.5-0.3-0.8-0.3-1c0-0.2,0-0.3-0.2-0.4c-0.1-0.1-0.2-0.3-0.2-0.6c0-0.2,0-0.4-0.1-0.6c-0.1-0.2,0-0.5-0.1-0.7
				c0-0.2-0.1-0.8-0.2-1.2c0-0.4-0.3-0.6-0.4-0.7c-0.1-0.1,0-0.3-0.1-0.6c0-0.3-0.2-0.5-0.3-0.7c-0.1-0.2-0.1-0.3-0.2-0.6
				c-0.1-0.3-0.2-0.4-0.3-0.6c-0.1-0.2-0.3-0.4-0.5-0.6c-0.2-0.2-0.4-0.3-0.5-0.6c-0.1-0.4,0.2-2.5,0.1-2.6c0-0.1-0.4-0.3-0.6-0.5
				c-0.2-0.2-0.3-0.3-0.3-0.7c0-0.4-0.1-0.6-0.2-0.9c-0.1-0.3-0.2-0.6-0.1-0.8c0.1-0.2,0.6-0.4,0.4-0.7c-0.2-0.4-0.5-0.8-0.7-0.8
				c-0.2-0.1-0.5-0.1-0.6-0.4c-0.1-0.3-0.4-0.9-0.7-1.3c-0.3-0.4-0.4-0.5-0.5-0.7c-0.2-0.2-0.4-0.3-0.5-0.5
				c-0.2-0.1-0.5-0.4-0.5-0.5c0-0.1-0.2-0.3-0.4-0.4c-0.3,0-0.6,0.6-0.7,0.4c-0.2-0.2-0.2-0.6-0.3-0.9c-0.1-0.3-0.6-0.7-0.6-0.8
				c0-0.1,0.3-0.3,0-0.5c-0.3-0.2-0.7-0.2-0.9-0.2c-0.3,0-0.6-0.5-0.8-0.6c-0.3-0.1-0.4,0-0.7,0.1c-0.3,0.1-0.4,0-0.6,0.1
				c-0.2,0.2,0,0.3-0.4,0.3c-0.4,0-0.6,0.1-0.4-0.3c0.1-0.4,0.6-1.1,1-1.3c0.4-0.2,5.2-4.6,5.2-4.6c0.1,0,1.3-0.6,1.3-0.6
				s0.4-0.7,0.6-1.1c0.2-0.4,0.1-0.6,0-0.8s-0.1-0.3-0.1-0.6c0-0.2-0.1-0.3-0.3-0.5c-0.2-0.2-0.3-0.5-0.2-0.7c0-0.2-0.2-0.3-0.2-0.6
				c0-0.2,0.1-0.4,0-0.7c-0.1-0.2-0.2-0.3-0.2-0.4c0-0.1-0.1-0.4-0.3-0.5s-0.3-0.4-0.4-0.5c-0.1-0.2-0.2-0.4-0.4-0.4s-0.2,0.1-0.6,0
				c-0.4-0.1-1.2-0.2-1.2-0.3c0-0.1-0.3-1.1-0.5-1.6c-0.2-0.6-0.7-1.2-0.7-1.5c-0.1-0.4,0.2-0.4-0.3-0.8s-0.5-0.5-0.7-0.7
				c-0.2-0.2-0.7-0.4-0.8-1.1c-0.1-0.7-0.2-1.3,0-1.7c0.2-0.3,0.3-0.6,0.3-0.9s-0.2-0.9-0.2-1s0.1-0.2-0.2-0.6
				c-0.3-0.4-0.6-0.7-0.5-0.8c0.1-0.2,0.4-0.4,0.5-0.6c0.2-0.2,0.8-3.4,1-3.9s0.6-1.4,0.8-1.6c0.3-0.3,0.9-0.7,0.8-1.5
				c-0.1-0.7-0.3-0.9-0.3-1.3c0-0.3,0.1-0.4,0-0.7c-0.1-0.3-0.5-0.4-0.5-0.7c0-0.3-0.5-0.4,0-0.8c0.5-0.4,2.3-1.1,2.8-2
				c0.5-0.9,0.4-1.9,0.5-2.4c0.2-0.5,0.2-0.8,0.7-1.2c0.5-0.4,1.2-1.8,1.7-2.3c0.5-0.5,1.4-0.9,1.4-1.3c0-0.4-0.2-0.7-0.5-1.1
				c-0.3-0.4-0.4-0.7-0.4-1.1c-0.1-0.3-0.1-0.7-0.6-1c-0.5-0.3-2.2-0.8-3-1c-0.8-0.2-1.9-0.6-2.6-0.3c-0.7,0.3-0.8,0.2-1.4,0.6
				c-0.6,0.3-0.5,0.6-1.1,0.5s-1.2-0.5-1.8-0.5c-0.6,0-0.6,0.1-1.1,0.2c-0.5,0.1-0.6,0.2-1.1,0.3c-0.5,0.1-0.7,0-1.2,0
				s-0.8,0-1.2,0.1c-0.4,0.1-0.3-0.1-0.8,0.1c-0.4,0.2-0.7,0.3-0.8,0.3c-0.1,0-0.2-0.2-0.5-0.2c-0.3,0-0.2,0.4-0.6,0.4
				c-0.4,0-0.7,0-1.1-0.3c-0.3-0.3-0.6-0.6-1.3-0.5c-0.6,0.1-0.7,0.1-1.4,0c-0.7-0.1-1-0.2-1.7-0.3c-0.7-0.1-0.9-0.3-1.2-0.1
				c-0.2,0.1-0.3,0.1-0.7,0.3c-0.4,0.2-0.5,0.3-0.5,0.4c-0.1,0.1-0.2,0-0.6,0.4c-0.4,0.4-0.7,0.6-1,0.6c-0.3,0-0.1-0.1-0.6-0.3
				s-0.4-0.4-0.8-0.4c-0.4,0-0.4,0.1-0.7,0c-0.2-0.1-0.4-0.2-0.5-0.3c-0.1-0.1-9.5-12-9.6-12c0,0-0.3-0.3-0.5-0.2s-0.2,0.2-0.5,0.4
				c-0.3,0.2-0.4,0.2-0.8,0.2c-0.4,0-0.2,0-0.6,0c-0.4,0-0.5-0.1-0.7-0.3c-0.2-0.1-0.2-0.3-0.5-0.3c-0.3,0-0.4,0-0.6-0.2
				c-0.3-0.2-0.4-0.2-0.6-0.1c-0.1,0-0.6-0.1-0.8-0.4c-0.2-0.3-0.3-0.7-0.7-0.5c-0.4,0.2-0.1,0.5-0.6,0.2c-0.5-0.3-0.3-0.7-0.8-0.4
				c-0.6,0.3-0.8,0.3-1,0.4c-0.2,0-0.4,0-0.6,0.1c-0.2,0.2-0.3,0.4-0.5,0.4c-0.2,0-0.3-0.1-0.5,0c-0.2,0.2-0.6,0.3-0.8,0.5
				c-0.2,0.2-0.5,0.4-0.7,0.4c-0.3,0-0.1-0.1-0.6-0.1c-0.5,0.1-0.3,0.1-0.7-0.2c-0.4-0.2-0.5-0.6-1-0.4c-0.4,0.2-0.8,0.2-0.9,0.2
				c-0.1,0-0.4-0.2-0.6-0.1c-0.2,0.1-0.5,0.5-0.7,0.4c-0.3-0.1-0.4-0.3-0.5-0.4c-0.1,0-0.3,0.4-0.7,0.4c-0.4,0-0.4-0.2-0.6-0.2
				c-0.2,0-0.4,0-0.8,0.1c-0.3,0.1-0.5-0.1-0.7-0.1c-0.2,0-0.4,0.2-0.6,0.1c-0.1-0.1,0-0.4-0.3-0.5c-0.3-0.1-0.5-0.4-0.7-0.4
				c-0.2,0-0.3-0.1-0.3,0.2c-0.1,0.2-0.1,0.6-0.4,0.4c-0.3-0.1-0.2-0.4-0.5-0.4c-0.3,0.1-0.4,0-0.5,0.1c-0.2,0.1-0.2-0.2-0.4,0
				c-0.2,0.1-0.2,0.3-0.5,0.3c-0.2,0-0.4-0.3-0.7-0.1c-0.4,0.2-0.4,0.3-0.6,0.2c-0.2,0-0.6-0.2-0.6-0.2c-0.1,0-0.5-0.2-0.5-0.2
				s-2.9-2.2-3.2-2.5c-0.3-0.3-0.9-0.7-1.3-1.1s-0.7-0.3-0.7-0.9c0-0.6-0.1-1.1-0.5-1.3s-1.3-0.4-1.6-0.7c-0.3-0.3-0.8-0.2-0.6-0.8
				c0.3-0.6,0.1-0.9,0-1.3c-0.1-0.4-0.3-0.3-0.1-0.9c0.2-0.6,0.4-2.8,0.4-2.8s-0.4-0.8-0.2-1.3c0.1-0.5,0.1-1.1,0.7-1.3
				s0.8-0.4,0.8-0.5c0-0.1-0.2-0.3-0.1-0.6c0.1-0.3,0.3-1.4,0.2-1.7c0-0.3-0.2-0.4-0.3-0.7c-0.1-0.3-0.3-0.6-0.1-0.8
				c0.1-0.2,0.1-0.5,0.1-0.7c-0.1-0.2-0.5-0.4-0.6-0.5c-0.1-0.1-2.8-3.4-2.8-3.4l-2.4-5.9c0,0,0.7-0.2,0.4-0.7
				c-0.3-0.5-0.5-0.6-0.8-0.6c-0.3,0-0.1,0.3-0.7,0.3c-0.6,0-1.1-0.6-1.3-0.8c-0.1-0.2-0.5-0.6-0.7-0.7c-0.2-0.1-2.6,0.9-2.8,0.9
				c-0.2,0-1.2,0.1-1.7-0.1c-0.4-0.2-0.5-0.5-0.3-0.6c0.2-0.1,0.2-0.2,0.6-0.3c0.4-0.1,0.8-0.7,0.9-0.8c0.1-0.1,1.4-1.5,1.6-1.7
				c0.3-0.2,0.7-0.6,1-1c0.3-0.4,1.3-3.7,1.4-4.3s0.2-1.9,0.3-2.2c0-0.4-0.7-1.3-0.7-2.2c0-0.9,0.5-2.6,0.5-2.6l2.1-4.2
				c0,0,0.5-1,0.9-1.3c0.4-0.4,6.6-6.6,6.9-6.8C190.2,73.3,190.2,73.3,190.2,73.3z"/>
		</g>
		<g>
			<g>
				<g>
					<path class="st4" d="M188.8,202.6h4.3c0.7,0,1.4-0.5,1.6-1.2c1-4.4,4.8-7.4,9.1-7.4c4.4,0,8.1,3.1,9.1,7.4
						c0.2,0.7,0.8,1.2,1.6,1.2h10.3c0.7,0,1.4-0.5,1.5-1.2c1.8-6.9,0.1-21.1,0-21.7c0-0.3-0.1-0.5-0.3-0.8
						c-12.8-16.3-20.2-16.4-21.7-16.1h-10.1c-2.4,0-4.3,0.7-5.5,2.1c-1.5,1.7-1.5,3.8-1.4,4.4V201
						C187.2,201.9,187.9,202.6,188.8,202.6z M191.9,199.5h-1.5v-30.4c0-0.1,0-0.1,0-0.2l0,0c0,0-0.1-1.2,0.6-2.1
						c0.6-0.7,1.7-1,3.1-1h10.3c0.1,0,0.3,0,0.4,0c0,0,0,0,0.2,0c1.1,0,7.3,0.7,18.2,14.6c0.2,2.3,1.3,12.9,0.2,19h-7.7
						c-1.7-5.1-6.5-8.6-11.9-8.6C198.3,190.8,193.6,194.3,191.9,199.5z"/>
				</g>
			</g>
			<g>
				<g>
					<path class="st4" d="M128.3,202.6h6.5c0.7,0,1.4-0.5,1.6-1.2c1-4.4,4.8-7.4,9.1-7.4c4.4,0,8.1,3.1,9.1,7.4
						c0.2,0.7,0.8,1.2,1.6,1.2h28.4c0.9,0,1.6-0.7,1.6-1.6v-38.9c0-0.2-0.1-6-9.8-7c-0.1,0-0.1,0-0.2,0h-39.6c-0.1,0-0.1,0-0.2,0
						c-9.7,1-9.8,6.8-9.8,7V201C126.7,201.9,127.4,202.6,128.3,202.6z M133.5,199.5h-3.6v-37.3c0-0.1,0.2-3.2,6.8-3.9h39.4
						c6.7,0.7,6.8,3.9,6.8,3.9v37.3h-25.6c-1.7-5.1-6.4-8.6-11.9-8.6C139.9,190.8,135.2,194.3,133.5,199.5z"/>
				</g>
			</g>
			<g>
				<g>
					<path class="st4" d="M203.8,213.6c4.6,0,8.4-3.8,8.4-8.5c0-4.7-3.8-8.5-8.4-8.5c-4.7,0-8.4,3.8-8.4,8.5
						C195.4,209.8,199.2,213.6,203.8,213.6z M203.8,199.7c2.9,0,5.2,2.4,5.2,5.4c0,3-2.4,5.4-5.2,5.4c-2.9,0-5.2-2.4-5.2-5.4
						C198.6,202.1,200.9,199.7,203.8,199.7z"/>
				</g>
			</g>
			<g>
				<g>
					<path class="st4" d="M145.5,213.5c4.6,0,8.4-3.8,8.4-8.5c0-4.7-3.8-8.5-8.4-8.5c-4.6,0-8.4,3.8-8.4,8.5
						C137,209.7,140.8,213.5,145.5,213.5z M145.5,199.6c2.9,0,5.2,2.4,5.2,5.4c0,3-2.4,5.4-5.2,5.4c-2.9,0-5.2-2.4-5.2-5.4
						C140.2,202,142.6,199.6,145.5,199.6z"/>
				</g>
			</g>
			<g>
				<g>
					<path class="st4" d="M201.3,205.1c0,1.4,1.1,2.5,2.5,2.5c1.4,0,2.5-1.1,2.5-2.5c0-1.4-1.1-2.5-2.5-2.5
						C202.4,202.6,201.3,203.7,201.3,205.1z"/>
				</g>
				<g>
					<path class="st4" d="M203.8,208.1c1.7,0,3-1.4,3-3c0-1.7-1.3-3-3-3c-1.7,0-3,1.4-3,3C200.8,206.8,202.1,208.1,203.8,208.1z
						 M203.8,203.1c1.1,0,1.9,0.9,1.9,2c0,1.1-0.9,2-1.9,2c-1.1,0-1.9-0.9-1.9-2C201.9,204,202.7,203.1,203.8,203.1z"/>
				</g>
			</g>
			<g>
				<g>
					<path class="st4" d="M143,205c0,1.4,1.1,2.5,2.5,2.5c1.4,0,2.5-1.1,2.5-2.5c0-1.4-1.1-2.5-2.5-2.5
						C144.1,202.5,143,203.6,143,205z"/>
				</g>
				<g>
					<path class="st4" d="M145.5,208c1.7,0,3-1.4,3-3c0-1.7-1.3-3-3-3c-1.7,0-3,1.4-3,3C142.4,206.7,143.8,208,145.5,208z
						 M145.5,203c1.1,0,1.9,0.9,1.9,2c0,1.1-0.9,2-1.9,2c-1.1,0-1.9-0.9-1.9-2C143.5,203.9,144.4,203,145.5,203z"/>
				</g>
			</g>
			<g>
				<g>
					<path class="st4" d="M197.5,183.7h18.5c0.6,0,1.2-0.4,1.5-1c0.2-0.6,0.1-1.3-0.4-1.7l-12.2-11.5c-0.3-0.3-0.7-0.4-1.1-0.4h-6.2
						c-0.9,0-1.6,0.7-1.6,1.6v11.5C195.9,183,196.6,183.7,197.5,183.7z M212,180.6H199v-8.4h4L212,180.6z"/>
				</g>
			</g>
			<g>
				<g>
					<path class="st4" d="M128.3,170.1h56.3c0.9,0,1.6-0.7,1.6-1.6s-0.7-1.6-1.6-1.6h-56.3c-0.9,0-1.6,0.7-1.6,1.6
						S127.4,170.1,128.3,170.1z"/>
				</g>
			</g>
			<g>
				<g>
					<path class="st4" d="M128.3,179.7h56.3c0.9,0,1.6-0.7,1.6-1.6c0-0.9-0.7-1.6-1.6-1.6h-56.3c-0.9,0-1.6,0.7-1.6,1.6
						C126.7,179,127.4,179.7,128.3,179.7z"/>
				</g>
			</g>
			<g>
				<g>
					<path class="st4" d="M114.7,160.9h8.9c0.9,0,1.6-0.7,1.6-1.6c0-0.9-0.7-1.6-1.6-1.6h-8.9c-0.9,0-1.6,0.7-1.6,1.6
						C113.1,160.2,113.8,160.9,114.7,160.9z"/>
				</g>
			</g>
			<g>
				<g>
					<path class="st4" d="M108.6,153.4h20.5c0.9,0,1.6-0.7,1.6-1.6s-0.7-1.6-1.6-1.6h-20.5c-0.9,0-1.6,0.7-1.6,1.6
						S107.8,153.4,108.6,153.4z"/>
				</g>
			</g>
		</g>
	</g>
</g>
</svg>
