<?xml version="1.0" encoding="utf-8"?>
<!-- Generator: Adobe Illustrator 27.0.1, SVG Export Plug-In . SVG Version: 6.00 Build 0)  -->
<svg version="1.1" id="Capa_1" xmlns="http://www.w3.org/2000/svg" xmlns:xlink="http://www.w3.org/1999/xlink" x="0px" y="0px"
	 viewBox="0 0 400 500" style="enable-background:new 0 0 400 500;" xml:space="preserve">
<style type="text/css">
	.st0{fill:#515127;}
	.st1{fill:#27374B;}
	.st2{fill:#77800D;}
	.st3{fill:#D9D6A8;}
</style>
<g>
	<g>
		<g>
			<path class="st0" d="M109.57,291.68v8.95h-4.95v-24.68h9.44c2.84,0,5.07,0.72,6.7,2.17c1.63,1.45,2.44,3.35,2.44,5.71
				c0,2.36-0.81,4.26-2.44,5.7c-1.63,1.43-3.86,2.15-6.7,2.15H109.57z M109.57,287.86h4.49c1.38,0,2.42-0.38,3.14-1.13
				c0.71-0.75,1.07-1.71,1.07-2.87c0-1.19-0.35-2.17-1.06-2.94c-0.71-0.77-1.75-1.16-3.14-1.16h-4.49V287.86z"/>
			<path class="st0" d="M136.02,286.54l-1.81-0.05c-0.73,0-1.34,0.15-1.81,0.46c-0.47,0.31-0.84,0.74-1.08,1.29v12.39h-4.93v-18.34
				h4.59l0.22,2.71c0.43-0.96,0.99-1.71,1.67-2.25c0.68-0.54,1.47-0.8,2.36-0.8c0.25,0,0.48,0.02,0.69,0.06
				c0.21,0.04,0.42,0.09,0.64,0.14L136.02,286.54z"/>
			<path class="st0" d="M137.49,291.29c0-2.73,0.76-4.98,2.29-6.72c1.53-1.75,3.64-2.62,6.34-2.62c2.71,0,4.84,0.87,6.37,2.61
				c1.54,1.74,2.31,3.98,2.31,6.73v0.36c0,2.76-0.77,5-2.3,6.74c-1.53,1.74-3.65,2.6-6.35,2.6c-2.71,0-4.83-0.87-6.37-2.6
				c-1.53-1.73-2.3-3.98-2.3-6.74V291.29z M142.42,291.64c0,1.67,0.29,3.01,0.88,4.03c0.59,1.01,1.54,1.52,2.85,1.52
				c1.28,0,2.21-0.51,2.81-1.53c0.59-1.02,0.89-2.36,0.89-4.02v-0.36c0-1.63-0.3-2.96-0.9-3.98c-0.6-1.03-1.54-1.54-2.83-1.54
				c-1.28,0-2.21,0.52-2.81,1.55c-0.59,1.03-0.89,2.36-0.89,3.97V291.64z"/>
			<path class="st0" d="M164.22,293.8l0.32,1.7h0.1l0.34-1.7l3.02-11.51h5.17l-6.24,18.34h-4.73l-6.24-18.34h5.17L164.22,293.8z"/>
			<path class="st0" d="M183.06,300.98c-2.73,0-4.87-0.84-6.41-2.52c-1.54-1.68-2.31-3.84-2.31-6.48v-0.68
				c0-2.75,0.75-4.99,2.24-6.75s3.54-2.62,6.15-2.61c2.46,0,4.35,0.75,5.67,2.26c1.32,1.51,1.97,3.54,1.97,6.09v2.56h-10.93
				l-0.05,0.1c0.08,1.25,0.46,2.27,1.14,3.05c0.68,0.78,1.7,1.17,3.04,1.17c1.11,0,2.05-0.11,2.82-0.34
				c0.77-0.23,1.57-0.57,2.4-1.03l1.34,3.05c-0.73,0.6-1.73,1.1-2.98,1.51C185.9,300.78,184.54,300.98,183.06,300.98z
				 M182.73,285.76c-0.99,0-1.76,0.34-2.3,1.03c-0.54,0.68-0.86,1.59-0.97,2.72l0.03,0.08h6.03v-0.37c0-1.07-0.22-1.92-0.66-2.53
				C184.43,286.07,183.72,285.76,182.73,285.76z"/>
			<path class="st0" d="M201.21,300.98c-2.73,0-4.87-0.84-6.41-2.52c-1.54-1.68-2.31-3.84-2.31-6.48v-0.68
				c0-2.75,0.75-4.99,2.24-6.75s3.54-2.62,6.15-2.61c2.46,0,4.35,0.75,5.67,2.26c1.32,1.51,1.97,3.54,1.97,6.09v2.56H197.6
				l-0.05,0.1c0.08,1.25,0.46,2.27,1.14,3.05c0.68,0.78,1.7,1.17,3.04,1.17c1.11,0,2.05-0.11,2.82-0.34
				c0.77-0.23,1.57-0.57,2.4-1.03l1.34,3.05c-0.73,0.6-1.73,1.1-2.98,1.51C204.06,300.78,202.69,300.98,201.21,300.98z
				 M200.89,285.76c-0.99,0-1.76,0.34-2.3,1.03c-0.54,0.68-0.86,1.59-0.97,2.72l0.03,0.08h6.03v-0.37c0-1.07-0.22-1.92-0.66-2.53
				C202.58,286.07,201.87,285.76,200.89,285.76z"/>
			<path class="st0" d="M210.65,291.61c0-2.89,0.62-5.23,1.87-7c1.25-1.77,3.01-2.66,5.28-2.66c0.92,0,1.74,0.2,2.48,0.59
				c0.73,0.4,1.38,0.96,1.93,1.7v-10.05h4.97v26.44h-4.22l-0.42-2.25c-0.58,0.85-1.26,1.49-2.05,1.94s-1.69,0.67-2.71,0.67
				c-2.25,0-4-0.83-5.25-2.48c-1.25-1.65-1.87-3.83-1.87-6.54V291.61z M215.59,291.97c0,1.61,0.27,2.87,0.81,3.79
				s1.42,1.38,2.64,1.38c0.71,0,1.33-0.14,1.86-0.43s0.97-0.71,1.31-1.26v-7.81c-0.34-0.58-0.77-1.03-1.3-1.35
				c-0.53-0.32-1.14-0.48-1.84-0.48c-1.21,0-2.09,0.54-2.65,1.61c-0.56,1.07-0.84,2.47-0.84,4.2V291.97z"/>
			<path class="st0" d="M230.25,291.29c0-2.73,0.76-4.98,2.29-6.72c1.53-1.75,3.64-2.62,6.34-2.62c2.71,0,4.84,0.87,6.37,2.61
				c1.54,1.74,2.31,3.98,2.31,6.73v0.36c0,2.76-0.77,5-2.3,6.74c-1.53,1.74-3.65,2.6-6.35,2.6c-2.71,0-4.83-0.87-6.37-2.6
				c-1.53-1.73-2.3-3.98-2.3-6.74V291.29z M235.18,291.64c0,1.67,0.29,3.01,0.88,4.03c0.59,1.01,1.54,1.52,2.85,1.52
				c1.28,0,2.21-0.51,2.81-1.53c0.59-1.02,0.89-2.36,0.89-4.02v-0.36c0-1.63-0.3-2.96-0.9-3.98c-0.6-1.03-1.54-1.54-2.83-1.54
				c-1.28,0-2.21,0.52-2.81,1.55c-0.59,1.03-0.89,2.36-0.89,3.97V291.64z"/>
			<path class="st0" d="M260.25,286.54l-1.81-0.05c-0.73,0-1.34,0.15-1.81,0.46c-0.47,0.31-0.84,0.74-1.08,1.29v12.39h-4.93v-18.34
				h4.59l0.22,2.71c0.43-0.96,0.99-1.71,1.67-2.25c0.68-0.54,1.47-0.8,2.36-0.8c0.25,0,0.48,0.02,0.69,0.06
				c0.21,0.04,0.42,0.09,0.64,0.14L260.25,286.54z"/>
			<path class="st0" d="M270.46,300.98c-2.73,0-4.87-0.84-6.41-2.52c-1.54-1.68-2.31-3.84-2.31-6.48v-0.68
				c0-2.75,0.75-4.99,2.24-6.75s3.54-2.62,6.15-2.61c2.46,0,4.35,0.75,5.67,2.26c1.32,1.51,1.97,3.54,1.97,6.09v2.56h-10.93
				l-0.05,0.1c0.08,1.25,0.46,2.27,1.14,3.05c0.68,0.78,1.7,1.17,3.04,1.17c1.11,0,2.05-0.11,2.82-0.34
				c0.77-0.23,1.57-0.57,2.4-1.03l1.34,3.05c-0.73,0.6-1.73,1.1-2.98,1.51C273.3,300.78,271.94,300.98,270.46,300.98z
				 M270.14,285.76c-0.99,0-1.76,0.34-2.3,1.03c-0.54,0.68-0.86,1.59-0.97,2.72l0.03,0.08h6.03v-0.37c0-1.07-0.22-1.92-0.66-2.53
				C271.83,286.07,271.12,285.76,270.14,285.76z"/>
			<path class="st0" d="M290.58,295.54c0-0.54-0.26-1.01-0.79-1.4s-1.5-0.73-2.92-1.03c-2.15-0.43-3.78-1.08-4.89-1.95
				c-1.11-0.87-1.67-2.05-1.67-3.54c0-1.57,0.67-2.91,2-4.02c1.33-1.11,3.11-1.66,5.32-1.66c2.32,0,4.17,0.55,5.57,1.66
				c1.4,1.11,2.06,2.49,2.01,4.14l-0.03,0.1h-4.78c0-0.73-0.24-1.33-0.71-1.8c-0.47-0.46-1.16-0.69-2.05-0.69
				c-0.79,0-1.42,0.2-1.88,0.59s-0.69,0.88-0.69,1.46c0,0.57,0.24,1.03,0.72,1.38c0.48,0.36,1.46,0.67,2.92,0.96
				c2.25,0.45,3.92,1.12,5.03,1.99c1.1,0.88,1.65,2.08,1.65,3.62c0,1.65-0.71,3-2.12,4.05c-1.41,1.05-3.28,1.58-5.59,1.58
				c-2.44,0-4.37-0.62-5.79-1.86c-1.42-1.24-2.09-2.65-2.03-4.23l0.03-0.1h4.53c0.03,0.98,0.36,1.7,0.97,2.14
				c0.61,0.44,1.41,0.66,2.39,0.66c0.92,0,1.61-0.18,2.09-0.55C290.34,296.68,290.58,296.18,290.58,295.54z"/>
			<path class="st0" d="M123.9,330.53l0.03,0.1c0.04,2.63-0.76,4.7-2.41,6.19c-1.65,1.49-3.93,2.24-6.83,2.24
				c-2.96,0-5.35-0.95-7.17-2.86s-2.73-4.37-2.73-7.38v-4.9c0-3.01,0.89-5.47,2.66-7.38c1.77-1.92,4.1-2.87,6.98-2.87
				c3.01,0,5.36,0.74,7.05,2.2c1.7,1.47,2.52,3.54,2.48,6.2l-0.03,0.1h-4.81c0-1.58-0.38-2.76-1.14-3.53
				c-0.76-0.77-1.94-1.16-3.53-1.16c-1.48,0-2.64,0.6-3.47,1.79c-0.83,1.19-1.25,2.73-1.25,4.62v4.93c0,1.9,0.44,3.45,1.31,4.64
				c0.88,1.2,2.09,1.8,3.65,1.8c1.48,0,2.58-0.39,3.31-1.16c0.73-0.77,1.09-1.96,1.09-3.57H123.9z"/>
			<path class="st0" d="M137.92,338.7c-0.18-0.42-0.34-0.86-0.47-1.32c-0.13-0.46-0.22-0.94-0.28-1.42
				c-0.51,0.89-1.18,1.63-2.02,2.22c-0.84,0.59-1.83,0.88-2.98,0.88c-1.92,0-3.4-0.49-4.44-1.48c-1.04-0.99-1.56-2.34-1.56-4.04
				c0-1.8,0.69-3.19,2.08-4.18c1.38-0.99,3.4-1.48,6.06-1.48h2.78v-1.46c0-0.88-0.23-1.57-0.69-2.05c-0.46-0.49-1.15-0.73-2.07-0.73
				c-0.8,0-1.42,0.2-1.86,0.58c-0.44,0.39-0.65,0.92-0.65,1.6h-4.76l-0.03-0.1c-0.08-1.55,0.6-2.88,2.03-4.01
				c1.43-1.12,3.3-1.69,5.6-1.69c2.2,0,3.99,0.55,5.35,1.66c1.36,1.11,2.04,2.7,2.04,4.76v7.58c0,0.86,0.06,1.67,0.19,2.42
				c0.13,0.76,0.34,1.51,0.62,2.25H137.92z M133.39,335.39c0.86,0,1.63-0.21,2.31-0.64c0.68-0.43,1.14-0.93,1.39-1.49v-2.59h-2.78
				c-1.05,0-1.84,0.26-2.38,0.78c-0.54,0.52-0.81,1.16-0.81,1.92c0,0.62,0.2,1.12,0.6,1.48
				C132.12,335.21,132.68,335.39,133.39,335.39z"/>
			<path class="st0" d="M150.34,320.36l0.2,2.42c0.59-0.88,1.32-1.56,2.21-2.04c0.89-0.48,1.91-0.72,3.08-0.72
				c1.18,0,2.18,0.26,3.02,0.78c0.84,0.52,1.47,1.31,1.9,2.36c0.56-0.98,1.3-1.75,2.2-2.31c0.9-0.55,1.97-0.83,3.19-0.83
				c1.81,0,3.23,0.64,4.28,1.92s1.57,3.24,1.57,5.87v10.88h-4.95v-10.9c0-1.47-0.23-2.49-0.68-3.07c-0.45-0.58-1.12-0.86-2.02-0.86
				c-0.7,0-1.31,0.16-1.82,0.47c-0.51,0.31-0.92,0.74-1.23,1.3c0,0.21,0.01,0.4,0.02,0.55c0.01,0.15,0.02,0.31,0.02,0.47v12.05
				h-4.93v-10.9c0-1.43-0.23-2.45-0.68-3.04c-0.45-0.59-1.13-0.89-2.03-0.89c-0.67,0-1.25,0.13-1.75,0.38
				c-0.5,0.25-0.92,0.61-1.25,1.08v13.37h-4.93v-18.34H150.34z"/>
			<path class="st0" d="M192.33,330.03c0,2.71-0.63,4.89-1.88,6.54c-1.25,1.65-3.01,2.48-5.25,2.48c-0.96,0-1.81-0.18-2.56-0.53
				c-0.75-0.36-1.38-0.88-1.92-1.57v8.8h-4.93v-25.39h4.46l0.29,2.17c0.54-0.8,1.19-1.42,1.96-1.86c0.76-0.43,1.65-0.65,2.67-0.65
				c2.27,0,4.03,0.89,5.29,2.66s1.88,4.11,1.88,7V330.03z M187.38,329.68c0-1.73-0.29-3.13-0.86-4.2c-0.58-1.07-1.46-1.61-2.64-1.61
				c-0.75,0-1.38,0.15-1.91,0.46c-0.53,0.3-0.94,0.74-1.25,1.3v8.04c0.3,0.52,0.72,0.92,1.25,1.19s1.17,0.41,1.94,0.41
				c1.2,0,2.08-0.47,2.64-1.41c0.56-0.94,0.84-2.21,0.84-3.81V329.68z"/>
			<path class="st0" d="M203.33,339.05c-2.73,0-4.87-0.84-6.41-2.52c-1.54-1.68-2.31-3.84-2.31-6.48v-0.68
				c0-2.75,0.75-4.99,2.24-6.75s3.54-2.62,6.15-2.61c2.46,0,4.35,0.75,5.67,2.26c1.32,1.51,1.97,3.54,1.97,6.09v2.56h-10.93
				l-0.05,0.1c0.08,1.25,0.46,2.27,1.14,3.05c0.68,0.78,1.7,1.17,3.04,1.17c1.11,0,2.05-0.11,2.82-0.34
				c0.77-0.23,1.57-0.57,2.4-1.03l1.34,3.05c-0.73,0.6-1.73,1.1-2.98,1.51C206.18,338.85,204.81,339.05,203.33,339.05z
				 M203.01,323.83c-0.99,0-1.76,0.34-2.3,1.03c-0.54,0.68-0.86,1.59-0.97,2.72l0.03,0.08h6.03v-0.37c0-1.07-0.22-1.92-0.66-2.53
				C204.7,324.14,203.99,323.83,203.01,323.83z"/>
			<path class="st0" d="M223.45,333.61c0-0.54-0.26-1.01-0.79-1.4s-1.5-0.73-2.92-1.03c-2.15-0.43-3.78-1.08-4.89-1.95
				c-1.11-0.87-1.67-2.05-1.67-3.54c0-1.57,0.67-2.91,2-4.02c1.33-1.11,3.11-1.66,5.32-1.66c2.32,0,4.17,0.55,5.57,1.66
				c1.4,1.11,2.06,2.49,2.01,4.14l-0.03,0.1h-4.78c0-0.73-0.24-1.33-0.71-1.8c-0.47-0.46-1.16-0.69-2.05-0.69
				c-0.79,0-1.42,0.2-1.88,0.59s-0.69,0.88-0.69,1.46c0,0.57,0.24,1.03,0.72,1.38c0.48,0.36,1.46,0.67,2.92,0.96
				c2.25,0.45,3.92,1.12,5.03,1.99c1.1,0.88,1.65,2.08,1.65,3.62c0,1.65-0.71,3-2.12,4.05c-1.41,1.05-3.28,1.58-5.59,1.58
				c-2.44,0-4.37-0.62-5.79-1.86c-1.42-1.24-2.09-2.65-2.03-4.23l0.03-0.1h4.53c0.03,0.98,0.36,1.7,0.97,2.14
				c0.61,0.44,1.41,0.66,2.39,0.66c0.92,0,1.61-0.18,2.09-0.55C223.21,334.74,223.45,334.24,223.45,333.61z"/>
			<path class="st0" d="M236.64,315.97h-4.95v-3.71h4.95V315.97z M236.64,338.7h-4.95v-18.34h4.95V338.7z"/>
			<path class="st0" d="M245.23,320.36l0.22,2.63c0.61-0.94,1.36-1.67,2.25-2.19c0.89-0.52,1.89-0.78,3-0.78
				c1.85,0,3.3,0.6,4.34,1.79c1.04,1.19,1.56,3.08,1.56,5.65v11.24h-4.97v-11.22c0-1.31-0.23-2.24-0.69-2.79s-1.14-0.82-2.06-0.82
				c-0.73,0-1.38,0.14-1.94,0.42c-0.56,0.28-1.02,0.66-1.38,1.14v13.27h-4.95v-18.34H245.23z"/>
			<path class="st0" d="M259.54,329.36c0-2.73,0.76-4.98,2.29-6.72c1.53-1.75,3.64-2.62,6.34-2.62c2.71,0,4.84,0.87,6.37,2.61
				c1.54,1.74,2.31,3.98,2.31,6.73v0.36c0,2.76-0.77,5-2.3,6.74c-1.53,1.74-3.65,2.6-6.35,2.6c-2.71,0-4.83-0.87-6.37-2.6
				c-1.53-1.73-2.3-3.98-2.3-6.74V329.36z M264.47,329.71c0,1.67,0.29,3.01,0.88,4.03c0.59,1.01,1.54,1.52,2.85,1.52
				c1.28,0,2.21-0.51,2.81-1.53c0.59-1.02,0.89-2.36,0.89-4.02v-0.36c0-1.63-0.3-2.96-0.9-3.98c-0.6-1.03-1.54-1.54-2.83-1.54
				c-1.28,0-2.21,0.52-2.81,1.55c-0.59,1.03-0.89,2.36-0.89,3.97V329.71z"/>
			<path class="st0" d="M289.82,333.61c0-0.54-0.26-1.01-0.79-1.4s-1.5-0.73-2.92-1.03c-2.15-0.43-3.78-1.08-4.89-1.95
				c-1.11-0.87-1.67-2.05-1.67-3.54c0-1.57,0.67-2.91,2-4.02c1.33-1.11,3.11-1.66,5.32-1.66c2.32,0,4.17,0.55,5.57,1.66
				c1.4,1.11,2.06,2.49,2.01,4.14l-0.03,0.1h-4.78c0-0.73-0.24-1.33-0.71-1.8c-0.47-0.46-1.16-0.69-2.05-0.69
				c-0.79,0-1.42,0.2-1.88,0.59s-0.69,0.88-0.69,1.46c0,0.57,0.24,1.03,0.72,1.38c0.48,0.36,1.46,0.67,2.92,0.96
				c2.25,0.45,3.92,1.12,5.03,1.99c1.1,0.88,1.65,2.08,1.65,3.62c0,1.65-0.71,3-2.12,4.05c-1.41,1.05-3.28,1.58-5.59,1.58
				c-2.44,0-4.37-0.62-5.79-1.86c-1.42-1.24-2.09-2.65-2.03-4.23l0.03-0.1h4.53c0.03,0.98,0.36,1.7,0.97,2.14
				c0.61,0.44,1.41,0.66,2.39,0.66c0.92,0,1.61-0.18,2.09-0.55C289.57,334.74,289.82,334.24,289.82,333.61z"/>
		</g>
	</g>
	<g>
		<g>
			<path class="st1" d="M157.37,480.66H91.5v-14.32l29.16-32.02c3.91-4.43,6.77-8.37,8.59-11.85c1.82-3.47,2.73-6.49,2.73-9.05
				c0-3.69-0.82-6.61-2.47-8.75c-1.65-2.15-4.3-3.22-7.94-3.22c-3.43,0-6.09,1.4-7.97,4.2s-2.83,6.37-2.83,10.71H89.22l-0.13-0.39
				c-0.22-8.76,2.67-16.2,8.66-22.29s13.93-9.15,23.82-9.15c10.37,0,18.38,2.55,24.02,7.65c5.64,5.1,8.46,12.12,8.46,21.06
				c0,5.99-1.56,11.29-4.69,15.91c-3.12,4.62-8.85,11.45-17.18,20.47l-11.52,13.8l0.13,0.33h36.58V480.66z"/>
			<path class="st1" d="M170,439l5.47-53.11h55.52v17.05H193.3l-2.41,19.72c1.78-1.26,4.05-2.28,6.8-3.06
				c2.76-0.78,5.76-1.21,9.02-1.3c8.81-0.17,15.59,2.53,20.34,8.1s7.13,13.48,7.13,23.72c0,9.16-2.65,16.76-7.94,22.81
				c-5.29,6.05-13.63,9.08-24.99,9.08c-9.03,0-16.87-2.38-23.53-7.13c-6.66-4.75-9.86-11.03-9.6-18.84l0.06-0.39l21.54-1.3
				c0,3.34,1.05,5.97,3.16,7.88c2.1,1.91,4.89,2.86,8.36,2.86c4.08,0,6.92-1.24,8.53-3.71c1.6-2.47,2.41-6.18,2.41-11.13
				c0-5.21-0.93-9.31-2.8-12.3c-1.87-2.99-4.82-4.49-8.85-4.49c-2.91,0-5.26,0.63-7.06,1.89c-1.8,1.26-3.05,2.84-3.74,4.75L170,439z
				"/>
			<path class="st1" d="M310.92,445.83c0,11.33-3.02,20.19-9.05,26.59c-6.03,6.4-13.99,9.6-23.89,9.6c-9.98,0-17.99-3.2-24.02-9.6
				c-6.03-6.4-9.05-15.26-9.05-26.59v-25.12c0-11.33,2.99-20.19,8.98-26.59c5.99-6.4,13.97-9.6,23.95-9.6
				c9.89,0,17.88,3.21,23.95,9.63c6.07,6.42,9.11,15.27,9.11,26.56V445.83z M288.98,419.21c0-5.77-0.99-10.18-2.96-13.21
				c-1.98-3.04-4.7-4.56-8.17-4.56c-3.52,0-6.23,1.52-8.14,4.56c-1.91,3.04-2.86,7.44-2.86,13.21v27.99c0,5.9,0.97,10.36,2.9,13.38
				c1.93,3.02,4.68,4.52,8.23,4.52c3.47,0,6.17-1.51,8.1-4.52c1.93-3.02,2.9-7.47,2.9-13.38V419.21z"/>
		</g>
	</g>
	<g>
		<circle class="st2" cx="200" cy="122.74" r="104.77"/>
		<g>
			<path class="st3" d="M240.72,107v7.07c0,2.28-1.82,4.33-4.33,4.33c-2.51,0-4.34-1.83-4.34-4.33V107c0-1.14,0.46-2.28,1.37-2.97
				c0.68-0.68,1.82-1.14,2.97-1.14C238.9,102.9,240.72,104.72,240.72,107z"/>
			<path class="st3" d="M142.4,67.08c2.39,0,4.33,1.94,4.33,4.34c0,2.39-1.94,4.33-4.33,4.33c-2.39,0-4.33-1.94-4.33-4.33
				C138.06,69.02,140,67.08,142.4,67.08z"/>
			<path class="st3" d="M257.83,109.97c2.39,0,4.33,1.94,4.33,4.34c0,2.39-1.94,4.33-4.33,4.33c-2.39,0-4.34-1.94-4.34-4.33
				C253.5,111.91,255.44,109.97,257.83,109.97z"/>
			<path class="st3" d="M223.61,84.19c3.15,0,5.7,2.55,5.7,5.7c0,3.15-2.55,5.7-5.7,5.7c-3.15,0-5.7-2.55-5.7-5.7
				C217.91,86.74,220.46,84.19,223.61,84.19z"/>
			<path class="st3" d="M252.13,89.89c1.64,0,2.97,1.33,2.97,2.97c0,1.64-1.33,2.97-2.97,2.97c-1.64,0-2.97-1.33-2.97-2.97
				C249.16,91.22,250.49,89.89,252.13,89.89z"/>
			<path class="st3" d="M200.8,61.38c1.64,0,2.97,1.33,2.97,2.97c0,1.64-1.33,2.97-2.97,2.97c-1.64,0-2.97-1.33-2.97-2.97
				C197.83,62.71,199.16,61.38,200.8,61.38z"/>
			<path class="st3" d="M160.88,67.08c1.64,0,2.97,1.33,2.97,2.97c0,1.64-1.33,2.97-2.97,2.97c-1.64,0-2.97-1.33-2.97-2.97
				C157.91,68.41,159.24,67.08,160.88,67.08z"/>
			<circle class="st3" cx="143.76" cy="107" r="2.97"/>
			<path class="st3" d="M172.28,170.2c-7.98,0-14.6-6.62-14.6-14.6c0-7.98,6.62-14.6,14.6-14.6s14.6,6.62,14.6,14.6
				C186.88,163.58,180.27,170.2,172.28,170.2z M172.28,146.7c-4.79,0-8.9,3.88-8.9,8.9s3.88,8.9,8.9,8.9s8.9-3.88,8.9-8.9
				S177.3,146.7,172.28,146.7z"/>
			<path class="st3" d="M237.98,186.85c-10.95,0-20.08-8.9-20.08-20.08c0-1.14,0-2.28,0.23-3.42c1.6-9.58,9.81-16.65,19.62-16.65
				c9.81,0,18.02,7.07,19.62,16.65c0.23,1.14,0.23,2.28,0.23,3.42C257.83,177.95,248.93,186.85,237.98,186.85z M237.98,152.63
				c-7.07,0-13,5.02-14.14,11.86c-0.23,0.68-0.23,1.6-0.23,2.28c0,7.76,6.39,14.37,14.37,14.37c7.98,0,14.37-6.39,14.37-14.37
				c0-0.91,0-1.6-0.23-2.28C250.76,157.65,244.83,152.63,237.98,152.63z"/>
			<path class="st3" d="M237.98,175.44c-4.79,0-8.67-3.88-8.67-8.67c0-4.79,3.88-8.67,8.67-8.67c4.79,0,8.67,3.88,8.67,8.67
				C246.65,171.57,242.55,175.44,237.98,175.44z M237.98,164.04c-1.6,0-2.97,1.37-2.97,2.97c0,1.6,1.37,2.97,2.97,2.97
				c1.6,0,2.97-1.37,2.97-2.97C240.72,165.41,239.58,164.04,237.98,164.04z"/>
			<path class="st3" d="M255.09,167h-0.23c-1.6,0-2.97-1.37-2.97-2.97c0-0.46,0-0.68,0.23-1.14v-25.32c0-4.34-3.42-7.76-7.76-7.76
				h-72.09c-1.6,0-2.97-1.37-2.97-2.97c0-1.6,1.37-2.97,2.97-2.97h72.09c7.53,0,13.46,6.16,13.46,13.46v26.46
				C257.83,165.63,256.69,167,255.09,167z"/>
			<path class="st3" d="M221.1,167h-21.44c-1.6,0-2.97-1.37-2.97-2.97c0-1.6,1.37-2.97,2.97-2.97h21.44c1.6,0,2.97,1.37,2.97,2.97
				C223.84,165.63,222.7,167,221.1,167z"/>
			<path class="st3" d="M255.09,141.22h-39.92c-1.6,0-2.97-1.37-2.97-2.97c0-1.6,1.37-2.97,2.97-2.97h39.92
				c1.6,0,2.97,1.37,2.97,2.97C258.06,139.85,256.69,141.22,255.09,141.22z"/>
			<path class="st3" d="M236.39,121.38c-3.88,0-7.07-3.19-7.07-7.07v-7.07c0-1.83,0.68-3.65,2.05-5.02
				c1.37-1.37,3.19-2.05,5.02-2.05c3.88,0,7.07,3.19,7.07,7.07v7.07C243.69,118.18,240.49,121.38,236.39,121.38z M236.39,105.63
				c-0.46,0-0.91,0.23-0.91,0.46c-0.23,0.23-0.46,0.68-0.46,0.91v7.07c0,0.68,0.69,1.37,1.37,1.37c0.68,0,1.37-0.69,1.37-1.37V107
				C237.98,106.32,237.3,105.63,236.39,105.63z"/>
			<path class="st3" d="M260.8,186.85H138.06c-1.6,0-2.97-1.37-2.97-2.97c0-1.6,1.37-2.97,2.97-2.97H260.8
				c1.6,0,2.97,1.37,2.97,2.97C263.54,185.71,262.39,186.85,260.8,186.85z"/>
			<path class="st3" d="M172.28,186.85c-17.34,0-31.48-14.14-31.48-31.48c0-10.04,4.56-19.16,12.55-25.1
				c5.47-4.11,11.86-6.39,18.93-6.39c17.34,0,31.48,14.14,31.48,31.48c0,3.19-0.46,6.39-1.37,9.35
				c-2.05,6.39-5.93,11.86-11.18,15.74C185.51,184.8,179.13,186.85,172.28,186.85z M172.28,129.82c-5.7,0-10.95,1.82-15.29,5.02
				c-6.61,4.79-10.27,12.32-10.27,20.53c0,14.14,11.41,25.78,25.78,25.78c11.18,0,21.22-7.3,24.41-18.02
				c0.68-2.51,1.14-5.02,1.14-7.76C198.06,141.45,186.43,129.82,172.28,129.82z"/>
			<path class="st3" d="M155.17,135.52c-1.6,0-2.97-1.37-2.97-2.97V86.93c0-1.6,1.37-2.97,2.97-2.97h36.73c4.79,0,9.35,1.6,13,4.56
				c3.65,2.97,6.39,7.3,7.3,11.86l5.48,25.78c0.23,1.6-0.68,2.97-2.28,3.42c-1.6,0.23-2.97-0.68-3.42-2.28l-5.48-25.78
				c-1.6-6.84-7.76-12.09-14.83-12.09h-33.54v42.89C158.14,134.38,156.77,135.52,155.17,135.52z"/>
			<path class="st3" d="M236.39,129.82c-1.6,0-2.97-1.37-2.97-2.97v-8.67c0-1.6,1.37-2.97,2.97-2.97c1.6,0,2.97,1.37,2.97,2.97v8.67
				C239.35,128.68,237.98,129.82,236.39,129.82z"/>
			<path class="st3" d="M209.47,112.71h-34.22c-1.6,0-2.97-1.37-2.97-2.97V89.67c0-1.6,1.37-2.97,2.97-2.97
				c1.6,0,2.97,1.37,2.97,2.97v17.11h31.48c1.6,0,2.97,1.37,2.97,2.97C212.2,111.57,211.06,112.71,209.47,112.71z"/>
			<path class="st3" d="M247.79,78.49h-14.37c-3.42,0-6.39-2.51-7.07-5.7h-4.33c-3.88,0-7.07-3.19-7.07-7.07s3.19-7.07,7.07-7.07
				h14.37c3.42,0,6.39,2.51,7.07,5.7h4.34c3.88,0,7.07,3.19,7.07,7.07C254.87,75.29,251.9,78.49,247.79,78.49z M222.24,64.34
				c-0.69,0-1.37,0.68-1.37,1.37c0,0.68,0.68,1.37,1.37,1.37h7.3c0.91,0,1.83,0.46,2.28,1.14c0.46,0.68,0.69,1.82,0.46,2.51
				c0,0.23,0,0.23,0,0.46c0,0.68,0.68,1.37,1.37,1.37h14.37c0.68,0,1.37-0.68,1.37-1.37s-0.69-1.37-1.37-1.37h-7.3
				c-0.91,0-1.82-0.46-2.28-1.14c-0.46-0.68-0.68-1.83-0.46-2.51c0-0.23,0-0.23,0-0.46c0-0.68-0.68-1.37-1.37-1.37
				C236.39,64.34,222.24,64.34,222.24,64.34z"/>
			<path class="st3" d="M142.4,78.49c-3.88,0-7.07-3.19-7.07-7.07c0-3.88,3.19-7.07,7.07-7.07c3.88,0,7.07,3.19,7.07,7.07
				C149.47,75.29,146.27,78.49,142.4,78.49z M142.4,70.05c-0.68,0-1.37,0.69-1.37,1.37c0,0.68,0.69,1.37,1.37,1.37
				c0.68,0,1.37-0.68,1.37-1.37C143.76,70.73,143.08,70.05,142.4,70.05z"/>
			<path class="st3" d="M257.83,121.38c-3.88,0-7.07-3.19-7.07-7.07c0-3.88,3.19-7.07,7.07-7.07c3.88,0,7.07,3.19,7.07,7.07
				C264.9,118.18,261.71,121.38,257.83,121.38z M257.83,112.71c-0.68,0-1.37,0.68-1.37,1.37c0,0.68,0.68,1.37,1.37,1.37
				s1.37-0.69,1.37-1.37C259.2,113.39,258.74,112.71,257.83,112.71z"/>
			<path class="st3" d="M223.61,98.56c-4.79,0-8.67-3.88-8.67-8.67c0-4.79,3.88-8.67,8.67-8.67c4.79,0,8.67,3.88,8.67,8.67
				C232.28,94.68,228.4,98.56,223.61,98.56z M223.61,87.16c-1.6,0-2.97,1.37-2.97,2.97c0,1.6,1.37,2.97,2.97,2.97
				c1.6,0,2.97-1.37,2.97-2.97C226.58,88.52,225.21,87.16,223.61,87.16z"/>
			<path class="st3" d="M175.25,112.71c-0.91,0-1.6-0.46-2.28-1.14c-0.91-1.14-0.68-2.97,0.46-4.11l14.37-11.41
				c1.14-0.91,2.97-0.68,4.11,0.46c0.91,1.14,0.68,2.97-0.46,4.11l-14.37,11.41C176.39,112.48,175.7,112.71,175.25,112.71z"/>
		</g>
	</g>
	<rect x="82.84" y="356.62" class="st1" width="234.32" height="14.35"/>
</g>
</svg>
