<?xml version="1.0" encoding="utf-8"?>
<!-- Generator: Adobe Illustrator 27.0.1, SVG Export Plug-In . SVG Version: 6.00 Build 0)  -->
<svg version="1.1" id="Capa_1" xmlns="http://www.w3.org/2000/svg" xmlns:xlink="http://www.w3.org/1999/xlink" x="0px" y="0px"
	 viewBox="0 0 400 500" style="enable-background:new 0 0 400 500;" xml:space="preserve">
<style type="text/css">
	.st0{fill:#515127;}
	.st1{fill:#27374B;}
	.st2{fill:#77800D;}
	.st3{fill:#D9D6A8;}
</style>
<g>
	<g>
		<g>
			<path class="st0" d="M128.28,291.68v8.95h-4.95v-24.68h9.44c2.84,0,5.07,0.72,6.7,2.17c1.63,1.45,2.44,3.35,2.44,5.71
				c0,2.36-0.81,4.26-2.44,5.7c-1.63,1.43-3.86,2.15-6.7,2.15H128.28z M128.28,287.86h4.49c1.38,0,2.42-0.38,3.14-1.13
				c0.71-0.75,1.07-1.71,1.07-2.87c0-1.19-0.35-2.17-1.06-2.94c-0.71-0.77-1.75-1.16-3.14-1.16h-4.49V287.86z"/>
			<path class="st0" d="M154.73,286.54l-1.81-0.05c-0.73,0-1.34,0.15-1.81,0.46c-0.47,0.31-0.84,0.74-1.08,1.29v12.39h-4.93v-18.34
				h4.59l0.22,2.71c0.43-0.96,0.99-1.71,1.67-2.25c0.68-0.54,1.47-0.8,2.36-0.8c0.25,0,0.48,0.02,0.69,0.06
				c0.21,0.04,0.42,0.09,0.64,0.14L154.73,286.54z"/>
			<path class="st0" d="M156.2,291.29c0-2.73,0.76-4.98,2.29-6.72c1.53-1.75,3.64-2.62,6.34-2.62c2.71,0,4.84,0.87,6.37,2.61
				c1.54,1.74,2.31,3.98,2.31,6.73v0.36c0,2.76-0.77,5-2.3,6.74c-1.53,1.74-3.65,2.6-6.35,2.6c-2.71,0-4.83-0.87-6.37-2.6
				c-1.53-1.73-2.3-3.98-2.3-6.74V291.29z M161.14,291.65c0,1.67,0.29,3.01,0.88,4.03c0.59,1.01,1.54,1.52,2.85,1.52
				c1.28,0,2.21-0.51,2.81-1.53c0.59-1.02,0.89-2.36,0.89-4.02v-0.36c0-1.63-0.3-2.96-0.9-3.98c-0.6-1.03-1.54-1.54-2.83-1.54
				c-1.28,0-2.21,0.52-2.81,1.55c-0.59,1.03-0.89,2.36-0.89,3.97V291.65z"/>
			<path class="st0" d="M175.8,291.61c0-2.89,0.62-5.23,1.87-7c1.25-1.77,3.01-2.66,5.28-2.66c0.92,0,1.74,0.2,2.48,0.59
				c0.73,0.4,1.38,0.96,1.93,1.7v-10.05h4.97v26.44h-4.22l-0.42-2.25c-0.58,0.85-1.26,1.49-2.05,1.94s-1.69,0.67-2.71,0.67
				c-2.25,0-4-0.83-5.25-2.48c-1.25-1.65-1.87-3.83-1.87-6.54V291.61z M180.73,291.97c0,1.61,0.27,2.87,0.81,3.79
				s1.42,1.38,2.64,1.38c0.71,0,1.33-0.14,1.86-0.43s0.97-0.71,1.31-1.26v-7.81c-0.34-0.58-0.77-1.03-1.3-1.35
				c-0.53-0.32-1.14-0.48-1.84-0.48c-1.21,0-2.09,0.54-2.65,1.61c-0.56,1.07-0.84,2.47-0.84,4.2V291.97z"/>
			<path class="st0" d="M207.4,297.92c-0.57,0.98-1.28,1.74-2.15,2.27s-1.88,0.8-3.03,0.8c-1.93,0-3.44-0.66-4.53-1.97
				c-1.09-1.31-1.64-3.34-1.64-6.1v-10.63h4.93v10.66c0,1.6,0.22,2.7,0.65,3.3c0.44,0.59,1.11,0.89,2.03,0.89
				c0.79,0,1.47-0.13,2.03-0.38c0.56-0.25,1.03-0.63,1.39-1.13v-13.34h4.95v18.34h-4.1L207.4,297.92z"/>
			<path class="st0" d="M223.41,297.19c0.86,0,1.54-0.26,2.05-0.77c0.51-0.51,0.76-1.2,0.76-2.06h4.51l0.03,0.1
				c0.04,1.85-0.64,3.4-2.07,4.65s-3.19,1.87-5.29,1.87c-2.71,0-4.81-0.87-6.29-2.6c-1.48-1.73-2.22-3.95-2.22-6.65v-0.51
				c0-2.69,0.74-4.91,2.21-6.65c1.47-1.75,3.56-2.62,6.26-2.62c2.24,0,4.04,0.64,5.41,1.93c1.37,1.29,2.03,2.98,1.98,5.08l-0.03,0.1
				h-4.51c0-0.95-0.25-1.74-0.75-2.36c-0.5-0.63-1.2-0.94-2.09-0.94c-1.28,0-2.18,0.51-2.72,1.53c-0.54,1.02-0.81,2.33-0.81,3.92
				v0.51c0,1.63,0.27,2.94,0.81,3.95S222.11,297.19,223.41,297.19z"/>
			<path class="st0" d="M239.59,277.8v4.49h3.1v3.47h-3.1v9.34c0,0.71,0.15,1.22,0.45,1.53c0.3,0.3,0.69,0.46,1.18,0.46
				c0.26,0,0.49-0.01,0.68-0.04c0.19-0.03,0.41-0.08,0.66-0.14l0.41,3.58c-0.5,0.17-0.98,0.3-1.45,0.38
				c-0.47,0.08-0.98,0.13-1.53,0.13c-1.71,0-3.02-0.47-3.94-1.41c-0.92-0.94-1.38-2.42-1.38-4.46v-9.36h-2.68v-3.47h2.68v-4.49
				H239.59z"/>
			<path class="st0" d="M244.98,291.29c0-2.73,0.76-4.98,2.29-6.72c1.53-1.75,3.64-2.62,6.34-2.62c2.71,0,4.84,0.87,6.37,2.61
				c1.54,1.74,2.31,3.98,2.31,6.73v0.36c0,2.76-0.77,5-2.3,6.74c-1.53,1.74-3.65,2.6-6.35,2.6c-2.71,0-4.83-0.87-6.37-2.6
				c-1.53-1.73-2.3-3.98-2.3-6.74V291.29z M249.91,291.65c0,1.67,0.29,3.01,0.88,4.03c0.59,1.01,1.54,1.52,2.85,1.52
				c1.28,0,2.21-0.51,2.81-1.53c0.59-1.02,0.89-2.36,0.89-4.02v-0.36c0-1.63-0.3-2.96-0.9-3.98c-0.6-1.03-1.54-1.54-2.83-1.54
				c-1.28,0-2.21,0.52-2.81,1.55c-0.59,1.03-0.89,2.36-0.89,3.97V291.65z"/>
			<path class="st0" d="M275.25,295.54c0-0.54-0.26-1.01-0.79-1.4s-1.5-0.73-2.92-1.03c-2.15-0.43-3.78-1.08-4.89-1.95
				c-1.11-0.87-1.67-2.05-1.67-3.54c0-1.57,0.67-2.91,2-4.02c1.33-1.11,3.11-1.66,5.32-1.66c2.32,0,4.17,0.55,5.57,1.66
				c1.4,1.11,2.06,2.49,2.01,4.14l-0.03,0.1h-4.78c0-0.73-0.24-1.33-0.71-1.8c-0.47-0.46-1.16-0.69-2.05-0.69
				c-0.79,0-1.42,0.2-1.88,0.59s-0.69,0.88-0.69,1.46c0,0.57,0.24,1.03,0.72,1.38c0.48,0.36,1.46,0.67,2.92,0.96
				c2.25,0.45,3.92,1.12,5.03,1.99c1.1,0.88,1.65,2.08,1.65,3.62c0,1.65-0.71,3-2.12,4.05c-1.41,1.05-3.28,1.58-5.59,1.58
				c-2.44,0-4.37-0.62-5.79-1.86c-1.42-1.24-2.09-2.65-2.03-4.23l0.03-0.1h4.53c0.03,0.98,0.36,1.7,0.97,2.14
				c0.61,0.44,1.41,0.66,2.39,0.66c0.92,0,1.61-0.18,2.09-0.55C275.01,296.68,275.25,296.18,275.25,295.54z"/>
			<path class="st0" d="M89.07,329.68c0-2.89,0.62-5.23,1.87-7c1.25-1.77,3.01-2.66,5.28-2.66c1.02,0,1.91,0.22,2.68,0.67
				c0.77,0.45,1.43,1.09,1.98,1.92l0.46-2.25h4.2v25.39h-4.95v-8.76c-0.54,0.68-1.18,1.19-1.91,1.54c-0.73,0.35-1.56,0.53-2.5,0.53
				c-2.25,0-4-0.83-5.25-2.48c-1.25-1.65-1.87-3.83-1.87-6.54V329.68z M94,330.04c0,1.61,0.27,2.88,0.81,3.81s1.42,1.41,2.64,1.41
				c0.72,0,1.34-0.14,1.86-0.41c0.52-0.27,0.94-0.67,1.27-1.19v-8.14c-0.33-0.54-0.75-0.96-1.26-1.25
				c-0.51-0.29-1.13-0.44-1.84-0.44c-1.21,0-2.09,0.54-2.65,1.63c-0.56,1.08-0.84,2.49-0.84,4.22V330.04z"/>
			<path class="st0" d="M120.67,335.99c-0.57,0.98-1.28,1.74-2.15,2.27s-1.88,0.8-3.03,0.8c-1.93,0-3.44-0.66-4.53-1.97
				c-1.09-1.31-1.64-3.34-1.64-6.1v-10.63h4.93v10.66c0,1.6,0.22,2.7,0.65,3.3c0.44,0.59,1.11,0.89,2.03,0.89
				c0.79,0,1.47-0.13,2.03-0.38c0.56-0.25,1.03-0.63,1.39-1.13v-13.34h4.95v18.34h-4.1L120.67,335.99z"/>
			<path class="st0" d="M136.97,339.05c-2.73,0-4.87-0.84-6.41-2.52c-1.54-1.68-2.31-3.84-2.31-6.48v-0.68
				c0-2.75,0.75-4.99,2.24-6.75s3.54-2.62,6.15-2.61c2.46,0,4.35,0.75,5.67,2.26c1.32,1.51,1.97,3.54,1.97,6.09v2.56h-10.93
				l-0.05,0.1c0.08,1.25,0.46,2.27,1.14,3.05c0.68,0.78,1.7,1.17,3.04,1.17c1.11,0,2.05-0.11,2.82-0.34
				c0.77-0.23,1.57-0.57,2.4-1.03l1.34,3.05c-0.73,0.6-1.73,1.1-2.98,1.51C139.82,338.85,138.45,339.05,136.97,339.05z
				 M136.65,323.83c-0.99,0-1.76,0.34-2.3,1.03c-0.54,0.68-0.86,1.59-0.97,2.72l0.03,0.08h6.03v-0.37c0-1.07-0.22-1.92-0.66-2.53
				C138.35,324.14,137.63,323.83,136.65,323.83z"/>
			<path class="st0" d="M162.45,331.87l0.32,1.7h0.1l0.34-1.7l3.02-11.51h5.17l-6.24,18.34h-4.73l-6.24-18.34h5.17L162.45,331.87z"
				/>
			<path class="st0" d="M181.28,339.05c-2.73,0-4.87-0.84-6.41-2.52c-1.54-1.68-2.31-3.84-2.31-6.48v-0.68
				c0-2.75,0.75-4.99,2.24-6.75s3.54-2.62,6.15-2.61c2.46,0,4.35,0.75,5.67,2.26c1.32,1.51,1.97,3.54,1.97,6.09v2.56h-10.93
				l-0.05,0.1c0.08,1.25,0.46,2.27,1.14,3.05c0.68,0.78,1.7,1.17,3.04,1.17c1.11,0,2.05-0.11,2.82-0.34
				c0.77-0.23,1.57-0.57,2.4-1.03l1.34,3.05c-0.73,0.6-1.73,1.1-2.98,1.51C184.13,338.85,182.76,339.05,181.28,339.05z
				 M180.96,323.83c-0.99,0-1.76,0.34-2.3,1.03c-0.54,0.68-0.86,1.59-0.97,2.72l0.03,0.08h6.03v-0.37c0-1.07-0.22-1.92-0.66-2.53
				C182.66,324.14,181.94,323.83,180.96,323.83z"/>
			<path class="st0" d="M196.01,320.36l0.22,2.63c0.61-0.94,1.36-1.67,2.25-2.19c0.89-0.52,1.89-0.78,3-0.78
				c1.85,0,3.3,0.6,4.34,1.79c1.04,1.19,1.56,3.08,1.56,5.65v11.24h-4.97v-11.22c0-1.31-0.23-2.24-0.69-2.79s-1.14-0.82-2.06-0.82
				c-0.73,0-1.38,0.14-1.94,0.42c-0.56,0.28-1.02,0.66-1.38,1.14v13.27h-4.95v-18.34H196.01z"/>
			<path class="st0" d="M210.32,329.68c0-2.89,0.62-5.23,1.87-7c1.25-1.77,3.01-2.66,5.28-2.66c0.92,0,1.74,0.2,2.48,0.59
				c0.73,0.4,1.38,0.96,1.93,1.7v-10.05h4.97v26.44h-4.22l-0.42-2.25c-0.58,0.85-1.26,1.49-2.05,1.94s-1.69,0.67-2.71,0.67
				c-2.25,0-4-0.83-5.25-2.48c-1.25-1.65-1.87-3.83-1.87-6.54V329.68z M215.25,330.04c0,1.61,0.27,2.87,0.81,3.79
				s1.42,1.38,2.64,1.38c0.71,0,1.33-0.14,1.86-0.43s0.97-0.71,1.31-1.26v-7.81c-0.34-0.58-0.77-1.03-1.3-1.35
				c-0.53-0.32-1.14-0.48-1.84-0.48c-1.21,0-2.09,0.54-2.65,1.61c-0.56,1.07-0.84,2.47-0.84,4.2V330.04z"/>
			<path class="st0" d="M238.63,339.05c-2.73,0-4.87-0.84-6.41-2.52c-1.54-1.68-2.31-3.84-2.31-6.48v-0.68
				c0-2.75,0.75-4.99,2.24-6.75s3.54-2.62,6.15-2.61c2.46,0,4.35,0.75,5.67,2.26c1.32,1.51,1.97,3.54,1.97,6.09v2.56h-10.93
				l-0.05,0.1c0.08,1.25,0.46,2.27,1.14,3.05c0.68,0.78,1.7,1.17,3.04,1.17c1.11,0,2.05-0.11,2.82-0.34
				c0.77-0.23,1.57-0.57,2.4-1.03l1.34,3.05c-0.73,0.6-1.73,1.1-2.98,1.51C241.48,338.85,240.11,339.05,238.63,339.05z
				 M238.31,323.83c-0.99,0-1.76,0.34-2.3,1.03c-0.54,0.68-0.86,1.59-0.97,2.72l0.03,0.08h6.03v-0.37c0-1.07-0.22-1.92-0.66-2.53
				C240,324.14,239.29,323.83,238.31,323.83z"/>
			<path class="st0" d="M253.43,320.36l0.2,2.42c0.59-0.88,1.32-1.56,2.21-2.04c0.89-0.48,1.91-0.72,3.08-0.72
				c1.18,0,2.18,0.26,3.02,0.78c0.84,0.52,1.47,1.31,1.9,2.36c0.56-0.98,1.3-1.75,2.2-2.31c0.9-0.55,1.97-0.83,3.19-0.83
				c1.81,0,3.23,0.64,4.28,1.92s1.57,3.24,1.57,5.87v10.88h-4.95v-10.9c0-1.47-0.23-2.49-0.68-3.07c-0.45-0.58-1.12-0.86-2.02-0.86
				c-0.7,0-1.31,0.16-1.82,0.47c-0.51,0.31-0.92,0.74-1.23,1.3c0,0.21,0.01,0.4,0.02,0.55c0.01,0.15,0.02,0.31,0.02,0.47v12.05
				h-4.93v-10.9c0-1.43-0.23-2.45-0.68-3.04c-0.45-0.59-1.13-0.89-2.03-0.89c-0.67,0-1.25,0.13-1.75,0.38
				c-0.5,0.25-0.92,0.61-1.25,1.08v13.37h-4.93v-18.34H253.43z"/>
			<path class="st0" d="M278.11,329.36c0-2.73,0.76-4.98,2.29-6.72c1.53-1.75,3.64-2.62,6.34-2.62c2.71,0,4.84,0.87,6.37,2.61
				c1.54,1.74,2.31,3.98,2.31,6.73v0.36c0,2.76-0.77,5-2.3,6.74c-1.53,1.74-3.65,2.6-6.35,2.6c-2.71,0-4.83-0.87-6.37-2.6
				c-1.53-1.73-2.3-3.98-2.3-6.74V329.36z M283.04,329.71c0,1.67,0.29,3.01,0.88,4.03c0.59,1.01,1.54,1.52,2.85,1.52
				c1.28,0,2.21-0.51,2.81-1.53c0.59-1.02,0.89-2.36,0.89-4.02v-0.36c0-1.63-0.3-2.96-0.9-3.98c-0.6-1.03-1.54-1.54-2.83-1.54
				c-1.28,0-2.21,0.52-2.81,1.55c-0.59,1.03-0.89,2.36-0.89,3.97V329.71z"/>
			<path class="st0" d="M308.38,333.61c0-0.54-0.26-1.01-0.79-1.4s-1.5-0.73-2.92-1.03c-2.15-0.43-3.78-1.08-4.89-1.95
				c-1.11-0.87-1.67-2.05-1.67-3.54c0-1.57,0.67-2.91,2-4.02c1.33-1.11,3.11-1.66,5.32-1.66c2.32,0,4.17,0.55,5.57,1.66
				c1.4,1.11,2.06,2.49,2.01,4.14l-0.03,0.1h-4.78c0-0.73-0.24-1.33-0.71-1.8c-0.47-0.46-1.16-0.69-2.05-0.69
				c-0.79,0-1.42,0.2-1.88,0.59s-0.69,0.88-0.69,1.46c0,0.57,0.24,1.03,0.72,1.38c0.48,0.36,1.46,0.67,2.92,0.96
				c2.25,0.45,3.92,1.12,5.03,1.99c1.1,0.88,1.65,2.08,1.65,3.62c0,1.65-0.71,3-2.12,4.05c-1.41,1.05-3.28,1.58-5.59,1.58
				c-2.44,0-4.37-0.62-5.79-1.86c-1.42-1.24-2.09-2.65-2.03-4.23l0.03-0.1h4.53c0.03,0.98,0.36,1.7,0.97,2.14
				c0.61,0.44,1.41,0.66,2.39,0.66c0.92,0,1.61-0.18,2.09-0.55C308.14,334.75,308.38,334.25,308.38,333.61z"/>
		</g>
	</g>
	<g>
		<g>
			<path class="st1" d="M150.16,402.81c-10.07,11.46-16.96,22.01-20.67,31.67c-3.71,9.66-5.56,20.91-5.56,33.75v12.43h-22v-12.43
				c0-12.67,2.3-24.29,6.9-34.86c4.6-10.57,11.35-20.75,20.24-30.56H81.62v-16.92h68.54V402.81z"/>
			<path class="st1" d="M162.92,439l5.47-53.11h55.52v17.05h-37.69l-2.41,19.72c1.78-1.26,4.05-2.28,6.8-3.06
				c2.76-0.78,5.76-1.21,9.02-1.3c8.81-0.17,15.59,2.53,20.34,8.1s7.13,13.48,7.13,23.72c0,9.16-2.65,16.76-7.94,22.81
				c-5.29,6.05-13.63,9.08-24.99,9.08c-9.03,0-16.87-2.38-23.53-7.13c-6.66-4.75-9.86-11.03-9.6-18.84l0.06-0.39l21.54-1.3
				c0,3.34,1.05,5.97,3.16,7.88c2.1,1.91,4.89,2.86,8.36,2.86c4.08,0,6.92-1.24,8.53-3.71c1.6-2.47,2.41-6.18,2.41-11.13
				c0-5.21-0.93-9.31-2.8-12.3c-1.87-2.99-4.82-4.49-8.85-4.49c-2.91,0-5.26,0.63-7.06,1.89c-1.8,1.26-3.05,2.84-3.74,4.75
				L162.92,439z"/>
			<path class="st1" d="M303.84,445.83c0,11.33-3.02,20.19-9.05,26.59c-6.03,6.4-13.99,9.6-23.89,9.6c-9.98,0-17.99-3.2-24.02-9.6
				c-6.03-6.4-9.05-15.26-9.05-26.59v-25.12c0-11.33,2.99-20.19,8.98-26.59c5.99-6.4,13.97-9.6,23.95-9.6
				c9.89,0,17.88,3.21,23.95,9.63c6.07,6.42,9.11,15.27,9.11,26.56V445.83z M281.9,419.21c0-5.77-0.99-10.18-2.96-13.21
				c-1.98-3.04-4.7-4.56-8.17-4.56c-3.52,0-6.23,1.52-8.14,4.56c-1.91,3.04-2.86,7.44-2.86,13.21v27.99c0,5.9,0.97,10.36,2.9,13.38
				c1.93,3.02,4.68,4.52,8.23,4.52c3.47,0,6.17-1.51,8.1-4.52c1.93-3.02,2.9-7.47,2.9-13.38V419.21z"/>
		</g>
	</g>
	<g>
		<circle class="st2" cx="201.22" cy="122.75" r="104.77"/>
		<g>
			<path class="st3" d="M261.13,61.5c1.77,0,3.2,1.43,3.2,3.2c0,1.77-1.43,3.2-3.2,3.2s-3.2-1.43-3.2-3.2
				C257.93,62.93,259.36,61.5,261.13,61.5z"/>
			<path class="st3" d="M258.17,153.81c1.77,0,3.2,1.43,3.2,3.2c0,1.77-1.43,3.2-3.2,3.2s-3.2-1.43-3.2-3.2
				C254.97,155.25,256.4,153.81,258.17,153.81z"/>
			<path class="st3" d="M218.04,55.34c1.77,0,3.2,1.43,3.2,3.2c0,1.77-1.43,3.2-3.2,3.2c-1.77,0-3.2-1.43-3.2-3.2
				C214.84,56.77,216.28,55.34,218.04,55.34z"/>
			<circle class="st3" cx="218.04" cy="181.63" r="3.2"/>
			<path class="st3" d="M150.34,55.34c1.77,0,3.2,1.43,3.2,3.2c0,1.77-1.43,3.2-3.2,3.2c-1.77,0-3.2-1.43-3.2-3.2
				C147.14,56.77,148.58,55.34,150.34,55.34z"/>
			<path class="st3" d="M147.39,147.66c1.77,0,3.2,1.43,3.2,3.2c0,1.77-1.43,3.2-3.2,3.2s-3.2-1.43-3.2-3.2
				C144.19,149.09,145.62,147.66,147.39,147.66z"/>
			<path class="st3" d="M144.19,79.96c1.77,0,3.2,1.43,3.2,3.2c0,1.77-1.43,3.2-3.2,3.2c-1.77,0-3.2-1.43-3.2-3.2
				C140.99,81.39,142.42,79.96,144.19,79.96z"/>
			<path class="st3" d="M245.62,89.31c-0.74,0-1.48-0.25-2.22-0.98l-13.79-13.79c-1.23-1.23-1.23-3.2,0-4.43
				c1.23-1.23,3.2-1.23,4.43,0l13.79,13.79c1.23,1.23,1.23,3.2,0,4.43C247.34,89.07,246.35,89.31,245.62,89.31z"/>
			<path class="st3" d="M142.22,129.44c-3.2,0-6.15-1.23-8.37-3.45c-4.68-4.68-4.68-12.31,0-16.74l40.87-40.87
				c0.49-0.49,1.48-0.98,2.22-0.98l53.67,1.97l6.89-6.89c0.49-0.49,1.48-0.98,2.22-0.98c0.74,0,1.48,0.25,2.22,0.98l24.62,24.62
				c0.49,0.49,0.98,1.48,0.98,2.22s-0.25,1.48-0.98,2.22l-23.63,23.64c-0.74,0.74-1.48,0.98-2.46,0.98l-57.11-6.15
				c-2.46-0.25-4.92-1.23-6.89-3.2c-1.23-1.23-1.97-2.46-2.71-4.18l-23.14,23.63C148.37,128.21,145.42,129.44,142.22,129.44z
				 M178.16,73.56l-40.13,39.88c-2.22,2.22-2.22,5.91,0,8.12c0.98,0.98,2.46,1.72,4.18,1.72c1.72,0,2.95-0.49,4.19-1.72l27.82-28.31
				l0.25-0.25c1.97-3.69,5.91-5.66,10.09-5.66l31.51,1.48c1.72,0,2.95,1.48,2.95,3.2c0,1.72-1.48,2.95-3.2,2.95l-31.51-1.48
				c-2.22,0-3.94,1.23-4.92,3.2c-0.25,0.74-0.49,1.72-0.25,2.46c0.25,1.23,0.74,2.22,1.48,2.96c0.74,0.74,1.97,1.23,3.2,1.48l0,0
				l55.88,6.15l20.19-20.19l-20.19-20.19l-5.66,5.66c-0.49,0.49-1.48,0.98-2.22,0.98L178.16,73.56z"/>
			<path class="st3" d="M192.44,181.14L192.44,181.14L192.44,181.14c-17.73,0-32.25-14.52-32.25-32.25l0,0
				c0-7.14,5.66-12.8,12.8-12.8c3.45,0,6.65,1.23,9.11,3.69c2.46,2.46,3.69,5.66,3.69,9.11c0,1.72,0.74,3.45,1.97,4.68
				c1.23,1.23,2.95,1.97,4.68,1.97c3.45,0,6.65,1.23,9.11,3.69c2.46,2.46,3.69,5.66,3.69,9.11
				C205.24,175.48,199.58,181.14,192.44,181.14z M172.99,142.24c-3.69,0-6.65,2.95-6.65,6.65l0,0c0,14.28,11.57,26.09,26.1,26.09
				l0,0c3.69,0,6.65-2.95,6.65-6.65c0-1.72-0.74-3.45-1.97-4.68c-1.23-1.23-2.95-1.97-4.68-1.97c-3.45,0-6.65-1.23-9.11-3.69
				c-2.46-2.46-3.69-5.66-3.69-9.11c0-1.72-0.74-3.45-1.97-4.68C176.44,142.98,174.96,142.24,172.99,142.24z"/>
			<path class="st3" d="M231.83,175.48c-3.45,0-6.65-1.23-9.11-3.69c-2.46-2.46-3.69-5.66-3.69-9.11c0-1.72-0.74-3.45-1.97-4.68
				c-1.23-1.23-2.95-1.97-4.68-1.97c-3.45,0-6.65-1.23-9.11-3.69c-2.46-2.46-3.69-5.66-3.69-9.11c0-7.14,5.66-12.8,12.8-12.8l0,0
				c17.73,0,32.25,14.52,32.25,32.25l0,0C244.63,169.82,238.97,175.48,231.83,175.48z M212.38,136.58c-3.69,0-6.65,2.95-6.65,6.65
				c0,1.72,0.74,3.45,1.97,4.68c1.23,1.23,2.95,1.97,4.68,1.97c3.45,0,6.65,1.23,9.11,3.69c2.46,2.46,3.69,5.66,3.69,9.11
				c0,1.72,0.74,3.45,1.97,4.68c1.23,1.23,2.95,1.97,4.68,1.97c3.69,0,6.65-2.95,6.65-6.65l0,0
				C238.48,148.4,226.91,136.58,212.38,136.58L212.38,136.58z"/>
			<path class="st3" d="M145.91,184.83c-4.18,0-7.63-3.45-7.63-7.63s3.45-7.63,7.63-7.63s7.63,3.45,7.63,7.63
				C153.54,181.14,150.1,184.83,145.91,184.83z M145.91,175.48c-0.74,0-1.48,0.74-1.48,1.48c0,0.74,0.74,1.48,1.48,1.48
				s1.48-0.74,1.48-1.48C147.39,176.22,146.65,175.48,145.91,175.48z"/>
			<path class="st3" d="M185.79,135.6c-4.19,0-7.63-3.45-7.63-7.63s3.45-7.88,7.63-7.88c4.19,0,7.63,3.45,7.63,7.63
				C193.43,131.9,189.98,135.6,185.79,135.6z M185.79,126.24c-0.74,0-1.48,0.74-1.48,1.48c0,0.74,0.74,1.48,1.48,1.48
				c0.74,0,1.48-0.74,1.48-1.48C187.27,126.98,186.78,126.24,185.79,126.24z"/>
			<path class="st3" d="M252.02,141.75c-5.17,0-9.36-4.18-9.36-9.35c0-5.17,4.19-9.36,9.36-9.36c5.17,0,9.35,4.19,9.35,9.36
				C261.37,137.57,257.19,141.75,252.02,141.75z M252.02,129.44c-1.72,0-3.2,1.48-3.2,3.2c0,1.72,1.48,3.2,3.2,3.2
				c1.72,0,3.2-1.48,3.2-3.2C255.22,130.92,253.74,129.44,252.02,129.44z"/>
		</g>
	</g>
	<rect x="84.06" y="356.62" class="st1" width="234.32" height="14.35"/>
</g>
</svg>
