<?xml version="1.0" encoding="utf-8"?>
<!-- Generator: Adobe Illustrator 27.0.1, SVG Export Plug-In . SVG Version: 6.00 Build 0)  -->
<svg version="1.1" id="Capa_1" xmlns="http://www.w3.org/2000/svg" xmlns:xlink="http://www.w3.org/1999/xlink" x="0px" y="0px"
	 viewBox="0 0 400 500" style="enable-background:new 0 0 400 500;" xml:space="preserve">
<style type="text/css">
	.st0{fill:#515127;}
	.st1{fill:#27374B;}
	.st2{fill:#77800D;}
	.st3{fill:#D9D6A8;}
</style>
<g>
	<g>
		<g>
			<path class="st0" d="M29.96,291.68v8.95h-4.95v-24.68h9.44c2.84,0,5.07,0.72,6.7,2.17c1.63,1.45,2.44,3.35,2.44,5.71
				c0,2.36-0.81,4.26-2.44,5.7c-1.63,1.43-3.86,2.15-6.7,2.15H29.96z M29.96,287.86h4.49c1.38,0,2.42-0.38,3.14-1.13
				c0.71-0.75,1.07-1.71,1.07-2.87c0-1.19-0.35-2.17-1.06-2.94c-0.71-0.77-1.75-1.16-3.14-1.16h-4.49V287.86z"/>
			<path class="st0" d="M56.41,286.54l-1.81-0.05c-0.73,0-1.34,0.15-1.81,0.46c-0.47,0.31-0.84,0.74-1.08,1.29v12.39h-4.93v-18.34
				h4.59l0.22,2.71c0.43-0.96,0.99-1.71,1.67-2.25c0.68-0.54,1.47-0.8,2.36-0.8c0.25,0,0.48,0.02,0.69,0.06
				c0.21,0.04,0.42,0.09,0.64,0.14L56.41,286.54z"/>
			<path class="st0" d="M66.61,300.98c-2.74,0-4.87-0.84-6.41-2.52c-1.54-1.68-2.31-3.84-2.31-6.48v-0.68
				c0-2.75,0.75-4.99,2.24-6.75c1.49-1.75,3.54-2.62,6.15-2.61c2.46,0,4.35,0.75,5.67,2.26s1.98,3.54,1.98,6.09v2.56H63l-0.05,0.1
				c0.08,1.25,0.46,2.27,1.14,3.05c0.68,0.78,1.7,1.17,3.04,1.17c1.11,0,2.05-0.11,2.82-0.34c0.77-0.23,1.57-0.57,2.4-1.03
				l1.34,3.05c-0.74,0.6-1.73,1.1-2.98,1.51C69.46,300.78,68.09,300.98,66.61,300.98z M66.29,285.76c-0.99,0-1.76,0.34-2.3,1.03
				c-0.54,0.68-0.86,1.59-0.97,2.72l0.03,0.08h6.03v-0.37c0-1.07-0.22-1.92-0.66-2.53C67.98,286.07,67.27,285.76,66.29,285.76z"/>
			<path class="st0" d="M86.73,295.54c0-0.54-0.26-1.01-0.79-1.4s-1.5-0.73-2.92-1.03c-2.15-0.43-3.78-1.08-4.89-1.95
				c-1.11-0.87-1.67-2.05-1.67-3.54c0-1.57,0.67-2.91,2-4.02c1.33-1.11,3.11-1.66,5.32-1.66c2.32,0,4.17,0.55,5.57,1.66
				s2.07,2.49,2.01,4.14l-0.03,0.1h-4.78c0-0.73-0.24-1.33-0.71-1.8c-0.47-0.46-1.16-0.69-2.05-0.69c-0.79,0-1.42,0.2-1.88,0.59
				c-0.46,0.4-0.69,0.88-0.69,1.46c0,0.57,0.24,1.03,0.72,1.38c0.48,0.36,1.45,0.67,2.92,0.96c2.25,0.45,3.92,1.12,5.03,1.99
				c1.1,0.88,1.65,2.08,1.65,3.62c0,1.65-0.71,3-2.12,4.05c-1.41,1.05-3.28,1.58-5.59,1.58c-2.44,0-4.37-0.62-5.79-1.86
				s-2.09-2.65-2.03-4.23l0.03-0.1h4.53c0.03,0.98,0.36,1.7,0.97,2.14c0.61,0.44,1.41,0.66,2.39,0.66c0.92,0,1.61-0.18,2.09-0.55
				S86.73,296.18,86.73,295.54z"/>
			<path class="st0" d="M102.67,300.98c-2.74,0-4.87-0.84-6.41-2.52c-1.54-1.68-2.31-3.84-2.31-6.48v-0.68
				c0-2.75,0.75-4.99,2.24-6.75c1.49-1.75,3.54-2.62,6.15-2.61c2.46,0,4.35,0.75,5.67,2.26s1.98,3.54,1.98,6.09v2.56H99.06
				l-0.05,0.1c0.08,1.25,0.46,2.27,1.14,3.05c0.68,0.78,1.7,1.17,3.04,1.17c1.11,0,2.05-0.11,2.82-0.34
				c0.77-0.23,1.57-0.57,2.4-1.03l1.34,3.05c-0.74,0.6-1.73,1.1-2.98,1.51C105.51,300.78,104.15,300.98,102.67,300.98z
				 M102.34,285.76c-0.99,0-1.76,0.34-2.3,1.03c-0.54,0.68-0.86,1.59-0.97,2.72l0.03,0.08h6.03v-0.37c0-1.07-0.22-1.92-0.66-2.53
				C104.04,286.07,103.33,285.76,102.34,285.76z"/>
			<path class="st0" d="M117.4,282.29l0.22,2.63c0.61-0.94,1.36-1.67,2.25-2.19c0.89-0.52,1.89-0.78,3-0.78
				c1.85,0,3.3,0.6,4.34,1.79s1.56,3.08,1.56,5.65v11.24h-4.97v-11.22c0-1.31-0.23-2.24-0.69-2.79s-1.14-0.82-2.06-0.82
				c-0.73,0-1.38,0.14-1.94,0.42c-0.56,0.28-1.02,0.66-1.38,1.14v13.27h-4.95v-18.34H117.4z"/>
			<path class="st0" d="M140.13,297.19c0.86,0,1.54-0.26,2.05-0.77c0.51-0.51,0.76-1.2,0.76-2.06h4.51l0.03,0.1
				c0.04,1.85-0.64,3.4-2.07,4.65s-3.19,1.87-5.29,1.87c-2.71,0-4.81-0.87-6.29-2.6c-1.48-1.73-2.22-3.95-2.22-6.65v-0.51
				c0-2.69,0.74-4.91,2.21-6.65c1.48-1.75,3.56-2.62,6.26-2.62c2.24,0,4.04,0.64,5.41,1.93c1.37,1.29,2.03,2.98,1.98,5.08l-0.03,0.1
				h-4.51c0-0.95-0.25-1.74-0.75-2.36c-0.5-0.63-1.2-0.94-2.09-0.94c-1.28,0-2.18,0.51-2.72,1.53c-0.54,1.02-0.8,2.33-0.8,3.92v0.51
				c0,1.63,0.27,2.94,0.8,3.95S138.83,297.19,140.13,297.19z"/>
			<path class="st0" d="M155.57,277.9h-4.95v-3.71h4.95V277.9z M155.57,300.63h-4.95v-18.34h4.95V300.63z"/>
			<path class="st0" d="M170.45,300.63c-0.18-0.42-0.34-0.86-0.47-1.32c-0.13-0.46-0.22-0.94-0.28-1.42
				c-0.51,0.89-1.18,1.63-2.02,2.22c-0.84,0.59-1.83,0.88-2.98,0.88c-1.92,0-3.4-0.49-4.44-1.48c-1.04-0.99-1.56-2.34-1.56-4.04
				c0-1.8,0.69-3.19,2.08-4.18c1.38-0.99,3.4-1.48,6.06-1.48h2.78v-1.46c0-0.88-0.23-1.57-0.7-2.05c-0.46-0.49-1.15-0.73-2.07-0.73
				c-0.8,0-1.42,0.2-1.86,0.58c-0.44,0.39-0.65,0.92-0.65,1.6h-4.76l-0.03-0.1c-0.08-1.55,0.6-2.88,2.03-4.01
				c1.43-1.12,3.3-1.69,5.6-1.69c2.2,0,3.99,0.55,5.35,1.66c1.36,1.11,2.04,2.7,2.04,4.76v7.58c0,0.86,0.07,1.67,0.2,2.42
				c0.13,0.76,0.34,1.51,0.62,2.25H170.45z M165.93,297.32c0.86,0,1.63-0.21,2.31-0.64c0.68-0.43,1.14-0.93,1.39-1.49v-2.59h-2.78
				c-1.05,0-1.84,0.26-2.38,0.78c-0.54,0.52-0.8,1.16-0.8,1.92c0,0.62,0.2,1.12,0.6,1.48S165.22,297.32,165.93,297.32z"/>
			<path class="st0" d="M194.88,300.98c-2.74,0-4.87-0.84-6.41-2.52c-1.54-1.68-2.31-3.84-2.31-6.48v-0.68
				c0-2.75,0.75-4.99,2.24-6.75c1.49-1.75,3.54-2.62,6.15-2.61c2.46,0,4.35,0.75,5.67,2.26s1.98,3.54,1.98,6.09v2.56h-10.93
				l-0.05,0.1c0.08,1.25,0.46,2.27,1.14,3.05c0.68,0.78,1.7,1.17,3.04,1.17c1.11,0,2.05-0.11,2.82-0.34
				c0.77-0.23,1.57-0.57,2.4-1.03l1.34,3.05c-0.74,0.6-1.73,1.1-2.98,1.51C197.73,300.78,196.36,300.98,194.88,300.98z
				 M194.56,285.76c-0.99,0-1.76,0.34-2.3,1.03c-0.54,0.68-0.86,1.59-0.97,2.72l0.03,0.08h6.03v-0.37c0-1.07-0.22-1.92-0.66-2.53
				C196.25,286.07,195.54,285.76,194.56,285.76z"/>
			<path class="st0" d="M209.61,282.29l0.22,2.63c0.61-0.94,1.36-1.67,2.25-2.19c0.89-0.52,1.89-0.78,3-0.78
				c1.85,0,3.3,0.6,4.34,1.79s1.56,3.08,1.56,5.65v11.24h-4.97v-11.22c0-1.31-0.23-2.24-0.69-2.79s-1.14-0.82-2.06-0.82
				c-0.73,0-1.38,0.14-1.94,0.42c-0.56,0.28-1.02,0.66-1.38,1.14v13.27H205v-18.34H209.61z"/>
			<path class="st0" d="M252.21,292.46l0.03,0.1c0.04,2.63-0.76,4.7-2.41,6.19c-1.65,1.49-3.93,2.24-6.83,2.24
				c-2.96,0-5.35-0.95-7.17-2.86s-2.73-4.37-2.73-7.38v-4.9c0-3.01,0.89-5.47,2.66-7.38c1.77-1.92,4.1-2.87,6.98-2.87
				c3.01,0,5.36,0.74,7.05,2.2s2.52,3.54,2.47,6.2l-0.03,0.1h-4.81c0-1.58-0.38-2.76-1.14-3.53c-0.76-0.77-1.94-1.16-3.53-1.16
				c-1.48,0-2.64,0.6-3.47,1.79c-0.83,1.19-1.25,2.73-1.25,4.62v4.93c0,1.9,0.44,3.45,1.31,4.64c0.88,1.2,2.09,1.8,3.65,1.8
				c1.48,0,2.58-0.39,3.31-1.16c0.73-0.77,1.09-1.96,1.09-3.57H252.21z"/>
			<path class="st0" d="M260.62,277.9h-4.95v-3.71h4.95V277.9z M260.62,300.63h-4.95v-18.34h4.95V300.63z"/>
			<path class="st0" d="M275.92,297.92c-0.56,0.98-1.28,1.74-2.15,2.27s-1.88,0.8-3.03,0.8c-1.93,0-3.44-0.66-4.53-1.97
				c-1.09-1.31-1.64-3.34-1.64-6.1v-10.63h4.93v10.66c0,1.6,0.22,2.7,0.65,3.3c0.43,0.59,1.11,0.89,2.03,0.89
				c0.79,0,1.47-0.13,2.03-0.38c0.57-0.25,1.03-0.63,1.39-1.13v-13.34h4.95v18.34h-4.1L275.92,297.92z"/>
			<path class="st0" d="M283.52,291.61c0-2.89,0.62-5.23,1.87-7s3.01-2.66,5.28-2.66c0.92,0,1.74,0.2,2.47,0.59s1.38,0.96,1.93,1.7
				v-10.05h4.97v26.44h-4.22l-0.42-2.25c-0.58,0.85-1.26,1.49-2.05,1.94c-0.79,0.45-1.7,0.67-2.71,0.67c-2.25,0-4-0.83-5.25-2.48
				c-1.25-1.65-1.87-3.83-1.87-6.54V291.61z M288.45,291.97c0,1.61,0.27,2.87,0.81,3.79c0.54,0.92,1.42,1.38,2.64,1.38
				c0.71,0,1.33-0.14,1.87-0.43c0.53-0.29,0.97-0.71,1.3-1.26v-7.81c-0.34-0.58-0.77-1.03-1.3-1.35c-0.53-0.32-1.14-0.48-1.84-0.48
				c-1.21,0-2.09,0.54-2.65,1.61c-0.56,1.07-0.84,2.47-0.84,4.2V291.97z"/>
			<path class="st0" d="M314.69,300.63c-0.18-0.42-0.34-0.86-0.47-1.32c-0.13-0.46-0.22-0.94-0.28-1.42
				c-0.51,0.89-1.18,1.63-2.02,2.22c-0.84,0.59-1.83,0.88-2.98,0.88c-1.92,0-3.4-0.49-4.44-1.48c-1.04-0.99-1.56-2.34-1.56-4.04
				c0-1.8,0.69-3.19,2.08-4.18c1.38-0.99,3.4-1.48,6.06-1.48h2.78v-1.46c0-0.88-0.23-1.57-0.7-2.05c-0.46-0.49-1.15-0.73-2.07-0.73
				c-0.8,0-1.42,0.2-1.86,0.58c-0.44,0.39-0.65,0.92-0.65,1.6h-4.76l-0.03-0.1c-0.08-1.55,0.6-2.88,2.03-4.01
				c1.43-1.12,3.3-1.69,5.6-1.69c2.2,0,3.99,0.55,5.35,1.66c1.36,1.11,2.04,2.7,2.04,4.76v7.58c0,0.86,0.07,1.67,0.2,2.42
				c0.13,0.76,0.34,1.51,0.62,2.25H314.69z M310.17,297.32c0.86,0,1.63-0.21,2.31-0.64c0.68-0.43,1.14-0.93,1.39-1.49v-2.59h-2.78
				c-1.05,0-1.84,0.26-2.38,0.78c-0.54,0.52-0.8,1.16-0.8,1.92c0,0.62,0.2,1.12,0.6,1.48S309.45,297.32,310.17,297.32z"/>
			<path class="st0" d="M321.76,291.61c0-2.89,0.62-5.23,1.87-7s3.01-2.66,5.28-2.66c0.92,0,1.74,0.2,2.47,0.59s1.38,0.96,1.93,1.7
				v-10.05h4.97v26.44h-4.22l-0.42-2.25c-0.58,0.85-1.26,1.49-2.05,1.94c-0.79,0.45-1.7,0.67-2.71,0.67c-2.25,0-4-0.83-5.25-2.48
				c-1.25-1.65-1.87-3.83-1.87-6.54V291.61z M326.69,291.97c0,1.61,0.27,2.87,0.81,3.79c0.54,0.92,1.42,1.38,2.64,1.38
				c0.71,0,1.33-0.14,1.87-0.43c0.53-0.29,0.97-0.71,1.3-1.26v-7.81c-0.34-0.58-0.77-1.03-1.3-1.35c-0.53-0.32-1.14-0.48-1.84-0.48
				c-1.21,0-2.09,0.54-2.65,1.61c-0.56,1.07-0.84,2.47-0.84,4.2V291.97z"/>
			<path class="st0" d="M350.07,300.98c-2.74,0-4.87-0.84-6.41-2.52c-1.54-1.68-2.31-3.84-2.31-6.48v-0.68
				c0-2.75,0.75-4.99,2.24-6.75c1.49-1.75,3.54-2.62,6.15-2.61c2.46,0,4.35,0.75,5.67,2.26s1.98,3.54,1.98,6.09v2.56h-10.93
				l-0.05,0.1c0.08,1.25,0.46,2.27,1.14,3.05c0.68,0.78,1.7,1.17,3.04,1.17c1.11,0,2.05-0.11,2.82-0.34
				c0.77-0.23,1.57-0.57,2.4-1.03l1.34,3.05c-0.74,0.6-1.73,1.1-2.98,1.51C352.92,300.78,351.55,300.98,350.07,300.98z
				 M349.75,285.76c-0.99,0-1.76,0.34-2.3,1.03c-0.54,0.68-0.86,1.59-0.97,2.72l0.03,0.08h6.03v-0.37c0-1.07-0.22-1.92-0.66-2.53
				C351.44,286.07,350.73,285.76,349.75,285.76z"/>
			<path class="st0" d="M370.19,295.54c0-0.54-0.26-1.01-0.79-1.4s-1.5-0.73-2.92-1.03c-2.15-0.43-3.78-1.08-4.89-1.95
				c-1.11-0.87-1.67-2.05-1.67-3.54c0-1.57,0.67-2.91,2-4.02c1.33-1.11,3.11-1.66,5.32-1.66c2.32,0,4.17,0.55,5.57,1.66
				s2.07,2.49,2.01,4.14l-0.03,0.1H370c0-0.73-0.24-1.33-0.71-1.8c-0.47-0.46-1.16-0.69-2.05-0.69c-0.79,0-1.42,0.2-1.88,0.59
				c-0.46,0.4-0.69,0.88-0.69,1.46c0,0.57,0.24,1.03,0.72,1.38c0.48,0.36,1.45,0.67,2.92,0.96c2.25,0.45,3.92,1.12,5.03,1.99
				c1.1,0.88,1.65,2.08,1.65,3.62c0,1.65-0.71,3-2.12,4.05c-1.41,1.05-3.28,1.58-5.59,1.58c-2.44,0-4.37-0.62-5.79-1.86
				s-2.09-2.65-2.03-4.23l0.03-0.1h4.53c0.03,0.98,0.36,1.7,0.97,2.14c0.61,0.44,1.41,0.66,2.39,0.66c0.92,0,1.61-0.18,2.09-0.55
				S370.19,296.18,370.19,295.54z"/>
			<path class="st0" d="M108.81,331l0.2,1.02h0.1l3.51-11.66h5.32l-7.44,21.09c-0.52,1.31-1.23,2.42-2.12,3.31
				c-0.89,0.9-2.23,1.35-4.02,1.35c-0.42,0-0.81-0.03-1.16-0.1c-0.36-0.07-0.79-0.16-1.3-0.29l0.58-3.61
				c0.15,0.02,0.31,0.04,0.47,0.07c0.17,0.02,0.32,0.03,0.46,0.03c0.81,0,1.44-0.2,1.88-0.6c0.44-0.4,0.78-0.9,1.02-1.5l0.58-1.42
				l-6.51-18.32h5.32L108.81,331z"/>
			<path class="st0" d="M133.17,320.36l0.2,2.42c0.59-0.88,1.33-1.56,2.21-2.04c0.89-0.48,1.91-0.72,3.08-0.72
				c1.18,0,2.18,0.26,3.02,0.78c0.84,0.52,1.47,1.31,1.9,2.36c0.56-0.98,1.3-1.75,2.2-2.31c0.9-0.55,1.97-0.83,3.19-0.83
				c1.81,0,3.23,0.64,4.28,1.92c1.04,1.28,1.57,3.24,1.57,5.87v10.88h-4.95v-10.9c0-1.47-0.23-2.49-0.68-3.07s-1.12-0.86-2.02-0.86
				c-0.7,0-1.31,0.16-1.82,0.47c-0.51,0.31-0.92,0.74-1.23,1.3c0,0.21,0.01,0.4,0.02,0.55c0.01,0.15,0.02,0.31,0.02,0.47v12.05
				h-4.93v-10.9c0-1.43-0.23-2.45-0.68-3.04c-0.45-0.59-1.13-0.89-2.03-0.89c-0.67,0-1.25,0.13-1.75,0.38
				c-0.5,0.25-0.92,0.61-1.25,1.08v13.37h-4.93v-18.34H133.17z"/>
			<path class="st0" d="M169.85,335.98c-0.56,0.98-1.28,1.74-2.15,2.27s-1.88,0.8-3.03,0.8c-1.93,0-3.44-0.66-4.53-1.97
				c-1.09-1.31-1.64-3.34-1.64-6.1v-10.63h4.93v10.66c0,1.6,0.22,2.7,0.65,3.3c0.43,0.59,1.11,0.89,2.03,0.89
				c0.79,0,1.47-0.13,2.03-0.38c0.57-0.25,1.03-0.63,1.39-1.13v-13.34h4.95v18.34h-4.1L169.85,335.98z"/>
			<path class="st0" d="M182.73,320.36l0.22,2.63c0.61-0.94,1.36-1.67,2.25-2.19c0.89-0.52,1.89-0.78,3-0.78
				c1.85,0,3.3,0.6,4.34,1.79s1.56,3.08,1.56,5.65v11.24h-4.97v-11.22c0-1.31-0.23-2.24-0.69-2.79s-1.14-0.82-2.06-0.82
				c-0.73,0-1.38,0.14-1.94,0.42c-0.56,0.28-1.02,0.66-1.38,1.14v13.27h-4.95v-18.34H182.73z"/>
			<path class="st0" d="M203.01,315.97h-4.95v-3.71h4.95V315.97z M203.01,338.7h-4.95v-18.34h4.95V338.7z"/>
			<path class="st0" d="M214.74,335.26c0.86,0,1.54-0.26,2.05-0.77c0.51-0.51,0.76-1.2,0.76-2.06h4.51l0.03,0.1
				c0.04,1.85-0.64,3.4-2.07,4.65s-3.19,1.87-5.29,1.87c-2.71,0-4.81-0.87-6.29-2.6c-1.48-1.73-2.22-3.95-2.22-6.65v-0.51
				c0-2.69,0.74-4.91,2.21-6.65c1.48-1.75,3.56-2.62,6.26-2.62c2.24,0,4.04,0.64,5.41,1.93c1.37,1.29,2.03,2.98,1.98,5.08l-0.03,0.1
				h-4.51c0-0.95-0.25-1.74-0.75-2.36c-0.5-0.63-1.2-0.94-2.09-0.94c-1.28,0-2.18,0.51-2.72,1.53c-0.54,1.02-0.8,2.33-0.8,3.92v0.51
				c0,1.63,0.27,2.94,0.8,3.95S213.44,335.26,214.74,335.26z"/>
			<path class="st0" d="M230.18,315.97h-4.95v-3.71h4.95V315.97z M230.18,338.7h-4.95v-18.34h4.95V338.7z"/>
			<path class="st0" d="M250.79,330.03c0,2.71-0.63,4.89-1.88,6.54c-1.25,1.65-3.01,2.48-5.25,2.48c-0.96,0-1.81-0.18-2.56-0.53
				c-0.75-0.36-1.38-0.88-1.92-1.57v8.8h-4.93v-25.39h4.46l0.29,2.17c0.54-0.8,1.2-1.42,1.96-1.86c0.76-0.43,1.65-0.65,2.67-0.65
				c2.27,0,4.03,0.89,5.29,2.66c1.25,1.77,1.88,4.11,1.88,7V330.03z M245.84,329.68c0-1.73-0.29-3.13-0.86-4.2
				c-0.58-1.07-1.46-1.61-2.64-1.61c-0.75,0-1.38,0.15-1.91,0.46c-0.53,0.3-0.94,0.74-1.25,1.3v8.04c0.31,0.52,0.72,0.92,1.25,1.19
				s1.17,0.41,1.94,0.41c1.2,0,2.08-0.47,2.64-1.41s0.84-2.21,0.84-3.81V329.68z"/>
			<path class="st0" d="M259.05,315.97h-4.95v-3.71h4.95V315.97z M259.05,338.7h-4.95v-18.34h4.95V338.7z"/>
			<path class="st0" d="M262.35,329.36c0-2.73,0.76-4.98,2.29-6.72c1.53-1.75,3.64-2.62,6.34-2.62c2.71,0,4.84,0.87,6.37,2.61
				c1.54,1.74,2.31,3.98,2.31,6.73v0.36c0,2.76-0.77,5-2.3,6.74c-1.53,1.74-3.65,2.6-6.35,2.6c-2.71,0-4.83-0.87-6.37-2.6
				c-1.53-1.73-2.3-3.98-2.3-6.74V329.36z M267.29,329.71c0,1.67,0.29,3.01,0.88,4.03c0.59,1.01,1.54,1.52,2.85,1.52
				c1.28,0,2.21-0.51,2.81-1.53c0.59-1.02,0.89-2.36,0.89-4.02v-0.36c0-1.63-0.3-2.96-0.9-3.98s-1.54-1.54-2.83-1.54
				c-1.28,0-2.21,0.52-2.81,1.55c-0.59,1.03-0.89,2.36-0.89,3.97V329.71z"/>
			<path class="st0" d="M292.63,333.61c0-0.54-0.26-1.01-0.79-1.4s-1.5-0.73-2.92-1.03c-2.15-0.43-3.78-1.08-4.89-1.95
				c-1.11-0.87-1.67-2.05-1.67-3.54c0-1.57,0.67-2.91,2-4.02c1.33-1.11,3.11-1.66,5.32-1.66c2.32,0,4.17,0.55,5.57,1.66
				s2.07,2.49,2.01,4.14l-0.03,0.1h-4.78c0-0.73-0.24-1.33-0.71-1.8c-0.47-0.46-1.16-0.69-2.05-0.69c-0.79,0-1.42,0.2-1.88,0.59
				c-0.46,0.4-0.69,0.88-0.69,1.46c0,0.57,0.24,1.03,0.72,1.38c0.48,0.36,1.45,0.67,2.92,0.96c2.25,0.45,3.92,1.12,5.03,1.99
				c1.1,0.88,1.65,2.08,1.65,3.62c0,1.65-0.71,3-2.12,4.05c-1.41,1.05-3.28,1.58-5.59,1.58c-2.44,0-4.37-0.62-5.79-1.86
				s-2.09-2.65-2.03-4.23l0.03-0.1h4.53c0.03,0.98,0.36,1.7,0.97,2.14c0.61,0.44,1.41,0.66,2.39,0.66c0.92,0,1.61-0.18,2.09-0.55
				S292.63,334.24,292.63,333.61z"/>
		</g>
	</g>
	<g>
		<g>
			<path class="st1" d="M91.89,439l5.47-53.11h55.52v17.05H115.2l-2.41,19.72c1.78-1.26,4.05-2.28,6.8-3.06
				c2.75-0.78,5.76-1.21,9.01-1.3c8.81-0.17,15.59,2.53,20.34,8.1s7.13,13.48,7.13,23.72c0,9.16-2.65,16.76-7.94,22.81
				c-5.29,6.05-13.63,9.08-24.99,9.08c-9.03,0-16.87-2.38-23.53-7.13c-6.66-4.75-9.86-11.03-9.6-18.84l0.07-0.39l21.54-1.3
				c0,3.34,1.05,5.97,3.16,7.88c2.1,1.91,4.89,2.86,8.36,2.86c4.08,0,6.92-1.24,8.53-3.71c1.6-2.47,2.41-6.18,2.41-11.13
				c0-5.21-0.93-9.31-2.8-12.3c-1.87-2.99-4.82-4.49-8.85-4.49c-2.91,0-5.26,0.63-7.06,1.89c-1.8,1.26-3.05,2.84-3.74,4.75
				L91.89,439z"/>
			<path class="st1" d="M169.09,439l5.47-53.11h55.52v17.05h-37.69l-2.41,19.72c1.78-1.26,4.05-2.28,6.8-3.06
				c2.75-0.78,5.76-1.21,9.01-1.3c8.81-0.17,15.59,2.53,20.34,8.1s7.13,13.48,7.13,23.72c0,9.16-2.65,16.76-7.94,22.81
				c-5.29,6.05-13.63,9.08-24.99,9.08c-9.03,0-16.87-2.38-23.53-7.13c-6.66-4.75-9.86-11.03-9.6-18.84l0.07-0.39l21.54-1.3
				c0,3.34,1.05,5.97,3.16,7.88c2.1,1.91,4.89,2.86,8.36,2.86c4.08,0,6.92-1.24,8.53-3.71c1.6-2.47,2.41-6.18,2.41-11.13
				c0-5.21-0.93-9.31-2.8-12.3c-1.87-2.99-4.82-4.49-8.85-4.49c-2.91,0-5.26,0.63-7.06,1.89c-1.8,1.26-3.05,2.84-3.74,4.75
				L169.09,439z"/>
			<path class="st1" d="M310.01,445.83c0,11.33-3.02,20.19-9.05,26.59c-6.03,6.4-13.99,9.6-23.89,9.6c-9.98,0-17.99-3.2-24.02-9.6
				c-6.03-6.4-9.05-15.26-9.05-26.59v-25.12c0-11.33,2.99-20.19,8.98-26.59c5.99-6.4,13.97-9.6,23.95-9.6
				c9.89,0,17.88,3.21,23.95,9.63c6.07,6.42,9.11,15.27,9.11,26.56V445.83z M288.07,419.21c0-5.77-0.99-10.18-2.96-13.21
				c-1.97-3.04-4.7-4.56-8.17-4.56c-3.52,0-6.23,1.52-8.14,4.56c-1.91,3.04-2.86,7.44-2.86,13.21v27.99c0,5.9,0.96,10.36,2.9,13.38
				c1.93,3.02,4.67,4.52,8.23,4.52c3.47,0,6.17-1.51,8.1-4.52c1.93-3.02,2.9-7.47,2.9-13.38V419.21z"/>
		</g>
	</g>
	<g>
		<circle class="st2" cx="200" cy="122.74" r="104.77"/>
		<g>
			<path class="st3" d="M254.83,160.41c1.49,0,2.7,1.21,2.7,2.7c0,1.49-1.21,2.7-2.7,2.7c-1.49,0-2.7-1.21-2.7-2.7
				C252.13,161.62,253.34,160.41,254.83,160.41z"/>
			<path class="st3" d="M252.13,131.98c1.49,0,2.7,1.21,2.7,2.7c0,1.49-1.21,2.7-2.7,2.7c-1.49,0-2.7-1.21-2.7-2.7
				C249.43,133.19,250.64,131.98,252.13,131.98z"/>
			<path class="st3" d="M226.2,61.85c1.49,0,2.7,1.21,2.7,2.7c0,1.49-1.21,2.7-2.7,2.7c-1.49,0-2.7-1.21-2.7-2.7
				C223.5,63.06,224.71,61.85,226.2,61.85z"/>
			<path class="st3" d="M169.14,61.85c1.49,0,2.7,1.21,2.7,2.7c0,1.49-1.21,2.7-2.7,2.7c-1.49,0-2.7-1.21-2.7-2.7
				C166.44,63.06,167.65,61.85,169.14,61.85z"/>
			<path class="st3" d="M151.08,69.74c1.49,0,2.7,1.21,2.7,2.7c0,1.49-1.21,2.7-2.7,2.7c-1.49,0-2.7-1.21-2.7-2.7
				C148.39,70.94,149.59,69.74,151.08,69.74z"/>
			<path class="st3" d="M148.39,118.91c1.49,0,2.7,1.21,2.7,2.7s-1.21,2.7-2.7,2.7s-2.7-1.21-2.7-2.7S146.9,118.91,148.39,118.91z"
				/>
			<path class="st3" d="M241.76,173.48h-20.75c-1.45,0-2.7-1.24-2.7-2.7c0-1.45,1.24-2.7,2.7-2.7h18.26v-63.7l-9.54-11.83
				l-29.46-14.73l-29.46,14.73l-9.54,11.83v63.91h18.26c1.45,0,2.7,1.24,2.7,2.7c0,1.45-1.24,2.7-2.7,2.7h-20.75
				c-1.45,0-2.7-1.24-2.7-2.7v-67.43c0-0.62,0.21-1.24,0.62-1.66l10.37-13.07c0.21-0.21,0.62-0.62,0.83-0.62l31.12-15.56
				c0.83-0.42,1.66-0.42,2.28,0l31.12,15.56c0.42,0.21,0.62,0.42,0.83,0.62l10.37,13.07c0.41,0.42,0.62,1.04,0.62,1.66v67.43
				C244.45,172.24,243.21,173.48,241.76,173.48z"/>
			<path class="st3" d="M252.13,102.73c-0.83,0-1.45-0.41-2.07-1.04L237.4,85.92l-37.14-18.67l-37.14,18.67l-12.66,15.98
				c-0.83,1.04-2.49,1.24-3.73,0.42c-1.04-0.83-1.24-2.49-0.42-3.74l13.07-16.18c0.21-0.21,0.62-0.62,0.83-0.62l39.01-19.5
				c0.83-0.42,1.66-0.42,2.28,0l38.8,19.5c0.42,0.21,0.62,0.42,0.83,0.62l13.07,16.18c0.83,1.04,0.62,2.7-0.42,3.74
				C253.38,102.52,252.75,102.73,252.13,102.73z"/>
			<path class="st3" d="M221.01,173.48h-41.5c-1.45,0-2.7-1.24-2.7-2.7v-46.48c0-1.45,1.24-2.7,2.7-2.7h41.5
				c1.45,0,2.7,1.24,2.7,2.7v46.69C223.7,172.24,222.46,173.48,221.01,173.48z M182.21,168.29h36.31v-41.5h-36.31V168.29z"/>
			<path class="st3" d="M221.01,173.48c-0.62,0-1.45-0.21-1.87-0.83l-41.5-46.69c-1.04-1.04-0.83-2.7,0.21-3.73
				c1.04-1.04,2.7-0.83,3.73,0.21l41.5,46.68c1.04,1.04,0.83,2.7-0.21,3.74C222.25,173.27,221.63,173.48,221.01,173.48z"/>
			<path class="st3" d="M179.51,173.48c-0.62,0-1.24-0.21-1.66-0.62c-1.04-1.04-1.25-2.49-0.21-3.74l41.5-46.68
				c1.04-1.04,2.49-1.24,3.73-0.21c1.04,1.04,1.24,2.49,0.21,3.73l-41.5,46.69C180.96,173.27,180.13,173.48,179.51,173.48z"/>
			<path class="st3" d="M200.26,111.23c-7.05,0-13.07-5.81-13.07-13.07c0-7.26,6.02-12.86,13.07-12.86s13.07,5.81,13.07,13.07
				C213.33,105.63,207.31,111.23,200.26,111.23z M200.26,90.49c-4.36,0-7.88,3.53-7.88,7.89c0,4.36,3.53,7.68,7.88,7.68
				c4.36,0,7.89-3.53,7.89-7.89C208.14,93.81,204.62,90.49,200.26,90.49z"/>
			<path class="st3" d="M241.76,163.11h-20.75c-1.45,0-2.7-1.24-2.7-2.7c0-1.45,1.24-2.7,2.7-2.7h20.75c1.45,0,2.7,1.24,2.7,2.7
				C244.45,161.86,243.21,163.11,241.76,163.11z"/>
			<path class="st3" d="M179.51,163.11h-20.75c-1.45,0-2.7-1.24-2.7-2.7c0-1.45,1.24-2.7,2.7-2.7h20.75c1.45,0,2.7,1.24,2.7,2.7
				C182.21,161.86,180.96,163.11,179.51,163.11z"/>
			<path class="st3" d="M249.64,77.62c-4.36,0-7.88-3.53-7.88-7.88c0-4.36,3.53-7.89,7.88-7.89c4.36,0,7.89,3.53,7.89,7.89
				C257.53,74.09,253.79,77.62,249.64,77.62z M249.64,67.25c-1.45,0-2.7,1.24-2.7,2.7c0,1.45,1.25,2.7,2.7,2.7
				c1.45,0,2.7-1.25,2.7-2.7C252.13,68.28,250.89,67.25,249.64,67.25z"/>
			<path class="st3" d="M147.14,160.62c-3.53,0-6.43-2.9-6.43-6.43s2.9-6.43,6.43-6.43c3.53,0,6.43,2.9,6.43,6.43
				C153.57,157.51,150.67,160.62,147.14,160.62z M147.14,152.73c-0.62,0-1.24,0.62-1.24,1.24c0,0.62,0.62,1.25,1.24,1.25
				c0.62,0,1.24-0.62,1.24-1.25C148.39,153.35,147.76,152.73,147.14,152.73z"/>
		</g>
	</g>
	<rect x="15.89" y="356.62" class="st1" width="368.22" height="14.35"/>
</g>
</svg>
