<?xml version="1.0" encoding="utf-8"?>
<!-- Generator: Adobe Illustrator 27.0.1, SVG Export Plug-In . SVG Version: 6.00 Build 0)  -->
<svg version="1.1" id="Capa_1" xmlns="http://www.w3.org/2000/svg" xmlns:xlink="http://www.w3.org/1999/xlink" x="0px" y="0px"
	 viewBox="0 0 1920 1202" style="enable-background:new 0 0 1920 1202;" xml:space="preserve">
<style type="text/css">
	.st0{fill:url(#SVGID_1_);}
	.st1{clip-path:url(#SVGID_00000080207668965863537810000011566343772576642734_);}
	.st2{fill:url(#SVGID_00000076578320811477930050000010923618624168554120_);}
	.st3{fill:url(#SVGID_00000165192847318851307060000004113465784483430574_);}
	.st4{fill:url(#SVGID_00000124163401442555138140000004099124629307174287_);}
	
		.st5{clip-path:url(#SVGID_00000080207668965863537810000011566343772576642734_);fill:url(#SVGID_00000101078841864988891330000014766421090894752410_);}
	
		.st6{clip-path:url(#SVGID_00000080207668965863537810000011566343772576642734_);fill:url(#SVGID_00000138530908431282157210000017080958635914927498_);}
	
		.st7{clip-path:url(#SVGID_00000080207668965863537810000011566343772576642734_);fill:url(#SVGID_00000121249264564066902760000016005758599368347557_);}
	.st8{clip-path:url(#SVGID_00000080207668965863537810000011566343772576642734_);fill:none;}
</style>
<linearGradient id="SVGID_1_" gradientUnits="userSpaceOnUse" x1="960" y1="696.8089" x2="960" y2="1046.8783">
	<stop  offset="0.3562" style="stop-color:#D9D6A8"/>
	<stop  offset="1" style="stop-color:#FFFFFF"/>
</linearGradient>
<polygon class="st0" points="1920,1203 0,1203 0,510.09 289,595.53 1920,595.53 "/>
<g>
	<defs>
		<path id="SVGID_00000095303935224899933850000011012713935175109761_" d="M0-12.11v546.75c0,0,156.21,104.96,589.53,89.6
			c165.83-0.96,713.68-6.25,885.16,53.77c133.71,39.38,348.31,114.58,444.92,216.92c-0.24-179.39,0.38-554.57,0.38-554.57
			s-288.58,182.63-541.78,218.62c-96.78,11.48-361.24,51.46-583.6,9.16C661.81,530.56,165.33,407.97,0-12.11z"/>
	</defs>
	<clipPath id="SVGID_00000067237854515481875600000003399714184702523069_">
		<use xlink:href="#SVGID_00000095303935224899933850000011012713935175109761_"  style="overflow:visible;"/>
	</clipPath>
	<g style="clip-path:url(#SVGID_00000067237854515481875600000003399714184702523069_);">
		
			<linearGradient id="SVGID_00000132065534295803443460000009013637891702909057_" gradientUnits="userSpaceOnUse" x1="-6800.0464" y1="903.221" x2="-6237.9077" y2="903.221" gradientTransform="matrix(-1 0 0 1 -4896.6338 0)">
			<stop  offset="0" style="stop-color:#101F2D"/>
			<stop  offset="1" style="stop-color:#29384D"/>
		</linearGradient>
		<path style="fill:url(#SVGID_00000132065534295803443460000009013637891702909057_);" d="M1928.98,340.35
			C1230.76,793.85,170.76,591.64-25.25,8.69v1789.06h1954.23V340.35z"/>
		
			<linearGradient id="SVGID_00000023243035591171626320000000901812344391987352_" gradientUnits="userSpaceOnUse" x1="-6686.3882" y1="903.221" x2="-6124.2495" y2="903.221" gradientTransform="matrix(-1 0 0 1 -4896.6338 0)">
			<stop  offset="0" style="stop-color:#29384D"/>
			<stop  offset="1" style="stop-color:#101F2D"/>
		</linearGradient>
		<path style="fill:url(#SVGID_00000023243035591171626320000000901812344391987352_);" d="M1928.98,457.22
			C1124.63,802.27,183.2,608.13-25.25,8.69v1789.06h1954.23V457.22z"/>
		
			<linearGradient id="SVGID_00000169546194077427223040000011372421778573031072_" gradientUnits="userSpaceOnUse" x1="-6825.6138" y1="903.221" x2="-4871.3813" y2="903.221" gradientTransform="matrix(-1 0 0 1 -4896.6338 0)">
			<stop  offset="0" style="stop-color:#29384D"/>
			<stop  offset="1" style="stop-color:#101F2D"/>
		</linearGradient>
		<path style="fill:url(#SVGID_00000169546194077427223040000011372421778573031072_);" d="M1928.98,562.02
			C1128.78,872.4,192.65,622.38-25.25,8.69v1789.06h1954.23V562.02z"/>
	</g>
	
		<linearGradient id="SVGID_00000110453102015499178200000003050629738375253438_" gradientUnits="userSpaceOnUse" x1="-5903.5615" y1="845.9697" x2="-4874.1411" y2="845.9697" gradientTransform="matrix(-1 0 0 1 -4896.6338 0)">
		<stop  offset="0" style="stop-color:#BDBC80"/>
		<stop  offset="1" style="stop-color:#FFE0C3"/>
	</linearGradient>
	
		<path style="clip-path:url(#SVGID_00000067237854515481875600000003399714184702523069_);fill:url(#SVGID_00000110453102015499178200000003050629738375253438_);" d="
		M1006.93,607.9C508.58,551.37,77.66,249.01-22.49-48.56V1740.5h1029.42V607.9z"/>
	
		<linearGradient id="SVGID_00000002369784016203738830000013108454710971561381_" gradientUnits="userSpaceOnUse" x1="-6833.8936" y1="1026.9344" x2="-4879.6611" y2="1026.9344" gradientTransform="matrix(-1 0 0 1 -4896.6338 0)">
		<stop  offset="0" style="stop-color:#808033"/>
		<stop  offset="1" style="stop-color:#BDBC80"/>
	</linearGradient>
	
		<path style="clip-path:url(#SVGID_00000067237854515481875600000003399714184702523069_);fill:url(#SVGID_00000002369784016203738830000013108454710971561381_);" d="
		M1937.26,938.65C1341.57,411.16,300.31,702.19-16.97,327.33v1399.22h1954.23V938.65z"/>
	
		<linearGradient id="SVGID_00000103987784990059060300000006123528698017328294_" gradientUnits="userSpaceOnUse" x1="-6835.8057" y1="1047.9307" x2="-4881.5732" y2="1047.9307" gradientTransform="matrix(-1 0 0 1 -4896.6338 0)">
		<stop  offset="0" style="stop-color:#535327"/>
		<stop  offset="1" style="stop-color:#808033"/>
	</linearGradient>
	
		<path style="clip-path:url(#SVGID_00000067237854515481875600000003399714184702523069_);fill:url(#SVGID_00000103987784990059060300000006123528698017328294_);" d="
		M1939.17,907.25C1343.49,379.76,408.77,753.8-15.06,400.72v1294.42h1954.23V907.25z"/>
	
		<rect x="56.46" y="-517.99" transform="matrix(-1 -1.224647e-16 1.224647e-16 -1 1971.9091 1179.6255)" style="clip-path:url(#SVGID_00000067237854515481875600000003399714184702523069_);fill:none;" width="1858.99" height="2215.61"/>
</g>
</svg>
