<?xml version="1.0" encoding="utf-8"?>
<!-- Generator: Adobe Illustrator 27.0.1, SVG Export Plug-In . SVG Version: 6.00 Build 0)  -->
<svg version="1.1" id="Capa_1" xmlns="http://www.w3.org/2000/svg" xmlns:xlink="http://www.w3.org/1999/xlink" x="0px" y="0px"
	 viewBox="0 0 1080 860" style="enable-background:new 0 0 1080 860;" xml:space="preserve">
<style type="text/css">
	.st0{fill:#D9D6A8;}
	.st1{fill:#77800D;}
	.st2{fill:#FFE927;}
	.st3{font-family:'Roboto-Medium';}
	.st4{font-size:22px;}
	.st5{fill:#BFBD00;}
	.st6{font-family:'Roboto-Black';}
	.st7{font-size:30px;}
	.st8{fill:none;}
	.st9{fill:#E6E1B8;}
	.st10{font-family:'Roboto-Regular';}
	.st11{font-size:17px;}
	.st12{font-family:'Roboto-Bold';}
	.st13{fill:none;stroke:#E6E1B8;stroke-width:3;stroke-linecap:round;stroke-miterlimit:10;}
	.st14{fill:none;stroke:#E6E1B8;stroke-width:3;stroke-linecap:round;stroke-miterlimit:10;stroke-dasharray:0,6.3988;}
	.st15{fill-rule:evenodd;clip-rule:evenodd;fill:#D9D6A8;}
</style>
<circle class="st0" cx="165.09" cy="152.52" r="89.08"/>
<ellipse transform="matrix(0.0811 -0.9967 0.9967 0.0811 -2.4644 304.6135)" class="st1" cx="163.97" cy="153.64" rx="66.08" ry="66.08"/>
<g>
	<path class="st0" d="M190.05,143.7c0-14.37-11.69-26.06-26.06-26.06c-14.37,0-26.06,11.69-26.06,26.06
		c0,9.8,5.53,18.73,14.21,23.18v7.62h-4.74v4.74h4.74v9.79h23.69v-9.79h4.74v-4.74h-4.74v-7.62
		C184.52,162.43,190.05,153.49,190.05,143.7z M171.1,184.28h-14.21v-5.05h14.21V184.28z M161.67,148.9
		c-0.32-1.67,1.12-3.11,2.79-2.79c0.93,0.18,1.68,0.93,1.86,1.86c0.32,1.67-1.12,3.11-2.79,2.79
		C162.6,150.58,161.85,149.82,161.67,148.9z M166.36,174.49v-19.36c2.83-1,4.84-3.75,4.73-6.94c-0.12-3.69-3.2-6.76-6.89-6.87
		c-4.01-0.12-7.32,3.11-7.32,7.1c0,3.09,1.98,5.72,4.74,6.7v19.36h-4.74v-10.66l-1.42-0.62c-7.77-3.41-12.8-11.07-12.8-19.51
		c0-11.76,9.56-21.32,21.32-21.32c11.76,0,21.32,9.56,21.32,21.32c0,8.44-5.02,16.1-12.8,19.51l-1.42,0.62v10.66H166.36z"/>
	<path class="st0" d="M158.53,193.76h10.93c0.91,0,1.64,0.73,1.64,1.64v1.46c0,0.91-0.73,1.64-1.64,1.64h-10.93
		c-0.91,0-1.64-0.73-1.64-1.64v-1.46C156.89,194.5,157.62,193.76,158.53,193.76z"/>
	<path class="st0" d="M147.68,174.39h32.63c0.91,0,1.64,0.73,1.64,1.64v1.46c0,0.91-0.73,1.64-1.64,1.64h-32.63
		c-0.91,0-1.64-0.73-1.64-1.64v-1.46C146.04,175.12,146.77,174.39,147.68,174.39z"/>
	<path class="st0" d="M181.59,110.29c0.87,0,1.57,0.7,1.57,1.57s-0.7,1.57-1.57,1.57s-1.57-0.7-1.57-1.57
		S180.72,110.29,181.59,110.29z"/>
	<path class="st0" d="M164.18,106.54c0.87,0,1.57,0.7,1.57,1.57s-0.7,1.57-1.57,1.57s-1.57-0.7-1.57-1.57
		S163.32,106.54,164.18,106.54z"/>
	<path class="st0" d="M147.14,111.19c0.87,0,1.57,0.7,1.57,1.57s-0.7,1.57-1.57,1.57s-1.57-0.7-1.57-1.57
		S146.27,111.19,147.14,111.19z"/>
	<path class="st0" d="M154.75,158.82c-0.24,0-0.48-0.12-0.72-0.24c-2.18-1.21-3.99-2.9-5.44-4.95c-1.21-1.69-2.05-3.63-2.54-5.8
		c-0.12-0.85,0.36-1.57,1.21-1.81c0.85-0.12,1.57,0.36,1.81,1.21c0.36,1.69,1.09,3.26,2.05,4.71c1.09,1.69,2.66,3.02,4.47,3.99
		c0.72,0.36,0.97,1.33,0.6,2.05C155.72,158.58,155.23,158.82,154.75,158.82z"/>
	<path class="st0" d="M195.03,130.28c-2.05,0-3.75-1.69-3.75-3.75c0-2.05,1.69-3.75,3.75-3.75c2.05,0,3.75,1.69,3.75,3.75
		C198.77,128.58,197.08,130.28,195.03,130.28z M195.03,125.81c-0.36,0-0.73,0.36-0.73,0.72c0,0.36,0.36,0.73,0.73,0.73
		c0.36,0,0.72-0.36,0.72-0.73C195.75,126.17,195.51,125.81,195.03,125.81z"/>
	<path class="st0" d="M136.14,128.73c-2.05,0-3.75-1.69-3.75-3.75c0-2.05,1.69-3.75,3.75-3.75c2.05,0,3.75,1.69,3.75,3.75
		C139.89,127.04,138.19,128.73,136.14,128.73z M136.14,124.26c-0.36,0-0.73,0.36-0.73,0.72c0,0.36,0.36,0.73,0.73,0.73
		c0.36,0,0.72-0.36,0.72-0.73C136.87,124.62,136.62,124.26,136.14,124.26z"/>
	<path class="st0" d="M193.48,160.5c-2.05,0-3.75-1.69-3.75-3.75c0-2.05,1.69-3.75,3.75-3.75c2.05,0,3.75,1.69,3.75,3.75
		C197.22,158.8,195.53,160.5,193.48,160.5z M193.48,156.02c-0.36,0-0.73,0.36-0.73,0.72c0,0.36,0.36,0.73,0.73,0.73
		c0.36,0,0.72-0.36,0.72-0.73C194.2,156.39,193.96,156.02,193.48,156.02z"/>
	<path class="st0" d="M135.37,164.37c-2.05,0-3.75-1.69-3.75-3.75c0-2.05,1.69-3.75,3.75-3.75c2.05,0,3.75,1.69,3.75,3.75
		C139.11,162.68,137.42,164.37,135.37,164.37z M135.37,159.9c-0.36,0-0.73,0.36-0.73,0.72c0,0.36,0.36,0.73,0.73,0.73
		c0.36,0,0.72-0.36,0.72-0.73C136.09,160.26,135.85,159.9,135.37,159.9z"/>
	<path class="st0" d="M201.51,143.53c-2.54,0-4.59-2.05-4.59-4.59c0-2.54,2.05-4.59,4.59-4.59c2.54,0,4.59,2.05,4.59,4.59
		C206.1,141.47,203.93,143.53,201.51,143.53z M201.51,137.49c-0.85,0-1.57,0.72-1.57,1.57c0,0.85,0.72,1.57,1.57,1.57
		c0.85,0,1.57-0.73,1.57-1.57C202.96,138.21,202.24,137.49,201.51,137.49z"/>
	<path class="st0" d="M128.68,146.63c-2.54,0-4.59-2.05-4.59-4.59c0-2.54,2.05-4.59,4.59-4.59c2.54,0,4.59,2.05,4.59,4.59
		C133.27,144.57,131.09,146.63,128.68,146.63z M128.68,140.58c-0.85,0-1.57,0.72-1.57,1.57s0.72,1.57,1.57,1.57
		c0.85,0,1.57-0.73,1.57-1.57C130.13,141.31,129.4,140.58,128.68,140.58z"/>
</g>
<g>
	<text transform="matrix(1 0 0 1 818.3984 188.2604)"><tspan x="0" y="0" class="st2 st3 st4">Consolidación de </tspan><tspan x="-1.49" y="25" class="st2 st3 st4">Semillas RBC sas.</tspan></text>
</g>
<g>
	<text transform="matrix(1 0 0 1 823.4927 156.1783)" class="st5 st6 st7">06-12-2010</text>
</g>
<g>
	<rect x="765.34" y="227.98" class="st8" width="280.93" height="156.3"/>
	<text transform="matrix(0.9856 0 0 1 799.2344 240.9313)"><tspan x="0" y="0" class="st9 st10 st11">Se obtienen los registros de:</tspan><tspan x="-26.73" y="21.18" class="st9 st12 st11">Productor, Importador y exportador</tspan><tspan x="242.98" y="21.18" class="st9 st10 st11"> </tspan><tspan x="1.8" y="42.37" class="st9 st10 st11">de semillas necesarios para </tspan><tspan x="-23.11" y="63.55" class="st9 st10 st11">desarrollar la actividad económica </tspan><tspan x="-31.87" y="84.74" class="st9 st10 st11">bajo las normas establecidas por los</tspan><tspan x="19.99" y="105.92" class="st9 st10 st11">organismos de control.</tspan></text>
</g>
<g>
	<text transform="matrix(1 0 0 1 71.2004 640.2604)" class="st2 st3 st4">Nuestra expansión</text>
</g>
<g>
	<text transform="matrix(1 0 0 1 83.572 614.1783)" class="st5 st6 st7">05-01-2021</text>
</g>
<g>
	<rect x="28.06" y="655.74" class="st8" width="271.82" height="188.86"/>
	<text transform="matrix(0.9856 0 0 1 49.6234 668.6881)"><tspan x="0" y="0" class="st9 st12 st11">Se abre mercado en los países </tspan><tspan x="1.97" y="21.18" class="st9 st12 st11">asiáticos exportando semillas</tspan><tspan x="-19.85" y="42.37" class="st9 st12 st11">frutales. </tspan><tspan x="48.08" y="42.37" class="st9 st10 st11">También se crean alianzas</tspan><tspan x="-21.05" y="63.55" class="st9 st10 st11">estratégicas con países de la región </tspan><tspan x="-13.78" y="84.74" class="st9 st10 st11">como Costa Rica y Honduras para </tspan><tspan x="-11.13" y="105.92" class="st9 st10 st11">importar semillas de pino caribea</tspan><tspan x="90.92" y="127.11" class="st9 st10 st11">y teca.</tspan></text>
</g>
<g>
	<text transform="matrix(1 0 0 1 749.3464 434.5493)" class="st2 st3 st4">¡Somos distribuidores!</text>
</g>
<g>
	<text transform="matrix(1 0 0 1 780.4036 409.6206)" class="st5 st6 st7">05-03-2011</text>
</g>
<g>
	<rect x="708.58" y="444.57" class="st8" width="304.44" height="110.01"/>
	<text transform="matrix(0.9856 0 0 1 712.6664 457.5161)"><tspan x="0" y="0" class="st9 st10 st11">Se obtiene el </tspan><tspan x="101.94" y="0" class="st9 st12 st11">registro como distribuidor</tspan><tspan x="300.6" y="0" class="st9 st10 st11"> </tspan><tspan x="4.88" y="21.18" class="st9 st10 st11">completando los requsitos necesarios </tspan><tspan x="77.09" y="42.37" class="st9 st10 st11">para cumplir con la</tspan><tspan x="94.06" y="63.55" class="st9 st10 st11">normativa ICA.</tspan></text>
</g>
<g>
	<text transform="matrix(1 0 0 1 846.6594 668.9655)" class="st2 st3 st4">Nuestra Proyección</text>
</g>
<g>
	<text transform="matrix(1 0 0 1 861.2937 642.0367)" class="st5 st6 st7">06-06-2023</text>
</g>
<g>
	<rect x="804.87" y="681.98" class="st8" width="277.85" height="110.01"/>
	<text transform="matrix(0.9856 0 0 1 834.3635 694.9313)"><tspan x="0" y="0" class="st9 st10 st11">Consolidarnos en el mercado</tspan><tspan x="15.88" y="21.18" class="st9 st10 st11">nacional como lideres en</tspan><tspan x="2.83" y="42.37" class="st9 st10 st11">producción y distribución de</tspan><tspan x="10.57" y="63.55" class="st9 st10 st11">semillas y </tspan><tspan x="91.3" y="63.55" class="st9 st12 st11">ampliar nuestro</tspan><tspan x="23.2" y="84.74" class="st9 st12 st11">mercado internacional.</tspan></text>
</g>
<path class="st0" d="M827.14,540.95c0.74,2.26,2.59,3.12,3.23,5.43c0.57,2.05-1.49,4.39-1.01,6.48c0.48,2.09,3.48,3.92,3.86,6.02
	c0.34,1.88-2.31,3.47-2.06,5.35c0.26,1.88,3.42,4.06,3.59,5.93c0.16,1.78-3.03,2.71-2.95,4.48c0.11,2.28,3.47,5.39,3.44,7.63
	c-0.03,2.16-3.42,2.77-3.59,4.88c-0.17,2.11,2.87,5.71,2.56,7.74c-0.41,2.6-4.18,2.94-4.84,5.39c-0.51,1.91,2.16,5.97,1.49,7.77
	c-0.54,1.46-5.39,4.28-6.04,5.66c-1.61,3.4,0.49,5.1-2.06,7.77c-1.11,1.17-3.73-1.32-4.99-0.32c-1.61,1.3-1.9,6.03-3.69,7.04
	c-2.12,1.18-4.8-1.91-7.08-1.17c-1.79,0.57-3.15,5.08-4.98,5.35c-1.83,0.27-3.68,0.39-5.51,0.34c-5.11-0.14-9.63-1.45-6.99-7.18
	c0.2-0.43,0.69-0.87,1.31-1.31c3.48-2.52,5.78-5.74,8.55-8.93c7.67-1.59,12.79-4.12,20.5-1.9c-8.61-4.43-8.8-5.9-17.83-1.18
	c2.47-2.99,4.35-5.94,6.04-9c5.34-2.67,9.03-5.35,15.39-5.07c-7.29-1.77-8.36-2.91-13.36,1.15c2.14-4.33,4.56-8.74,6.17-13.3
	c3.44-2.32,5.2-3.84,10.21-4.43c-5.9-0.45-6.24-2.11-9.13,1.03c1.8-6.24,3.19-13.77,3.96-17.08c-2.72,4.95-4.88,9.35-6.74,13.37
	c-0.27-3.51-1.71-2.77-6.21-6.08c3.24,3.54,3.71,5.79,4.69,9.43c-1.88,4.19-3.49,7.99-5.2,11.61c0.76-5.83-0.82-6.3-5.9-11.5
	c3.58,5.47,3.04,10.1,3.52,16.29c-1.66,3.13-3.52,6.21-5.82,9.39c-0.75-9.41-2.69-9.38-10.64-14.37c5.27,4.95,6.53,10.4,8.69,16.95
	c-3.25,4.11-6.67,8.86-10.67,12.78c-1.47,1.43-2.96,2.89-4.47,4.33c-4.3,4.09-8.76,7.66-13.78,10.71l-0.62-3.9
	c1.03-0.66,2.06-1.34,3.05-2.05c3.61-2.58,7.69-5.87,9.54-10.03c0.53-1.2-3.11-4.15-4.21-6.33c-1.06-2.11,1.66-5.49,1-8.16
	c-0.6-2.42-4.64-4.09-4.56-7.05c0.07-2.65,4.29-6.13,5.15-9.27c0.64-2.34-0.7-5.76,0.5-8.39c2.58-3.89,5.97-3.13,8.85-5.67
	c2.24-1.97,2.38-5.9,4.7-7.39c2.06-1.32,7.8,2.01,9.85,0.87c2.05-1.15,0.41-6.78,2.38-7.96c1.76-1.05,5.77,0.52,7.42-0.72
	c1.66-1.24,0.96-5.29,2.45-6.85c1.52-1.59,4.88-1.93,6.18-4.01c1.27-2.04,0.49-5.8,1.52-8.45c1.32-3.41,2.41-7.38,3.22-12.08
	C826.3,533.79,826.19,538.05,827.14,540.95z"/>
<path class="st0" d="M720.12,554.33c1.55,0.73,2.92,0.2,4.44,1.02c1.35,0.72,1.55,2.96,2.87,3.75c1.32,0.79,3.77,0.13,5.05,0.98
	c1.15,0.76,0.66,2.93,1.77,3.73c1.11,0.8,3.82,0.23,4.88,1.07c1.01,0.8-0.09,2.93,0.87,3.77c1.24,1.08,4.53,0.87,5.68,2
	c1.11,1.09-0.26,3.16,0.76,4.3c1.01,1.14,4.4,1.34,5.31,2.51c1.15,1.5-0.55,3.64,0.41,5.2c0.74,1.21,4.18,1.84,4.79,3.09
	c0.49,1.01-0.45,4.94-0.05,5.96c0.98,2.53,2.9,2.28,3.03,4.93c0.06,1.16-2.54,1.29-2.64,2.44c-0.12,1.48,2.2,3.99,1.83,5.42
	c-0.43,1.69-3.38,1.55-4.13,3.11c-0.59,1.22,1.08,4.17,0.31,5.25c-0.77,1.09-1.62,2.11-2.56,3.04c-2.61,2.59-5.54,4.3-7.21,0.08
	c-0.13-0.32-0.11-0.8-0.03-1.34c0.42-3.07-0.12-5.87-0.4-8.89c2.98-4.79,4.21-8.72,9.2-11.63c-6.59,2.28-7.45,1.66-9.47,8.71
	c-0.33-2.77-0.94-5.22-1.69-7.62c1.26-4.11,1.7-7.37,5-10.54c-4.55,2.92-5.67,2.91-6.04,7.54c-1.19-3.27-2.29-6.72-3.87-9.83
	c0.5-2.94,0.58-4.62,2.76-7.52c-3.17,2.85-4.2,2.2-4,5.28c-2.36-4.04-5.59-8.51-6.94-10.55c1.23,3.88,2.45,7.19,3.62,10.16
	c-1.96-1.6-2.29-0.48-6.25,0.22c3.45,0.07,4.86,0.94,7.24,2.24c1.25,3.06,2.43,5.79,3.47,8.48c-2.66-3.29-3.69-2.7-8.93-2.64
	c4.63,0.85,6.78,3.43,10.24,6.26c0.81,2.42,1.49,4.92,2,7.7c-5.28-4.29-6.23-3.26-12.78-1.59c5.2-0.29,8.67,1.77,13.15,3.89
	c0.53,3.73,1.31,7.88,1.36,11.91c0.02,1.48,0.04,2.98,0.04,4.48c-0.01,4.27-0.36,8.37-1.26,12.51l-2.34-1.61
	c0.17-0.87,0.32-1.74,0.44-2.61c0.45-3.16,0.76-6.93-0.49-9.96c-0.36-0.87-3.71-0.44-5.4-0.95c-1.63-0.49-2.04-3.59-3.75-4.58
	c-1.56-0.89-4.44,0.38-5.94-1.13c-1.35-1.35-1.07-5.28-2.27-7.29c-0.9-1.5-3.35-2.5-4.13-4.43c-0.74-3.28,1.33-4.67,1.45-7.43
	c0.09-2.15-1.89-4.17-1.52-6.12c0.34-1.73,4.93-3.07,5.35-4.7c0.42-1.64-3.33-3.58-2.96-5.2c0.33-1.44,3.14-2.75,3.31-4.22
	c0.18-1.48-2.28-3.13-2.36-4.68c-0.08-1.58,1.42-3.51,0.98-5.22c-0.43-1.68-2.78-3.14-3.65-4.99c-1.12-2.38-2.65-4.92-4.7-7.68
	C715.97,551.21,718.14,553.39,720.12,554.33z"/>
<path class="st0" d="M3.61,167.03c1.37-1.06,1.51-2.55,2.95-3.55c1.27-0.89,3.38-0.05,4.7-0.89c1.32-0.84,1.84-3.35,3.19-4.13
	c1.21-0.69,2.95,0.74,4.18,0.1c1.23-0.64,1.95-3.35,3.2-3.92c1.19-0.55,2.61,1.42,3.8,0.93c1.54-0.63,2.86-3.7,4.4-4.23
	c1.49-0.51,2.74,1.68,4.24,1.28c1.49-0.4,3.22-3.37,4.69-3.65c1.89-0.36,3.04,2.16,4.89,2.01c1.44-0.12,3.57-2.94,4.98-2.92
	c1.14,0.01,4.26,2.66,5.37,2.77c2.73,0.27,3.38-1.59,5.84-0.49c1.07,0.48,0,2.89,1,3.51c1.28,0.79,4.61-0.17,5.74,0.81
	c1.33,1.17-0.14,3.77,0.92,5.15c0.83,1.09,4.26,0.93,4.89,2.12c0.64,1.19,1.17,2.43,1.58,3.7c1.15,3.54,1.36,6.98-3.22,6.56
	c-0.35-0.03-0.77-0.26-1.22-0.58c-2.58-1.78-5.36-2.57-8.23-3.69c-2.97-4.88-5.96-7.78-6.32-13.62c-0.94,7-1.9,7.5,3.55,12.54
	c-2.66-0.96-5.15-1.54-7.66-1.95c-3.14-3.01-5.89-4.9-7.25-9.34c0.57,5.45,0.04,6.46,4.06,8.9c-3.5-0.41-7.12-1-10.65-0.99
	c-2.43-1.79-3.91-2.64-5.54-5.93c1.13,4.17,0.08,4.8,2.95,6.03c-4.73,0.29-10.25,1.18-12.71,1.46c4.07,0.66,7.62,1.07,10.84,1.36
	c-2.34,1.04-1.48,1.85-2.66,5.76c1.64-3.09,3.07-3.97,5.33-5.53c3.34,0.27,6.34,0.45,9.26,0.73c-4.19,0.9-4.13,2.11-6.46,6.87
	c2.88-3.8,6.2-4.56,10.33-6.41c2.56,0.37,5.13,0.9,7.88,1.7c-6.29,2.81-5.79,4.14-7.27,10.83c2.11-4.83,5.55-7.03,9.52-10.12
	c3.62,1.22,7.72,2.41,11.39,4.21c1.34,0.66,2.71,1.32,4.07,2.01c3.86,1.96,7.41,4.14,10.73,6.85l-2.53,1.38
	c-0.71-0.55-1.43-1.09-2.16-1.59c-2.66-1.85-5.92-3.85-9.23-4.1c-0.95-0.07-2.09,3.15-3.32,4.45c-1.19,1.25-4.18,0.2-5.85,1.31
	c-1.52,1.01-1.68,4.19-3.73,4.86c-1.84,0.6-5.27-1.45-7.63-1.27c-1.77,0.13-3.79,1.89-5.89,1.71c-3.3-0.82-3.62-3.34-6.06-4.7
	c-1.9-1.06-4.64-0.19-6.23-1.42c-1.41-1.09-0.52-5.85-1.81-6.98c-1.29-1.13-4.76,1.38-6.05,0.31c-1.16-0.95-1.06-4.09-2.31-4.92
	c-1.26-0.83-3.87,0.64-5.31-0.01c-1.46-0.65-2.52-2.88-4.27-3.27c-1.71-0.38-4.11,1.08-6.18,1.02c-2.67-0.07-5.66,0.15-9.09,0.74
	C-1.1,169.36,1.86,168.4,3.61,167.03z"/>
<path class="st0" d="M45.91,264.09c-0.05-1.67-1.12-2.63-1.08-4.32c0.03-1.5,1.89-2.66,1.99-4.16c0.1-1.5-1.56-3.35-1.39-4.84
	c0.15-1.34,2.26-1.87,2.47-3.19c0.21-1.32-1.49-3.43-1.22-4.73c0.25-1.24,2.6-1.22,2.9-2.42c0.39-1.56-1.25-4.34-0.77-5.84
	c0.46-1.45,2.87-1.18,3.41-2.57c0.54-1.38-0.78-4.43-0.16-5.74c0.8-1.67,3.41-1.14,4.35-2.66c0.73-1.19-0.25-4.46,0.57-5.54
	c0.66-0.88,4.5-1.79,5.22-2.59c1.77-1.97,0.7-3.54,2.96-4.82c0.99-0.56,2.25,1.65,3.3,1.22c1.35-0.55,2.5-3.68,3.91-4
	c1.67-0.37,2.85,2.26,4.53,2.22c1.32-0.03,3.15-2.78,4.44-2.6c1.29,0.19,2.56,0.48,3.78,0.89c3.42,1.13,6.2,2.93,3.26,6.25
	c-0.22,0.25-0.64,0.45-1.15,0.62c-2.86,0.99-5.06,2.7-7.57,4.29c-5.49-0.48-9.46,0.19-14.2-2.87c4.91,4.73,4.74,5.76,11.78,4.4
	c-2.27,1.52-4.14,3.13-5.89,4.85c-4.14,0.72-7.17,1.78-11.4,0.3c4.56,2.67,5.04,3.66,9.24,1.93c-2.32,2.49-4.84,4.97-6.85,7.72
	c-2.79,0.87-4.28,1.54-7.78,0.92c3.89,1.5,3.78,2.68,6.37,1.15c-2.48,3.84-4.94,8.64-6.12,10.72c2.84-2.79,5.18-5.32,7.25-7.65
	c-0.53,2.42,0.59,2.21,2.96,5.36c-1.47-3.04-1.33-4.65-1.25-7.31c2.12-2.45,3.97-4.68,5.86-6.78c-1.69,3.77-0.72,4.42,1.65,8.95
	c-1.31-4.41-0.01-7.43,0.92-11.7c1.75-1.78,3.63-3.47,5.82-5.15c-1.4,6.5-0.09,6.87,4.27,11.84c-2.55-4.4-2.3-8.34-2.43-13.19
	c3.02-2.12,6.29-4.63,9.78-6.46c1.28-0.67,2.58-1.35,3.89-2.02c3.73-1.88,7.46-3.4,11.46-4.43l-0.37,2.75
	c-0.83,0.24-1.66,0.49-2.47,0.77c-2.95,1.01-6.37,2.4-8.46,4.83c-0.6,0.7,1.26,3.43,1.56,5.12c0.29,1.64-2.23,3.36-2.33,5.3
	c-0.09,1.76,2.3,3.7,1.65,5.68c-0.58,1.77-4.13,3.27-5.35,5.21c-0.91,1.45-0.69,4.03-2.04,5.56c-2.53,2.1-4.66,0.91-7.12,2.03
	c-1.91,0.88-2.8,3.5-4.66,4.03c-1.65,0.47-4.85-2.94-6.47-2.58c-1.61,0.36-1.65,4.49-3.22,4.88c-1.4,0.35-3.78-1.52-5.15-1.02
	c-1.37,0.5-1.72,3.37-3.04,4.13c-1.34,0.77-3.68,0.31-4.98,1.45c-1.27,1.12-1.51,3.81-2.73,5.39c-1.58,2.03-3.12,4.49-4.61,7.49
	C45.03,269.08,45.97,266.23,45.91,264.09z"/>
<g>
	<text transform="matrix(1 0 0 1 84.1029 353.2604)"><tspan x="0" y="0" class="st2 st3 st4">Constitución de </tspan><tspan x="-13.66" y="25" class="st2 st3 st4">Semillas RBC Ltda.</tspan></text>
</g>
<g>
	<text transform="matrix(1 0 0 1 81.589 326.1783)" class="st5 st6 st7">24-09-2008</text>
</g>
<g>
	<rect x="42.25" y="389.98" class="st8" width="243.44" height="94.62"/>
	<text transform="matrix(0.9856 0 0 1 60.4385 402.9313)"><tspan x="0" y="0" class="st9 st10 st11">Época en donde la empresa </tspan><tspan x="-14.85" y="21.18" class="st9 st12 st11">inicia su actividad comercial</tspan><tspan x="202.15" y="21.18" class="st9 st10 st11"> de </tspan><tspan x="-1.81" y="42.37" class="st9 st10 st11">manera legal después de 15 </tspan><tspan x="26.82" y="63.55" class="st9 st10 st11">años de experiencia.</tspan></text>
</g>
<g>
	<text transform="matrix(1 0 0 1 299.2966 78.9655)"><tspan x="0" y="0" class="st2 st3 st4">Legalización comercial</tspan><tspan x="9.59" y="26" class="st2 st3 st4">de Semillas RBC sas.</tspan></text>
</g>
<g>
	<text transform="matrix(1 0 0 1 330.4263 52.0367)" class="st5 st6 st7">06-10-2008</text>
</g>
<g>
	<rect x="282.39" y="118.31" class="st8" width="261.17" height="80.2"/>
	<text transform="matrix(0.9856 0 0 1 296.2747 131.2574)"><tspan x="0" y="0" class="st9 st12 st11">Adquisición del RUT,</tspan><tspan x="158.09" y="0" class="st9 st10 st11"> necesario </tspan><tspan x="12.1" y="20" class="st9 st10 st11">para desarrollar la actividad </tspan><tspan x="74.04" y="40" class="st9 st10 st11">económica.</tspan></text>
</g>
<g>
	<g>
		<line class="st13" x1="163.97" y1="266.5" x2="163.97" y2="266.5"/>
		<line class="st14" x1="163.97" y1="272.9" x2="163.97" y2="288.9"/>
		<line class="st13" x1="163.97" y1="292.1" x2="163.97" y2="292.1"/>
	</g>
</g>
<g>
	<g>
		<line class="st13" x1="412.97" y1="184.5" x2="412.97" y2="184.5"/>
		<line class="st14" x1="412.97" y1="190.9" x2="412.97" y2="206.9"/>
		<line class="st13" x1="412.97" y1="210.1" x2="412.97" y2="210.1"/>
	</g>
</g>
<g>
	<g>
		<line class="st13" x1="804.77" y1="190.3" x2="804.77" y2="190.3"/>
		<line class="st14" x1="798.37" y1="190.3" x2="782.37" y2="190.3"/>
		<line class="st13" x1="779.17" y1="190.3" x2="779.17" y2="190.3"/>
	</g>
</g>
<g>
	<g>
		<line class="st13" x1="701.77" y1="458.3" x2="701.77" y2="458.3"/>
		<line class="st14" x1="695.37" y1="458.3" x2="679.37" y2="458.3"/>
		<line class="st13" x1="676.17" y1="458.3" x2="676.17" y2="458.3"/>
	</g>
</g>
<g>
	<g>
		<line class="st13" x1="339.77" y1="708.3" x2="339.77" y2="708.3"/>
		<line class="st14" x1="333.37" y1="708.3" x2="317.37" y2="708.3"/>
		<line class="st13" x1="314.17" y1="708.3" x2="314.17" y2="708.3"/>
	</g>
</g>
<g>
	<g>
		<line class="st13" x1="829.77" y1="708.3" x2="829.77" y2="708.3"/>
		<line class="st14" x1="823.37" y1="708.3" x2="807.37" y2="708.3"/>
		<line class="st13" x1="804.17" y1="708.3" x2="804.17" y2="708.3"/>
	</g>
</g>
<path class="st0" d="M501.27,323.62c0.01-0.06,0.01-0.12,0.02-0.18c6.95-49.24-27.27-94.84-76.52-101.9c0,0-0.01,0-0.01,0
	c-39.68-6.53-65.13,15.78-64.67,15.44c0,0-41.21,17.04-84.61-25.54c-8.33-8.2-23.61-32.68-22.33-48.66
	c-4.81,12.44-12.49,37.64-39.62,65.04c11.8-4.43,41.31-8.97,58.69-0.69c10.73,5.31,54.02,24.91,51.69,63.45
	c0.13-0.43-0.39,2.28-0.84,4.99c-0.02,0.14-0.05,0.29-0.07,0.43c-0.12,0.71-0.23,1.41-0.32,2.04l0,0l0,0
	c-3.75,26.2,4.16,51.38,19.79,70.29c0.46,0.56,0.93,1.11,1.4,1.65c0.95,1.09,1.92,2.16,2.92,3.2c0.5,0.52,1,1.04,1.52,1.55
	c0.72,0.72,1.46,1.42,2.21,2.12c2.68,2.5,5.52,4.84,8.5,7.01c0.51,0.37,1.02,0.73,1.53,1.09c11.17,7.77,24.27,13.12,38.65,15.18
	c14.38,2.06,28.46,0.6,41.36-3.72c0.59-0.2,1.19-0.4,1.77-0.62c3.47-1.24,6.85-2.69,10.12-4.34c0.91-0.46,1.82-0.93,2.71-1.41
	c0.63-0.35,1.26-0.7,1.89-1.06c1.25-0.72,2.48-1.48,3.7-2.26c0.61-0.39,1.21-0.79,1.81-1.19
	C482.86,371.77,497.52,349.82,501.27,323.62L501.27,323.62L501.27,323.62z"/>
<ellipse transform="matrix(0.0811 -0.9967 0.9967 0.0811 69.8599 697.0613)" class="st1" cx="412.97" cy="310.64" rx="66.08" ry="66.08"/>
<g>
	<path class="st0" d="M445.56,306.36c0.88,0.01,1.58,0.73,1.58,1.6c-0.01,0.88-0.73,1.58-1.6,1.58s-1.58-0.73-1.58-1.6
		C443.96,307.06,444.68,306.35,445.56,306.36z"/>
	<path class="st0" d="M440.66,335.44c0.88,0.01,1.58,0.73,1.58,1.6c-0.01,0.88-0.73,1.58-1.6,1.58c-0.88-0.01-1.58-0.73-1.58-1.6
		C439.06,336.14,439.78,335.43,440.66,335.44z"/>
	<path class="st0" d="M427.44,278.67c0.88,0.01,1.58,0.73,1.58,1.6c-0.01,0.88-0.73,1.58-1.6,1.58c-0.88-0.01-1.58-0.73-1.58-1.6
		C425.84,279.37,426.56,278.66,427.44,278.67z"/>
	<path class="st0" d="M395.25,279.99c0.88,0.01,1.58,0.73,1.58,1.6c-0.01,0.88-0.73,1.58-1.6,1.58c-0.88-0.01-1.58-0.73-1.58-1.6
		C393.65,280.68,394.37,279.98,395.25,279.99z"/>
	<path class="st0" d="M388.84,313.58c0.88,0.01,1.58,0.73,1.58,1.6c-0.01,0.88-0.73,1.58-1.6,1.58s-1.58-0.73-1.58-1.6
		C387.24,314.28,387.96,313.57,388.84,313.58z"/>
	<path class="st0" d="M381.35,302.75c0.88,0.01,1.58,0.73,1.58,1.6c-0.01,0.88-0.73,1.58-1.6,1.58c-0.88-0.01-1.58-0.73-1.58-1.6
		C379.75,303.45,380.47,302.74,381.35,302.75z"/>
	<path class="st0" d="M396.17,343.5c-0.37,0-0.73-0.13-1.1-0.5l-6.79-6.91c-0.61-0.62-0.6-1.6,0.02-2.2c0.62-0.61,1.6-0.6,2.2,0.02
		l6.79,6.91c0.61,0.62,0.6,1.6-0.02,2.2C397.03,343.26,396.54,343.5,396.17,343.5z"/>
	<path class="st0" d="M392.34,347.26c-0.37,0-0.73-0.13-1.1-0.5l-12.13-12.34c-0.24-0.25-0.48-0.74-0.48-1.11
		c0-0.37,0.13-0.73,0.5-1.1l11.85-11.65c0.37-0.36,0.74-0.48,1.23-0.48l28.36,3.55c1.22,0.13,2.44,0.63,3.41,1.62
		c0.61,0.62,0.97,1.23,1.33,2.09l11.6-11.65c1.11-1.09,2.58-1.69,4.17-1.68c1.59,0.01,3.05,0.64,4.15,1.75
		c1.09,1.11,1.69,2.58,1.68,4.17c-0.01,1.59-0.64,3.05-1.75,4.15l-20.61,20.14c-0.25,0.24-0.74,0.48-1.11,0.48l-26.66-1.21
		l-3.33,3.28C393.08,347.14,392.71,347.26,392.34,347.26z M382.31,333.35l9.95,10.12l2.84-2.79c0.25-0.24,0.74-0.48,1.11-0.48
		l26.66,1.21l20.11-19.77c1.11-1.09,1.13-2.93,0.03-4.04c-0.49-0.49-1.22-0.87-2.07-0.87c-0.73-0.01-1.47,0.23-2.09,0.84
		l-13.95,14.32l-0.12,0.12c-0.99,1.83-2.96,2.79-5.04,2.77l-15.66-0.87c-0.86-0.01-1.46-0.75-1.45-1.6c0.01-0.86,0.75-1.46,1.6-1.45
		l15.65,0.87c1.1,0.01,1.96-0.59,2.46-1.57c0.13-0.37,0.25-0.85,0.13-1.22c-0.12-0.61-0.36-1.1-0.72-1.47
		c-0.36-0.37-0.97-0.62-1.58-0.75l0,0l-27.75-3.3L382.31,333.35z"/>
	<path class="st0" d="M408.13,318.64L408.13,318.64c-6.85-0.18-12.82-3.29-16.45-8.58c-3.63-5.29-4.3-11.91-2.05-18.37
		c0.13-0.49,0.62-0.85,1.11-0.97c0.49-0.12,1.1,0.13,1.46,0.5c2.66,3.2,5.47,3.72,8.16,4.11c2.57,0.51,5.25,1.02,7.19,3.85
		c3.63,5.29,4.3,11.91,2.04,18.37C409.36,318.28,408.74,318.65,408.13,318.64z M391.93,295.13c-1.02,4.76-0.2,9.54,2.33,13.24
		c2.78,4.18,7.41,6.67,12.79,7.21c1.51-5.13,0.82-10.39-1.96-14.58c-1.21-1.85-2.92-2.11-5.24-2.61
		C397.54,297.87,394.73,297.36,391.93,295.13z"/>
	<path class="st0" d="M402.31,312.72c-0.24,0-0.49-0.13-0.73-0.25c-2.19-1.24-4.01-2.97-5.46-5.06c-1.21-1.72-2.05-3.69-2.52-5.89
		c-0.11-0.86,0.38-1.59,1.24-1.83c0.86-0.12,1.59,0.38,1.83,1.24c0.35,1.72,1.07,3.31,2.04,4.79c1.09,1.72,2.67,3.08,4.49,4.08
		c0.73,0.37,0.97,1.35,0.59,2.09C403.29,312.48,402.8,312.72,402.31,312.72z"/>
	<path class="st0" d="M411.83,301.3c-0.37,0-0.86-0.13-1.1-0.5c-3.88-4.19-5.55-9.47-4.65-14.72c1.02-5.13,4.49-9.51,9.65-12.03
		c0.49-0.24,1.1-0.24,1.47,0.14c0.49,0.25,0.73,0.86,0.6,1.35c-0.27,3.3,0.94,5.02,2.27,6.87c1.21,1.72,2.54,3.69,2.02,6.62
		c-1.02,5.13-4.49,9.51-9.65,12.03C412.32,301.3,412.07,301.3,411.83,301.3z M414.96,278.2c-3.08,2.05-5.18,5.09-5.83,8.64
		c-0.77,3.91,0.42,7.84,3.09,11.16c3.69-2.05,6.17-5.45,6.93-9.24c0.26-1.59-0.35-2.57-1.55-4.3
		C416.64,282.74,415.31,280.89,414.96,278.2z"/>
	<path class="st0" d="M421.75,314.11c-0.61-0.01-1.22-0.38-1.46-0.99c-2.51-7.24-1.47-14.7,2.62-20.41
		c2.23-3.16,5.17-3.63,7.99-4.09c3.06-0.46,6.13-1.05,9.34-4.57c0.37-0.36,0.86-0.6,1.47-0.48c0.49,0.13,0.97,0.5,1.09,0.99
		c2.51,7.24,1.46,14.7-2.62,20.41C436.1,310.68,429.34,314.05,421.75,314.11L421.75,314.11z M440.57,287.84
		c-3.2,2.66-6.51,3.25-9.09,3.72c-2.7,0.47-4.53,0.82-6.02,2.88c-3.34,4.62-4.25,10.73-2.47,16.62c6.24-0.44,11.53-3.2,14.87-7.83
		C440.72,298.85,441.75,293.35,440.57,287.84z"/>
	<path class="st0" d="M428.66,307.8c-0.61-0.01-1.1-0.38-1.34-0.87c-0.36-0.74,0.01-1.71,0.75-2.07c2.21-1.08,4.06-2.53,5.55-4.6
		c0.99-1.34,1.61-2.8,2.12-4.39c0.25-0.85,1.11-1.34,1.84-1.09c0.85,0.25,1.34,1.11,1.09,1.84c-0.51,1.95-1.38,3.78-2.49,5.36
		c-1.73,2.43-3.95,4.25-6.78,5.57C429.15,307.81,428.9,307.81,428.66,307.8z"/>
	<path class="st0" d="M419.32,326.08c-0.86-0.01-1.58-0.75-1.58-1.6c0.02-1.96-1.31-3.68-3.27-4.19l-6.47-1.65l-9.92,0.89
		c-0.98,0.11-1.72,0.84-1.73,1.82c-0.01,0.86-0.75,1.58-1.6,1.58c-0.86-0.01-1.58-0.75-1.58-1.6c0.02-2.57,2-4.63,4.45-4.86
		l10.16-0.89c0.12,0,0.37,0,0.49,0l6.71,1.77c3.3,0.88,5.6,3.84,5.57,7.27C420.92,325.36,420.18,326.09,419.32,326.08z"/>
	<path class="st0" d="M413.26,319.91c-0.37,0-0.61-0.13-0.85-0.25c-0.49-0.37-0.72-1.11-0.6-1.72l0.63-2.2
		c1.51-5,0.82-10.39-1.83-14.94l-0.12-0.25c-0.48-0.74-0.23-1.72,0.51-2.08c0.74-0.48,1.72-0.23,2.08,0.51l0.12,0.25
		c2.65,4.67,3.58,10.19,2.56,15.44l5.05-3.38c0.74-0.48,1.59-0.35,2.08,0.38c0.48,0.74,0.35,1.59-0.38,2.08l-8.49,5.8
		C413.87,319.79,413.5,319.91,413.26,319.91z"/>
	<path class="st0" d="M383.69,286.01c-2.08-0.02-3.78-1.75-3.76-3.83c0.02-2.08,1.75-3.78,3.83-3.76c2.08,0.02,3.78,1.75,3.76,3.83
		C387.5,284.32,385.77,286.02,383.69,286.01z M383.73,281.48c-0.37,0-0.74,0.36-0.74,0.73c0,0.37,0.36,0.74,0.73,0.74
		c0.37,0,0.74-0.36,0.74-0.73C384.46,281.85,384.22,281.48,383.73,281.48z"/>
	<path class="st0" d="M436.57,283.4c-2.57-0.02-4.63-2.12-4.61-4.69c0.02-2.57,2.12-4.63,4.69-4.61s4.63,2.12,4.61,4.69
		C441.24,281.36,439.02,283.42,436.57,283.4z M436.63,277.28c-0.86-0.01-1.6,0.72-1.6,1.58c-0.01,0.86,0.72,1.6,1.58,1.6
		c0.86,0.01,1.6-0.72,1.6-1.58C438.09,278.03,437.36,277.29,436.63,277.28z"/>
</g>
<path class="st0" d="M737.7,119.27c-0.05-0.04-0.09-0.08-0.14-0.12c-37.67-32.48-94.53-28.34-127.1,9.27c0,0,0,0-0.01,0.01
	c-26.95,29.85-21.95,63.32-21.98,62.75c0,0-7.95,43.88-67.24,57.36c-11.4,2.57-40.25,2.19-53-7.53
	c7.87,10.78,24.91,30.86,33.29,68.5c2.65-12.32,14.79-39.6,31.16-49.74c10.27-6.16,50.16-31.97,81.32-9.17
	c-0.29-0.34,1.71,1.56,3.74,3.41c0.11,0.1,0.22,0.2,0.32,0.29c0.54,0.48,1.07,0.96,1.55,1.37l0,0l0,0
	c20.01,17.32,45.47,24.28,69.83,21.36c0.72-0.09,1.43-0.18,2.15-0.28c1.43-0.21,2.85-0.45,4.27-0.72c0.71-0.14,1.42-0.28,2.12-0.44
	c1-0.22,1.99-0.46,2.97-0.71c3.55-0.9,7.05-2.02,10.49-3.36c0.58-0.23,1.16-0.46,1.74-0.7c12.57-5.2,24.16-13.32,33.67-24.31
	s15.89-23.62,19.23-36.8c0.15-0.61,0.3-1.22,0.44-1.82c0.83-3.59,1.44-7.22,1.82-10.86c0.11-1.01,0.2-2.03,0.28-3.05
	c0.05-0.72,0.09-1.44,0.13-2.16c0.07-1.44,0.1-2.89,0.1-4.33c0-0.72-0.01-1.44-0.03-2.16C768.25,160.79,757.71,136.59,737.7,119.27
	L737.7,119.27L737.7,119.27z"/>
<path class="st0" d="M586.48,550.98c0.06,0,0.12-0.01,0.18-0.01c49.63-3.26,87.27-46.08,84.11-95.74c0,0,0-0.01,0-0.01
	c-1.72-40.18-28.76-60.53-28.33-60.15c0,0-25.1-36.85,7.71-88.04c6.32-9.83,27.16-29.79,43.06-31.8
	c-13.16-2.17-39.4-4.53-71.77-25.49c6.75,10.64,17.22,38.6,12.67,57.31c-3,11.59-13.34,57.97-51.55,63.57
	c0.45,0.04-2.32,0.09-5.06,0.2c-0.14,0.01-0.29,0.01-0.44,0.02c-0.72,0.03-1.43,0.06-2.06,0.11l0,0l0,0
	c-26.41,1.68-49.44,14.57-64.76,33.74c-0.45,0.56-0.89,1.13-1.33,1.71c-0.87,1.15-1.72,2.32-2.54,3.51c-0.41,0.6-0.81,1.2-1.21,1.8
	c-0.56,0.85-1.09,1.72-1.62,2.59c-1.9,3.13-3.61,6.39-5.12,9.75c-0.26,0.57-0.51,1.14-0.75,1.72c-5.32,12.52-7.88,26.44-6.96,40.94
	s5.23,27.98,12.1,39.73c0.32,0.54,0.64,1.08,0.96,1.61c1.93,3.14,4.04,6.15,6.32,9.02c0.63,0.8,1.28,1.59,1.94,2.36
	c0.47,0.55,0.94,1.09,1.43,1.63c0.96,1.08,1.95,2.13,2.96,3.16c0.51,0.51,1.02,1.02,1.54,1.52
	C535.59,542.81,560.07,552.67,586.48,550.98L586.48,550.98L586.48,550.98z"/>
<path class="st0" d="M425.56,804c0.06,0.01,0.12,0.01,0.18,0.01c49.53,4.52,93.38-31.91,98.01-81.45c0,0,0-0.01,0-0.01
	c4.57-39.95-18.97-64.28-18.61-63.83c0,0-19.05-40.32,21.34-85.77c7.78-8.72,31.47-25.19,47.5-24.7
	c-12.67-4.19-38.21-10.62-66.91-36.37c5.01,11.57,10.99,40.82,3.58,58.58c-4.77,10.98-22.22,55.18-60.83,54.75
	c0.44,0.11-2.3-0.27-5.02-0.59c-0.14-0.02-0.29-0.03-0.43-0.05c-0.72-0.08-1.42-0.16-2.06-0.22l0,0l0,0
	c-26.35-2.46-51.11,6.68-69.23,23.23c-0.53,0.49-1.06,0.98-1.58,1.48c-1.04,1-2.06,2.02-3.06,3.07c-0.5,0.52-0.99,1.05-1.47,1.59
	c-0.68,0.76-1.35,1.53-2.01,2.31c-2.36,2.8-4.56,5.75-6.58,8.83c-0.34,0.52-0.68,1.05-1.01,1.58
	c-7.21,11.54-11.91,24.89-13.26,39.36c-1.35,14.47,0.8,28.45,5.75,41.13c0.23,0.58,0.46,1.16,0.7,1.74c1.41,3.4,3.03,6.71,4.83,9.89
	c0.5,0.89,1.01,1.77,1.55,2.64c0.38,0.62,0.76,1.23,1.15,1.84c0.78,1.21,1.6,2.41,2.44,3.58c0.42,0.59,0.85,1.17,1.28,1.75
	C376.56,787.98,399.21,801.54,425.56,804L425.56,804L425.56,804z"/>
<path class="st0" d="M790.96,668.34c-0.03-0.05-0.05-0.11-0.08-0.16c-21.72-44.74-75.57-63.47-120.37-41.83c0,0-0.01,0-0.01,0
	c-36.57,16.73-45.23,49.45-45.04,48.91c0,0-8.68,37.14-68.46,26.04c-11.48-2.15-37.83-13.93-45.69-27.91
	c2.95,13.01,10.65,38.2,3.43,76.08c7.32-10.26,29.27-30.5,48.31-33.33c11.87-1.59,42.72-9.49,62.31,23.79
	c-0.13-0.43,0.95,2.11,2.09,4.61c0.06,0.13,0.12,0.26,0.18,0.4c0.3,0.66,0.6,1.3,0.88,1.87l0,0l0,0
	c11.51,23.83,32.13,40.31,55.65,47.27c0.69,0.2,1.39,0.4,2.08,0.59c1.39,0.38,2.8,0.72,4.21,1.03c0.71,0.15,1.41,0.3,2.12,0.44
	c1,0.19,2,0.37,3.01,0.53c3.62,0.58,7.28,0.94,10.96,1.07c0.63,0.02,1.25,0.04,1.88,0.05c13.6,0.21,27.46-2.66,40.54-8.98
	c13.08-6.32,23.95-15.39,32.24-26.17c0.38-0.5,0.76-1,1.13-1.5c2.18-2.97,4.18-6.06,5.97-9.25c0.5-0.89,0.99-1.78,1.46-2.69
	c0.33-0.64,0.66-1.29,0.98-1.94c0.63-1.3,1.24-2.61,1.81-3.94c0.29-0.66,0.56-1.33,0.83-2
	C802.57,718.57,802.48,692.18,790.96,668.34L790.96,668.34L790.96,668.34z"/>
<ellipse transform="matrix(0.8234 -0.5674 0.5674 0.8234 13.1298 419.9954)" class="st1" cx="681.39" cy="188.9" rx="66.08" ry="66.08"/>
<ellipse transform="matrix(0.8234 -0.5674 0.5674 0.8234 -159.044 410.7138)" class="st1" cx="580.39" cy="460.9" rx="66.08" ry="66.08"/>
<ellipse transform="matrix(0.8234 -0.5674 0.5674 0.8234 -328.5591 371.9758)" class="st1" cx="433.39" cy="713.9" rx="66.08" ry="66.08"/>
<ellipse transform="matrix(0.8234 -0.5674 0.5674 0.8234 -274.9319 528.3074)" class="st1" cx="711.39" cy="705.9" rx="66.08" ry="66.08"/>
<g>
	<path class="st0" d="M702.25,207.24v0.12c-0.12,0.83-0.71,1.42-1.54,1.42h-0.12c-0.83-0.12-1.42-0.71-1.42-1.54v-0.12
		c0.12-0.83,0.83-1.54,1.77-1.42C701.66,205.71,702.25,206.42,702.25,207.24z"/>
	<path class="st0" d="M709.04,198.88v0.12c-0.12,0.83-0.71,1.42-1.54,1.42h-0.12c-0.83-0.12-1.42-0.71-1.42-1.54v-0.12
		c0.12-0.83,0.83-1.54,1.77-1.42C708.45,197.34,709.04,198.05,709.04,198.88z"/>
	<path class="st0" d="M676.98,149.33v0.12c-0.12,0.83-0.71,1.42-1.54,1.42h-0.12c-0.83-0.12-1.42-0.71-1.42-1.54v-0.12
		c0.12-0.83,0.83-1.54,1.77-1.42C676.39,147.79,676.98,148.5,676.98,149.33z"/>
	<path class="st0" d="M684.01,173.94v0.12c-0.12,0.83-0.71,1.42-1.54,1.42h-0.12c-0.83-0.12-1.42-0.71-1.42-1.54v-0.12
		c0.12-0.83,0.83-1.54,1.77-1.42C683.42,172.4,684.01,173.11,684.01,173.94z"/>
	<path class="st0" d="M664.68,160.32v0.12c-0.12,0.83-0.71,1.42-1.54,1.42h-0.12c-0.83-0.12-1.42-0.71-1.42-1.54v-0.12
		c0.12-0.83,0.83-1.54,1.77-1.42C664.09,158.9,664.68,159.61,664.68,160.32z"/>
	<path class="st0" d="M659.45,183.22v0.12c-0.12,0.83-0.71,1.42-1.54,1.42h-0.12c-0.83-0.12-1.42-0.71-1.42-1.54v-0.12
		c0.12-0.83,0.83-1.54,1.77-1.42C658.86,181.8,659.45,182.51,659.45,183.22z"/>
	<path class="st0" d="M680.06,212.61c-0.35,0-0.59-0.12-0.83-0.24c-3.9-2.96-6.15-7.21-6.15-11.71c0-4.61,2.37-8.99,6.27-11.83
		c0.47-0.35,1.18-0.35,1.77,0c3.9,2.96,6.27,7.33,6.27,11.83c0,4.49-2.37,8.75-6.39,11.71
		C680.77,212.49,680.41,212.61,680.06,212.61z M680.18,191.91c-2.6,2.25-4.14,5.44-4.14,8.75c0,3.19,1.42,6.39,4.14,8.63
		c2.72-2.25,4.14-5.32,4.26-8.63C684.32,197.35,682.78,194.15,680.18,191.91z"/>
	<path class="st0" d="M664.68,224.07c-0.83,0-1.54-0.71-1.54-1.54V173.8c0-0.47,0.24-0.95,0.59-1.18l11.83-8.87
		c0.71-0.47,1.54-0.36,2.13,0.35c0.47,0.71,0.35,1.54-0.35,2.13l-11.24,8.4v48.02C666.1,223.48,665.51,224.07,664.68,224.07z"/>
	<path class="st0" d="M688.34,166.47h-16.32c-0.83,0-1.54-0.71-1.54-1.54v-5.91c0-0.83,0.71-1.54,1.54-1.54h16.32
		c0.83,0,1.54,0.71,1.54,1.54v5.91C689.76,165.76,689.17,166.47,688.34,166.47z M673.56,163.51h13.37v-2.96h-13.37V163.51z"/>
	<path class="st0" d="M686.8,224.07c-0.83,0-1.54-0.43-1.54-0.94v-8.94c0-0.5,0.71-0.94,1.54-0.94c0.83,0,1.54,0.43,1.54,0.94v9.01
		C688.34,223.71,687.63,224.07,686.8,224.07z"/>
	<path class="st0" d="M673.56,224.07c-0.83,0-1.54-0.43-1.54-0.94v-8.94c0-0.5,0.71-0.94,1.54-0.94c0.83,0,1.54,0.43,1.54,0.94v9.01
		C674.97,223.71,674.38,224.07,673.56,224.07z"/>
	<path class="st0" d="M680.06,212.61c-0.83,0-1.54-0.71-1.54-1.54v-12.18c0-0.83,0.71-1.54,1.54-1.54c0.83,0,1.54,0.71,1.54,1.54
		v12.3C681.6,211.9,680.89,212.61,680.06,212.61z"/>
	<path class="st0" d="M700.17,224.07h-39.98c-0.83,0-1.54-0.71-1.54-1.54c0-0.83,0.71-1.54,1.54-1.54h39.98
		c0.83,0,1.54,0.71,1.54,1.54C701.59,223.48,700.99,224.07,700.17,224.07z"/>
	<path class="st0" d="M654.03,199.66c-2.48,0-4.49-2.01-4.49-4.49s2.01-4.49,4.49-4.49c2.48,0,4.49,2.01,4.49,4.49
		S656.39,199.66,654.03,199.66z M654.03,193.75c-0.83,0-1.54,0.71-1.54,1.54c0,0.83,0.71,1.54,1.54,1.54s1.54-0.71,1.54-1.54
		C655.57,194.46,654.86,193.75,654.03,193.75z"/>
	<path class="st0" d="M655.1,169.43c-2.01,0-3.67-1.66-3.67-3.67c0-2.01,1.66-3.67,3.67-3.67c2.01,0,3.67,1.66,3.67,3.67
		C658.77,167.77,657.12,169.43,655.1,169.43z M655.1,164.93c-0.35,0-0.71,0.35-0.71,0.71c0,0.35,0.36,0.71,0.71,0.71
		c0.35,0,0.71-0.35,0.71-0.71C655.81,165.29,655.46,164.93,655.1,164.93z"/>
	<path class="st0" d="M673.85,183.49c-2.01,0-3.67-1.66-3.67-3.67c0-2.01,1.66-3.67,3.67-3.67c2.01,0,3.67,1.66,3.67,3.67
		C677.52,181.83,675.86,183.49,673.85,183.49z M673.85,178.99c-0.35,0-0.71,0.35-0.71,0.71c0,0.35,0.36,0.71,0.71,0.71
		c0.35,0,0.71-0.35,0.71-0.71C674.56,179.35,674.21,178.99,673.85,178.99z"/>
	<g>
		<path class="st0" d="M699.72,184.55c-0.09,0-0.19-0.01-0.28-0.02c-0.56-0.09-1.04-0.44-1.29-0.95l-3.52-7.03
			c-0.43-0.87-0.08-1.92,0.79-2.36c0.87-0.43,1.92-0.08,2.36,0.79l2.42,4.85l9.99-9.99c0.69-0.69,1.8-0.69,2.49,0
			c0.69,0.69,0.69,1.8,0,2.49l-11.72,11.72C700.64,184.36,700.19,184.55,699.72,184.55z"/>
	</g>
	<path class="st0" d="M694.14,222.53c0,0.83,0.71,1.54,1.54,1.54c0.83,0,1.54-0.59,1.42-1.42v-30.84c-1.05-0.5-2.04-1.11-2.96-1.82
		V222.53z"/>
	<path class="st0" d="M684.67,163.75c-0.71-0.47-1.66-0.36-2.13,0.35c-0.47,0.71-0.35,1.66,0.35,2.13l6.49,4.85
		c0.42-0.94,0.93-1.83,1.52-2.66L684.67,163.75z"/>
	<path class="st0" d="M691.52,177.51c0-1.5,0.28-2.93,0.78-4.26l-2.91-2.17c-0.88,1.97-1.38,4.14-1.38,6.43
		c0,5.07,2.41,9.58,6.13,12.48v-4.92C692.5,182.98,691.52,180.36,691.52,177.51z"/>
	<path class="st0" d="M703.83,161.7c-5.34,0-10.06,2.66-12.92,6.73l2.81,2.11c2.22-3.21,5.93-5.32,10.12-5.32
		c6.78,0,12.3,5.52,12.3,12.3c0,6.78-5.52,12.3-12.3,12.3c-2.49,0-4.8-0.75-6.73-2.02v4.01c2.05,0.97,4.32,1.53,6.73,1.53
		c8.72,0,15.82-7.1,15.82-15.82S712.55,161.7,703.83,161.7z"/>
	<path class="st0" d="M693.71,170.53l-2.81-2.11c-0.59,0.83-1.1,1.72-1.52,2.66l2.91,2.17
		C692.66,172.28,693.13,171.37,693.71,170.53z"/>
	<path class="st0" d="M694.14,185.07v4.92c0.91,0.71,1.9,1.32,2.96,1.82v-4.01C695.96,187.06,694.97,186.13,694.14,185.07z"/>
</g>
<g>
	<path class="st0" d="M595.54,460.41v0.11c-0.11,0.76-0.65,1.31-1.42,1.31h-0.11c-0.76-0.11-1.31-0.65-1.31-1.42v-0.11
		c0.11-0.76,0.76-1.42,1.63-1.31C594.99,459.1,595.54,459.65,595.54,460.41z"/>
	<path class="st0" d="M587.26,457.69v0.11c-0.11,0.76-0.65,1.31-1.42,1.31h-0.11c-0.76-0.11-1.31-0.65-1.31-1.42v-0.11
		c0.11-0.76,0.76-1.42,1.63-1.31C586.6,456.27,587.26,456.92,587.26,457.69z"/>
	<path class="st0" d="M576.47,460.41v0.11c-0.11,0.76-0.65,1.31-1.42,1.31h-0.11c-0.76-0.11-1.31-0.65-1.31-1.42v-0.11
		c0.11-0.76,0.76-1.42,1.63-1.31C575.93,458.99,576.47,459.65,576.47,460.41z"/>
	<path class="st0" d="M568.19,457.47v0.11c-0.11,0.76-0.65,1.31-1.42,1.31h-0.11c-0.76-0.11-1.31-0.65-1.31-1.42v-0.11
		c0.11-0.76,0.76-1.42,1.63-1.31C567.54,456.05,568.19,456.71,568.19,457.47z"/>
	<path class="st0" d="M606.32,492.99c-0.76,0-1.42-0.65-1.42-1.42v-38.24c0-0.76,0.65-1.42,1.42-1.42c0.76,0,1.42,0.65,1.42,1.42
		v38.35C607.63,492.33,606.98,492.99,606.32,492.99z"/>
	<path class="st0" d="M554.57,492.99c-0.76,0-1.42-0.65-1.42-1.42v-38.24c0-0.76,0.65-1.42,1.42-1.42s1.42,0.65,1.42,1.42v38.35
		C555.88,492.33,555.23,492.99,554.57,492.99z"/>
	<path class="st0" d="M555.88,454.85c-0.65,0-1.2-0.11-1.85-0.33c-2.18-0.76-3.59-2.83-3.59-5.12v-2.72c0-0.76,0.65-1.42,1.42-1.42
		c0.76,0,1.42,0.65,1.42,1.42v2.72c0,1.2,0.76,2.18,1.85,2.61c0.33,0.11,0.54,0.11,0.87,0.11c1.53,0,2.72-1.2,2.72-2.72
		c0-0.76,0.65-1.42,1.42-1.42c0.76,0,1.42,0.65,1.42,1.42C561.33,452.35,558.93,454.85,555.88,454.85z"/>
	<path class="st0" d="M564.05,454.85c-2.4,0-4.47-1.53-5.12-3.7c-0.22-0.54-0.33-1.09-0.33-1.74v-2.72c0-0.76,0.65-1.42,1.42-1.42
		c0.76,0,1.42,0.65,1.42,1.42v2.72c0,0.33,0,0.55,0.11,0.87c0.33,1.09,1.42,1.85,2.61,1.85c1.53,0,2.72-1.2,2.72-2.72
		c0-0.76,0.65-1.42,1.42-1.42c0.76,0,1.42,0.65,1.42,1.42C569.5,452.35,567.1,454.85,564.05,454.85z"/>
	<path class="st0" d="M572.22,454.85c-3.05,0-5.45-2.4-5.45-5.45v-2.72c0-0.76,0.65-1.42,1.42-1.42c0.76,0,1.42,0.65,1.42,1.42v2.72
		c0,1.53,1.2,2.72,2.72,2.72c1.53,0,2.72-1.2,2.72-2.72c0-0.76,0.65-1.42,1.42-1.42s1.42,0.65,1.42,1.42
		C577.67,452.35,575.27,454.85,572.22,454.85z"/>
	<path class="st0" d="M580.39,454.85c-3.05,0-5.45-2.4-5.45-5.45v-2.72c0-0.76,0.65-1.42,1.42-1.42c0.76,0,1.42,0.65,1.42,1.42v2.72
		c0,1.53,1.2,2.72,2.72,2.72c1.53,0,2.72-1.2,2.72-2.72c0-0.76,0.65-1.42,1.42-1.42c0.76,0,1.42,0.65,1.42,1.42
		C585.84,452.35,583.44,454.85,580.39,454.85z"/>
	<path class="st0" d="M588.57,454.85c-3.05,0-5.45-2.4-5.45-5.45v-2.72c0-0.76,0.65-1.42,1.42-1.42c0.76,0,1.42,0.65,1.42,1.42v2.72
		c0,1.53,1.2,2.72,2.72,2.72c1.52,0,2.72-1.2,2.72-2.72c0-0.76,0.65-1.42,1.42-1.42c0.76,0,1.42,0.65,1.42,1.42
		C594.01,452.35,591.62,454.85,588.57,454.85z"/>
	<path class="st0" d="M596.74,454.85c-3.05,0-5.45-2.4-5.45-5.45v-2.72c0-0.76,0.65-1.42,1.42-1.42s1.42,0.65,1.42,1.42v2.72
		c0,1.53,1.2,2.72,2.72,2.72c1.52,0,2.72-1.2,2.72-2.72c0-0.76,0.65-1.42,1.42-1.42c0.76,0,1.42,0.65,1.42,1.42
		C602.18,452.35,599.79,454.85,596.74,454.85z"/>
	<path class="st0" d="M604.91,454.85c-2.4,0-4.47-1.53-5.12-3.7c-0.22-0.54-0.33-1.09-0.33-1.74v-2.72c0-0.76,0.65-1.42,1.42-1.42
		c0.76,0,1.42,0.65,1.42,1.42v2.72c0,0.33,0,0.55,0.11,0.87c0.33,1.09,1.42,1.85,2.61,1.85c0.33,0,0.65,0,0.87-0.11
		c1.09-0.44,1.85-1.42,1.85-2.61v-2.72c0-0.76,0.65-1.42,1.42-1.42s1.42,0.65,1.42,1.42v2.72c0,2.29-1.42,4.36-3.7,5.12
		C606.11,454.75,605.56,454.85,604.91,454.85z"/>
	<path class="st0" d="M610.35,492.99h-59.92c-0.76,0-1.42-0.65-1.42-1.42c0-0.76,0.65-1.42,1.42-1.42h59.92
		c0.76,0,1.42,0.65,1.42,1.42C611.77,492.33,611.12,492.99,610.35,492.99z"/>
	<path class="st0" d="M560.02,447.99h-8.17c-0.44,0-0.76-0.22-1.09-0.44c-0.22-0.33-0.33-0.76-0.33-1.09l2.72-16.34
		c0.11-0.65,0.65-1.09,1.31-1.09h5.45c0.76,0,1.42,0.65,1.42,1.42c0,0.76-0.65,1.42-1.42,1.42h-4.25l-2.29,13.62h6.54
		c0.76,0,1.42,0.65,1.42,1.42C561.33,447.45,560.67,447.99,560.02,447.99z"/>
	<path class="st0" d="M576.36,447.99h-16.34c-0.76,0-1.42-0.65-1.42-1.42v-16.34c0-0.76,0.65-1.42,1.42-1.42h16.34
		c0.76,0,1.42,0.65,1.42,1.42c0,0.76-0.65,1.42-1.42,1.42h-15.03v13.62h15.03c0.76,0,1.42,0.65,1.42,1.42
		C577.67,447.45,577.02,447.99,576.36,447.99z"/>
	<path class="st0" d="M584.53,447.99h-8.17c-0.76,0-1.42-0.65-1.42-1.42v-16.34c0-0.76,0.65-1.42,1.42-1.42h8.17
		c0.76,0,1.42,0.65,1.42,1.42c0,0.76-0.65,1.42-1.42,1.42h-6.86v13.62h6.86c0.76,0,1.42,0.65,1.42,1.42
		C585.84,447.45,585.19,447.99,584.53,447.99z"/>
	<path class="st0" d="M600.88,447.99h-16.34c-0.76,0-1.42-0.65-1.42-1.42v-16.34c0-0.76,0.65-1.42,1.42-1.42h16.34
		c0.76,0,1.42,0.65,1.42,1.42c0,0.76-0.65,1.42-1.42,1.42h-15.03v13.62h15.03c0.76,0,1.42,0.65,1.42,1.42
		C602.18,447.45,601.53,447.99,600.88,447.99z"/>
	<path class="st0" d="M609.05,447.99h-8.17c-0.76,0-1.42-0.65-1.42-1.42v-16.34c0-0.76,0.65-1.42,1.42-1.42h5.45
		c0.65,0,1.2,0.44,1.31,1.09l2.72,16.34c0.11,0.44,0,0.76-0.33,1.09C609.81,447.88,609.37,447.99,609.05,447.99z M602.18,445.27
		h5.23l-2.29-13.62h-2.94V445.27z"/>
	<path class="st0" d="M560.67,476.64h-0.65c-0.76,0-1.42-0.65-1.42-1.42v-24.51c0-0.76,0.65-1.42,1.42-1.42
		c0.76,0,1.42,0.65,1.42,1.42v23.32c0.44,0.22,0.65,0.65,0.65,1.2C561.98,475.99,561.44,476.64,560.67,476.64z"/>
	<path class="st0" d="M600.88,476.64h-0.65c-0.76,0-1.42-0.65-1.42-1.42c0-0.54,0.33-0.98,0.65-1.2v-23.32
		c0-0.76,0.65-1.42,1.42-1.42c0.76,0,1.42,0.65,1.42,1.42v24.51C602.18,475.99,601.53,476.64,600.88,476.64z"/>
	<path class="st0" d="M600.11,480.68h-39.44c-1.85,0-3.38-1.53-3.38-3.38c0-0.87,0.33-1.74,0.98-2.4c0.65-0.65,1.53-0.98,2.4-0.98
		h4.79c0.76,0,1.42,0.65,1.42,1.42c0,0.76-0.65,1.42-1.42,1.42h-4.79c-0.22,0-0.33,0.11-0.44,0.22c-0.11,0.11-0.22,0.22-0.22,0.44
		c0,0.33,0.33,0.65,0.65,0.65h39.55c0.22,0,0.33-0.11,0.44-0.22c0.11-0.11,0.22-0.33,0.22-0.44c0-0.33-0.33-0.65-0.65-0.65h-29.31
		c-0.76,0-1.42-0.65-1.42-1.42c0-0.76,0.65-1.42,1.42-1.42h29.31c1.85,0,3.38,1.53,3.38,3.38c0,0.87-0.33,1.74-0.98,2.4
		C601.86,480.35,601.09,480.68,600.11,480.68z"/>
	<path class="st0" d="M570.91,476.64h-5.45c-0.65,0-1.2-0.55-1.31-1.2L563.4,470c-0.22-1.42,0.22-2.83,1.2-3.92
		c0.98-1.09,2.29-1.74,3.71-1.74c2.72,0,4.9,2.18,4.9,4.9c0,0.22,0,0.44,0,0.65l-0.76,5.45
		C572.11,476.1,571.57,476.64,570.91,476.64z M566.56,473.92h3.05l0.65-4.36c0-0.11,0-0.22,0-0.33c0-1.2-0.98-2.18-2.18-2.18
		c-0.65,0-1.2,0.33-1.63,0.76c-0.44,0.44-0.65,1.09-0.54,1.74L566.56,473.92z"/>
	<path class="st0" d="M568.08,467.06c-0.44,0-0.87-0.22-1.09-0.55l-4.14-5.45c-0.44-0.65-0.33-1.42,0.33-1.96
		c0.65-0.54,1.42-0.33,1.96,0.33l2.72,3.7l1.74-3.49c0.33-0.65,1.2-0.98,1.85-0.65c0.65,0.33,0.98,1.2,0.65,1.85l-2.72,5.45
		c-0.22,0.44-0.65,0.65-1.09,0.76C568.19,467.06,568.19,467.06,568.08,467.06z"/>
	<path class="st0" d="M580.39,476.64c-2.29,0-4.14-1.85-4.14-4.14c0-2.29,1.85-4.14,4.14-4.14c2.29,0,4.14,1.85,4.14,4.14
		C584.53,474.79,582.68,476.64,580.39,476.64z M580.39,471.2c-0.76,0-1.42,0.65-1.42,1.42c0,0.76,0.65,1.42,1.42,1.42
		c0.76,0,1.42-0.65,1.42-1.42C581.81,471.85,581.16,471.2,580.39,471.2z"/>
	<path class="st0" d="M585.84,476.64c-2.29,0-4.14-1.85-4.14-4.14c0-2.29,1.85-4.14,4.14-4.14s4.14,1.85,4.14,4.14
		C589.98,474.79,588.13,476.64,585.84,476.64z M585.84,471.2c-0.76,0-1.42,0.65-1.42,1.42c0,0.76,0.65,1.42,1.42,1.42
		c0.76,0,1.42-0.65,1.42-1.42C587.26,471.85,586.6,471.2,585.84,471.2z"/>
	<path class="st0" d="M591.29,476.64c-2.29,0-4.14-1.85-4.14-4.14c0-2.29,1.85-4.14,4.14-4.14c2.29,0,4.14,1.85,4.14,4.14
		C595.43,474.79,593.58,476.64,591.29,476.64z M591.29,471.2c-0.76,0-1.42,0.65-1.42,1.42c0,0.76,0.65,1.42,1.42,1.42
		c0.76,0,1.42-0.65,1.42-1.42C592.7,471.85,592.05,471.2,591.29,471.2z"/>
	<path class="st0" d="M583.12,471.2c-2.29,0-4.14-1.85-4.14-4.14c0-2.29,1.85-4.14,4.14-4.14c2.29,0,4.14,1.85,4.14,4.14
		C587.26,469.35,585.41,471.2,583.12,471.2z M583.12,465.75c-0.76,0-1.42,0.65-1.42,1.42c0,0.76,0.65,1.42,1.42,1.42
		s1.42-0.65,1.42-1.42C584.53,466.4,583.88,465.75,583.12,465.75z"/>
	<path class="st0" d="M588.57,471.2c-2.29,0-4.14-1.85-4.14-4.14c0-2.29,1.85-4.14,4.14-4.14c2.29,0,4.14,1.85,4.14,4.14
		C592.7,469.35,590.85,471.2,588.57,471.2z M588.57,465.75c-0.76,0-1.42,0.65-1.42,1.42c0,0.76,0.65,1.42,1.42,1.42
		c0.76,0,1.42-0.65,1.42-1.42C589.98,466.4,589.33,465.75,588.57,465.75z"/>
	<path class="st0" d="M578.32,488.85c-0.11,0-0.11,0-0.22,0l-10.24-1.42c-0.65-0.11-1.2-0.65-1.2-1.31v-1.42
		c0-0.65,0.54-1.31,1.2-1.31l10.24-1.42c0.11,0,0.11,0,0.22,0c1.85,0,3.38,1.53,3.38,3.38c0,0.87-0.33,1.74-0.98,2.4
		C580.07,488.52,579.3,488.85,578.32,488.85z M573.31,485.47l5.12,0.65c0.11,0,0.33-0.11,0.44-0.22c0.11-0.11,0.22-0.33,0.22-0.44
		c0-0.33-0.22-0.65-0.65-0.65L573.31,485.47z"/>
	<path class="st0" d="M582.46,488.85c-0.87,0-1.74-0.33-2.4-0.98c-0.65-0.65-0.98-1.53-0.98-2.4c0-1.85,1.52-3.38,3.38-3.38
		c0.11,0,0.11,0,0.22,0l10.24,1.42c0.65,0.11,1.2,0.65,1.2,1.31v1.42c0,0.65-0.54,1.31-1.2,1.31l-10.35,1.31H582.46z M582.35,484.82
		c-0.33,0-0.65,0.33-0.65,0.65c0,0.22,0.11,0.33,0.22,0.44c0.11,0.11,0.22,0.22,0.44,0.22l5.12-0.65L582.35,484.82z"/>
	<path class="st0" d="M568.19,442.54c-0.76,0-1.42-0.65-1.42-1.42v-10.89c0-0.76,0.65-1.42,1.42-1.42c0.76,0,1.42,0.65,1.42,1.42
		v10.89C569.5,442,568.85,442.54,568.19,442.54z"/>
	<path class="st0" d="M592.7,447.99c-0.76,0-1.42-0.65-1.42-1.42v-10.89c0-0.76,0.65-1.42,1.42-1.42s1.42,0.65,1.42,1.42v10.89
		C594.01,447.45,593.36,447.99,592.7,447.99z"/>
</g>
<g>
	<path class="st0" d="M455.9,711.11c0.84,0,1.51,0.68,1.51,1.51c0,0.84-0.68,1.51-1.51,1.51c-0.84,0-1.51-0.68-1.51-1.51
		C454.39,711.79,455.06,711.11,455.9,711.11z"/>
	<path class="st0" d="M455.9,722.74c0.84,0,1.51,0.68,1.51,1.51c0,0.84-0.68,1.51-1.51,1.51c-0.84,0-1.51-0.68-1.51-1.51
		C454.39,723.42,455.06,722.74,455.9,722.74z"/>
	<path class="st0" d="M455.9,734.38c0.84,0,1.51,0.68,1.51,1.51c0,0.84-0.68,1.51-1.51,1.51c-0.84,0-1.51-0.68-1.51-1.51
		C454.39,735.06,455.06,734.38,455.9,734.38z"/>
	<path class="st0" d="M434.14,697.96c0.84,0,1.51,0.68,1.51,1.51c0,0.84-0.68,1.51-1.51,1.51s-1.51-0.68-1.51-1.51
		C432.63,698.64,433.31,697.96,434.14,697.96z"/>
	<circle class="st0" cx="425.41" cy="689.35" r="1.51"/>
	<circle class="st0" cx="416.69" cy="687.84" r="1.51"/>
	<path class="st0" d="M406.45,711.11c0.84,0,1.51,0.68,1.51,1.51c0,0.84-0.68,1.51-1.51,1.51s-1.51-0.68-1.51-1.51
		C404.94,711.79,405.61,711.11,406.45,711.11z"/>
	<path class="st0" d="M406.45,722.74c0.84,0,1.51,0.68,1.51,1.51c0,0.84-0.68,1.51-1.51,1.51s-1.51-0.68-1.51-1.51
		C404.94,723.42,405.61,722.74,406.45,722.74z"/>
	<path class="st0" d="M406.45,734.38c0.84,0,1.51,0.68,1.51,1.51c0,0.84-0.68,1.51-1.51,1.51s-1.51-0.68-1.51-1.51
		C404.94,735.06,405.61,734.38,406.45,734.38z"/>
	<path class="st0" d="M461.72,719.83c-0.81,0-1.51-0.7-1.51-1.51v-10.24h-49.33c-0.81,0-1.51-0.7-1.51-1.51
		c0-0.81,0.7-1.51,1.51-1.51h50.96c0.81,0,1.51,0.7,1.51,1.51v11.64C463.23,719.25,462.53,719.83,461.72,719.83z"/>
	<path class="st0" d="M400.63,719.83c-0.82,0-1.51-0.7-1.51-1.51v-11.64c0-0.81,0.7-1.51,1.51-1.51h2.91c0.81,0,1.51,0.7,1.51,1.51
		c0,0.81-0.7,1.51-1.51,1.51h-1.51v10.24C402.14,719.25,401.44,719.83,400.63,719.83z"/>
	<path class="st0" d="M461.72,731.47c-0.81,0-1.51-0.7-1.51-1.51v-10.24h-58.18v10.24c0,0.81-0.7,1.51-1.51,1.51
		c-0.82,0-1.51-0.7-1.51-1.51v-11.64c0-0.81,0.7-1.51,1.51-1.51h61.09c0.82,0,1.51,0.7,1.51,1.51v11.64
		C463.23,730.89,462.53,731.47,461.72,731.47z"/>
	<path class="st0" d="M461.72,743.11h-61.09c-0.82,0-1.51-0.7-1.51-1.51v-11.64c0-0.81,0.7-1.51,1.51-1.51h61.09
		c0.82,0,1.51,0.7,1.51,1.51v11.64C463.23,742.52,462.53,743.11,461.72,743.11z M402.14,740.2h58.18v-8.73h-58.18V740.2z"/>
	<path class="st0" d="M410.87,708.2h-7.33c-2.44,0-4.42-1.98-4.42-4.42c0-1.16,0.47-2.21,1.28-3.14c0.82-0.81,1.98-1.28,3.14-1.28
		h7.33c2.44,0,4.42,1.98,4.42,4.42c0,1.16-0.47,2.21-1.28,3.14C413.08,707.73,412.03,708.2,410.87,708.2z M403.54,702.38
		c-0.35,0-0.7,0.12-1.05,0.47c-0.23,0.23-0.47,0.58-0.47,1.05c0,0.81,0.7,1.51,1.51,1.51h7.33c0.35,0,0.7-0.12,1.05-0.47
		c0.23-0.23,0.46-0.58,0.46-1.05c0-0.81-0.7-1.51-1.51-1.51H403.54z"/>
	<path class="st0" d="M418.08,702.38h-7.33c-1.16,0-2.21-0.47-3.14-1.28c-0.81-0.81-1.28-1.98-1.28-3.14c0-2.44,1.98-4.42,4.42-4.42
		h7.33c1.98,0,3.61,1.28,4.19,3.14c0.23,0.81-0.23,1.63-1.05,1.75c-0.81,0.23-1.63-0.23-1.74-1.05c-0.23-0.58-0.7-1.05-1.4-1.05
		h-7.33c-0.81,0-1.51,0.7-1.51,1.51c0,0.35,0.12,0.7,0.47,1.05c0.23,0.23,0.58,0.47,1.05,0.47h7.33c0.23,0,0.46-0.12,0.7-0.23
		c0.7-0.35,1.63-0.12,1.98,0.47c0.35,0.7,0.12,1.63-0.47,1.98C419.6,702.15,418.9,702.38,418.08,702.38z"/>
	<path class="st0" d="M434.14,708.2c-2.1,0-4.07-0.93-5.47-2.44c-0.58-0.58-0.47-1.51,0.12-2.09c0.58-0.58,1.51-0.47,2.1,0.12
		c0.81,0.93,1.98,1.51,3.26,1.51c2.44,0,4.42-1.98,4.42-4.42c0-2.44-1.98-4.42-4.42-4.42c-1.28,0-2.44,0.58-3.26,1.51
		c-0.58,0.58-1.4,0.7-2.1,0.12c-0.58-0.58-0.7-1.4-0.12-2.09c1.4-1.51,3.37-2.44,5.47-2.44c3.96,0,7.33,3.26,7.33,7.33
		C441.47,704.94,438.1,708.2,434.14,708.2z"/>
	<path class="st0" d="M425.41,708.2c-3.96,0-7.33-3.26-7.33-7.33c0-0.12,0-0.35,0-0.47c0.12-1.51,0.7-2.91,1.63-4.07
		c1.4-1.63,3.37-2.68,5.58-2.68c2.09,0,4.07,0.93,5.47,2.44c0.47,0.58,0.47,1.4,0,1.98c-0.7,0.81-1.05,1.86-1.05,2.91
		c0,1.05,0.35,2.09,1.05,2.91c0.47,0.58,0.47,1.4,0,1.98C429.49,707.39,427.51,708.2,425.41,708.2z M425.41,696.56
		c-1.28,0-2.56,0.58-3.37,1.63c-0.58,0.7-0.93,1.51-1.05,2.44c0,0.12,0,0.23,0,0.35c0,2.44,1.98,4.42,4.42,4.42
		c0.81,0,1.74-0.23,2.44-0.7c-0.58-1.05-0.93-2.33-0.93-3.61c0-1.28,0.35-2.56,0.93-3.61C427.04,696.8,426.23,696.56,425.41,696.56z
		"/>
	<path class="st0" d="M447.17,702.38c-2.44,0-4.42-1.98-4.42-4.42v-4.42c0-2.44,1.98-4.42,4.42-4.42c1.16,0,2.21,0.47,3.14,1.28
		c0.82,0.81,1.28,1.98,1.28,3.14c0,0.81-0.7,1.51-1.51,1.51c-0.82,0-1.51-0.7-1.51-1.51c0-0.35-0.12-0.7-0.46-1.05
		c-0.23-0.23-0.58-0.47-1.05-0.47c-0.81,0-1.51,0.7-1.51,1.51v4.42c0,0.81,0.7,1.51,1.51,1.51c0.82,0,1.51-0.7,1.51-1.51
		c0-0.81,0.7-1.51,1.51-1.51c0.81,0,1.51,0.7,1.51,1.51C451.59,700.4,449.62,702.38,447.17,702.38z"/>
	<path class="st0" d="M447.17,708.2c-0.82,0-1.51-0.7-1.51-1.51v-5.82c0-0.81,0.7-1.51,1.51-1.51c0.81,0,1.51,0.7,1.51,1.51v5.82
		C448.68,707.62,447.99,708.2,447.17,708.2z"/>
	<path class="st0" d="M452.99,702.38c-2.44,0-4.42-1.98-4.42-4.42v-4.42c0-2.44,1.98-4.42,4.42-4.42c1.16,0,2.21,0.47,3.14,1.28
		c0.82,0.81,1.28,1.98,1.28,3.14v4.42C457.41,700.4,455.43,702.38,452.99,702.38z M452.99,692.26c-0.82,0-1.51,0.7-1.51,1.51v4.42
		c0,0.81,0.7,1.51,1.51,1.51c0.81,0,1.51-0.7,1.51-1.51v-4.42c0-0.35-0.12-0.7-0.46-1.05C453.8,692.38,453.46,692.26,452.99,692.26z
		"/>
	<path class="st0" d="M452.99,708.2c-0.82,0-1.51-0.7-1.51-1.51v-5.82c0-0.81,0.7-1.51,1.51-1.51c0.81,0,1.51,0.7,1.51,1.51v5.82
		C454.5,707.62,453.8,708.2,452.99,708.2z"/>
	<path class="st0" d="M402.14,693.66c-0.82,0-1.51-0.7-1.51-1.51c0-3.26,2.56-5.82,5.82-5.82c0.58,0,1.05,0.12,1.51,0.23
		c0.58-4.19,4.31-7.45,8.61-7.45c2.09,0,4.07,0.81,5.7,2.09c0.93-0.47,1.98-0.7,3.03-0.7c2.91,0,5.58,1.75,6.75,4.42
		c2.79,0.47,4.89,2.79,4.89,5.7c0,0.81-0.7,1.51-1.51,1.51c-0.82,0-1.51-0.7-1.51-1.51c0-1.63-1.28-2.91-2.91-2.91h-0.12
		c-0.7,0-1.28-0.47-1.51-1.05c-0.46-1.98-2.21-3.26-4.19-3.26c-0.93,0-1.74,0.23-2.44,0.7c-0.58,0.47-1.4,0.35-1.86-0.23
		c-1.05-1.28-2.68-1.98-4.3-1.98c-3.26,0-5.82,2.56-5.82,5.82c0,0.35,0,0.7,0.12,0.93c0.12,0.58-0.23,1.28-0.7,1.51
		c-0.58,0.35-1.28,0.23-1.63-0.23c-0.58-0.47-1.28-0.81-1.98-0.81c-1.63,0-2.91,1.28-2.91,2.91
		C403.54,693.07,402.96,693.66,402.14,693.66z"/>
	<path class="st0" d="M412.27,743.11c-0.82,0-1.51-0.7-1.51-1.51v-34.91c0-0.81,0.7-1.51,1.51-1.51c0.81,0,1.51,0.7,1.51,1.51v34.91
		C413.78,742.52,413.08,743.11,412.27,743.11z"/>
	<path class="st0" d="M450.08,743.11c-0.82,0-1.51-0.7-1.51-1.51v-34.91c0-0.81,0.7-1.51,1.51-1.51c0.81,0,1.51,0.7,1.51,1.51v34.91
		C451.59,742.52,450.9,743.11,450.08,743.11z"/>
	<path class="st0" d="M443.57,686.44c-1.98,0-3.61-1.63-3.61-3.61c0-1.98,1.63-3.61,3.61-3.61c1.98,0,3.61,1.63,3.61,3.61
		C447.17,684.81,445.54,686.44,443.57,686.44z M443.57,682.02c-0.35,0-0.7,0.35-0.7,0.7c0,0.35,0.35,0.7,0.7,0.7
		c0.35,0,0.7-0.35,0.7-0.7C444.26,682.37,443.91,682.02,443.57,682.02z"/>
	<path class="st0" d="M460.32,686.44c-2.44,0-4.42-1.98-4.42-4.42c0-2.44,1.98-4.42,4.42-4.42c2.44,0,4.42,1.98,4.42,4.42
		C464.74,684.46,462.65,686.44,460.32,686.44z M460.32,680.62c-0.81,0-1.51,0.7-1.51,1.51c0,0.81,0.7,1.51,1.51,1.51
		c0.82,0,1.51-0.7,1.51-1.51C461.72,681.21,461.14,680.62,460.32,680.62z"/>
</g>
<g>
	<path class="st0" d="M744,734.68h-1.55c-0.6,0-1.09-0.49-1.09-1.09v-23.63c0-0.97,1.18-1.46,1.87-0.77l0,0
		c0.69,0.69,1.87,0.2,1.87-0.77v-17.58c0-0.6-0.49-1.09-1.09-1.09h-17.58c-0.97,0-1.46,1.18-0.77,1.87l4.06,4.06
		c0.43,0.43,0.43,1.12,0,1.55l-5.01,5.01c-0.38,0.38-0.99,0.43-1.43,0.1l-13.06-9.71c-0.38-0.28-0.9-0.29-1.29-0.01l-22.11,15.72
		c-0.72,0.52-1.73,0-1.73-0.89v-31.66c0-0.6-0.49-1.09-1.09-1.09h-1.55c-0.6,0-1.09,0.49-1.09,1.09v61.57c0,0.6,0.49,1.09,1.09,1.09
		H744c0.6,0,1.09-0.49,1.09-1.09v-1.55C745.09,735.17,744.6,734.68,744,734.68z M707.61,709.4v24.19c0,0.6-0.49,1.09-1.09,1.09
		h-9.02c-0.6,0-1.09-0.49-1.09-1.09v-17.78c0-0.35,0.17-0.69,0.46-0.89l9.02-6.41C706.61,707.99,707.61,708.51,707.61,709.4z
		 M713.1,708.76l9.14,6.8c0.28,0.21,0.44,0.53,0.44,0.88v17.15c0,0.6-0.49,1.09-1.09,1.09h-9.14c-0.6,0-1.09-0.49-1.09-1.09v-23.95
		C711.35,708.74,712.37,708.22,713.1,708.76z M726.74,716.01l9.02-9.02c0.69-0.69,1.87-0.2,1.87,0.77v25.82
		c0,0.6-0.49,1.09-1.09,1.09h-9.02c-0.6,0-1.09-0.49-1.09-1.09v-16.8C726.42,716.5,726.53,716.22,726.74,716.01z M710.15,697.23
		l13.47,10.02c0.44,0.32,1.04,0.28,1.43-0.1l9.94-9.94c0.43-0.43,0.43-1.12,0-1.55l-0.32-0.32c-0.69-0.69-0.2-1.87,0.77-1.87h4.83
		c0.6,0,1.09,0.49,1.09,1.09v4.83c0,0.97-1.18,1.46-1.87,0.77l-0.32-0.32c-0.43-0.43-1.12-0.43-1.55,0l-12.24,12.24
		c-0.38,0.38-0.99,0.43-1.43,0.1l-13.87-10.32c-0.38-0.28-0.9-0.29-1.29-0.01l-22,15.64c-0.72,0.52-1.73,0-1.73-0.89v-1.91
		c0-0.35,0.17-0.69,0.46-0.89l23.33-16.58C709.25,696.94,709.77,696.94,710.15,697.23z M685.53,722.98l5.41-3.84
		c0.72-0.52,1.73,0,1.73,0.89v13.57c0,0.6-0.49,1.09-1.09,1.09h-5.41c-0.6,0-1.09-0.49-1.09-1.09v-9.72
		C685.07,723.51,685.24,723.18,685.53,722.98z"/>
	<path class="st0" d="M718.52,719.08v0.09c-0.09,0.65-0.55,1.11-1.2,1.11h-0.09c-0.65-0.09-1.11-0.55-1.11-1.2v-0.09
		c0.09-0.65,0.65-1.2,1.39-1.11C718.06,717.88,718.52,718.43,718.52,719.08z"/>
	<path class="st0" d="M735.69,714.17v0.09c-0.09,0.65-0.55,1.11-1.2,1.11h-0.09c-0.65-0.09-1.11-0.55-1.11-1.2v-0.09
		c0.09-0.65,0.65-1.2,1.39-1.11C735.23,712.97,735.69,713.53,735.69,714.17z"/>
	<path class="st0" d="M734.46,728.89v0.09c-0.09,0.65-0.55,1.11-1.2,1.11h-0.09c-0.65-0.09-1.11-0.55-1.11-1.2v-0.09
		c0.09-0.65,0.65-1.2,1.39-1.11C734,727.69,734.46,728.24,734.46,728.89z"/>
	<path class="st0" d="M720.23,726.55v0.09c-0.09,0.65-0.55,1.11-1.2,1.11h-0.09c-0.65-0.09-1.11-0.55-1.11-1.2v-0.09
		c0.09-0.65,0.65-1.2,1.39-1.11C719.77,725.35,720.23,725.91,720.23,726.55z"/>
	<path class="st0" d="M689.55,724.94v0.09c-0.09,0.65-0.55,1.11-1.2,1.11h-0.09c-0.65-0.09-1.11-0.55-1.11-1.2v-0.09
		c0.09-0.65,0.65-1.2,1.39-1.11C689.09,723.74,689.55,724.29,689.55,724.94z"/>
	<path class="st0" d="M700.81,724.1v0.09c-0.09,0.65-0.55,1.11-1.2,1.11h-0.09c-0.65-0.09-1.11-0.55-1.11-1.2v-0.09
		c0.09-0.65,0.65-1.2,1.39-1.11C700.35,722.99,700.81,723.55,700.81,724.1z"/>
	<path class="st0" d="M691,730.85v0.09c-0.09,0.65-0.55,1.11-1.2,1.11h-0.09c-0.65-0.09-1.11-0.55-1.11-1.2v-0.09
		c0.09-0.65,0.65-1.2,1.39-1.11C690.54,729.74,691,730.29,691,730.85z"/>
	<path class="st0" d="M704.69,727.9v0.09c-0.09,0.65-0.55,1.11-1.2,1.11h-0.09c-0.65-0.09-1.11-0.55-1.11-1.2v-0.09
		c0.09-0.65,0.65-1.2,1.39-1.11C704.23,726.79,704.69,727.34,704.69,727.9z"/>
	<g>
		<path class="st0" d="M709.85,689.55c-0.28,0-0.46-0.09-0.65-0.18c-3.07-2.28-4.86-5.59-4.89-9.1c-0.04-3.6,1.78-7.04,4.81-9.29
			c0.37-0.28,0.92-0.29,1.39-0.01c3.07,2.28,4.95,5.68,4.99,9.19c0.03,3.51-1.78,6.86-4.9,9.2
			C710.41,689.45,710.13,689.54,709.85,689.55z M709.79,673.37c-2.02,1.78-3.19,4.28-3.17,6.87c0.02,2.5,1.16,4.98,3.3,6.72
			c2.11-1.78,3.19-4.19,3.26-6.78C713.06,677.59,711.84,675.11,709.79,673.37z"/>
		<path class="st0" d="M709.85,689.55c-0.65,0.01-1.21-0.54-1.21-1.19l-0.09-9.52c-0.01-0.65,0.54-1.21,1.19-1.21
			c0.65-0.01,1.21,0.54,1.21,1.19l0.09,9.61C711.05,688.98,710.5,689.54,709.85,689.55z"/>
	</g>
	<path class="st0" d="M702.3,721.74c-1.94,0-3.51-1.57-3.51-3.51s1.57-3.51,3.51-3.51c1.94,0,3.51,1.57,3.51,3.51
		S704.14,721.74,702.3,721.74z M702.3,717.12c-0.65,0-1.2,0.55-1.2,1.2s0.55,1.2,1.2,1.2c0.65,0,1.2-0.55,1.2-1.2
		S702.94,717.12,702.3,717.12z"/>
	<path class="st0" d="M714.79,733.06c-1.57,0-2.87-1.29-2.87-2.87c0-1.57,1.29-2.87,2.87-2.87c1.57,0,2.87,1.29,2.87,2.87
		C717.65,731.77,716.36,733.06,714.79,733.06z M714.79,729.55c-0.28,0-0.55,0.28-0.55,0.55s0.28,0.55,0.55,0.55
		c0.28,0,0.55-0.28,0.55-0.55S715.06,729.55,714.79,729.55z"/>
	<path class="st0" d="M730.66,724.43c-1.57,0-2.87-1.29-2.87-2.87c0-1.57,1.29-2.87,2.87-2.87c1.57,0,2.87,1.29,2.87,2.87
		C733.53,723.13,732.23,724.43,730.66,724.43z M730.66,720.92c-0.28,0-0.55,0.28-0.55,0.55c0,0.28,0.28,0.55,0.55,0.55
		c0.28,0,0.55-0.28,0.55-0.55C731.22,721.19,730.94,720.92,730.66,720.92z"/>
</g>
<g>
	<path class="st15" d="M1020.3,61.16l-0.13-3.62h0.42c0.24,1.01,0.63,1.8,1.16,2.35c0.53,0.55,1.15,0.83,1.86,0.83
		c0.57,0,1.03-0.15,1.37-0.46c0.34-0.31,0.52-0.72,0.52-1.22c0-0.37-0.11-0.7-0.34-0.98c-0.23-0.29-0.62-0.59-1.19-0.93l-1.95-1.11
		c-0.66-0.38-1.14-0.79-1.44-1.23c-0.3-0.44-0.45-0.96-0.45-1.55c0-0.83,0.29-1.51,0.86-2.03c0.57-0.53,1.31-0.79,2.2-0.79
		c0.43,0,0.88,0.07,1.36,0.2c0.48,0.13,0.74,0.2,0.8,0.2c0.1,0,0.19-0.03,0.26-0.1c0.07-0.07,0.13-0.16,0.18-0.28h0.35l0.15,3.13
		h-0.42c-0.15-0.81-0.45-1.44-0.89-1.89c-0.44-0.45-0.98-0.68-1.63-0.68c-0.5,0-0.91,0.14-1.22,0.4c-0.31,0.27-0.47,0.61-0.47,1.02
		c0,0.37,0.12,0.7,0.36,1c0.23,0.3,0.62,0.59,1.15,0.88l1.92,1.04c0.66,0.36,1.15,0.77,1.47,1.24c0.32,0.47,0.48,1.01,0.48,1.63
		c0,0.89-0.3,1.63-0.9,2.21c-0.6,0.58-1.35,0.87-2.28,0.87c-0.44,0-0.96-0.08-1.56-0.23c-0.6-0.15-0.97-0.23-1.12-0.23
		c-0.16,0-0.27,0.03-0.36,0.08c-0.08,0.05-0.13,0.14-0.16,0.26H1020.3L1020.3,61.16z M1000.81,61.03v-0.41
		c0.64-0.03,1.06-0.15,1.26-0.35c0.21-0.2,0.31-0.66,0.31-1.38V48.08c0-0.66-0.07-1.06-0.22-1.21c-0.14-0.15-0.44-0.22-0.9-0.22
		h-0.36v-0.42c0.39-0.06,0.86-0.17,1.43-0.34c0.57-0.17,1.23-0.4,1.98-0.69V59c0,0.63,0.1,1.06,0.3,1.27
		c0.2,0.22,0.61,0.33,1.2,0.35v0.41H1000.81L1000.81,61.03z M993.75,61.03v-0.41c0.64-0.03,1.06-0.15,1.26-0.35
		c0.21-0.2,0.31-0.66,0.31-1.38V48.08c0-0.66-0.07-1.06-0.22-1.21c-0.14-0.15-0.44-0.22-0.9-0.22h-0.35v-0.42
		c0.39-0.06,0.86-0.17,1.43-0.34c0.57-0.17,1.23-0.4,1.98-0.69V59c0,0.63,0.1,1.06,0.3,1.27c0.2,0.22,0.61,0.33,1.21,0.35v0.41
		H993.75L993.75,61.03z M988.21,46.52c0-0.34,0.12-0.63,0.35-0.87c0.23-0.24,0.53-0.35,0.88-0.35c0.34,0,0.63,0.12,0.86,0.36
		c0.24,0.24,0.36,0.53,0.36,0.86c0,0.34-0.12,0.63-0.36,0.87c-0.24,0.24-0.52,0.36-0.86,0.36c-0.34,0-0.63-0.12-0.87-0.36
		C988.34,47.15,988.21,46.86,988.21,46.52L988.21,46.52z M986.76,61.03l0.01-0.42c0.63-0.02,1.06-0.14,1.26-0.34
		c0.21-0.2,0.31-0.66,0.31-1.38v-5.65c0-0.67-0.07-1.08-0.21-1.22c-0.14-0.14-0.44-0.21-0.89-0.21h-0.36v-0.42
		c0.4-0.06,0.89-0.17,1.46-0.34c0.58-0.17,1.22-0.39,1.94-0.66V59c0,0.66,0.1,1.09,0.3,1.3c0.21,0.21,0.6,0.31,1.18,0.32v0.42
		H986.76L986.76,61.03z M967.56,61.03v-0.41c0.61-0.03,1.02-0.14,1.22-0.34c0.2-0.2,0.31-0.56,0.31-1.1V53.6
		c0-0.73-0.08-1.2-0.26-1.38c-0.17-0.19-0.53-0.29-1.06-0.29h-0.22v-0.42c0.64-0.11,1.25-0.26,1.83-0.45
		c0.59-0.19,1.13-0.41,1.63-0.67v1.82c0.63-0.6,1.23-1.04,1.78-1.33c0.55-0.28,1.09-0.43,1.6-0.43c0.61,0,1.13,0.16,1.56,0.47
		c0.43,0.31,0.75,0.76,0.93,1.33c0.84-0.67,1.53-1.14,2.07-1.4c0.53-0.26,1.03-0.39,1.49-0.39c0.96,0,1.65,0.27,2.08,0.83
		c0.42,0.55,0.64,1.47,0.64,2.77v4.84c0,0.79,0.09,1.27,0.27,1.44c0.18,0.17,0.58,0.26,1.22,0.27v0.42h-5.06l0.01-0.42
		c0.69-0.02,1.14-0.11,1.34-0.26c0.2-0.15,0.3-0.52,0.3-1.1v-5.59c0-0.58-0.16-1.03-0.49-1.34c-0.33-0.32-0.78-0.48-1.37-0.48
		c-0.37,0-0.74,0.08-1.1,0.26c-0.36,0.17-0.76,0.46-1.21,0.86v6.17c0,0.64,0.1,1.04,0.3,1.22c0.19,0.18,0.61,0.27,1.26,0.27v0.42
		h-5.1l0.01-0.42c0.67-0.04,1.11-0.13,1.32-0.29c0.21-0.15,0.31-0.45,0.31-0.9v-5.7c0-0.6-0.15-1.06-0.46-1.39
		c-0.3-0.33-0.73-0.49-1.29-0.49c-0.38,0-0.76,0.09-1.15,0.28c-0.39,0.19-0.81,0.48-1.25,0.88v6.28c0,0.53,0.1,0.89,0.3,1.06
		c0.19,0.17,0.61,0.27,1.26,0.29v0.41H967.56L967.56,61.03z M943.08,61.34l-0.84-4.89h0.46c0.53,1.3,1.2,2.32,2,3.05
		c0.8,0.73,1.67,1.09,2.58,1.09c0.8,0,1.48-0.26,2.03-0.77c0.54-0.52,0.82-1.16,0.82-1.93c0-0.57-0.18-1.09-0.54-1.58
		c-0.37-0.49-0.93-0.95-1.69-1.4l-2.37-1.43c-1.02-0.6-1.75-1.22-2.2-1.85c-0.45-0.63-0.67-1.36-0.67-2.18
		c0-1.15,0.41-2.1,1.23-2.83c0.82-0.73,1.89-1.1,3.21-1.1c0.61,0,1.26,0.11,1.95,0.34c0.69,0.23,1.1,0.34,1.23,0.34
		c0.16,0,0.29-0.06,0.39-0.17c0.1-0.12,0.16-0.28,0.19-0.52h0.4l0.5,4.58h-0.46c-0.44-1.24-1-2.19-1.69-2.83
		c-0.69-0.65-1.48-0.98-2.36-0.98c-0.75,0-1.36,0.21-1.83,0.64c-0.48,0.43-0.71,0.97-0.71,1.64c0,0.52,0.16,0.99,0.49,1.42
		c0.33,0.43,0.89,0.88,1.68,1.36l2.63,1.55c1.08,0.65,1.83,1.29,2.26,1.92c0.43,0.63,0.65,1.38,0.65,2.25
		c0,1.31-0.44,2.35-1.32,3.13c-0.88,0.78-2.06,1.17-3.55,1.17c-0.69,0-1.41-0.1-2.14-0.3c-0.74-0.2-1.14-0.3-1.21-0.3
		c-0.2,0-0.37,0.04-0.49,0.14c-0.12,0.09-0.2,0.23-0.23,0.42H943.08L943.08,61.34z M1014.34,59.82c-0.61,0.48-1.2,0.83-1.76,1.06
		c-0.56,0.23-1.09,0.34-1.61,0.34c-0.78,0-1.39-0.22-1.86-0.66c-0.46-0.44-0.69-1.03-0.69-1.77c0-0.93,0.41-1.71,1.23-2.35
		c0.83-0.64,2.36-1.32,4.62-2.03v-1.19c0-0.83-0.14-1.4-0.4-1.73c-0.27-0.33-0.73-0.49-1.39-0.49c-0.48,0-0.89,0.12-1.23,0.36
		c-0.34,0.24-0.5,0.52-0.5,0.85c0,0.03,0.01,0.12,0.04,0.29c0.03,0.16,0.04,0.31,0.04,0.43c0,0.27-0.1,0.5-0.29,0.68
		c-0.19,0.18-0.43,0.27-0.72,0.27c-0.31,0-0.56-0.1-0.74-0.29c-0.19-0.19-0.28-0.45-0.28-0.78c0-0.62,0.36-1.17,1.1-1.63
		c0.73-0.46,1.62-0.69,2.67-0.69c1.24,0,2.14,0.27,2.72,0.81c0.58,0.54,0.87,1.39,0.87,2.54v5.09c0,0.38,0.05,0.65,0.15,0.81
		c0.1,0.16,0.26,0.24,0.48,0.24c0.17,0,0.32-0.03,0.45-0.09c0.13-0.06,0.28-0.17,0.45-0.33l0.27,0.3c-0.31,0.43-0.67,0.77-1.06,1
		c-0.4,0.24-0.79,0.35-1.18,0.35c-0.36,0-0.65-0.11-0.87-0.33C1014.63,60.67,1014.46,60.32,1014.34,59.82L1014.34,59.82z
		 M1014.27,58.95v-3.94c-1.39,0.47-2.4,0.96-3.02,1.46c-0.62,0.51-0.93,1.09-0.93,1.76c0,0.55,0.17,1.01,0.52,1.37
		c0.34,0.37,0.77,0.55,1.28,0.55c0.42,0,0.83-0.11,1.23-0.33C1013.74,59.6,1014.05,59.31,1014.27,58.95L1014.27,58.95z M958.51,61.3
		c1.91,0.06,3.38-0.49,4.39-1.51c0.83-0.83,1.47-1.8,1.98-2.84c1.3-2.62,1.86-5.58,2.89-8.31c0.43-1.15,0.93-2.34,1.49-3.46
		c0.84-1.68,1.94-3.6,3.56-4.64c0.47-0.3,1.94,1.02,2.92,1.34c0.95,0.3,2.18-1.06,3.34-0.96c1.05,0.09,2.01,1.66,3.24,1.44
		c1.1-0.2,2.28-2.19,3.53-2.76c0.94-0.42,2.45-0.09,3.47-0.76c1.45-1.33,0.91-2.7,1.78-4.07c0.67-1.07,2.31-1.38,2.77-2.45
		c0.41-0.95-1.36-3.12-1.01-4.05c0.34-0.93,2.8-0.62,3.16-1.52c0.32-0.8-0.6-2.37-0.19-3.14c0.41-0.77,2.14-0.75,2.7-1.47
		c0.56-0.74,0.48-2.17,1.26-2.85c0.77-0.67,2.39-0.59,3.43-1.19c1.34-0.78,2.92-1.49,4.83-2.14c-1.23-0.28-3,0.05-4.27-0.16
		c-0.99-0.16-1.47-0.88-2.48-0.99c-0.89-0.1-1.74,0.91-2.64,0.85c-0.9-0.06-1.86-1.19-2.77-1.21c-0.81-0.02-1.3,1.2-2.1,1.21
		c-0.8,0.02-1.92-1.16-2.71-1.11c-0.75,0.05-0.93,1.45-1.68,1.53c-0.96,0.11-2.48-1.09-3.41-0.93c-0.9,0.16-0.93,1.61-1.8,1.82
		c-0.87,0.21-2.57-0.82-3.4-0.56c-1.06,0.34-0.95,1.94-1.93,2.38c-0.76,0.34-2.63-0.51-3.34-0.11c-0.57,0.32-1.43,2.53-1.96,2.9
		c-1.32,0.9-2.16,0.13-3.11,1.37c-0.41,0.54,0.8,1.47,0.46,2.06c-0.43,0.76-2.39,1.19-2.69,2.01c-0.35,0.96,1.11,1.88,0.96,2.88
		c-0.12,0.78-1.91,1.65-1.9,2.43c0.01,0.78,0.08,1.56,0.22,2.32c0.4,2.12,1.24,3.93,3.46,2.44c0.17-0.11,0.32-0.35,0.46-0.63
		c0.82-1.62,2.01-2.79,3.16-4.16c0.16-3.3,0.88-5.61-0.56-8.68c2.42,3.3,3.05,3.28,1.67,7.36c1.09-1.23,2.19-2.21,3.36-3.11
		c0.76-2.4,1.64-4.12,1.1-6.76c1.22,2.93,1.77,3.3,0.4,5.65c1.67-1.18,3.35-2.48,5.14-3.45c0.74-1.59,1.26-2.42,1.17-4.55
		c0.58,2.43,1.29,2.46,0.17,3.88c2.49-1.16,5.54-2.24,6.87-2.78c-1.89,1.46-3.58,2.66-5.14,3.7c1.48-0.12,1.27,0.53,2.95,2.19
		c-1.69-1.12-2.66-1.17-4.25-1.33c-1.63,1.06-3.1,1.99-4.5,2.94c2.38-0.7,2.68-0.07,5.19,1.7c-2.52-1.13-4.42-0.6-7.03-0.39
		c-1.2,0.9-2.36,1.88-3.53,3.05c3.98-0.31,4.09,0.5,6.7,3.49c-2.41-1.87-4.77-2.04-7.65-2.51c-1.5,1.63-3.26,3.37-4.63,5.3
		c-0.5,0.71-1.01,1.42-1.51,2.15c-1.58,2.3-2.89,4.64-3.87,7.25c-0.74,1.99-1.42,4.02-2.07,6.05c-0.3,0.94-0.58,1.82-0.89,2.6
		c-0.63,1.61-1.39,2.8-2.69,3.3c-0.43,0.16-0.92,0.25-1.49,0.25c-1.13,0-2.03-0.44-2.71-1.3c-0.68-0.87-1.02-2.04-1.02-3.5v-0.24
		h7.11c-0.08-1.27-0.47-2.27-1.18-2.99c-0.71-0.72-1.64-1.08-2.79-1.08c-1.43,0-2.58,0.52-3.47,1.56c-0.89,1.04-1.33,2.41-1.33,4.11
		c0,1.54,0.41,2.79,1.23,3.75C956.14,60.82,957.2,61.26,958.51,61.3L958.51,61.3z M955.82,53.88c0.09-0.87,0.37-1.54,0.83-2.02
		c0.46-0.48,1.06-0.72,1.79-0.72c0.64,0,1.17,0.22,1.59,0.67c0.42,0.44,0.62,1,0.62,1.68c0,0.16-0.03,0.27-0.08,0.32
		c-0.06,0.05-0.23,0.08-0.5,0.08L955.82,53.88z"/>
	<path class="st15" d="M943.16,66.3c2.12,0,4.49-0.06,7.1-0.19c2.61-0.12,4.18-0.18,4.68-0.18c2.74,0,4.81,0.59,6.23,1.76
		c1.41,1.17,2.11,2.9,2.11,5.17c0,2.23-0.69,4.21-2.09,5.95c-1.4,1.73-3.44,3.17-6.14,4.3l7.75,10.81c1.29,1.78,2.48,3.27,3.56,4.46
		c1.08,1.18,2.06,2.09,2.93,2.68h-5.13c-0.69,0-1.22-0.09-1.58-0.28c-0.36-0.18-0.74-0.56-1.15-1.12l-9.26-13.03
		c-0.68-0.96-1.3-1.58-1.88-1.88c-0.59-0.3-1.34-0.45-2.25-0.45h-0.43v3.31c0,5.31,0.1,8.75,0.31,10.29
		c0.2,1.55,0.54,2.59,1.04,3.16h-7.36c0.5-0.53,0.84-1.74,1.04-3.65c0.21-1.91,0.31-5.99,0.31-12.23v-2.22
		c0-6.81-0.1-11.16-0.31-13.04c-0.2-1.88-0.54-3.08-1.04-3.61H943.16L943.16,66.3z M947.62,82.19c0.32,0.06,0.66,0.12,1.03,0.15
		c0.37,0.04,0.79,0.05,1.25,0.05c2.63,0,4.64-0.69,6.06-2.07c1.41-1.37,2.11-3.34,2.11-5.9c0-2.13-0.54-3.72-1.62-4.76
		c-1.07-1.04-2.71-1.56-4.92-1.56c-0.86,0-1.54,0.01-2.02,0.04c-0.48,0.03-0.95,0.07-1.38,0.13c-0.18,0.78-0.31,2.01-0.39,3.69
		c-0.08,1.69-0.12,4.08-0.12,7.17v0.58V82.19L947.62,82.19z M976.23,79.69v1.3h1.45c3.25,0,5.74-0.63,7.46-1.91
		c1.73-1.27,2.58-3.09,2.58-5.45c0-1.81-0.66-3.16-1.97-4.07c-1.32-0.91-3.28-1.36-5.89-1.36c-0.48,0-0.98,0.01-1.5,0.04
		c-0.52,0.03-1.07,0.07-1.63,0.13c-0.18,0.76-0.31,1.98-0.39,3.65c-0.08,1.68-0.12,4.08-0.12,7.2V79.69L976.23,79.69z M976.23,83.01
		v6.67c0,1.98,0.05,3.75,0.14,5.3c0.08,1.56,0.19,2.57,0.32,3.01c0.12,0.44,0.56,0.79,1.32,1.03c0.76,0.24,1.76,0.37,2.99,0.37
		c2.57,0,4.55-0.72,5.96-2.17c1.41-1.45,2.11-3.48,2.11-6.09c0-2.57-0.81-4.57-2.45-5.99c-1.63-1.42-3.96-2.13-6.98-2.13H976.23
		L976.23,83.01z M973.9,101.06h-3.68c0.5-0.53,0.84-1.74,1.04-3.65c0.21-1.91,0.31-5.98,0.31-12.23v-2.22
		c0-6.81-0.1-11.16-0.31-13.04c-0.2-1.88-0.54-3.08-1.04-3.61h4.55c1.18,0,2.87-0.06,5.04-0.19c2.18-0.12,3.78-0.18,4.78-0.18
		c2.65,0,4.7,0.57,6.15,1.72c1.46,1.15,2.19,2.77,2.19,4.85c0,1.95-0.71,3.68-2.13,5.17c-1.42,1.49-3.52,2.72-6.29,3.67
		c3.24,0.37,5.73,1.37,7.49,3.01c1.76,1.63,2.65,3.75,2.65,6.36c0,3.18-1.19,5.76-3.59,7.72c-2.39,1.97-5.58,2.96-9.57,2.96
		c-0.98,0-2.3-0.05-3.99-0.16C975.83,101.12,974.63,101.06,973.9,101.06L973.9,101.06z M1025.71,66.3l-0.32,7.45
		c-0.78-1.89-1.86-3.31-3.25-4.27c-1.4-0.95-3.09-1.43-5.09-1.43c-3.88,0-6.92,1.28-9.14,3.84c-2.21,2.56-3.33,6.09-3.33,10.59
		c0,4.64,1.21,8.33,3.64,11.09c2.42,2.76,5.67,4.13,9.72,4.13c1.92,0,3.72-0.37,5.39-1.11c1.67-0.74,3.11-1.81,4.33-3.18
		c-0.63,2.52-2.06,4.54-4.27,6.05c-2.21,1.51-4.88,2.27-7.98,2.27c-4.74,0-8.61-1.65-11.65-4.95c-3.04-3.3-4.55-7.55-4.55-12.73
		c0-5.74,1.64-10.23,4.9-13.49c3.26-3.25,7.77-4.88,13.53-4.88c0.9,0,2.24,0.11,4.03,0.32C1023.47,66.2,1024.81,66.3,1025.71,66.3z"
		/>
	<g>
		<path class="st15" d="M1032.42,65.93L1032.42,65.93L1032.42,65.93c1.21,0,2.3,0.49,3.09,1.28c0.79,0.79,1.28,1.88,1.28,3.09h0v0v0
			h0c0,1.21-0.49,2.3-1.28,3.09c-0.79,0.79-1.88,1.28-3.09,1.28v0h0h0v0c-1.21,0-2.3-0.49-3.09-1.28c-0.79-0.79-1.28-1.88-1.28-3.09
			h0v0v0h0c0-1.21,0.49-2.3,1.28-3.09h0C1030.11,66.42,1031.21,65.93,1032.42,65.93L1032.42,65.93L1032.42,65.93L1032.42,65.93z
			 M1032.42,66.72L1032.42,66.72L1032.42,66.72L1032.42,66.72L1032.42,66.72c-0.99,0-1.89,0.4-2.54,1.05h0
			c-0.65,0.65-1.05,1.55-1.05,2.53h0v0v0h0c0,0.99,0.4,1.89,1.05,2.54c0.65,0.65,1.55,1.05,2.53,1.05v0h0h0v0
			c0.99,0,1.89-0.4,2.54-1.05c0.65-0.65,1.05-1.54,1.05-2.53h0v0v0h0c0-0.99-0.4-1.88-1.05-2.54
			C1034.3,67.12,1033.41,66.72,1032.42,66.72z"/>
		<path class="st15" d="M1030.74,72.44v-4.27h1.81c0.46,0,0.79,0.04,0.99,0.12c0.21,0.08,0.37,0.21,0.5,0.41
			c0.12,0.2,0.19,0.42,0.19,0.67c0,0.32-0.09,0.58-0.28,0.79c-0.19,0.21-0.47,0.34-0.84,0.39c0.19,0.11,0.34,0.23,0.46,0.36
			c0.12,0.13,0.28,0.36,0.49,0.69l0.52,0.83h-1.03l-0.62-0.93c-0.22-0.33-0.37-0.54-0.45-0.63c-0.08-0.09-0.17-0.15-0.26-0.18
			c-0.09-0.03-0.24-0.05-0.43-0.05h-0.17v1.78H1030.74L1030.74,72.44z M1031.6,69.98h0.64c0.41,0,0.67-0.02,0.77-0.05
			c0.1-0.03,0.18-0.1,0.24-0.18c0.06-0.09,0.09-0.19,0.09-0.32c0-0.14-0.04-0.26-0.12-0.35c-0.08-0.09-0.18-0.14-0.32-0.17
			c-0.07-0.01-0.28-0.01-0.63-0.01h-0.67V69.98z"/>
	</g>
	<g>
		<path class="st0" d="M1004.51,108.01l0.79-0.07c0.04,0.32,0.12,0.58,0.26,0.78c0.14,0.2,0.35,0.37,0.64,0.49
			c0.29,0.13,0.61,0.19,0.97,0.19c0.32,0,0.6-0.05,0.85-0.14c0.25-0.1,0.43-0.23,0.55-0.39c0.12-0.17,0.18-0.35,0.18-0.54
			c0-0.2-0.06-0.37-0.17-0.52c-0.12-0.15-0.31-0.27-0.57-0.37c-0.17-0.07-0.55-0.17-1.13-0.31c-0.58-0.14-0.99-0.27-1.22-0.4
			c-0.3-0.16-0.53-0.36-0.68-0.59c-0.15-0.23-0.22-0.5-0.22-0.79c0-0.32,0.09-0.62,0.27-0.9c0.18-0.28,0.45-0.49,0.8-0.63
			c0.35-0.14,0.74-0.22,1.16-0.22c0.47,0,0.89,0.08,1.24,0.23c0.36,0.15,0.64,0.37,0.83,0.67c0.19,0.29,0.3,0.63,0.31,1l-0.81,0.06
			c-0.04-0.4-0.19-0.7-0.44-0.91c-0.25-0.2-0.62-0.31-1.11-0.31c-0.51,0-0.88,0.09-1.11,0.28c-0.23,0.19-0.35,0.41-0.35,0.67
			c0,0.23,0.08,0.42,0.25,0.56c0.16,0.15,0.58,0.3,1.27,0.45c0.68,0.15,1.15,0.29,1.4,0.4c0.37,0.17,0.64,0.39,0.82,0.65
			c0.18,0.26,0.26,0.56,0.26,0.9c0,0.34-0.1,0.66-0.29,0.95c-0.19,0.3-0.47,0.53-0.83,0.7c-0.36,0.17-0.77,0.25-1.22,0.25
			c-0.57,0-1.06-0.08-1.44-0.25c-0.39-0.17-0.69-0.42-0.91-0.76C1004.64,108.82,1004.52,108.44,1004.51,108.01z"/>
		<path class="st0" d="M1010.83,110.05v-0.89h0.89v0.89H1010.83z"/>
		<path class="st0" d="M1012.47,110.05l2.44-6.34h0.9l2.6,6.34h-0.96l-0.74-1.92h-2.65l-0.7,1.92H1012.47z M1014.3,107.45h2.15
			l-0.66-1.76c-0.2-0.53-0.35-0.97-0.45-1.32c-0.08,0.41-0.2,0.81-0.34,1.21L1014.3,107.45z"/>
		<path class="st0" d="M1019.2,110.05v-0.89h0.89v0.89H1019.2z"/>
		<path class="st0" d="M1021.26,108.01l0.79-0.07c0.04,0.32,0.13,0.58,0.26,0.78c0.14,0.2,0.35,0.37,0.64,0.49
			c0.29,0.13,0.61,0.19,0.97,0.19c0.32,0,0.6-0.05,0.85-0.14c0.25-0.1,0.43-0.23,0.55-0.39c0.12-0.17,0.18-0.35,0.18-0.54
			c0-0.2-0.06-0.37-0.17-0.52c-0.12-0.15-0.31-0.27-0.57-0.37c-0.17-0.07-0.55-0.17-1.13-0.31c-0.58-0.14-0.99-0.27-1.22-0.4
			c-0.3-0.16-0.53-0.36-0.68-0.59c-0.15-0.23-0.22-0.5-0.22-0.79c0-0.32,0.09-0.62,0.27-0.9c0.18-0.28,0.45-0.49,0.8-0.63
			c0.35-0.14,0.74-0.22,1.16-0.22c0.47,0,0.89,0.08,1.24,0.23c0.36,0.15,0.64,0.37,0.83,0.67c0.19,0.29,0.3,0.63,0.31,1l-0.81,0.06
			c-0.04-0.4-0.19-0.7-0.44-0.91c-0.25-0.2-0.62-0.31-1.11-0.31c-0.51,0-0.88,0.09-1.11,0.28c-0.23,0.19-0.35,0.41-0.35,0.67
			c0,0.23,0.08,0.42,0.25,0.56c0.16,0.15,0.58,0.3,1.27,0.45c0.68,0.15,1.15,0.29,1.4,0.4c0.37,0.17,0.64,0.39,0.82,0.65
			c0.18,0.26,0.26,0.56,0.26,0.9c0,0.34-0.1,0.66-0.29,0.95c-0.19,0.3-0.47,0.53-0.83,0.7c-0.36,0.17-0.77,0.25-1.22,0.25
			c-0.57,0-1.06-0.08-1.44-0.25c-0.39-0.17-0.69-0.42-0.91-0.76C1021.38,108.82,1021.27,108.44,1021.26,108.01z"/>
	</g>
</g>
</svg>
