<?xml version="1.0" encoding="utf-8"?>
<!-- Generator: Adobe Illustrator 27.0.1, SVG Export Plug-In . SVG Version: 6.00 Build 0)  -->
<svg version="1.1" id="Capa_1" xmlns="http://www.w3.org/2000/svg" xmlns:xlink="http://www.w3.org/1999/xlink" x="0px" y="0px"
	 viewBox="0 0 1920 860" style="enable-background:new 0 0 1920 860;" xml:space="preserve">
<style type="text/css">
	.st0{fill:#D9D6A8;}
	.st1{fill:#FFE927;}
	.st2{font-family:'Roboto-Medium';}
	.st3{font-size:28.4804px;}
	.st4{fill:#BFBD00;}
	.st5{font-family:'Roboto-Black';}
	.st6{font-size:39.0265px;}
	.st7{fill:none;}
	.st8{fill:#E6E1B8;}
	.st9{font-family:'Roboto-Regular';}
	.st10{font-size:18.8309px;}
	.st11{font-family:'Roboto-Bold';}
	.st12{fill:#77800D;}
	.st13{fill:none;stroke:#E6E1B8;stroke-width:3;stroke-linecap:round;stroke-miterlimit:10;}
	.st14{fill:none;stroke:#E6E1B8;stroke-width:3;stroke-linecap:round;stroke-miterlimit:10;stroke-dasharray:0,6.3988;}
	.st15{fill:none;stroke:#E6E1B8;stroke-width:3;stroke-linecap:round;stroke-miterlimit:10;stroke-dasharray:0,6.173;}
	.st16{fill:none;stroke:#E6E1B8;stroke-width:3;stroke-linecap:round;stroke-miterlimit:10;stroke-dasharray:0,6.285;}
	.st17{fill-rule:evenodd;clip-rule:evenodd;fill:#D9D6A8;}
</style>
<g>
	<path class="st0" d="M150.36,347.57c1.37-1.06,1.51-2.55,2.95-3.55c1.27-0.89,3.38-0.05,4.7-0.89c1.32-0.84,1.84-3.35,3.19-4.13
		c1.21-0.69,2.95,0.74,4.18,0.1c1.23-0.64,1.95-3.35,3.2-3.92c1.19-0.55,2.61,1.42,3.8,0.93c1.54-0.63,2.86-3.7,4.4-4.23
		c1.49-0.51,2.74,1.68,4.24,1.28c1.49-0.4,3.22-3.37,4.69-3.65c1.89-0.36,3.04,2.16,4.89,2.01c1.44-0.12,3.57-2.94,4.98-2.92
		c1.14,0.01,4.26,2.66,5.37,2.77c2.73,0.27,3.38-1.59,5.84-0.49c1.07,0.48,0,2.89,1,3.51c1.28,0.79,4.61-0.17,5.74,0.81
		c1.33,1.17-0.14,3.77,0.92,5.15c0.83,1.09,4.26,0.93,4.89,2.12c0.64,1.19,1.17,2.43,1.58,3.7c1.15,3.54,1.36,6.98-3.22,6.56
		c-0.35-0.03-0.77-0.26-1.22-0.58c-2.58-1.78-5.36-2.57-8.23-3.69c-2.97-4.88-5.96-7.78-6.32-13.62c-0.94,7-1.9,7.5,3.55,12.54
		c-2.66-0.96-5.15-1.54-7.66-1.95c-3.14-3.01-5.89-4.9-7.25-9.34c0.57,5.45,0.04,6.46,4.06,8.9c-3.5-0.41-7.12-1-10.65-0.99
		c-2.43-1.79-3.91-2.64-5.54-5.93c1.13,4.17,0.08,4.8,2.95,6.03c-4.73,0.29-10.25,1.18-12.71,1.46c4.07,0.66,7.62,1.07,10.84,1.36
		c-2.34,1.04-1.48,1.85-2.66,5.76c1.64-3.09,3.07-3.97,5.33-5.53c3.34,0.27,6.34,0.45,9.26,0.73c-4.19,0.9-4.13,2.11-6.46,6.87
		c2.88-3.8,6.2-4.56,10.33-6.41c2.56,0.37,5.13,0.9,7.88,1.7c-6.29,2.81-5.79,4.14-7.27,10.83c2.11-4.83,5.55-7.03,9.52-10.12
		c3.62,1.22,7.72,2.41,11.39,4.21c1.34,0.66,2.71,1.32,4.07,2.01c3.86,1.96,7.41,4.14,10.73,6.85l-2.53,1.38
		c-0.71-0.55-1.43-1.09-2.16-1.59c-2.66-1.85-5.92-3.85-9.23-4.1c-0.95-0.07-2.09,3.15-3.32,4.45c-1.19,1.25-4.18,0.2-5.85,1.31
		c-1.52,1.01-1.68,4.19-3.73,4.86c-1.84,0.6-5.27-1.45-7.63-1.27c-1.77,0.13-3.79,1.89-5.89,1.71c-3.3-0.82-3.62-3.34-6.06-4.7
		c-1.9-1.06-4.64-0.19-6.23-1.42c-1.41-1.09-0.52-5.85-1.81-6.98c-1.29-1.13-4.76,1.38-6.05,0.31c-1.16-0.95-1.06-4.09-2.31-4.92
		c-1.26-0.83-3.87,0.64-5.31-0.01c-1.46-0.65-2.52-2.88-4.27-3.27c-1.71-0.38-4.11,1.08-6.18,1.02c-2.67-0.07-5.66,0.15-9.09,0.74
		C145.64,349.89,148.6,348.93,150.36,347.57z"/>
	<path class="st0" d="M192.65,444.62c-0.05-1.67-1.12-2.63-1.08-4.32c0.03-1.5,1.89-2.66,1.99-4.16c0.1-1.5-1.56-3.35-1.39-4.84
		c0.15-1.34,2.26-1.87,2.47-3.19c0.21-1.32-1.49-3.43-1.22-4.73c0.25-1.24,2.6-1.22,2.9-2.42c0.39-1.56-1.25-4.34-0.77-5.84
		c0.46-1.45,2.87-1.18,3.41-2.57c0.54-1.38-0.78-4.43-0.16-5.74c0.8-1.67,3.41-1.14,4.35-2.66c0.73-1.19-0.25-4.46,0.57-5.54
		c0.66-0.88,4.5-1.79,5.22-2.59c1.77-1.97,0.7-3.54,2.96-4.82c0.99-0.56,2.25,1.65,3.3,1.22c1.35-0.55,2.5-3.68,3.91-4
		c1.67-0.37,2.85,2.26,4.53,2.22c1.32-0.03,3.15-2.78,4.44-2.6c1.29,0.19,2.56,0.48,3.78,0.89c3.42,1.13,6.2,2.93,3.26,6.25
		c-0.22,0.25-0.64,0.45-1.15,0.62c-2.86,0.99-5.06,2.7-7.57,4.29c-5.49-0.48-9.46,0.19-14.2-2.87c4.91,4.73,4.74,5.76,11.78,4.4
		c-2.27,1.52-4.14,3.13-5.89,4.85c-4.14,0.72-7.17,1.78-11.4,0.3c4.56,2.67,5.04,3.66,9.24,1.93c-2.32,2.49-4.84,4.97-6.85,7.72
		c-2.79,0.87-4.28,1.54-7.78,0.92c3.89,1.5,3.78,2.68,6.37,1.15c-2.48,3.84-4.94,8.64-6.12,10.72c2.84-2.79,5.18-5.32,7.25-7.65
		c-0.53,2.42,0.59,2.21,2.96,5.36c-1.47-3.04-1.33-4.65-1.25-7.31c2.12-2.45,3.97-4.68,5.86-6.78c-1.69,3.77-0.72,4.42,1.65,8.95
		c-1.31-4.41-0.01-7.43,0.92-11.7c1.75-1.78,3.63-3.47,5.82-5.15c-1.4,6.5-0.09,6.87,4.27,11.84c-2.55-4.4-2.3-8.34-2.43-13.19
		c3.02-2.12,6.29-4.63,9.78-6.46c1.28-0.67,2.58-1.35,3.89-2.02c3.73-1.88,7.46-3.4,11.46-4.43l-0.37,2.75
		c-0.83,0.24-1.66,0.49-2.47,0.77c-2.95,1.01-6.37,2.4-8.46,4.83c-0.6,0.7,1.26,3.43,1.56,5.12c0.29,1.64-2.23,3.36-2.33,5.3
		c-0.09,1.76,2.3,3.7,1.65,5.68c-0.58,1.77-4.13,3.27-5.35,5.21c-0.91,1.45-0.69,4.03-2.04,5.56c-2.53,2.1-4.66,0.91-7.12,2.03
		c-1.91,0.88-2.8,3.5-4.66,4.03c-1.65,0.47-4.85-2.94-6.47-2.58c-1.61,0.36-1.65,4.49-3.22,4.88c-1.4,0.35-3.78-1.52-5.15-1.02
		c-1.37,0.5-1.72,3.37-3.04,4.13c-1.34,0.77-3.68,0.31-4.98,1.45c-1.27,1.12-1.51,3.81-2.73,5.39c-1.58,2.03-3.12,4.49-4.61,7.49
		C191.77,449.61,192.71,446.76,192.65,444.62z"/>
	<g>
		<text transform="matrix(1 0 0 1 210.4692 570.7918)"><tspan x="0" y="0" class="st1 st2 st3">Constitución de </tspan><tspan x="-17.68" y="31.23" class="st1 st2 st3">Semillas RBC Ltda.</tspan></text>
	</g>
	<g>
		<text transform="matrix(1 0 0 1 205.5259 529.7098)" class="st4 st5 st6">24-09-2008</text>
	</g>
	<g>
		<rect x="188.95" y="626.51" class="st7" width="243.44" height="132.77"/>
		<text transform="matrix(0.9856 0 0 1 195.9907 640.8572)"><tspan x="0" y="0" class="st8 st9 st10">Época en donde la empresa </tspan><tspan x="-3.83" y="21.18" class="st8 st11 st10">inicia su actividad comercial</tspan><tspan x="236.55" y="21.18" class="st8 st9 st10"> </tspan><tspan x="-1.68" y="42.37" class="st8 st9 st10">de manera legal después de </tspan><tspan x="16.77" y="63.55" class="st8 st9 st10">15 años de experiencia.</tspan></text>
	</g>
	<g>
		<text transform="matrix(1 0 0 1 630.355 570.7918)"><tspan x="0" y="0" class="st1 st2 st3">Consolidación de </tspan><tspan x="-1.93" y="31.23" class="st1 st2 st3">Semillas RBC sas.</tspan></text>
	</g>
	<g>
		<text transform="matrix(1 0 0 1 632.8237 529.7098)" class="st4 st5 st6">06-12-2010</text>
	</g>
	<g>
		<rect x="581.58" y="626.51" class="st7" width="319.55" height="156.3"/>
		<text transform="matrix(0.9856 0 0 1 623.312 640.8572)"><tspan x="0" y="0" class="st8 st9 st10">Se obtienen los registros de:</tspan><tspan x="-29.61" y="21.18" class="st8 st11 st10">Productor, Importador y exportador </tspan><tspan x="273.84" y="21.18" class="st8 st9 st10"> </tspan><tspan x="1.99" y="42.37" class="st8 st9 st10">de semillas necesarios para </tspan><tspan x="-25.59" y="63.55" class="st8 st9 st10">desarrollar la actividad económica </tspan><tspan x="-35.3" y="84.74" class="st8 st9 st10">bajo las normas establecidas por los</tspan><tspan x="22.14" y="105.92" class="st8 st9 st10">organismos de control.</tspan></text>
	</g>
	<g>
		<text transform="matrix(1 0 0 1 380.5732 152.4969)"><tspan x="0" y="0" class="st1 st2 st3">Legalización comercial</tspan><tspan x="12.42" y="31.23" class="st1 st2 st3">de Semillas RBC sas.</tspan></text>
	</g>
	<g>
		<text transform="matrix(1 0 0 1 419.2236 110.5682)" class="st4 st5 st6">06-10-2008</text>
	</g>
	<g>
		<rect x="397.21" y="207.84" class="st7" width="261.17" height="80.2"/>
		<text transform="matrix(0.9856 0 0 1 398.5322 222.1834)"><tspan x="0" y="0" class="st8 st11 st10">Adquisición del RUT,</tspan><tspan x="175.12" y="0" class="st8 st9 st10"> necesario </tspan><tspan x="13.41" y="21.18" class="st8 st9 st10">para desarrollar la actividad </tspan><tspan x="82.02" y="42.37" class="st8 st9 st10">económica.</tspan></text>
	</g>
	<path class="st0" d="M1471.13,427.25c-3.47-43.52-38.89-78.68-82.43-81.87c-25-1.83-48.04,6.69-65.3,21.7
		c-11.57,10.07-28.02,12.28-42.02,6.02h0c-14.25-6.38-23.19-20.5-23.54-36.11c-0.04-1.66-0.12-3.33-0.25-5
		c-3.38-43.96-39.33-79.41-83.33-82.21c-51.93-3.31-95.23,38-95.23,89.23l0,0.23c0.02,14.18-8.31,27.05-21.26,32.84l-4.75,2.12
		c-12.65,5.66-27.65,3.7-37.87-5.65c-6.68-6.11-14.29-11.2-22.58-15.07c-0.09-0.04-0.17-0.08-0.26-0.12
		c-0.92-0.43-1.85-0.83-2.79-1.23c-0.35-0.15-0.71-0.3-1.06-0.45c-0.73-0.3-1.47-0.58-2.21-0.86c-0.58-0.22-1.15-0.44-1.73-0.64
		c-0.57-0.2-1.15-0.39-1.73-0.58c-0.76-0.25-1.52-0.5-2.29-0.73c-0.45-0.13-0.9-0.26-1.35-0.39c-0.91-0.26-1.82-0.5-2.73-0.73
		c-0.36-0.09-0.72-0.17-1.08-0.26c-1-0.24-2.01-0.46-3.02-0.66c-0.32-0.06-0.64-0.12-0.97-0.18c-1.04-0.19-2.08-0.37-3.13-0.53
		c-0.34-0.05-0.69-0.1-1.03-0.15c-1-0.14-2-0.26-3.01-0.36c-0.43-0.05-0.87-0.09-1.31-0.13c-0.41-0.04-0.82-0.09-1.24-0.12
		c-0.43-0.03-0.85-0.04-1.27-0.06c-0.75-0.05-1.51-0.08-2.26-0.11c-0.71-0.02-1.41-0.04-2.12-0.05c-0.36,0-0.71-0.03-1.07-0.03
		c-0.48,0-0.95,0.03-1.43,0.03c-0.62,0.01-1.23,0.02-1.84,0.04c-0.91,0.03-1.81,0.09-2.72,0.15c-0.54,0.04-1.07,0.07-1.61,0.11
		c-1.02,0.09-2.02,0.2-3.03,0.32c-0.42,0.05-0.83,0.09-1.25,0.14c-1.24,0.17-2.46,0.36-3.68,0.58c-0.18,0.03-0.36,0.05-0.53,0.09
		c-4.36,0.8-8.61,1.91-12.72,3.32c-0.02,0.01-0.03,0.01-0.05,0.02c-1.34,0.46-2.66,0.95-3.97,1.47c-0.1,0.04-0.21,0.09-0.31,0.13
		c-1.22,0.49-2.43,1-3.63,1.55c-0.14,0.06-0.27,0.13-0.4,0.19c-1.17,0.54-2.33,1.1-3.48,1.69c-0.12,0.06-0.24,0.13-0.37,0.19
		c-1.17,0.61-2.32,1.23-3.45,1.89c-0.08,0.05-0.17,0.1-0.25,0.15c-1.19,0.69-2.37,1.41-3.53,2.16c-0.02,0.01-0.04,0.02-0.05,0.03
		c-3.72,2.4-7.27,5.05-10.58,7.96c-0.45,0.4-0.93,0.76-1.4,1.14c-11.44,8.86-26.99,10.6-40.31,4.64h0
		c-14.25-6.38-23.19-20.5-23.54-36.11c-0.04-1.66-0.12-3.33-0.25-5c-1.66-21.63-11.22-41.19-25.74-55.82
		c-0.01-0.01-0.03-0.03-0.04-0.04c-0.83-0.84-1.69-1.66-2.56-2.47c-0.11-0.1-0.22-0.21-0.33-0.31c-0.78-0.72-1.58-1.42-2.38-2.11
		c-0.21-0.18-0.41-0.36-0.62-0.54c-0.72-0.61-1.46-1.2-2.2-1.79c-0.3-0.24-0.61-0.49-0.91-0.72c-0.67-0.51-1.34-1.01-2.02-1.5
		c-0.4-0.29-0.79-0.58-1.2-0.87c-0.61-0.43-1.23-0.84-1.86-1.26c-0.49-0.32-0.97-0.65-1.46-0.97c-0.57-0.36-1.14-0.71-1.71-1.06
		c-0.56-0.34-1.12-0.68-1.69-1.01c-0.53-0.31-1.07-0.6-1.6-0.89c-0.63-0.35-1.25-0.69-1.89-1.02c-0.5-0.26-1.01-0.51-1.52-0.76
		c-0.68-0.34-1.36-0.67-2.05-0.99c-0.49-0.23-0.98-0.44-1.47-0.66c-0.72-0.32-1.44-0.64-2.17-0.94c-0.48-0.2-0.97-0.39-1.46-0.58
		c-0.75-0.29-1.49-0.58-2.25-0.85c-0.5-0.18-1-0.34-1.5-0.51c-0.76-0.26-1.51-0.51-2.27-0.75c-0.52-0.16-1.04-0.31-1.56-0.46
		c-0.75-0.22-1.51-0.43-2.27-0.63c-0.55-0.14-1.11-0.28-1.67-0.41c-0.74-0.18-1.47-0.35-2.21-0.51c-0.6-0.13-1.2-0.24-1.8-0.36
		c-0.71-0.14-1.42-0.27-2.13-0.39c-0.65-0.11-1.31-0.2-1.96-0.29c-0.67-0.1-1.34-0.19-2.02-0.27c-0.71-0.08-1.43-0.15-2.14-0.22
		c-0.42-0.04-0.84-0.1-1.27-0.13c-0.18-0.01-0.36-0.01-0.55-0.03c-0.28-0.02-0.56-0.06-0.85-0.07c-0.73-0.05-1.45-0.05-2.17-0.08
		c-0.7-0.03-1.39-0.07-2.09-0.08c-0.94-0.02-1.87,0-2.8,0.01c-0.73,0.01-1.45,0.01-2.17,0.03c-0.86,0.03-1.72,0.1-2.58,0.16
		c-0.78,0.05-1.56,0.09-2.33,0.16c-0.74,0.07-1.47,0.17-2.2,0.26c-0.88,0.1-1.76,0.19-2.62,0.32c-0.35,0.05-0.7,0.13-1.06,0.18
		c-4.12,0.66-8.14,1.59-12.05,2.79c-0.15,0.05-0.3,0.08-0.44,0.13c-1.2,0.38-2.38,0.79-3.56,1.22c-0.27,0.1-0.55,0.19-0.82,0.29
		c-1.13,0.42-2.25,0.88-3.36,1.34c-0.3,0.13-0.61,0.24-0.91,0.37c-1.1,0.47-2.18,0.98-3.26,1.5c-0.3,0.14-0.59,0.28-0.89,0.42
		c-1.07,0.53-2.12,1.09-3.17,1.66c-0.29,0.16-0.57,0.31-0.86,0.46c-1.05,0.59-2.08,1.2-3.1,1.82c-0.26,0.16-0.53,0.32-0.8,0.49
		c-1.03,0.64-2.04,1.31-3.04,2c-0.24,0.16-0.48,0.33-0.71,0.49c-1.01,0.71-2,1.44-2.98,2.18c-0.21,0.16-0.41,0.32-0.62,0.47
		c-1,0.77-1.98,1.57-2.94,2.38c-0.17,0.14-0.34,0.29-0.5,0.43c-0.99,0.85-1.96,1.71-2.9,2.6c-0.12,0.12-0.25,0.23-0.37,0.35
		c-0.98,0.93-1.94,1.88-2.88,2.85c-0.07,0.07-0.14,0.15-0.21,0.22c-0.98,1.02-1.94,2.07-2.87,3.14c-0.01,0.01-0.02,0.02-0.03,0.03
		c-13.73,15.77-22.01,36.37-21.95,58.89c0,14.17-8.32,27.02-21.26,32.8l-4.75,2.12c-12.64,5.66-27.64,3.7-37.87-5.65
		c-15.91-14.54-37.07-23.43-60.27-23.43c-22.53,0-43.14,8.38-58.88,22.18c-11.27,9.88-27.27,12.25-40.96,6.13l-0.66-0.3
		c-14.38-6.43-23.32-20.55-23.67-36.16c-0.03-1.48-0.1-2.97-0.21-4.46c-3.09-43.65-38.32-79.19-81.94-82.65
		c-55.01-4.36-100.75,41.4-96.37,96.42c3.47,43.52,38.88,78.69,82.42,81.88c25,1.83,48.05-6.68,65.31-21.7
		c11.57-10.06,28.02-12.28,42.02-6.02c14.25,6.38,23.19,20.5,23.54,36.11c0.07,3.1,0.3,6.23,0.69,9.39
		c5.05,40.51,37.86,72.87,78.43,77.42c53.88,6.04,99.69-36.15,99.69-88.84v-0.23c-0.02-14.18,8.31-27.05,21.26-32.84l4.75-2.13
		c12.65-5.66,27.65-3.7,37.87,5.65c6.67,6.1,14.28,11.19,22.57,15.06c0.09,0.04,0.18,0.09,0.27,0.13c0.92,0.43,1.86,0.83,2.8,1.23
		c0.35,0.15,0.69,0.3,1.04,0.44c0.74,0.3,1.48,0.58,2.23,0.86c0.57,0.22,1.14,0.43,1.72,0.64c0.58,0.2,1.16,0.39,1.74,0.59
		c0.76,0.25,1.51,0.5,2.28,0.73c0.45,0.14,0.91,0.26,1.37,0.39c0.9,0.26,1.81,0.5,2.72,0.73c0.36,0.09,0.73,0.18,1.09,0.26
		c1,0.23,2,0.45,3.01,0.66c0.33,0.06,0.65,0.13,0.98,0.19c1.04,0.19,2.08,0.37,3.12,0.53c0.34,0.05,0.68,0.1,1.02,0.15
		c1,0.14,2,0.26,3.01,0.36c0.44,0.05,0.88,0.09,1.31,0.13c0.41,0.04,0.81,0.09,1.22,0.12c0.43,0.03,0.85,0.04,1.27,0.06
		c0.76,0.05,1.52,0.08,2.28,0.11c0.7,0.02,1.41,0.04,2.11,0.05c0.36,0,0.72,0.03,1.08,0.03c0.49,0,0.97-0.03,1.46-0.03
		c0.59-0.01,1.19-0.02,1.78-0.04c0.93-0.03,1.86-0.09,2.78-0.15c0.51-0.03,1.02-0.06,1.53-0.11c1.06-0.09,2.11-0.21,3.16-0.33
		c0.36-0.04,0.73-0.08,1.1-0.13c4.37-0.58,8.64-1.48,12.79-2.67c0.07-0.02,0.13-0.04,0.2-0.06c1.31-0.38,2.6-0.79,3.88-1.22
		c0.17-0.06,0.33-0.12,0.5-0.18c1.19-0.41,2.36-0.84,3.53-1.3c0.19-0.07,0.37-0.15,0.56-0.23c1.15-0.46,2.29-0.95,3.41-1.46
		c0.17-0.08,0.34-0.15,0.5-0.23c1.16-0.53,2.31-1.09,3.44-1.67c0.11-0.06,0.22-0.11,0.34-0.17c1.23-0.64,2.44-1.3,3.64-1.99
		c0.01,0,0.01-0.01,0.02-0.01c4.84-2.8,9.41-6.03,13.62-9.65c10.06-8.66,23.57-11.76,36.13-8.51c2.11,0.55,4.2,1.26,6.23,2.17
		c14.25,6.38,23.19,20.5,23.54,36.11c0.07,3.1,0.3,6.23,0.69,9.39c0.1,0.77,0.27,1.51,0.38,2.27c0.13,0.87,0.28,1.74,0.44,2.6
		c0.38,2.1,0.84,4.17,1.37,6.21c0.05,0.21,0.11,0.42,0.16,0.63c7.14,26.77,26.58,48.68,51.78,59.3c0.12,0.05,0.24,0.11,0.36,0.16
		c1.35,0.56,2.71,1.09,4.09,1.59c1.17,0.42,2.35,0.82,3.53,1.2c0.97,0.3,1.94,0.59,2.92,0.86c1.62,0.45,3.26,0.85,4.91,1.21
		c0.7,0.15,1.41,0.28,2.12,0.42c1.94,0.37,3.91,0.68,5.89,0.92c0.15,0.02,0.3,0.05,0.46,0.07c0.46,0.05,0.91,0.07,1.37,0.12
		c0.56,0.06,1.12,0.13,1.68,0.17c0.3,0.02,0.6,0.03,0.9,0.05c0.93,0.06,1.85,0.11,2.77,0.14c0.78,0.03,1.56,0.06,2.34,0.07
		c0.87,0.01,1.73,0,2.6-0.01c0.82-0.01,1.63-0.02,2.44-0.06c0.81-0.03,1.61-0.09,2.41-0.15c0.86-0.06,1.72-0.12,2.57-0.2
		c0.73-0.07,1.46-0.16,2.19-0.25c0.91-0.11,1.81-0.22,2.71-0.36c0.66-0.1,1.31-0.22,1.96-0.34c0.95-0.17,1.9-0.34,2.84-0.54
		c0.57-0.12,1.14-0.26,1.7-0.39c1.01-0.23,2.01-0.47,3.01-0.74c0.48-0.13,0.94-0.27,1.42-0.41c1.07-0.31,2.14-0.62,3.19-0.96
		c0.37-0.12,0.73-0.26,1.09-0.38c1.15-0.39,2.29-0.79,3.41-1.23c0.23-0.09,0.46-0.19,0.69-0.28c1.24-0.49,2.47-1.01,3.69-1.55
		c0.07-0.03,0.13-0.06,0.2-0.1c31.04-14.1,52.63-45.44,52.52-81.72c0-14.16,8.32-27.01,21.26-32.8l4.75-2.13
		c12.65-5.66,27.65-3.7,37.87,5.65c15.91,14.54,37.07,23.43,60.27,23.43c22.22,0,42.57-8.15,58.23-21.62
		c11.76-10.12,28.23-12.68,42.4-6.34l0,0c14.25,6.38,23.19,20.5,23.54,36.11c0.04,1.67,0.12,3.34,0.25,5.03
		c3.35,43.41,38.48,78.63,81.88,82.08C1429.76,528.04,1475.51,482.27,1471.13,427.25z"/>
	
		<ellipse transform="matrix(0.0811 -0.9967 0.9967 0.0811 -49.1372 624.7144)" class="st12" cx="314.24" cy="339.01" rx="66.08" ry="66.08"/>
	<g>
		<g>
			<line class="st13" x1="314.24" y1="449.03" x2="314.24" y2="449.03"/>
			<line class="st14" x1="314.24" y1="455.43" x2="314.24" y2="471.43"/>
			<line class="st13" x1="314.24" y1="474.63" x2="314.24" y2="474.63"/>
		</g>
	</g>
	<g>
		<g>
			<line class="st13" x1="741.36" y1="449.03" x2="741.36" y2="449.03"/>
			<line class="st14" x1="741.36" y1="455.43" x2="741.36" y2="471.43"/>
			<line class="st13" x1="741.36" y1="474.63" x2="741.36" y2="474.63"/>
		</g>
	</g>
	<g>
		<text transform="matrix(1 0 0 1 1051.2363 570.7918)" class="st1 st2 st3">Nuestra expansión</text>
	</g>
	<g>
		<text transform="matrix(1 0 0 1 1059.9277 529.7098)" class="st4 st5 st6">05-01-2021</text>
	</g>
	<g>
		<rect x="1008.69" y="595.27" class="st7" width="335.44" height="156.3"/>
		<text transform="matrix(0.9856 0 0 1 1009.6826 609.6141)"><tspan x="0" y="0" class="st8 st11 st10">Se abre mercado en los países asiáticos </tspan><tspan x="45.85" y="21.18" class="st8 st11 st10">exportando semillas frutales.</tspan><tspan x="1.59" y="42.37" class="st8 st9 st10">También se crean alianzas estratégicas </tspan><tspan x="18.89" y="63.55" class="st8 st9 st10">con países de la región como Costa </tspan><tspan x="39.92" y="84.74" class="st8 st9 st10">Rica y Honduras para importar</tspan><tspan x="36.77" y="105.92" class="st8 st9 st10">semillas de pino caribea y teca.</tspan></text>
	</g>
	<g>
		<g>
			<line class="st13" x1="1168.46" y1="449.03" x2="1168.46" y2="449.03"/>
			<line class="st14" x1="1168.46" y1="455.43" x2="1168.46" y2="471.43"/>
			<line class="st13" x1="1168.46" y1="474.63" x2="1168.46" y2="474.63"/>
		</g>
	</g>
	<g>
		<g>
			<line class="st13" x1="527.8" y1="276.95" x2="527.8" y2="276.95"/>
			<line class="st15" x1="527.8" y1="283.12" x2="527.8" y2="323.25"/>
			<line class="st13" x1="527.8" y1="326.34" x2="527.8" y2="326.34"/>
		</g>
	</g>
	<g>
		<text transform="matrix(1 0 0 1 810.5669 152.4969)" class="st1 st2 st3">¡Somos distribuidores!</text>
	</g>
	<g>
		<text transform="matrix(1 0 0 1 848.5508 110.5682)" class="st4 st5 st6">05-03-2011</text>
	</g>
	<g>
		<rect x="833.04" y="175.51" class="st7" width="243.76" height="110.01"/>
		<text transform="matrix(0.9856 0 0 1 841.313 189.8572)"><tspan x="0" y="0" class="st8 st9 st10">Se obtiene el </tspan><tspan x="112.92" y="0" class="st8 st11 st10">registro como </tspan><tspan x="-6.51" y="21.18" class="st8 st11 st10">distribuidor</tspan><tspan x="91.25" y="21.18" class="st8 st9 st10"> completando los </tspan><tspan x="5.73" y="42.37" class="st8 st9 st10">requsitos necesarios para </tspan><tspan x="55.5" y="63.55" class="st8 st9 st10">cumplir con la</tspan><tspan x="52.97" y="84.74" class="st8 st9 st10">normativa ICA.</tspan></text>
	</g>
	<g>
		<g>
			<line class="st13" x1="954.92" y1="288.63" x2="954.92" y2="288.63"/>
			<line class="st16" x1="954.92" y1="294.91" x2="954.92" y2="323.19"/>
			<line class="st13" x1="954.92" y1="326.34" x2="954.92" y2="326.34"/>
		</g>
	</g>
	<g>
		<text transform="matrix(1 0 0 1 1256.2637 152.4969)" class="st1 st2 st3">Nuestra Proyección</text>
	</g>
	<g>
		<text transform="matrix(1 0 0 1 1274.6875 110.5682)" class="st4 st5 st6">06-06-2023</text>
	</g>
	<g>
		<rect x="1243.09" y="175.51" class="st7" width="277.85" height="110.01"/>
		<text transform="matrix(0.9856 0 0 1 1260.7959 189.8572)"><tspan x="0" y="0" class="st8 st9 st10">Consolidarnos en el mercado</tspan><tspan x="17.58" y="21.18" class="st8 st9 st10">nacional como lideres en</tspan><tspan x="3.14" y="42.37" class="st8 st9 st10">producción y distribución de</tspan><tspan x="11.7" y="63.55" class="st8 st9 st10">semillas y </tspan><tspan x="101.13" y="63.55" class="st8 st11 st10">ampliar nuestro</tspan><tspan x="25.7" y="84.74" class="st8 st11 st10">mercado internacional.</tspan></text>
	</g>
	<g>
		<g>
			<line class="st13" x1="1382.02" y1="288.63" x2="1382.02" y2="288.63"/>
			<line class="st16" x1="1382.02" y1="294.91" x2="1382.02" y2="323.19"/>
			<line class="st13" x1="1382.02" y1="326.34" x2="1382.02" y2="326.34"/>
		</g>
	</g>
	<circle class="st12" cx="527.8" cy="434.55" r="66.08"/>
	
		<ellipse transform="matrix(0.1619 -0.9868 0.9868 0.1619 286.7908 1015.6924)" class="st12" cx="741.36" cy="339.01" rx="66.08" ry="66.08"/>
	
		<ellipse transform="matrix(0.1619 -0.9868 0.9868 0.1619 644.7416 1437.1599)" class="st12" cx="1168.46" cy="339.01" rx="66.08" ry="66.08"/>
	<circle class="st12" cx="954.92" cy="434.55" r="66.08"/>
	<circle class="st12" cx="1382.02" cy="434.55" r="66.08"/>
	<g>
		<path class="st0" d="M561.04,426.79c0.88,0,1.59,0.71,1.59,1.59c0,0.88-0.71,1.59-1.59,1.59c-0.88,0-1.59-0.71-1.59-1.59
			C559.45,427.5,560.16,426.79,561.04,426.79z"/>
		<path class="st0" d="M556.39,455.91c0.88,0,1.59,0.71,1.59,1.59c0,0.88-0.71,1.59-1.59,1.59c-0.88,0-1.59-0.71-1.59-1.59
			C554.8,456.62,555.51,455.91,556.39,455.91z"/>
		<path class="st0" d="M542.69,399.26c0.88,0,1.59,0.71,1.59,1.59c0,0.88-0.71,1.59-1.59,1.59c-0.88,0-1.59-0.71-1.59-1.59
			C541.1,399.97,541.81,399.26,542.69,399.26z"/>
		<path class="st0" d="M510.51,400.85c0.88,0,1.59,0.71,1.59,1.59c0,0.88-0.71,1.59-1.59,1.59s-1.59-0.71-1.59-1.59
			C508.92,401.56,509.63,400.85,510.51,400.85z"/>
		<path class="st0" d="M504.39,434.49c0.88,0,1.59,0.71,1.59,1.59c0,0.88-0.71,1.59-1.59,1.59c-0.88,0-1.59-0.71-1.59-1.59
			C502.8,435.21,503.51,434.49,504.39,434.49z"/>
		<path class="st0" d="M496.8,423.73c0.88,0,1.59,0.71,1.59,1.59c0,0.88-0.71,1.59-1.59,1.59s-1.59-0.71-1.59-1.59
			C495.21,424.44,495.93,423.73,496.8,423.73z"/>
		<path class="st0" d="M511.98,464.35c-0.37,0-0.73-0.12-1.1-0.49l-6.85-6.85c-0.61-0.61-0.61-1.59,0-2.2c0.61-0.61,1.59-0.61,2.2,0
			l6.85,6.85c0.61,0.61,0.61,1.59,0,2.2C512.83,464.1,512.34,464.35,511.98,464.35z"/>
		<path class="st0" d="M508.18,468.14c-0.37,0-0.73-0.12-1.1-0.49l-12.24-12.24c-0.24-0.24-0.49-0.73-0.49-1.1
			c0-0.37,0.12-0.73,0.49-1.1l11.75-11.75c0.37-0.37,0.73-0.49,1.22-0.49l28.39,3.3c1.22,0.12,2.45,0.61,3.43,1.59
			c0.61,0.61,0.98,1.22,1.35,2.08l11.5-11.75c1.1-1.1,2.57-1.71,4.16-1.71c1.59,0,3.06,0.61,4.16,1.71c1.1,1.1,1.71,2.57,1.71,4.16
			c0,1.59-0.61,3.06-1.71,4.16l-20.43,20.31c-0.24,0.25-0.73,0.49-1.1,0.49l-26.67-0.98l-3.3,3.3
			C508.92,468.02,508.55,468.14,508.18,468.14z M498.03,454.32l10.03,10.03l2.81-2.81c0.24-0.24,0.73-0.49,1.1-0.49l26.67,0.98
			l19.94-19.94c1.1-1.1,1.1-2.94,0-4.04c-0.49-0.49-1.22-0.86-2.08-0.86c-0.73,0-1.47,0.24-2.08,0.86l-13.83,14.44l-0.12,0.12
			c-0.98,1.84-2.94,2.81-5.02,2.81l-15.66-0.73c-0.86,0-1.47-0.73-1.47-1.59c0-0.86,0.73-1.47,1.59-1.47l15.66,0.73
			c1.1,0,1.96-0.61,2.45-1.59c0.12-0.37,0.24-0.86,0.12-1.22c-0.12-0.61-0.37-1.1-0.73-1.47c-0.37-0.37-0.98-0.61-1.59-0.73l0,0
			l-27.78-3.06L498.03,454.32z"/>
		<path class="st0" d="M523.72,439.39L523.72,439.39c-6.85-0.12-12.85-3.18-16.52-8.44c-3.67-5.26-4.41-11.87-2.2-18.35
			c0.12-0.49,0.61-0.86,1.1-0.98c0.49-0.12,1.1,0.12,1.47,0.49c2.69,3.18,5.51,3.67,8.2,4.04c2.57,0.49,5.26,0.98,7.22,3.79
			c3.67,5.26,4.4,11.87,2.2,18.35C524.95,439.02,524.34,439.39,523.72,439.39z M507.33,416.02c-0.98,4.77-0.12,9.54,2.45,13.22
			c2.81,4.16,7.46,6.61,12.85,7.1c1.47-5.14,0.73-10.4-2.08-14.56c-1.22-1.84-2.94-2.08-5.26-2.57
			C512.96,418.71,510.14,418.22,507.33,416.02z"/>
		<path class="st0" d="M517.85,433.52c-0.24,0-0.49-0.12-0.73-0.24c-2.2-1.22-4.04-2.94-5.51-5.02c-1.22-1.71-2.08-3.67-2.57-5.87
			c-0.12-0.86,0.37-1.59,1.22-1.84c0.86-0.12,1.59,0.37,1.84,1.22c0.37,1.71,1.1,3.3,2.08,4.77c1.1,1.71,2.69,3.06,4.53,4.04
			c0.73,0.37,0.98,1.35,0.61,2.08C518.83,433.27,518.34,433.52,517.85,433.52z"/>
		<path class="st0" d="M527.27,422.01c-0.37,0-0.86-0.12-1.1-0.49c-3.92-4.16-5.63-9.42-4.77-14.68c0.98-5.14,4.41-9.54,9.54-12.11
			c0.49-0.24,1.1-0.24,1.47,0.12c0.49,0.24,0.73,0.86,0.61,1.35c-0.24,3.3,0.98,5.02,2.33,6.85c1.22,1.71,2.57,3.67,2.08,6.61
			c-0.98,5.14-4.41,9.54-9.54,12.11C527.76,422.01,527.52,422.01,527.27,422.01z M530.21,398.89c-3.06,2.08-5.14,5.14-5.75,8.69
			c-0.73,3.92,0.49,7.83,3.18,11.13c3.67-2.08,6.12-5.51,6.85-9.3c0.24-1.59-0.37-2.57-1.59-4.28
			C531.92,403.42,530.58,401.58,530.21,398.89z"/>
		<path class="st0" d="M537.3,434.74c-0.61,0-1.22-0.37-1.47-0.98c-2.57-7.22-1.59-14.68,2.45-20.43c2.2-3.18,5.14-3.67,7.95-4.16
			c3.06-0.49,6.12-1.1,9.3-4.65c0.37-0.37,0.86-0.61,1.47-0.49c0.49,0.12,0.98,0.49,1.1,0.98c2.57,7.22,1.59,14.68-2.45,20.43
			C551.62,431.19,544.89,434.62,537.3,434.74L537.3,434.74z M555.9,408.31c-3.18,2.69-6.49,3.3-9.05,3.79
			c-2.69,0.49-4.53,0.86-6,2.94c-3.3,4.65-4.16,10.77-2.33,16.64c6.24-0.49,11.5-3.3,14.81-7.95
			C556.15,419.32,557.13,413.82,555.9,408.31z"/>
		<path class="st0" d="M544.16,428.38c-0.61,0-1.1-0.37-1.35-0.86c-0.37-0.73,0-1.71,0.73-2.08c2.2-1.1,4.04-2.57,5.51-4.65
			c0.98-1.35,1.59-2.81,2.08-4.4c0.24-0.86,1.1-1.35,1.84-1.1c0.86,0.24,1.35,1.1,1.1,1.84c-0.49,1.96-1.35,3.79-2.45,5.38
			c-1.71,2.45-3.92,4.28-6.73,5.63C544.65,428.38,544.4,428.38,544.16,428.38z"/>
		<path class="st0" d="M534.98,446.73c-0.86,0-1.59-0.73-1.59-1.59c0-1.96-1.35-3.67-3.3-4.16l-6.49-1.59l-9.91,0.98
			c-0.98,0.12-1.71,0.86-1.71,1.84c0,0.86-0.73,1.59-1.59,1.59c-0.86,0-1.59-0.73-1.59-1.59c0-2.57,1.96-4.65,4.41-4.89l10.16-0.98
			c0.12,0,0.37,0,0.49,0l6.73,1.71c3.3,0.86,5.63,3.79,5.63,7.22C536.57,446,535.84,446.73,534.98,446.73z"/>
		<path class="st0" d="M528.86,440.61c-0.37,0-0.61-0.12-0.86-0.24c-0.49-0.37-0.73-1.1-0.61-1.71l0.61-2.2
			c1.47-5.02,0.73-10.4-1.96-14.93l-0.12-0.24c-0.49-0.73-0.24-1.71,0.49-2.08c0.73-0.49,1.71-0.24,2.08,0.49l0.12,0.24
			c2.69,4.65,3.67,10.16,2.69,15.42l5.02-3.43c0.73-0.49,1.59-0.37,2.08,0.37c0.49,0.73,0.37,1.59-0.37,2.08l-8.44,5.87
			C529.47,440.49,529.11,440.61,528.86,440.61z"/>
		<path class="st0" d="M499.01,406.96c-2.08,0-3.79-1.71-3.79-3.79c0-2.08,1.71-3.79,3.79-3.79c2.08,0,3.79,1.71,3.79,3.79
			C502.8,405.25,501.09,406.96,499.01,406.96z M499.01,402.44c-0.37,0-0.73,0.37-0.73,0.73c0,0.37,0.37,0.73,0.73,0.73
			c0.37,0,0.73-0.37,0.73-0.73C499.74,402.8,499.5,402.44,499.01,402.44z"/>
		<path class="st0" d="M551.87,403.9c-2.57,0-4.65-2.08-4.65-4.65s2.08-4.65,4.65-4.65c2.57,0,4.65,2.08,4.65,4.65
			S554.31,403.9,551.87,403.9z M551.87,397.79c-0.86,0-1.59,0.73-1.59,1.59c0,0.86,0.73,1.59,1.59,1.59c0.86,0,1.59-0.73,1.59-1.59
			C553.33,398.52,552.6,397.79,551.87,397.79z"/>
	</g>
	<g>
		<path class="st0" d="M339.51,330.07c0-14.55-11.84-26.39-26.39-26.39s-26.39,11.84-26.39,26.39c0,9.92,5.6,18.97,14.39,23.47v7.71
			h-4.8v4.8h4.8v9.92h23.99v-9.92h4.8v-4.8h-4.8v-7.71C333.91,349.04,339.51,339.99,339.51,330.07z M320.32,371.17h-14.39v-5.12
			h14.39V371.17z M310.77,335.34c-0.32-1.69,1.14-3.15,2.82-2.82c0.94,0.18,1.7,0.95,1.88,1.88c0.32,1.69-1.14,3.15-2.82,2.82
			C311.71,337.04,310.95,336.28,310.77,335.34z M315.52,361.26v-19.6c2.86-1.02,4.9-3.79,4.79-7.02c-0.12-3.74-3.24-6.85-6.98-6.95
			c-4.07-0.12-7.41,3.15-7.41,7.19c0,3.13,2.01,5.79,4.8,6.78v19.6h-4.8v-10.8l-1.43-0.63c-7.87-3.46-12.96-11.21-12.96-19.76
			c0-11.9,9.69-21.59,21.59-21.59c11.9,0,21.59,9.69,21.59,21.59c0,8.55-5.09,16.3-12.96,19.76l-1.43,0.63v10.8H315.52z"/>
		<path class="st0" d="M307.59,380.77h11.07c0.92,0,1.66,0.74,1.66,1.66v1.47c0,0.92-0.74,1.66-1.66,1.66h-11.07
			c-0.92,0-1.66-0.74-1.66-1.66v-1.47C305.92,381.51,306.67,380.77,307.59,380.77z"/>
		<path class="st0" d="M296.6,361.15h33.04c0.92,0,1.66,0.74,1.66,1.66v1.47c0,0.92-0.74,1.66-1.66,1.66H296.6
			c-0.92,0-1.66-0.74-1.66-1.66v-1.47C294.94,361.9,295.68,361.15,296.6,361.15z"/>
		<path class="st0" d="M330.94,296.24c0.88,0,1.59,0.71,1.59,1.59c0,0.88-0.71,1.59-1.59,1.59c-0.88,0-1.59-0.71-1.59-1.59
			C329.35,296.95,330.06,296.24,330.94,296.24z"/>
		<path class="st0" d="M313.31,292.45c0.88,0,1.59,0.71,1.59,1.59c0,0.88-0.71,1.59-1.59,1.59s-1.59-0.71-1.59-1.59
			C311.72,293.16,312.43,292.45,313.31,292.45z"/>
		<path class="st0" d="M296.05,297.15c0.88,0,1.59,0.71,1.59,1.59c0,0.88-0.71,1.59-1.59,1.59s-1.59-0.71-1.59-1.59
			C294.46,297.87,295.17,297.15,296.05,297.15z"/>
		<path class="st0" d="M303.76,345.39c-0.24,0-0.49-0.12-0.73-0.24c-2.2-1.22-4.04-2.94-5.51-5.02c-1.22-1.71-2.08-3.67-2.57-5.87
			c-0.12-0.86,0.37-1.59,1.22-1.84c0.86-0.12,1.59,0.37,1.84,1.22c0.37,1.71,1.1,3.3,2.08,4.77c1.1,1.71,2.69,3.06,4.53,4.04
			c0.73,0.37,0.98,1.35,0.61,2.08C304.74,345.14,304.25,345.39,303.76,345.39z"/>
		<path class="st0" d="M344.55,316.48c-2.08,0-3.79-1.71-3.79-3.79c0-2.08,1.71-3.79,3.79-3.79c2.08,0,3.79,1.71,3.79,3.79
			C348.34,314.77,346.63,316.48,344.55,316.48z M344.55,311.96c-0.37,0-0.73,0.37-0.73,0.73c0,0.37,0.37,0.73,0.73,0.73
			c0.37,0,0.73-0.37,0.73-0.73C345.28,312.32,345.04,311.96,344.55,311.96z"/>
		<path class="st0" d="M284.92,314.91c-2.08,0-3.79-1.71-3.79-3.79c0-2.08,1.71-3.79,3.79-3.79c2.08,0,3.79,1.71,3.79,3.79
			C288.71,313.2,287,314.91,284.92,314.91z M284.92,310.39c-0.37,0-0.73,0.37-0.73,0.73c0,0.37,0.37,0.73,0.73,0.73
			c0.37,0,0.73-0.37,0.73-0.73C285.65,310.75,285.41,310.39,284.92,310.39z"/>
		<path class="st0" d="M342.98,347.08c-2.08,0-3.79-1.71-3.79-3.79c0-2.08,1.71-3.79,3.79-3.79c2.08,0,3.79,1.71,3.79,3.79
			C346.77,345.37,345.06,347.08,342.98,347.08z M342.98,342.56c-0.37,0-0.73,0.37-0.73,0.73c0,0.37,0.37,0.73,0.73,0.73
			c0.37,0,0.73-0.37,0.73-0.73C343.71,342.92,343.47,342.56,342.98,342.56z"/>
		<path class="st0" d="M284.13,351.01c-2.08,0-3.79-1.71-3.79-3.79c0-2.08,1.71-3.79,3.79-3.79c2.08,0,3.79,1.71,3.79,3.79
			C287.92,349.29,286.21,351.01,284.13,351.01z M284.13,346.48c-0.37,0-0.73,0.37-0.73,0.73c0,0.37,0.37,0.73,0.73,0.73
			c0.37,0,0.73-0.37,0.73-0.73C284.86,346.85,284.62,346.48,284.13,346.48z"/>
		<path class="st0" d="M351.11,329.9c-2.57,0-4.65-2.08-4.65-4.65c0-2.57,2.08-4.65,4.65-4.65s4.65,2.08,4.65,4.65
			C355.76,327.82,353.56,329.9,351.11,329.9z M351.11,323.78c-0.86,0-1.59,0.73-1.59,1.59c0,0.86,0.73,1.59,1.59,1.59
			c0.86,0,1.59-0.73,1.59-1.59C352.58,324.52,351.85,323.78,351.11,323.78z"/>
		<path class="st0" d="M277.36,333.04c-2.57,0-4.65-2.08-4.65-4.65c0-2.57,2.08-4.65,4.65-4.65s4.65,2.08,4.65,4.65
			C282.01,330.96,279.81,333.04,277.36,333.04z M277.36,326.92c-0.86,0-1.59,0.73-1.59,1.59c0,0.86,0.73,1.59,1.59,1.59
			c0.86,0,1.59-0.73,1.59-1.59C278.83,327.66,278.09,326.92,277.36,326.92z"/>
	</g>
	<g>
		<path class="st0" d="M763,353.78v0.12c-0.12,0.83-0.71,1.42-1.54,1.42h-0.12c-0.83-0.12-1.42-0.71-1.42-1.54v-0.12
			c0.12-0.83,0.83-1.54,1.77-1.42C762.41,352.24,763,352.95,763,353.78z"/>
		<path class="st0" d="M769.78,345.41v0.12c-0.12,0.83-0.71,1.42-1.54,1.42h-0.12c-0.83-0.12-1.42-0.71-1.42-1.54v-0.12
			c0.12-0.83,0.83-1.54,1.77-1.42C769.19,343.87,769.78,344.58,769.78,345.41z"/>
		<path class="st0" d="M737.72,295.86v0.12c-0.12,0.83-0.71,1.42-1.54,1.42h-0.12c-0.83-0.12-1.42-0.71-1.42-1.54v-0.12
			c0.12-0.83,0.83-1.54,1.77-1.42C737.13,294.33,737.72,295.04,737.72,295.86z"/>
		<path class="st0" d="M744.75,320.47v0.12c-0.12,0.83-0.71,1.42-1.54,1.42h-0.12c-0.83-0.12-1.42-0.71-1.42-1.54v-0.12
			c0.12-0.83,0.83-1.54,1.77-1.42C744.16,318.93,744.75,319.64,744.75,320.47z"/>
		<path class="st0" d="M725.43,306.85v0.12c-0.12,0.83-0.71,1.42-1.54,1.42h-0.12c-0.83-0.12-1.42-0.71-1.42-1.54v-0.12
			c0.12-0.83,0.83-1.54,1.77-1.42C724.84,305.43,725.43,306.14,725.43,306.85z"/>
		<path class="st0" d="M720.19,329.75v0.12c-0.12,0.83-0.71,1.42-1.54,1.42h-0.12c-0.83-0.12-1.42-0.71-1.42-1.54v-0.12
			c0.12-0.83,0.83-1.54,1.77-1.42C719.6,328.33,720.19,329.04,720.19,329.75z"/>
		<path class="st0" d="M740.81,359.14c-0.35,0-0.59-0.12-0.83-0.24c-3.9-2.96-6.15-7.21-6.15-11.71c0-4.61,2.37-8.99,6.27-11.83
			c0.47-0.35,1.18-0.35,1.77,0c3.9,2.96,6.27,7.33,6.27,11.83c0,4.49-2.37,8.75-6.39,11.71
			C741.52,359.02,741.16,359.14,740.81,359.14z M740.92,338.44c-2.6,2.25-4.14,5.44-4.14,8.75c0,3.19,1.42,6.39,4.14,8.63
			c2.72-2.25,4.14-5.32,4.26-8.63C745.06,343.88,743.53,340.69,740.92,338.44z"/>
		<path class="st0" d="M725.43,370.6c-0.83,0-1.54-0.71-1.54-1.54v-48.73c0-0.47,0.24-0.95,0.59-1.18l11.83-8.87
			c0.71-0.47,1.54-0.36,2.13,0.35c0.47,0.71,0.35,1.54-0.35,2.13l-11.24,8.4v48.02C726.85,370.01,726.26,370.6,725.43,370.6z"/>
		<path class="st0" d="M749.08,313h-16.32c-0.83,0-1.54-0.71-1.54-1.54v-5.91c0-0.83,0.71-1.54,1.54-1.54h16.32
			c0.83,0,1.54,0.71,1.54,1.54v5.91C750.5,312.29,749.91,313,749.08,313z M734.3,310.04h13.37v-2.96H734.3V310.04z"/>
		<path class="st0" d="M747.55,370.6c-0.83,0-1.54-0.43-1.54-0.94v-8.94c0-0.5,0.71-0.94,1.54-0.94c0.83,0,1.54,0.43,1.54,0.94v9.01
			C749.08,370.24,748.38,370.6,747.55,370.6z"/>
		<path class="st0" d="M734.3,370.6c-0.83,0-1.54-0.43-1.54-0.94v-8.94c0-0.5,0.71-0.94,1.54-0.94c0.83,0,1.54,0.43,1.54,0.94v9.01
			C735.72,370.24,735.13,370.6,734.3,370.6z"/>
		<path class="st0" d="M740.81,359.14c-0.83,0-1.54-0.71-1.54-1.54v-12.18c0-0.83,0.71-1.54,1.54-1.54c0.83,0,1.54,0.71,1.54,1.54
			v12.3C742.34,358.43,741.63,359.14,740.81,359.14z"/>
		<path class="st0" d="M760.91,370.6h-39.98c-0.83,0-1.54-0.71-1.54-1.54c0-0.83,0.71-1.54,1.54-1.54h39.98
			c0.83,0,1.54,0.71,1.54,1.54C762.33,370.01,761.74,370.6,760.91,370.6z"/>
		<path class="st0" d="M714.77,346.19c-2.48,0-4.49-2.01-4.49-4.49s2.01-4.49,4.49-4.49c2.48,0,4.49,2.01,4.49,4.49
			S717.14,346.19,714.77,346.19z M714.77,340.28c-0.83,0-1.54,0.71-1.54,1.54s0.71,1.54,1.54,1.54s1.54-0.71,1.54-1.54
			S715.6,340.28,714.77,340.28z"/>
		<path class="st0" d="M715.85,315.96c-2.01,0-3.67-1.66-3.67-3.67c0-2.01,1.66-3.67,3.67-3.67c2.01,0,3.67,1.66,3.67,3.67
			C719.52,314.3,717.86,315.96,715.85,315.96z M715.85,311.46c-0.35,0-0.71,0.35-0.71,0.71c0,0.35,0.36,0.71,0.71,0.71
			c0.35,0,0.71-0.35,0.71-0.71C716.56,311.82,716.2,311.46,715.85,311.46z"/>
		<path class="st0" d="M734.6,330.02c-2.01,0-3.67-1.66-3.67-3.67c0-2.01,1.66-3.67,3.67-3.67c2.01,0,3.67,1.66,3.67,3.67
			C738.27,328.36,736.61,330.02,734.6,330.02z M734.6,325.52c-0.35,0-0.71,0.35-0.71,0.71c0,0.35,0.36,0.71,0.71,0.71
			c0.35,0,0.71-0.35,0.71-0.71C735.31,325.88,734.95,325.52,734.6,325.52z"/>
		<g>
			<path class="st0" d="M760.47,331.08c-0.09,0-0.19-0.01-0.28-0.02c-0.56-0.09-1.04-0.44-1.29-0.95l-3.52-7.03
				c-0.43-0.87-0.08-1.92,0.79-2.36c0.87-0.43,1.92-0.08,2.36,0.79l2.42,4.85l9.99-9.99c0.69-0.69,1.8-0.69,2.49,0
				c0.69,0.69,0.69,1.8,0,2.49l-11.72,11.72C761.38,330.89,760.93,331.08,760.47,331.08z"/>
		</g>
		<path class="st0" d="M754.88,369.06c0,0.83,0.71,1.54,1.54,1.54c0.83,0,1.54-0.59,1.42-1.42v-30.84c-1.05-0.5-2.04-1.11-2.96-1.82
			V369.06z"/>
		<path class="st0" d="M745.42,310.28c-0.71-0.47-1.66-0.36-2.13,0.35c-0.47,0.71-0.35,1.66,0.35,2.13l6.49,4.85
			c0.42-0.94,0.93-1.83,1.52-2.66L745.42,310.28z"/>
		<path class="st0" d="M752.27,324.05c0-1.5,0.28-2.93,0.78-4.26l-2.91-2.17c-0.88,1.97-1.38,4.14-1.38,6.43
			c0,5.07,2.41,9.58,6.13,12.48v-4.92C753.25,329.51,752.27,326.9,752.27,324.05z"/>
		<path class="st0" d="M764.57,308.23c-5.34,0-10.06,2.66-12.92,6.73l2.81,2.11c2.22-3.21,5.93-5.32,10.12-5.32
			c6.78,0,12.3,5.52,12.3,12.3c0,6.78-5.52,12.3-12.3,12.3c-2.49,0-4.8-0.75-6.73-2.02v4.01c2.05,0.97,4.32,1.53,6.73,1.53
			c8.72,0,15.82-7.1,15.82-15.82S773.29,308.23,764.57,308.23z"/>
		<path class="st0" d="M754.46,317.06l-2.81-2.11c-0.59,0.83-1.1,1.72-1.52,2.66l2.91,2.17C753.4,318.82,753.87,317.9,754.46,317.06
			z"/>
		<path class="st0" d="M754.88,331.6v4.92c0.91,0.71,1.9,1.32,2.96,1.82v-4.01C756.71,333.59,755.71,332.66,754.88,331.6z"/>
	</g>
	<g>
		<path class="st0" d="M1417.44,464.51h-1.72c-0.67,0-1.22-0.55-1.22-1.22v-26.35c0-1.09,1.31-1.63,2.08-0.86h0
			c0.77,0.77,2.08,0.22,2.08-0.86v-19.6c0-0.67-0.55-1.22-1.22-1.22h-19.6c-1.09,0-1.63,1.31-0.86,2.08l4.52,4.52
			c0.48,0.48,0.48,1.25,0,1.73l-5.59,5.59c-0.43,0.43-1.1,0.48-1.59,0.12l-14.56-10.83c-0.42-0.32-1-0.32-1.43-0.02l-24.65,17.52
			c-0.81,0.57-1.93,0-1.93-0.99v-35.3c0-0.67-0.55-1.22-1.22-1.22h-1.72c-0.67,0-1.22,0.55-1.22,1.22v68.64
			c0,0.67,0.55,1.22,1.22,1.22h68.64c0.67,0,1.22-0.55,1.22-1.22v-1.73C1418.66,465.05,1418.12,464.51,1417.44,464.51z
			 M1376.88,436.32v26.97c0,0.67-0.55,1.22-1.22,1.22h-10.05c-0.67,0-1.22-0.55-1.22-1.22v-19.82c0-0.39,0.19-0.77,0.51-0.99
			l10.05-7.15C1375.76,434.75,1376.88,435.33,1376.88,436.32z M1382.99,435.6l10.19,7.58c0.31,0.23,0.49,0.59,0.49,0.98v19.12
			c0,0.67-0.55,1.22-1.22,1.22h-10.19c-0.67,0-1.22-0.55-1.22-1.22v-26.7C1381.04,435.58,1382.18,435.01,1382.99,435.6z
			 M1398.2,443.69l10.05-10.05c0.77-0.77,2.08-0.22,2.08,0.86v28.79c0,0.67-0.55,1.22-1.22,1.22h-10.05c-0.67,0-1.22-0.55-1.22-1.22
			v-18.73C1397.84,444.23,1397.97,443.92,1398.2,443.69z M1379.7,422.75l15.02,11.17c0.49,0.36,1.16,0.31,1.59-0.12l11.08-11.08
			c0.48-0.48,0.48-1.25,0-1.73l-0.36-0.36c-0.77-0.77-0.22-2.08,0.86-2.08h5.38c0.67,0,1.22,0.55,1.22,1.22v5.38
			c0,1.09-1.31,1.63-2.08,0.86l-0.36-0.36c-0.48-0.48-1.25-0.48-1.73,0l-13.64,13.64c-0.43,0.43-1.1,0.48-1.59,0.12l-15.46-11.5
			c-0.42-0.32-1-0.32-1.43-0.02l-24.53,17.44c-0.81,0.57-1.93,0-1.93-0.99v-2.13c0-0.39,0.19-0.77,0.51-0.99l26.01-18.49
			C1378.7,422.43,1379.28,422.43,1379.7,422.75z M1352.26,451.46l6.03-4.29c0.81-0.57,1.93,0,1.93,0.99v15.12
			c0,0.67-0.55,1.22-1.22,1.22h-6.03c-0.67,0-1.22-0.55-1.22-1.22v-10.84C1351.75,452.06,1351.94,451.68,1352.26,451.46z"/>
		<path class="st0" d="M1389.04,447.11v0.1c-0.1,0.72-0.62,1.24-1.34,1.24h-0.1c-0.72-0.1-1.24-0.62-1.24-1.34v-0.1
			c0.1-0.72,0.72-1.34,1.55-1.24C1388.52,445.77,1389.04,446.39,1389.04,447.11z"/>
		<path class="st0" d="M1408.18,441.64v0.1c-0.1,0.72-0.62,1.24-1.34,1.24h-0.1c-0.72-0.1-1.24-0.62-1.24-1.34v-0.1
			c0.1-0.72,0.72-1.34,1.55-1.24C1407.66,440.3,1408.18,440.92,1408.18,441.64z"/>
		<path class="st0" d="M1406.81,458.05v0.1c-0.1,0.72-0.62,1.24-1.34,1.24h-0.1c-0.72-0.1-1.24-0.62-1.24-1.34v-0.1
			c0.1-0.72,0.72-1.34,1.55-1.24C1406.29,456.71,1406.81,457.33,1406.81,458.05z"/>
		<path class="st0" d="M1390.94,455.44v0.1c-0.1,0.72-0.62,1.24-1.34,1.24h-0.1c-0.72-0.1-1.24-0.62-1.24-1.34v-0.1
			c0.1-0.72,0.72-1.34,1.55-1.24C1390.43,454.1,1390.94,454.72,1390.94,455.44z"/>
		<path class="st0" d="M1356.74,453.64v0.1c-0.1,0.72-0.62,1.24-1.34,1.24h-0.1c-0.72-0.1-1.24-0.62-1.24-1.34v-0.1
			c0.1-0.72,0.72-1.34,1.55-1.24C1356.22,452.3,1356.74,452.92,1356.74,453.64z"/>
		<path class="st0" d="M1369.3,452.71v0.1c-0.1,0.72-0.62,1.24-1.34,1.24h-0.1c-0.72-0.1-1.24-0.62-1.24-1.34v-0.1
			c0.1-0.72,0.72-1.34,1.55-1.24C1368.78,451.47,1369.3,452.09,1369.3,452.71z"/>
		<path class="st0" d="M1358.36,460.23v0.1c-0.1,0.72-0.62,1.24-1.34,1.24h-0.1c-0.72-0.1-1.24-0.62-1.24-1.34v-0.1
			c0.1-0.72,0.72-1.34,1.55-1.24C1357.84,458.99,1358.36,459.61,1358.36,460.23z"/>
		<path class="st0" d="M1373.62,456.94v0.1c-0.1,0.72-0.62,1.24-1.34,1.24h-0.1c-0.72-0.1-1.24-0.62-1.24-1.34v-0.1
			c0.1-0.72,0.72-1.34,1.55-1.24C1373.1,455.71,1373.62,456.32,1373.62,456.94z"/>
		<g>
			<path class="st0" d="M1379.37,414.19c-0.31,0-0.52-0.1-0.72-0.2c-3.42-2.54-5.42-6.23-5.46-10.15
				c-0.04-4.02,1.98-7.85,5.36-10.36c0.41-0.31,1.03-0.32,1.55-0.01c3.42,2.54,5.52,6.34,5.56,10.25c0.04,3.92-1.99,7.64-5.46,10.25
				C1379.99,414.08,1379.68,414.19,1379.37,414.19z M1379.3,396.16c-2.25,1.98-3.56,4.77-3.53,7.66c0.03,2.78,1.29,5.55,3.68,7.49
				c2.35-1.98,3.56-4.67,3.64-7.56C1382.95,400.86,1381.59,398.09,1379.3,396.16z"/>
			<path class="st0" d="M1379.37,414.19c-0.72,0.01-1.35-0.61-1.35-1.33l-0.1-10.61c-0.01-0.72,0.61-1.35,1.33-1.35
				c0.72-0.01,1.35,0.61,1.35,1.33l0.1,10.72C1380.71,413.56,1380.1,414.18,1379.37,414.19z"/>
		</g>
		<path class="st0" d="M1370.95,450.08c-2.16,0-3.92-1.75-3.92-3.92s1.75-3.92,3.92-3.92c2.16,0,3.92,1.75,3.92,3.92
			S1373.01,450.08,1370.95,450.08z M1370.95,444.92c-0.72,0-1.34,0.62-1.34,1.34c0,0.72,0.62,1.34,1.34,1.34s1.34-0.62,1.34-1.34
			C1372.29,445.54,1371.67,444.92,1370.95,444.92z"/>
		<path class="st0" d="M1384.87,462.7c-1.75,0-3.19-1.44-3.19-3.19c0-1.75,1.44-3.19,3.19-3.19c1.75,0,3.19,1.44,3.19,3.19
			C1388.07,461.25,1386.62,462.7,1384.87,462.7z M1384.87,458.78c-0.31,0-0.62,0.31-0.62,0.62c0,0.31,0.31,0.62,0.62,0.62
			c0.31,0,0.62-0.31,0.62-0.62C1385.49,459.09,1385.18,458.78,1384.87,458.78z"/>
		<path class="st0" d="M1402.57,453.07c-1.75,0-3.19-1.44-3.19-3.19c0-1.75,1.44-3.19,3.19-3.19s3.19,1.44,3.19,3.19
			C1405.77,451.63,1404.33,453.07,1402.57,453.07z M1402.57,449.16c-0.31,0-0.62,0.31-0.62,0.62c0,0.31,0.31,0.62,0.62,0.62
			c0.31,0,0.62-0.31,0.62-0.62C1403.19,449.47,1402.88,449.16,1402.57,449.16z"/>
	</g>
	<g>
		<path class="st0" d="M969.35,431.05v0.11c-0.11,0.76-0.65,1.31-1.42,1.31h-0.11c-0.76-0.11-1.31-0.65-1.31-1.42v-0.11
			c0.11-0.76,0.76-1.42,1.63-1.31C968.81,429.74,969.35,430.28,969.35,431.05z"/>
		<path class="st0" d="M961.07,428.32v0.11c-0.11,0.76-0.65,1.31-1.42,1.31h-0.11c-0.76-0.11-1.31-0.65-1.31-1.42v-0.11
			c0.11-0.76,0.76-1.42,1.63-1.31C960.42,426.91,961.07,427.56,961.07,428.32z"/>
		<path class="st0" d="M950.29,431.05v0.11c-0.11,0.76-0.65,1.31-1.42,1.31h-0.11c-0.76-0.11-1.31-0.65-1.31-1.42v-0.11
			c0.11-0.76,0.76-1.42,1.63-1.31C949.74,429.63,950.29,430.28,950.29,431.05z"/>
		<path class="st0" d="M942.01,428.11v0.11c-0.11,0.76-0.65,1.31-1.42,1.31h-0.11c-0.76-0.11-1.31-0.65-1.31-1.42V428
			c0.11-0.76,0.76-1.42,1.63-1.31C941.35,426.69,942.01,427.34,942.01,428.11z"/>
		<path class="st0" d="M980.14,463.62c-0.76,0-1.42-0.65-1.42-1.42v-38.24c0-0.76,0.65-1.42,1.42-1.42c0.76,0,1.42,0.65,1.42,1.42
			v38.35C981.45,462.97,980.79,463.62,980.14,463.62z"/>
		<path class="st0" d="M928.39,463.62c-0.76,0-1.42-0.65-1.42-1.42v-38.24c0-0.76,0.65-1.42,1.42-1.42s1.42,0.65,1.42,1.42v38.35
			C929.7,462.97,929.04,463.62,928.39,463.62z"/>
		<path class="st0" d="M929.7,425.49c-0.65,0-1.2-0.11-1.85-0.33c-2.18-0.76-3.59-2.83-3.59-5.12v-2.72c0-0.76,0.65-1.42,1.42-1.42
			c0.76,0,1.42,0.65,1.42,1.42v2.72c0,1.2,0.76,2.18,1.85,2.61c0.33,0.11,0.54,0.11,0.87,0.11c1.53,0,2.72-1.2,2.72-2.72
			c0-0.76,0.65-1.42,1.42-1.42c0.76,0,1.42,0.65,1.42,1.42C935.14,422.99,932.75,425.49,929.7,425.49z"/>
		<path class="st0" d="M937.87,425.49c-2.4,0-4.47-1.53-5.12-3.7c-0.22-0.54-0.33-1.09-0.33-1.74v-2.72c0-0.76,0.65-1.42,1.42-1.42
			c0.76,0,1.42,0.65,1.42,1.42v2.72c0,0.33,0,0.55,0.11,0.87c0.33,1.09,1.42,1.85,2.61,1.85c1.53,0,2.72-1.2,2.72-2.72
			c0-0.76,0.65-1.42,1.42-1.42c0.76,0,1.42,0.65,1.42,1.42C943.31,422.99,940.92,425.49,937.87,425.49z"/>
		<path class="st0" d="M946.04,425.49c-3.05,0-5.45-2.4-5.45-5.45v-2.72c0-0.76,0.65-1.42,1.42-1.42c0.76,0,1.42,0.65,1.42,1.42
			v2.72c0,1.53,1.2,2.72,2.72,2.72c1.53,0,2.72-1.2,2.72-2.72c0-0.76,0.65-1.42,1.42-1.42s1.42,0.65,1.42,1.42
			C951.49,422.99,949.09,425.49,946.04,425.49z"/>
		<path class="st0" d="M954.21,425.49c-3.05,0-5.45-2.4-5.45-5.45v-2.72c0-0.76,0.65-1.42,1.42-1.42s1.42,0.65,1.42,1.42v2.72
			c0,1.53,1.2,2.72,2.72,2.72c1.53,0,2.72-1.2,2.72-2.72c0-0.76,0.65-1.42,1.42-1.42s1.42,0.65,1.42,1.42
			C959.66,422.99,957.26,425.49,954.21,425.49z"/>
		<path class="st0" d="M962.38,425.49c-3.05,0-5.45-2.4-5.45-5.45v-2.72c0-0.76,0.65-1.42,1.42-1.42c0.76,0,1.42,0.65,1.42,1.42
			v2.72c0,1.53,1.2,2.72,2.72,2.72c1.52,0,2.72-1.2,2.72-2.72c0-0.76,0.65-1.42,1.42-1.42s1.42,0.65,1.42,1.42
			C967.83,422.99,965.43,425.49,962.38,425.49z"/>
		<path class="st0" d="M970.55,425.49c-3.05,0-5.45-2.4-5.45-5.45v-2.72c0-0.76,0.65-1.42,1.42-1.42s1.42,0.65,1.42,1.42v2.72
			c0,1.53,1.2,2.72,2.72,2.72c1.52,0,2.72-1.2,2.72-2.72c0-0.76,0.65-1.42,1.42-1.42c0.76,0,1.42,0.65,1.42,1.42
			C976,422.99,973.6,425.49,970.55,425.49z"/>
		<path class="st0" d="M978.72,425.49c-2.4,0-4.47-1.53-5.12-3.7c-0.22-0.54-0.33-1.09-0.33-1.74v-2.72c0-0.76,0.65-1.42,1.42-1.42
			c0.76,0,1.42,0.65,1.42,1.42v2.72c0,0.33,0,0.55,0.11,0.87c0.33,1.09,1.42,1.85,2.61,1.85c0.33,0,0.65,0,0.87-0.11
			c1.09-0.44,1.85-1.42,1.85-2.61v-2.72c0-0.76,0.65-1.42,1.42-1.42s1.42,0.65,1.42,1.42v2.72c0,2.29-1.42,4.36-3.7,5.12
			C979.92,425.38,979.38,425.49,978.72,425.49z"/>
		<path class="st0" d="M984.17,463.62h-59.92c-0.76,0-1.42-0.65-1.42-1.42c0-0.76,0.65-1.42,1.42-1.42h59.92
			c0.76,0,1.42,0.65,1.42,1.42C985.59,462.97,984.93,463.62,984.17,463.62z"/>
		<path class="st0" d="M933.84,418.63h-8.17c-0.44,0-0.76-0.22-1.09-0.44c-0.22-0.33-0.33-0.76-0.33-1.09l2.72-16.34
			c0.11-0.65,0.65-1.09,1.31-1.09h5.45c0.76,0,1.42,0.65,1.42,1.42c0,0.76-0.65,1.42-1.42,1.42h-4.25l-2.29,13.62h6.54
			c0.76,0,1.42,0.65,1.42,1.42C935.14,418.08,934.49,418.63,933.84,418.63z"/>
		<path class="st0" d="M950.18,418.63h-16.34c-0.76,0-1.42-0.65-1.42-1.42v-16.34c0-0.76,0.65-1.42,1.42-1.42h16.34
			c0.76,0,1.42,0.65,1.42,1.42c0,0.76-0.65,1.42-1.42,1.42h-15.03v13.62h15.03c0.76,0,1.42,0.65,1.42,1.42
			C951.49,418.08,950.83,418.63,950.18,418.63z"/>
		<path class="st0" d="M958.35,418.63h-8.17c-0.76,0-1.42-0.65-1.42-1.42v-16.34c0-0.76,0.65-1.42,1.42-1.42h8.17
			c0.76,0,1.42,0.65,1.42,1.42c0,0.76-0.65,1.42-1.42,1.42h-6.86v13.62h6.86c0.76,0,1.42,0.65,1.42,1.42
			C959.66,418.08,959,418.63,958.35,418.63z"/>
		<path class="st0" d="M974.69,418.63h-16.34c-0.76,0-1.42-0.65-1.42-1.42v-16.34c0-0.76,0.65-1.42,1.42-1.42h16.34
			c0.76,0,1.42,0.65,1.42,1.42c0,0.76-0.65,1.42-1.42,1.42h-15.03v13.62h15.03c0.76,0,1.42,0.65,1.42,1.42
			C976,418.08,975.34,418.63,974.69,418.63z"/>
		<path class="st0" d="M982.86,418.63h-8.17c-0.76,0-1.42-0.65-1.42-1.42v-16.34c0-0.76,0.65-1.42,1.42-1.42h5.45
			c0.65,0,1.2,0.44,1.31,1.09l2.72,16.34c0.11,0.44,0,0.76-0.33,1.09C983.62,418.52,983.19,418.63,982.86,418.63z M976,415.9h5.23
			l-2.29-13.62H976V415.9z"/>
		<path class="st0" d="M934.49,447.28h-0.65c-0.76,0-1.42-0.65-1.42-1.42v-24.51c0-0.76,0.65-1.42,1.42-1.42
			c0.76,0,1.42,0.65,1.42,1.42v23.32c0.44,0.22,0.65,0.65,0.65,1.2C935.8,446.63,935.25,447.28,934.49,447.28z"/>
		<path class="st0" d="M974.69,447.28h-0.65c-0.76,0-1.42-0.65-1.42-1.42c0-0.54,0.33-0.98,0.65-1.2v-23.32
			c0-0.76,0.65-1.42,1.42-1.42c0.76,0,1.42,0.65,1.42,1.42v24.51C976,446.63,975.34,447.28,974.69,447.28z"/>
		<path class="st0" d="M973.93,451.31h-39.44c-1.85,0-3.38-1.53-3.38-3.38c0-0.87,0.33-1.74,0.98-2.4c0.65-0.65,1.53-0.98,2.4-0.98
			h4.79c0.76,0,1.42,0.65,1.42,1.42c0,0.76-0.65,1.42-1.42,1.42h-4.79c-0.22,0-0.33,0.11-0.44,0.22c-0.11,0.11-0.22,0.22-0.22,0.44
			c0,0.33,0.33,0.65,0.65,0.65h39.55c0.22,0,0.33-0.11,0.44-0.22c0.11-0.11,0.22-0.33,0.22-0.44c0-0.33-0.33-0.65-0.65-0.65h-29.31
			c-0.76,0-1.42-0.65-1.42-1.42c0-0.76,0.65-1.42,1.42-1.42h29.31c1.85,0,3.38,1.53,3.38,3.38c0,0.87-0.33,1.74-0.98,2.4
			C975.67,450.98,974.91,451.31,973.93,451.31z"/>
		<path class="st0" d="M944.73,447.28h-5.45c-0.65,0-1.2-0.55-1.31-1.2l-0.76-5.45c-0.22-1.42,0.22-2.83,1.2-3.92
			c0.98-1.09,2.29-1.74,3.71-1.74c2.72,0,4.9,2.18,4.9,4.9c0,0.22,0,0.44,0,0.65l-0.76,5.45
			C945.93,446.74,945.38,447.28,944.73,447.28z M940.37,444.56h3.05l0.65-4.36c0-0.11,0-0.22,0-0.33c0-1.2-0.98-2.18-2.18-2.18
			c-0.65,0-1.2,0.33-1.63,0.76c-0.44,0.44-0.65,1.09-0.54,1.74L940.37,444.56z"/>
		<path class="st0" d="M941.9,437.69c-0.44,0-0.87-0.22-1.09-0.55l-4.14-5.45c-0.44-0.65-0.33-1.42,0.33-1.96
			c0.65-0.54,1.42-0.33,1.96,0.33l2.72,3.7l1.74-3.49c0.33-0.65,1.2-0.98,1.85-0.65c0.65,0.33,0.98,1.2,0.65,1.85l-2.72,5.45
			c-0.22,0.44-0.65,0.65-1.09,0.76C942.01,437.69,942.01,437.69,941.9,437.69z"/>
		<path class="st0" d="M954.21,447.28c-2.29,0-4.14-1.85-4.14-4.14c0-2.29,1.85-4.14,4.14-4.14c2.29,0,4.14,1.85,4.14,4.14
			C958.35,445.43,956.5,447.28,954.21,447.28z M954.21,441.83c-0.76,0-1.42,0.65-1.42,1.42c0,0.76,0.65,1.42,1.42,1.42
			c0.76,0,1.42-0.65,1.42-1.42C955.62,442.49,954.97,441.83,954.21,441.83z"/>
		<path class="st0" d="M959.66,447.28c-2.29,0-4.14-1.85-4.14-4.14c0-2.29,1.85-4.14,4.14-4.14s4.14,1.85,4.14,4.14
			C963.8,445.43,961.94,447.28,959.66,447.28z M959.66,441.83c-0.76,0-1.42,0.65-1.42,1.42c0,0.76,0.65,1.42,1.42,1.42
			c0.76,0,1.42-0.65,1.42-1.42C961.07,442.49,960.42,441.83,959.66,441.83z"/>
		<path class="st0" d="M965.1,447.28c-2.29,0-4.14-1.85-4.14-4.14c0-2.29,1.85-4.14,4.14-4.14c2.29,0,4.14,1.85,4.14,4.14
			C969.24,445.43,967.39,447.28,965.1,447.28z M965.1,441.83c-0.76,0-1.42,0.65-1.42,1.42c0,0.76,0.65,1.42,1.42,1.42
			c0.76,0,1.42-0.65,1.42-1.42C966.52,442.49,965.87,441.83,965.1,441.83z"/>
		<path class="st0" d="M956.93,441.83c-2.29,0-4.14-1.85-4.14-4.14c0-2.29,1.85-4.14,4.14-4.14c2.29,0,4.14,1.85,4.14,4.14
			C961.07,439.98,959.22,441.83,956.93,441.83z M956.93,436.39c-0.76,0-1.42,0.65-1.42,1.42c0,0.76,0.65,1.42,1.42,1.42
			c0.76,0,1.42-0.65,1.42-1.42C958.35,437.04,957.7,436.39,956.93,436.39z"/>
		<path class="st0" d="M962.38,441.83c-2.29,0-4.14-1.85-4.14-4.14c0-2.29,1.85-4.14,4.14-4.14c2.29,0,4.14,1.85,4.14,4.14
			C966.52,439.98,964.67,441.83,962.38,441.83z M962.38,436.39c-0.76,0-1.42,0.65-1.42,1.42c0,0.76,0.65,1.42,1.42,1.42
			c0.76,0,1.42-0.65,1.42-1.42C963.8,437.04,963.14,436.39,962.38,436.39z"/>
		<path class="st0" d="M952.14,459.48c-0.11,0-0.11,0-0.22,0l-10.24-1.42c-0.65-0.11-1.2-0.65-1.2-1.31v-1.42
			c0-0.65,0.54-1.31,1.2-1.31l10.24-1.42c0.11,0,0.11,0,0.22,0c1.85,0,3.38,1.53,3.38,3.38c0,0.87-0.33,1.74-0.98,2.4
			C953.88,459.16,953.12,459.48,952.14,459.48z M947.13,456.11l5.12,0.65c0.11,0,0.33-0.11,0.44-0.22c0.11-0.11,0.22-0.33,0.22-0.44
			c0-0.33-0.22-0.65-0.65-0.65L947.13,456.11z"/>
		<path class="st0" d="M956.28,459.48c-0.87,0-1.74-0.33-2.4-0.98c-0.65-0.65-0.98-1.53-0.98-2.4c0-1.85,1.52-3.38,3.38-3.38
			c0.11,0,0.11,0,0.22,0l10.24,1.42c0.65,0.11,1.2,0.65,1.2,1.31v1.42c0,0.65-0.54,1.31-1.2,1.31l-10.35,1.31H956.28z
			 M956.17,455.45c-0.33,0-0.65,0.33-0.65,0.65c0,0.22,0.11,0.33,0.22,0.44c0.11,0.11,0.22,0.22,0.44,0.22l5.12-0.65L956.17,455.45z
			"/>
		<path class="st0" d="M942.01,413.18c-0.76,0-1.42-0.65-1.42-1.42v-10.89c0-0.76,0.65-1.42,1.42-1.42c0.76,0,1.42,0.65,1.42,1.42
			v10.89C943.31,412.64,942.66,413.18,942.01,413.18z"/>
		<path class="st0" d="M966.52,418.63c-0.76,0-1.42-0.65-1.42-1.42v-10.89c0-0.76,0.65-1.42,1.42-1.42s1.42,0.65,1.42,1.42v10.89
			C967.83,418.08,967.17,418.63,966.52,418.63z"/>
	</g>
	<g>
		<path class="st0" d="M1191.89,336.25c0.9,0,1.62,0.73,1.62,1.63c0,0.9-0.73,1.63-1.62,1.63c-0.9,0-1.63-0.73-1.63-1.63
			C1190.26,336.98,1190.99,336.25,1191.89,336.25z"/>
		<path class="st0" d="M1191.89,348.76c0.9,0,1.62,0.73,1.62,1.63c0,0.9-0.73,1.63-1.62,1.63c-0.9,0-1.63-0.73-1.63-1.63
			C1190.26,349.48,1190.99,348.76,1191.89,348.76z"/>
		<path class="st0" d="M1191.89,361.26c0.9,0,1.62,0.73,1.62,1.63c0,0.9-0.73,1.63-1.62,1.63c-0.9,0-1.63-0.73-1.63-1.63
			C1190.26,361.99,1190.99,361.26,1191.89,361.26z"/>
		<path class="st0" d="M1168.51,322.12c0.9,0,1.62,0.73,1.62,1.63s-0.73,1.63-1.62,1.63s-1.63-0.73-1.63-1.63
			S1167.61,322.12,1168.51,322.12z"/>
		<circle class="st0" cx="1159.13" cy="312.87" r="1.63"/>
		<circle class="st0" cx="1149.75" cy="311.25" r="1.63"/>
		<path class="st0" d="M1138.75,336.25c0.9,0,1.62,0.73,1.62,1.63c0,0.9-0.73,1.63-1.62,1.63s-1.63-0.73-1.63-1.63
			C1137.12,336.98,1137.85,336.25,1138.75,336.25z"/>
		<path class="st0" d="M1138.75,348.76c0.9,0,1.62,0.73,1.62,1.63c0,0.9-0.73,1.63-1.62,1.63s-1.63-0.73-1.63-1.63
			C1137.12,349.48,1137.85,348.76,1138.75,348.76z"/>
		<path class="st0" d="M1138.75,361.26c0.9,0,1.62,0.73,1.62,1.63c0,0.9-0.73,1.63-1.62,1.63s-1.63-0.73-1.63-1.63
			C1137.12,361.99,1137.85,361.26,1138.75,361.26z"/>
		<path class="st0" d="M1198.14,345.63c-0.87,0-1.62-0.75-1.62-1.63v-11h-53.01c-0.87,0-1.62-0.75-1.62-1.63
			c0-0.88,0.75-1.63,1.62-1.63h54.76c0.87,0,1.62,0.75,1.62,1.63v12.5C1199.76,345.01,1199.01,345.63,1198.14,345.63z"/>
		<path class="st0" d="M1132.5,345.63c-0.88,0-1.63-0.75-1.63-1.63v-12.5c0-0.88,0.75-1.63,1.63-1.63h3.13
			c0.87,0,1.62,0.75,1.62,1.63c0,0.87-0.75,1.63-1.62,1.63H1134v11C1134.12,345.01,1133.37,345.63,1132.5,345.63z"/>
		<path class="st0" d="M1198.14,358.13c-0.87,0-1.62-0.75-1.62-1.63v-11H1134v11c0,0.88-0.75,1.63-1.62,1.63
			c-0.88,0-1.63-0.75-1.63-1.63v-12.5c0-0.88,0.75-1.63,1.63-1.63h65.64c0.88,0,1.63,0.75,1.63,1.63v12.5
			C1199.76,357.51,1199.01,358.13,1198.14,358.13z"/>
		<path class="st0" d="M1198.14,370.64h-65.64c-0.88,0-1.63-0.75-1.63-1.63v-12.5c0-0.88,0.75-1.63,1.63-1.63h65.64
			c0.88,0,1.63,0.75,1.63,1.63v12.5C1199.76,370.01,1199.01,370.64,1198.14,370.64z M1134.12,367.51h62.52v-9.38h-62.52V367.51z"/>
		<path class="st0" d="M1143.5,333.13h-7.88c-2.63,0-4.75-2.13-4.75-4.75c0-1.25,0.5-2.38,1.38-3.38c0.88-0.88,2.13-1.38,3.38-1.38
			h7.88c2.63,0,4.75,2.13,4.75,4.75c0,1.25-0.5,2.38-1.38,3.38C1145.88,332.63,1144.75,333.13,1143.5,333.13z M1135.62,326.88
			c-0.38,0-0.75,0.13-1.12,0.5c-0.25,0.25-0.5,0.62-0.5,1.13c0,0.88,0.75,1.63,1.63,1.63h7.88c0.37,0,0.75-0.13,1.13-0.5
			c0.25-0.25,0.5-0.63,0.5-1.13c0-0.88-0.75-1.63-1.63-1.63H1135.62z"/>
		<path class="st0" d="M1151.25,326.88h-7.88c-1.25,0-2.38-0.5-3.38-1.38c-0.87-0.88-1.38-2.13-1.38-3.38
			c0-2.63,2.13-4.75,4.75-4.75h7.88c2.13,0,3.88,1.38,4.5,3.38c0.25,0.88-0.25,1.75-1.12,1.88c-0.87,0.25-1.75-0.25-1.88-1.13
			c-0.25-0.62-0.75-1.13-1.5-1.13h-7.88c-0.87,0-1.63,0.75-1.63,1.63c0,0.38,0.13,0.75,0.5,1.13c0.25,0.25,0.63,0.5,1.12,0.5h7.88
			c0.25,0,0.5-0.12,0.75-0.25c0.75-0.37,1.75-0.13,2.13,0.5c0.38,0.75,0.12,1.75-0.5,2.13
			C1152.88,326.63,1152.13,326.88,1151.25,326.88z"/>
		<path class="st0" d="M1168.51,333.13c-2.25,0-4.38-1-5.88-2.63c-0.63-0.63-0.5-1.63,0.12-2.25c0.63-0.63,1.63-0.5,2.25,0.13
			c0.87,1,2.13,1.63,3.5,1.63c2.62,0,4.75-2.13,4.75-4.75c0-2.63-2.13-4.75-4.75-4.75c-1.38,0-2.63,0.62-3.5,1.63
			c-0.63,0.63-1.5,0.75-2.25,0.13c-0.62-0.63-0.75-1.5-0.12-2.25c1.5-1.63,3.63-2.63,5.88-2.63c4.25,0,7.88,3.5,7.88,7.88
			C1176.38,329.63,1172.76,333.13,1168.51,333.13z"/>
		<path class="st0" d="M1159.13,333.13c-4.25,0-7.88-3.5-7.88-7.88c0-0.13,0-0.38,0-0.5c0.12-1.63,0.75-3.13,1.75-4.38
			c1.5-1.75,3.63-2.88,6-2.88c2.25,0,4.38,1,5.88,2.63c0.5,0.62,0.5,1.5,0,2.13c-0.75,0.88-1.12,2-1.12,3.13
			c0,1.13,0.37,2.25,1.12,3.13c0.5,0.63,0.5,1.5,0,2.13C1163.51,332.25,1161.38,333.13,1159.13,333.13z M1159.13,320.62
			c-1.38,0-2.75,0.63-3.63,1.75c-0.63,0.75-1,1.63-1.13,2.63c0,0.13,0,0.25,0,0.37c0,2.63,2.13,4.75,4.75,4.75
			c0.87,0,1.88-0.25,2.62-0.75c-0.62-1.13-1-2.5-1-3.88c0-1.38,0.37-2.75,1-3.88C1160.88,320.87,1160,320.62,1159.13,320.62z"/>
		<path class="st0" d="M1182.51,326.88c-2.63,0-4.75-2.13-4.75-4.75v-4.75c0-2.63,2.13-4.75,4.75-4.75c1.25,0,2.38,0.5,3.38,1.38
			c0.88,0.88,1.38,2.13,1.38,3.38c0,0.88-0.75,1.63-1.62,1.63c-0.88,0-1.63-0.75-1.63-1.63c0-0.38-0.12-0.75-0.5-1.13
			c-0.25-0.25-0.63-0.5-1.13-0.5c-0.87,0-1.62,0.75-1.62,1.63v4.75c0,0.88,0.75,1.63,1.62,1.63c0.88,0,1.63-0.75,1.63-1.63
			c0-0.88,0.75-1.63,1.63-1.63c0.87,0,1.62,0.75,1.62,1.63C1187.26,324.75,1185.14,326.88,1182.51,326.88z"/>
		<path class="st0" d="M1182.51,333.13c-0.88,0-1.63-0.75-1.63-1.63v-6.25c0-0.88,0.75-1.63,1.63-1.63c0.87,0,1.62,0.75,1.62,1.63
			v6.25C1184.14,332.5,1183.39,333.13,1182.51,333.13z"/>
		<path class="st0" d="M1188.76,326.88c-2.63,0-4.75-2.13-4.75-4.75v-4.75c0-2.63,2.13-4.75,4.75-4.75c1.25,0,2.37,0.5,3.38,1.38
			c0.88,0.88,1.38,2.13,1.38,3.38v4.75C1193.51,324.75,1191.39,326.88,1188.76,326.88z M1188.76,316c-0.88,0-1.63,0.75-1.63,1.63
			v4.75c0,0.88,0.75,1.63,1.63,1.63c0.87,0,1.62-0.75,1.62-1.63v-4.75c0-0.37-0.12-0.75-0.5-1.13
			C1189.64,316.12,1189.26,316,1188.76,316z"/>
		<path class="st0" d="M1188.76,333.13c-0.88,0-1.63-0.75-1.63-1.63v-6.25c0-0.88,0.75-1.63,1.63-1.63c0.87,0,1.62,0.75,1.62,1.63
			v6.25C1190.39,332.5,1189.64,333.13,1188.76,333.13z"/>
		<path class="st0" d="M1134.12,317.5c-0.88,0-1.63-0.75-1.63-1.63c0-3.5,2.75-6.25,6.25-6.25c0.63,0,1.12,0.12,1.62,0.25
			c0.63-4.5,4.63-8,9.25-8c2.25,0,4.38,0.88,6.13,2.25c1-0.5,2.13-0.75,3.25-0.75c3.13,0,6,1.88,7.25,4.75c3,0.5,5.25,3,5.25,6.13
			c0,0.88-0.75,1.63-1.62,1.63c-0.88,0-1.63-0.75-1.63-1.63c0-1.75-1.38-3.13-3.13-3.13h-0.12c-0.75,0-1.38-0.5-1.63-1.13
			c-0.5-2.13-2.38-3.5-4.5-3.5c-1,0-1.88,0.25-2.62,0.75c-0.63,0.5-1.5,0.37-2-0.25c-1.12-1.38-2.88-2.13-4.63-2.13
			c-3.5,0-6.25,2.75-6.25,6.25c0,0.37,0,0.75,0.12,1c0.13,0.62-0.25,1.38-0.75,1.63c-0.63,0.38-1.38,0.25-1.75-0.25
			c-0.63-0.5-1.38-0.88-2.13-0.88c-1.75,0-3.13,1.38-3.13,3.13C1135.62,316.87,1135,317.5,1134.12,317.5z"/>
		<path class="st0" d="M1145,370.64c-0.88,0-1.63-0.75-1.63-1.63V331.5c0-0.88,0.75-1.63,1.63-1.63c0.87,0,1.62,0.75,1.62,1.63
			v37.51C1146.63,370.01,1145.88,370.64,1145,370.64z"/>
		<path class="st0" d="M1185.64,370.64c-0.88,0-1.63-0.75-1.63-1.63V331.5c0-0.88,0.75-1.63,1.63-1.63c0.87,0,1.62,0.75,1.62,1.63
			v37.51C1187.26,370.01,1186.51,370.64,1185.64,370.64z"/>
		<path class="st0" d="M1178.63,309.75c-2.13,0-3.88-1.75-3.88-3.88c0-2.13,1.75-3.88,3.88-3.88c2.13,0,3.88,1.75,3.88,3.88
			C1182.51,308,1180.76,309.75,1178.63,309.75z M1178.63,305c-0.38,0-0.75,0.37-0.75,0.75c0,0.38,0.38,0.75,0.75,0.75
			s0.75-0.37,0.75-0.75C1179.38,305.37,1179.01,305,1178.63,305z"/>
		<path class="st0" d="M1196.64,309.75c-2.63,0-4.75-2.13-4.75-4.75s2.13-4.75,4.75-4.75c2.63,0,4.75,2.13,4.75,4.75
			S1199.14,309.75,1196.64,309.75z M1196.64,303.5c-0.87,0-1.63,0.75-1.63,1.63c0,0.88,0.75,1.63,1.63,1.63
			c0.88,0,1.63-0.75,1.63-1.63C1198.14,304.12,1197.51,303.5,1196.64,303.5z"/>
	</g>
	<path class="st0" d="M1753.48,365.21c-23.97-36.49-71.93-50.3-111.64-32.16c-22.8,10.41-38.91,28.96-46.82,50.42
		c-5.31,14.39-18.67,24.24-33.95,25.48l0,0c-67.62,6.85-103.29-22.03-102.59-20.76c14.73,26.69,2.76,73.63-3.68,97.55
		c26.69-42.33,73.63-50.62,108.64-46.88l0,0c15.56-1.26,30.19,6.82,38,20.34c0.83,1.44,1.71,2.87,2.64,4.29
		c23.81,36.46,71.54,50.45,111.26,32.6C1765.66,473.47,1783.78,411.34,1753.48,365.21z"/>
	<path class="st0" d="M1767.89,239.48c0.74,2.26,2.59,3.12,3.23,5.43c0.57,2.05-1.49,4.39-1.01,6.48c0.48,2.09,3.48,3.92,3.86,6.02
		c0.34,1.88-2.31,3.47-2.06,5.35c0.26,1.88,3.42,4.06,3.59,5.93c0.16,1.78-3.03,2.71-2.95,4.48c0.11,2.28,3.47,5.39,3.44,7.63
		c-0.03,2.16-3.42,2.77-3.59,4.88c-0.17,2.11,2.87,5.71,2.56,7.74c-0.41,2.6-4.18,2.94-4.84,5.39c-0.51,1.91,2.16,5.97,1.49,7.77
		c-0.54,1.46-5.39,4.28-6.05,5.66c-1.61,3.4,0.49,5.1-2.06,7.77c-1.11,1.17-3.73-1.32-4.99-0.32c-1.61,1.3-1.9,6.03-3.69,7.04
		c-2.12,1.18-4.8-1.91-7.08-1.17c-1.79,0.57-3.15,5.08-4.98,5.35c-1.83,0.27-3.68,0.39-5.51,0.34c-5.11-0.14-9.63-1.45-6.99-7.18
		c0.2-0.43,0.69-0.87,1.31-1.31c3.48-2.52,5.78-5.74,8.55-8.93c7.67-1.59,12.79-4.12,20.5-1.9c-8.61-4.43-8.8-5.9-17.83-1.18
		c2.47-2.99,4.35-5.94,6.04-9c5.34-2.67,9.03-5.35,15.39-5.07c-7.29-1.77-8.36-2.91-13.36,1.15c2.14-4.33,4.56-8.74,6.17-13.3
		c3.44-2.32,5.2-3.84,10.21-4.43c-5.9-0.45-6.24-2.11-9.13,1.03c1.8-6.24,3.19-13.77,3.96-17.08c-2.72,4.95-4.88,9.35-6.74,13.37
		c-0.27-3.51-1.71-2.77-6.21-6.08c3.24,3.54,3.71,5.79,4.69,9.43c-1.88,4.19-3.49,7.99-5.2,11.61c0.76-5.83-0.82-6.3-5.9-11.5
		c3.58,5.47,3.04,10.1,3.52,16.29c-1.66,3.13-3.52,6.21-5.82,9.39c-0.75-9.41-2.69-9.38-10.64-14.37c5.27,4.95,6.53,10.4,8.69,16.95
		c-3.24,4.11-6.67,8.86-10.67,12.78c-1.47,1.43-2.96,2.89-4.47,4.33c-4.3,4.09-8.76,7.66-13.78,10.71l-0.62-3.9
		c1.03-0.66,2.06-1.34,3.05-2.05c3.61-2.58,7.69-5.87,9.54-10.03c0.53-1.2-3.11-4.15-4.21-6.33c-1.06-2.11,1.66-5.49,1-8.16
		c-0.6-2.42-4.64-4.09-4.56-7.05c0.07-2.65,4.29-6.13,5.15-9.27c0.64-2.34-0.7-5.76,0.5-8.39c2.58-3.89,5.97-3.13,8.85-5.67
		c2.24-1.97,2.38-5.9,4.7-7.39c2.06-1.32,7.8,2.01,9.85,0.87c2.05-1.15,0.41-6.78,2.38-7.96c1.76-1.05,5.77,0.52,7.42-0.72
		c1.66-1.24,0.96-5.29,2.45-6.85c1.52-1.59,4.88-1.93,6.18-4.01c1.28-2.04,0.49-5.8,1.52-8.45c1.32-3.41,2.41-7.38,3.22-12.08
		C1767.05,232.32,1766.93,236.58,1767.89,239.48z"/>
	<path class="st0" d="M1660.87,252.86c1.55,0.73,2.92,0.2,4.44,1.02c1.35,0.72,1.55,2.96,2.87,3.75c1.32,0.79,3.77,0.13,5.05,0.98
		c1.15,0.76,0.66,2.93,1.77,3.73c1.11,0.8,3.82,0.23,4.88,1.07c1.01,0.8-0.09,2.93,0.87,3.77c1.24,1.08,4.53,0.87,5.68,2
		c1.11,1.09-0.26,3.16,0.76,4.3c1.01,1.14,4.4,1.34,5.31,2.51c1.15,1.5-0.55,3.64,0.41,5.2c0.74,1.21,4.18,1.84,4.79,3.09
		c0.49,1.01-0.45,4.94-0.05,5.96c0.98,2.53,2.9,2.28,3.03,4.93c0.06,1.16-2.54,1.29-2.64,2.44c-0.12,1.48,2.2,3.99,1.83,5.42
		c-0.43,1.69-3.38,1.55-4.13,3.11c-0.59,1.22,1.08,4.17,0.31,5.25c-0.77,1.09-1.62,2.11-2.56,3.04c-2.61,2.59-5.54,4.3-7.21,0.08
		c-0.13-0.32-0.11-0.8-0.03-1.34c0.42-3.07-0.12-5.87-0.4-8.89c2.98-4.79,4.21-8.72,9.2-11.63c-6.59,2.28-7.45,1.66-9.47,8.71
		c-0.33-2.77-0.94-5.22-1.69-7.62c1.26-4.11,1.7-7.37,5-10.54c-4.55,2.92-5.67,2.91-6.04,7.54c-1.19-3.27-2.29-6.72-3.87-9.83
		c0.5-2.94,0.58-4.62,2.76-7.52c-3.17,2.85-4.2,2.2-4,5.28c-2.36-4.04-5.59-8.51-6.94-10.55c1.23,3.88,2.45,7.19,3.62,10.16
		c-1.96-1.6-2.29-0.48-6.25,0.22c3.45,0.07,4.86,0.94,7.24,2.24c1.25,3.06,2.43,5.79,3.47,8.48c-2.66-3.29-3.69-2.7-8.93-2.64
		c4.63,0.85,6.78,3.43,10.24,6.26c0.81,2.42,1.49,4.92,2,7.7c-5.28-4.29-6.23-3.26-12.78-1.59c5.2-0.29,8.67,1.77,13.15,3.89
		c0.53,3.73,1.31,7.88,1.36,11.91c0.02,1.48,0.04,2.98,0.04,4.48c-0.01,4.27-0.36,8.37-1.26,12.51l-2.34-1.61
		c0.17-0.87,0.32-1.74,0.44-2.61c0.45-3.16,0.76-6.93-0.49-9.96c-0.36-0.87-3.71-0.44-5.4-0.95c-1.63-0.49-2.04-3.59-3.75-4.58
		c-1.56-0.89-4.44,0.38-5.94-1.13c-1.35-1.35-1.07-5.28-2.27-7.29c-0.9-1.5-3.35-2.5-4.13-4.43c-0.74-3.28,1.33-4.67,1.45-7.43
		c0.09-2.15-1.89-4.17-1.52-6.12c0.34-1.73,4.93-3.07,5.35-4.7c0.42-1.64-3.33-3.58-2.96-5.2c0.33-1.44,3.14-2.75,3.31-4.22
		c0.18-1.48-2.28-3.13-2.36-4.68c-0.08-1.58,1.42-3.51,0.98-5.22c-0.43-1.68-2.78-3.14-3.65-4.99c-1.12-2.38-2.65-4.92-4.7-7.68
		C1656.72,249.74,1658.88,251.92,1660.87,252.86z"/>
	<circle class="st12" cx="1680.34" cy="414.95" r="74.44"/>
	<g>
		<path class="st17" d="M1713.14,405.99l-0.13-3.62h0.42c0.24,1.01,0.63,1.8,1.16,2.35c0.53,0.55,1.15,0.83,1.86,0.83
			c0.57,0,1.03-0.15,1.37-0.46c0.34-0.31,0.52-0.72,0.52-1.22c0-0.37-0.11-0.7-0.34-0.98c-0.23-0.29-0.62-0.59-1.19-0.93l-1.95-1.11
			c-0.66-0.38-1.14-0.79-1.44-1.23c-0.3-0.44-0.45-0.96-0.45-1.55c0-0.83,0.29-1.51,0.86-2.03c0.57-0.53,1.31-0.79,2.2-0.79
			c0.43,0,0.88,0.07,1.36,0.2c0.48,0.13,0.74,0.2,0.8,0.2c0.1,0,0.19-0.03,0.26-0.1c0.07-0.07,0.13-0.16,0.18-0.28h0.35l0.15,3.13
			h-0.42c-0.15-0.81-0.45-1.44-0.89-1.89c-0.44-0.45-0.98-0.68-1.63-0.68c-0.5,0-0.91,0.14-1.22,0.4c-0.31,0.27-0.47,0.61-0.47,1.02
			c0,0.37,0.12,0.7,0.36,1c0.23,0.3,0.62,0.59,1.15,0.88l1.92,1.04c0.66,0.36,1.15,0.77,1.47,1.24c0.32,0.47,0.48,1.01,0.48,1.63
			c0,0.89-0.3,1.63-0.9,2.21c-0.59,0.58-1.35,0.87-2.28,0.87c-0.44,0-0.96-0.08-1.56-0.23c-0.6-0.15-0.97-0.23-1.12-0.23
			c-0.16,0-0.27,0.03-0.36,0.08c-0.08,0.05-0.13,0.14-0.16,0.26H1713.14L1713.14,405.99z M1693.65,405.86v-0.41
			c0.64-0.03,1.06-0.15,1.26-0.35c0.21-0.2,0.31-0.66,0.31-1.38v-10.82c0-0.66-0.07-1.06-0.22-1.21c-0.14-0.15-0.44-0.22-0.9-0.22
			h-0.36v-0.42c0.39-0.06,0.86-0.17,1.43-0.34c0.57-0.17,1.23-0.4,1.98-0.69v13.8c0,0.63,0.1,1.06,0.3,1.27
			c0.2,0.22,0.61,0.33,1.2,0.35v0.41H1693.65L1693.65,405.86z M1686.59,405.86v-0.41c0.64-0.03,1.06-0.15,1.26-0.35
			c0.21-0.2,0.31-0.66,0.31-1.38v-10.82c0-0.66-0.07-1.06-0.22-1.21c-0.14-0.15-0.44-0.22-0.9-0.22h-0.35v-0.42
			c0.39-0.06,0.86-0.17,1.43-0.34c0.57-0.17,1.23-0.4,1.98-0.69v13.8c0,0.63,0.1,1.06,0.3,1.27c0.2,0.22,0.61,0.33,1.21,0.35v0.41
			H1686.59L1686.59,405.86z M1681.05,391.35c0-0.34,0.12-0.63,0.35-0.87c0.23-0.24,0.53-0.35,0.88-0.35c0.34,0,0.63,0.12,0.86,0.36
			c0.24,0.24,0.36,0.53,0.36,0.86c0,0.34-0.12,0.63-0.36,0.87c-0.24,0.24-0.52,0.36-0.86,0.36c-0.34,0-0.63-0.12-0.87-0.36
			C1681.17,391.98,1681.05,391.69,1681.05,391.35L1681.05,391.35z M1679.59,405.86l0.01-0.42c0.64-0.02,1.06-0.14,1.26-0.34
			c0.21-0.2,0.31-0.66,0.31-1.38v-5.65c0-0.67-0.07-1.08-0.21-1.22c-0.14-0.14-0.44-0.21-0.89-0.21h-0.36v-0.42
			c0.4-0.06,0.89-0.17,1.46-0.34c0.58-0.17,1.22-0.39,1.94-0.66v8.59c0,0.66,0.1,1.09,0.3,1.3c0.21,0.21,0.6,0.31,1.18,0.32v0.42
			H1679.59L1679.59,405.86z M1660.4,405.86v-0.41c0.61-0.03,1.02-0.14,1.22-0.34c0.2-0.2,0.31-0.56,0.31-1.1v-5.59
			c0-0.73-0.08-1.2-0.26-1.38c-0.17-0.19-0.53-0.29-1.06-0.29h-0.22v-0.42c0.64-0.11,1.25-0.26,1.83-0.45
			c0.59-0.19,1.13-0.41,1.63-0.67v1.82c0.63-0.6,1.23-1.04,1.78-1.33c0.56-0.28,1.09-0.43,1.6-0.43c0.61,0,1.13,0.16,1.56,0.47
			c0.43,0.31,0.75,0.76,0.93,1.33c0.84-0.67,1.53-1.14,2.07-1.4c0.53-0.26,1.03-0.39,1.49-0.39c0.96,0,1.65,0.27,2.08,0.83
			c0.42,0.55,0.64,1.47,0.64,2.77v4.84c0,0.79,0.09,1.27,0.27,1.44c0.18,0.17,0.58,0.26,1.22,0.27v0.42h-5.06l0.01-0.42
			c0.69-0.02,1.14-0.11,1.34-0.26c0.2-0.15,0.3-0.52,0.3-1.1v-5.59c0-0.58-0.16-1.03-0.49-1.34c-0.33-0.32-0.78-0.48-1.37-0.48
			c-0.37,0-0.74,0.08-1.1,0.26c-0.36,0.17-0.76,0.46-1.21,0.86v6.17c0,0.64,0.1,1.04,0.3,1.22c0.19,0.18,0.61,0.27,1.26,0.27v0.42
			h-5.1l0.01-0.42c0.67-0.04,1.11-0.13,1.32-0.29c0.21-0.15,0.31-0.45,0.31-0.9v-5.7c0-0.6-0.15-1.06-0.46-1.39
			c-0.3-0.33-0.73-0.49-1.29-0.49c-0.38,0-0.76,0.09-1.15,0.28c-0.39,0.19-0.81,0.48-1.25,0.88v6.28c0,0.53,0.1,0.89,0.3,1.06
			c0.19,0.17,0.61,0.27,1.26,0.29v0.41H1660.4L1660.4,405.86z M1635.91,406.17l-0.84-4.89h0.46c0.53,1.3,1.2,2.32,2,3.05
			c0.8,0.73,1.67,1.09,2.58,1.09c0.8,0,1.48-0.26,2.03-0.77c0.54-0.52,0.82-1.16,0.82-1.93c0-0.57-0.18-1.09-0.54-1.58
			c-0.37-0.49-0.93-0.95-1.69-1.4l-2.37-1.43c-1.02-0.6-1.75-1.22-2.2-1.85c-0.45-0.63-0.67-1.36-0.67-2.18
			c0-1.15,0.41-2.1,1.23-2.83c0.82-0.73,1.89-1.1,3.21-1.1c0.61,0,1.26,0.11,1.95,0.34c0.69,0.23,1.1,0.34,1.23,0.34
			c0.16,0,0.29-0.06,0.39-0.17c0.1-0.12,0.16-0.28,0.19-0.52h0.4l0.5,4.58h-0.46c-0.44-1.24-1-2.19-1.69-2.83
			c-0.69-0.65-1.48-0.98-2.36-0.98c-0.75,0-1.36,0.21-1.83,0.64c-0.48,0.43-0.71,0.97-0.71,1.64c0,0.52,0.16,0.99,0.49,1.42
			c0.33,0.43,0.89,0.88,1.68,1.36l2.63,1.55c1.08,0.65,1.83,1.29,2.26,1.92c0.43,0.63,0.65,1.38,0.65,2.25
			c0,1.31-0.44,2.35-1.32,3.13c-0.88,0.78-2.06,1.17-3.55,1.17c-0.69,0-1.41-0.1-2.14-0.3c-0.74-0.2-1.14-0.3-1.21-0.3
			c-0.2,0-0.37,0.04-0.49,0.14c-0.12,0.09-0.2,0.23-0.23,0.42H1635.91L1635.91,406.17z M1707.17,404.65
			c-0.61,0.48-1.2,0.83-1.76,1.06c-0.56,0.23-1.09,0.34-1.61,0.34c-0.78,0-1.39-0.22-1.86-0.66c-0.46-0.44-0.69-1.03-0.69-1.77
			c0-0.93,0.41-1.71,1.23-2.35c0.83-0.64,2.36-1.32,4.62-2.03v-1.19c0-0.83-0.14-1.4-0.4-1.73c-0.27-0.33-0.73-0.49-1.39-0.49
			c-0.48,0-0.89,0.12-1.23,0.36c-0.34,0.24-0.5,0.52-0.5,0.85c0,0.03,0.01,0.12,0.04,0.29c0.03,0.16,0.04,0.31,0.04,0.43
			c0,0.27-0.1,0.5-0.29,0.68c-0.19,0.18-0.43,0.27-0.72,0.27c-0.31,0-0.56-0.1-0.74-0.29c-0.19-0.19-0.28-0.45-0.28-0.78
			c0-0.62,0.36-1.17,1.1-1.63c0.73-0.46,1.62-0.69,2.67-0.69c1.24,0,2.14,0.27,2.72,0.81c0.58,0.54,0.87,1.39,0.87,2.54v5.09
			c0,0.38,0.05,0.65,0.15,0.81c0.1,0.16,0.26,0.24,0.48,0.24c0.17,0,0.32-0.03,0.45-0.09c0.13-0.06,0.28-0.17,0.45-0.33l0.27,0.3
			c-0.31,0.43-0.67,0.77-1.06,1c-0.4,0.24-0.79,0.35-1.18,0.35c-0.36,0-0.65-0.11-0.87-0.33
			C1707.46,405.5,1707.29,405.15,1707.17,404.65L1707.17,404.65z M1707.1,403.78v-3.94c-1.39,0.47-2.4,0.96-3.02,1.46
			c-0.62,0.51-0.93,1.09-0.93,1.76c0,0.55,0.17,1.01,0.52,1.37c0.34,0.37,0.77,0.55,1.28,0.55c0.42,0,0.83-0.11,1.23-0.33
			C1706.57,404.43,1706.88,404.14,1707.1,403.78L1707.1,403.78z M1651.34,406.13c1.91,0.06,3.38-0.49,4.39-1.51
			c0.83-0.83,1.47-1.8,1.98-2.84c1.3-2.62,1.86-5.58,2.89-8.31c0.43-1.15,0.93-2.34,1.49-3.46c0.84-1.68,1.94-3.6,3.56-4.64
			c0.47-0.3,1.94,1.02,2.92,1.34c0.95,0.3,2.18-1.06,3.34-0.96c1.05,0.09,2.01,1.66,3.24,1.44c1.1-0.2,2.28-2.19,3.53-2.76
			c0.94-0.42,2.45-0.09,3.47-0.76c1.45-1.33,0.91-2.7,1.78-4.07c0.67-1.07,2.31-1.38,2.77-2.45c0.41-0.95-1.36-3.12-1.01-4.05
			c0.34-0.93,2.8-0.62,3.16-1.52c0.32-0.8-0.6-2.37-0.19-3.14c0.41-0.77,2.14-0.75,2.7-1.47c0.56-0.74,0.48-2.17,1.26-2.85
			c0.77-0.67,2.39-0.59,3.43-1.19c1.34-0.78,2.92-1.49,4.83-2.14c-1.23-0.28-3,0.05-4.27-0.16c-0.99-0.16-1.47-0.88-2.48-0.99
			c-0.89-0.1-1.74,0.91-2.64,0.85c-0.9-0.06-1.86-1.19-2.77-1.21c-0.81-0.02-1.3,1.2-2.1,1.21c-0.8,0.02-1.92-1.16-2.71-1.11
			c-0.75,0.05-0.93,1.45-1.68,1.53c-0.96,0.11-2.48-1.09-3.41-0.93c-0.9,0.16-0.93,1.61-1.8,1.82c-0.87,0.21-2.57-0.82-3.4-0.56
			c-1.06,0.34-0.95,1.94-1.93,2.38c-0.76,0.34-2.63-0.51-3.34-0.11c-0.57,0.32-1.43,2.53-1.96,2.9c-1.32,0.9-2.16,0.13-3.11,1.37
			c-0.41,0.54,0.8,1.47,0.46,2.06c-0.43,0.76-2.39,1.19-2.69,2.01c-0.35,0.96,1.11,1.88,0.96,2.88c-0.12,0.78-1.91,1.65-1.9,2.43
			c0.01,0.78,0.08,1.56,0.22,2.32c0.4,2.12,1.24,3.93,3.46,2.44c0.17-0.11,0.32-0.35,0.46-0.63c0.82-1.62,2.01-2.79,3.16-4.16
			c0.16-3.3,0.88-5.61-0.56-8.68c2.42,3.3,3.05,3.28,1.67,7.36c1.09-1.23,2.19-2.21,3.36-3.11c0.76-2.4,1.64-4.12,1.1-6.76
			c1.22,2.93,1.77,3.3,0.4,5.65c1.67-1.18,3.35-2.48,5.14-3.45c0.74-1.59,1.26-2.42,1.17-4.55c0.58,2.43,1.29,2.46,0.17,3.88
			c2.49-1.16,5.54-2.24,6.87-2.78c-1.89,1.46-3.58,2.66-5.14,3.7c1.48-0.12,1.27,0.53,2.95,2.19c-1.69-1.12-2.66-1.17-4.25-1.33
			c-1.63,1.06-3.1,1.99-4.5,2.94c2.38-0.7,2.68-0.07,5.19,1.7c-2.52-1.13-4.42-0.6-7.03-0.39c-1.2,0.9-2.36,1.88-3.53,3.05
			c3.98-0.31,4.09,0.5,6.7,3.49c-2.41-1.87-4.77-2.04-7.65-2.51c-1.5,1.63-3.26,3.37-4.63,5.3c-0.5,0.71-1.01,1.42-1.51,2.15
			c-1.58,2.3-2.89,4.64-3.87,7.25c-0.74,1.99-1.42,4.02-2.07,6.05c-0.3,0.94-0.58,1.82-0.89,2.6c-0.63,1.61-1.39,2.8-2.69,3.3
			c-0.43,0.16-0.92,0.25-1.49,0.25c-1.13,0-2.03-0.44-2.71-1.3c-0.68-0.87-1.02-2.04-1.02-3.5v-0.24h7.11
			c-0.08-1.27-0.47-2.27-1.18-2.99c-0.71-0.72-1.64-1.08-2.79-1.08c-1.43,0-2.58,0.52-3.47,1.56c-0.89,1.04-1.33,2.41-1.33,4.11
			c0,1.54,0.41,2.79,1.23,3.75C1648.97,405.65,1650.04,406.09,1651.34,406.13L1651.34,406.13z M1648.66,398.71
			c0.09-0.87,0.37-1.54,0.83-2.02c0.46-0.48,1.06-0.72,1.79-0.72c0.64,0,1.17,0.22,1.59,0.67c0.42,0.44,0.62,1,0.62,1.68
			c0,0.16-0.03,0.27-0.08,0.32c-0.06,0.05-0.23,0.08-0.5,0.08L1648.66,398.71z"/>
		<path class="st17" d="M1635.99,411.13c2.12,0,4.49-0.06,7.1-0.19c2.61-0.12,4.18-0.18,4.68-0.18c2.74,0,4.81,0.59,6.23,1.76
			c1.41,1.17,2.11,2.9,2.11,5.17c0,2.23-0.69,4.21-2.09,5.95c-1.4,1.73-3.44,3.17-6.14,4.3l7.75,10.81
			c1.29,1.78,2.48,3.27,3.56,4.46c1.08,1.18,2.06,2.09,2.93,2.68H1657c-0.69,0-1.22-0.09-1.58-0.28c-0.36-0.18-0.74-0.56-1.15-1.12
			l-9.26-13.03c-0.68-0.96-1.3-1.58-1.88-1.88c-0.59-0.3-1.34-0.45-2.25-0.45h-0.43v3.31c0,5.31,0.1,8.75,0.31,10.29
			c0.2,1.55,0.54,2.59,1.04,3.16h-7.36c0.5-0.53,0.84-1.74,1.04-3.65c0.21-1.91,0.31-5.99,0.31-12.23v-2.22
			c0-6.81-0.1-11.16-0.31-13.04c-0.2-1.88-0.54-3.08-1.04-3.61H1635.99L1635.99,411.13z M1640.45,427.02
			c0.32,0.06,0.66,0.12,1.03,0.15c0.37,0.04,0.79,0.05,1.25,0.05c2.63,0,4.64-0.69,6.06-2.07c1.41-1.37,2.11-3.34,2.11-5.9
			c0-2.13-0.54-3.72-1.62-4.76c-1.07-1.04-2.71-1.56-4.92-1.56c-0.86,0-1.54,0.01-2.02,0.04c-0.48,0.03-0.95,0.07-1.38,0.13
			c-0.18,0.78-0.31,2.01-0.39,3.69c-0.08,1.69-0.12,4.08-0.12,7.17v0.58V427.02L1640.45,427.02z M1669.07,424.52v1.3h1.45
			c3.25,0,5.74-0.63,7.46-1.91c1.73-1.27,2.58-3.09,2.58-5.45c0-1.81-0.66-3.16-1.97-4.07c-1.32-0.91-3.28-1.36-5.89-1.36
			c-0.48,0-0.98,0.01-1.5,0.04c-0.52,0.03-1.07,0.07-1.63,0.13c-0.18,0.76-0.31,1.98-0.39,3.65c-0.08,1.68-0.12,4.08-0.12,7.2
			V424.52L1669.07,424.52z M1669.07,427.84v6.67c0,1.98,0.05,3.75,0.14,5.3c0.08,1.56,0.19,2.57,0.32,3.01
			c0.12,0.44,0.56,0.79,1.32,1.03c0.76,0.24,1.76,0.37,2.99,0.37c2.57,0,4.55-0.72,5.96-2.17c1.41-1.45,2.11-3.48,2.11-6.09
			c0-2.57-0.81-4.57-2.45-5.99c-1.63-1.42-3.96-2.13-6.98-2.13H1669.07L1669.07,427.84z M1666.74,445.89h-3.68
			c0.5-0.53,0.84-1.74,1.04-3.65c0.21-1.91,0.31-5.98,0.31-12.23v-2.22c0-6.81-0.1-11.16-0.31-13.04c-0.2-1.88-0.54-3.08-1.04-3.61
			h4.55c1.18,0,2.87-0.06,5.04-0.19c2.18-0.12,3.78-0.18,4.78-0.18c2.65,0,4.7,0.57,6.15,1.72c1.46,1.15,2.19,2.77,2.19,4.85
			c0,1.95-0.71,3.68-2.13,5.17c-1.42,1.49-3.52,2.72-6.29,3.67c3.24,0.37,5.73,1.37,7.49,3.01c1.76,1.63,2.65,3.75,2.65,6.36
			c0,3.18-1.19,5.76-3.59,7.72c-2.39,1.97-5.58,2.96-9.57,2.96c-0.98,0-2.3-0.05-3.99-0.16
			C1668.66,445.95,1667.46,445.89,1666.74,445.89L1666.74,445.89z M1718.54,411.13l-0.32,7.45c-0.78-1.89-1.86-3.31-3.25-4.27
			c-1.4-0.95-3.09-1.43-5.09-1.43c-3.88,0-6.92,1.28-9.14,3.84c-2.21,2.56-3.33,6.09-3.33,10.59c0,4.64,1.21,8.33,3.64,11.09
			c2.42,2.76,5.67,4.13,9.72,4.13c1.92,0,3.72-0.37,5.39-1.11c1.67-0.74,3.11-1.81,4.33-3.18c-0.63,2.52-2.06,4.54-4.27,6.05
			c-2.21,1.51-4.88,2.27-7.98,2.27c-4.74,0-8.61-1.65-11.65-4.95c-3.04-3.3-4.55-7.55-4.55-12.73c0-5.74,1.64-10.23,4.9-13.49
			c3.26-3.25,7.77-4.88,13.53-4.88c0.9,0,2.24,0.11,4.03,0.32C1716.3,411.03,1717.64,411.13,1718.54,411.13z"/>
		<g>
			<path class="st17" d="M1725.25,410.76L1725.25,410.76L1725.25,410.76c1.21,0,2.3,0.49,3.09,1.28c0.79,0.79,1.28,1.88,1.28,3.09h0
				v0v0h0c0,1.21-0.49,2.3-1.28,3.09c-0.79,0.79-1.88,1.28-3.09,1.28v0h0h0v0c-1.21,0-2.3-0.49-3.09-1.28
				c-0.79-0.79-1.28-1.88-1.28-3.09h0v0v0h0c0-1.21,0.49-2.3,1.28-3.09h0C1722.95,411.25,1724.04,410.76,1725.25,410.76
				L1725.25,410.76L1725.25,410.76L1725.25,410.76z M1725.25,411.55L1725.25,411.55L1725.25,411.55L1725.25,411.55L1725.25,411.55
				c-0.99,0-1.89,0.4-2.54,1.05h0c-0.65,0.65-1.05,1.55-1.05,2.53h0v0v0h0c0,0.99,0.4,1.89,1.05,2.54c0.65,0.65,1.55,1.05,2.53,1.05
				v0h0h0v0c0.99,0,1.89-0.4,2.54-1.05c0.65-0.65,1.05-1.54,1.05-2.53h0v0v0h0c0-0.99-0.4-1.88-1.05-2.54
				C1727.14,411.95,1726.24,411.55,1725.25,411.55z"/>
			<path class="st17" d="M1723.57,417.27V413h1.81c0.46,0,0.79,0.04,0.99,0.12c0.21,0.08,0.37,0.21,0.5,0.41
				c0.12,0.2,0.19,0.42,0.19,0.67c0,0.32-0.09,0.58-0.28,0.79c-0.19,0.21-0.47,0.34-0.84,0.39c0.19,0.11,0.34,0.23,0.46,0.36
				c0.12,0.13,0.28,0.36,0.49,0.69l0.52,0.83h-1.03l-0.62-0.93c-0.22-0.33-0.37-0.54-0.45-0.63c-0.08-0.09-0.17-0.15-0.26-0.18
				c-0.09-0.03-0.24-0.05-0.43-0.05h-0.17v1.78H1723.57L1723.57,417.27z M1724.43,414.81h0.64c0.41,0,0.67-0.02,0.77-0.05
				c0.1-0.03,0.18-0.1,0.24-0.18c0.06-0.09,0.09-0.19,0.09-0.32c0-0.14-0.04-0.26-0.12-0.35c-0.08-0.09-0.18-0.14-0.32-0.17
				c-0.07-0.01-0.28-0.01-0.63-0.01h-0.67V414.81z"/>
		</g>
		<g>
			<path class="st0" d="M1697.34,452.84l0.79-0.07c0.04,0.32,0.13,0.58,0.26,0.78c0.14,0.2,0.35,0.37,0.64,0.49
				c0.29,0.13,0.61,0.19,0.97,0.19c0.32,0,0.6-0.05,0.85-0.14c0.25-0.1,0.43-0.23,0.55-0.39c0.12-0.17,0.18-0.35,0.18-0.54
				c0-0.2-0.06-0.37-0.17-0.52c-0.12-0.15-0.31-0.27-0.57-0.37c-0.17-0.07-0.55-0.17-1.13-0.31c-0.58-0.14-0.99-0.27-1.22-0.4
				c-0.3-0.16-0.53-0.36-0.68-0.59c-0.15-0.23-0.22-0.5-0.22-0.79c0-0.32,0.09-0.62,0.27-0.9c0.18-0.28,0.45-0.49,0.8-0.63
				c0.35-0.14,0.74-0.22,1.16-0.22c0.47,0,0.89,0.08,1.24,0.23c0.36,0.15,0.64,0.37,0.83,0.67c0.19,0.29,0.3,0.63,0.31,1l-0.81,0.06
				c-0.04-0.4-0.19-0.7-0.44-0.91c-0.25-0.2-0.62-0.31-1.11-0.31c-0.51,0-0.88,0.09-1.11,0.28c-0.23,0.19-0.35,0.41-0.35,0.67
				c0,0.23,0.08,0.42,0.25,0.56c0.16,0.15,0.58,0.3,1.27,0.45c0.68,0.15,1.15,0.29,1.4,0.4c0.37,0.17,0.64,0.39,0.82,0.65
				c0.18,0.26,0.26,0.56,0.26,0.9c0,0.34-0.1,0.66-0.29,0.95c-0.19,0.3-0.47,0.53-0.83,0.7c-0.36,0.17-0.77,0.25-1.22,0.25
				c-0.57,0-1.06-0.08-1.44-0.25c-0.39-0.17-0.69-0.42-0.91-0.76C1697.47,453.65,1697.35,453.27,1697.34,452.84z"/>
			<path class="st0" d="M1703.66,454.88v-0.89h0.89v0.89H1703.66z"/>
			<path class="st0" d="M1705.3,454.88l2.44-6.34h0.9l2.6,6.34h-0.96l-0.74-1.92h-2.65l-0.7,1.92H1705.3z M1707.13,452.28h2.15
				l-0.66-1.76c-0.2-0.53-0.35-0.97-0.45-1.32c-0.08,0.41-0.2,0.81-0.34,1.21L1707.13,452.28z"/>
			<path class="st0" d="M1712.03,454.88v-0.89h0.89v0.89H1712.03z"/>
			<path class="st0" d="M1714.09,452.84l0.79-0.07c0.04,0.32,0.12,0.58,0.26,0.78c0.14,0.2,0.35,0.37,0.64,0.49
				c0.29,0.13,0.61,0.19,0.97,0.19c0.32,0,0.6-0.05,0.85-0.14c0.25-0.1,0.43-0.23,0.55-0.39c0.12-0.17,0.18-0.35,0.18-0.54
				c0-0.2-0.06-0.37-0.17-0.52c-0.12-0.15-0.31-0.27-0.57-0.37c-0.17-0.07-0.55-0.17-1.13-0.31c-0.58-0.14-0.99-0.27-1.22-0.4
				c-0.3-0.16-0.53-0.36-0.68-0.59c-0.15-0.23-0.22-0.5-0.22-0.79c0-0.32,0.09-0.62,0.27-0.9c0.18-0.28,0.45-0.49,0.8-0.63
				c0.35-0.14,0.74-0.22,1.16-0.22c0.47,0,0.89,0.08,1.24,0.23c0.36,0.15,0.64,0.37,0.83,0.67c0.19,0.29,0.3,0.63,0.31,1l-0.81,0.06
				c-0.04-0.4-0.19-0.7-0.44-0.91c-0.25-0.2-0.62-0.31-1.11-0.31c-0.51,0-0.88,0.09-1.11,0.28c-0.23,0.19-0.35,0.41-0.35,0.67
				c0,0.23,0.08,0.42,0.25,0.56c0.16,0.15,0.58,0.3,1.27,0.45c0.68,0.15,1.15,0.29,1.4,0.4c0.37,0.17,0.64,0.39,0.82,0.65
				c0.18,0.26,0.26,0.56,0.26,0.9c0,0.34-0.1,0.66-0.29,0.95c-0.19,0.3-0.47,0.53-0.83,0.7c-0.36,0.17-0.77,0.25-1.22,0.25
				c-0.57,0-1.06-0.08-1.44-0.25c-0.39-0.17-0.69-0.42-0.91-0.76C1714.22,453.65,1714.1,453.27,1714.09,452.84z"/>
		</g>
	</g>
</g>
</svg>
